<svg width="84" height="84" viewBox="0 0 84 84" fill="none" xmlns="http://www.w3.org/2000/svg">
<g filter="url(#filter0_d_1_294)">
<rect x="10" y="6" width="64" height="64" rx="16" fill="#08A202"/>
</g>
<mask id="mask0_1_294" style="mask-type:alpha" maskUnits="userSpaceOnUse" x="26" y="21" width="33" height="33">
<rect x="26.4816" y="21.5036" width="32" height="32" fill="#D9D9D9"/>
</mask>
<g mask="url(#mask0_1_294)">
<path d="M50.8483 32.2035C50.7372 32.2035 50.6318 32.1755 50.5323 32.1195C50.4318 32.0644 50.3594 31.9702 50.315 31.8369L49.515 30.1702L47.8483 29.3702C47.715 29.3258 47.6203 29.2533 47.5643 29.1529C47.5092 29.0533 47.4816 28.948 47.4816 28.8369C47.4816 28.7258 47.5092 28.62 47.5643 28.5195C47.6203 28.42 47.715 28.348 47.8483 28.3035L49.515 27.5035L50.315 25.8369C50.3594 25.7035 50.4318 25.6089 50.5323 25.5529C50.6318 25.4978 50.7372 25.4702 50.8483 25.4702C50.9594 25.4702 51.0705 25.4978 51.1816 25.5529C51.2927 25.6089 51.3705 25.7035 51.415 25.8369L52.2149 27.5035L53.8816 28.3035C53.9927 28.348 54.0816 28.42 54.1483 28.5195C54.215 28.62 54.2483 28.7258 54.2483 28.8369C54.2483 28.948 54.215 29.0533 54.1483 29.1529C54.0816 29.2533 53.9927 29.3258 53.8816 29.3702L52.2149 30.1702L51.415 31.8369C51.3705 31.9702 51.2927 32.0644 51.1816 32.1195C51.0705 32.1755 50.9594 32.2035 50.8483 32.2035ZM53.5149 41.7702C53.4038 41.7702 53.2985 41.7422 53.1989 41.6862C53.0985 41.6311 53.0261 41.548 52.9816 41.4369L52.5483 40.5035L51.615 40.0702C51.5483 40.0258 51.4261 39.8369 51.2483 39.5035C51.2483 39.3924 51.2816 39.2867 51.3483 39.1862C51.4149 39.0867 51.5038 39.0035 51.615 38.9369L52.5483 38.5035L52.9816 37.5702C53.0261 37.5035 53.2038 37.3924 53.5149 37.2369C53.6261 37.2369 53.7372 37.2644 53.8483 37.3195C53.9594 37.3755 54.0372 37.4591 54.0816 37.5702L54.5149 38.5035L55.4483 38.9369C55.5149 38.9813 55.6261 39.1702 55.7816 39.5035C55.7816 39.6147 55.7541 39.7204 55.6989 39.8209C55.643 39.9204 55.5594 40.0035 55.4483 40.0702L54.5149 40.5035L54.0816 41.4369C54.0594 41.5035 53.8705 41.6147 53.5149 41.7702ZM37.8483 50.1702C37.5372 50.1702 37.2705 50.0702 37.0483 49.8702C36.8261 49.6702 36.6927 49.4147 36.6483 49.1035L36.415 47.2369C36.1483 47.148 35.8763 47.02 35.599 46.8529C35.3207 46.6867 35.1038 46.5147 34.9483 46.3369L33.215 47.1035C32.9261 47.2147 32.6372 47.2258 32.3483 47.1369C32.0594 47.048 31.8372 46.8702 31.6816 46.6035L30.015 43.6702C29.8594 43.4035 29.8096 43.1258 29.8656 42.8369C29.9207 42.548 30.0816 42.3035 30.3483 42.1035L31.8483 41.0035C31.8038 40.6924 31.7816 40.4147 31.7816 40.1702C31.7816 39.9258 31.8038 39.648 31.8483 39.3369L30.3483 38.2369C30.0816 38.0369 29.9207 37.7924 29.8656 37.5035C29.8096 37.2147 29.8594 36.9369 30.015 36.6702L31.6816 33.7369C31.8372 33.4702 32.0594 33.2924 32.3483 33.2035C32.6372 33.1147 32.9261 33.1258 33.215 33.2369L34.9483 34.0035C35.1038 33.8258 35.3207 33.6533 35.599 33.4862C35.8763 33.32 36.1483 33.1924 36.415 33.1035L36.6483 31.2369C36.6927 30.9258 36.8261 30.6702 37.0483 30.4702C37.2705 30.2702 37.5372 30.1702 37.8483 30.1702H41.215C41.5261 30.1702 41.787 30.2702 41.9976 30.4702C42.2092 30.6702 42.3372 30.9258 42.3816 31.2369L42.6483 33.1035C42.8927 33.1924 43.1541 33.32 43.4323 33.4862C43.7096 33.6533 43.9372 33.8258 44.115 34.0035L45.8483 33.2369C46.1372 33.1258 46.4261 33.1147 46.715 33.2035C47.0038 33.2924 47.2261 33.4702 47.3816 33.7369L49.0483 36.6702C49.2038 36.9369 49.2483 37.2147 49.1816 37.5035C49.115 37.7924 48.9594 38.0369 48.715 38.2369L47.215 39.3369C47.2594 39.648 47.2816 39.9258 47.2816 40.1702C47.2816 40.4147 47.2594 40.6924 47.215 41.0035L48.715 42.1035C48.9594 42.3035 49.115 42.548 49.1816 42.8369C49.2483 43.1258 49.2038 43.4035 49.0483 43.6702L47.3816 46.6035C47.2261 46.8702 47.0038 47.048 46.715 47.1369C46.4261 47.2258 46.1372 47.2147 45.8483 47.1035L44.115 46.3369C43.9372 46.5147 43.7096 46.6867 43.4323 46.8529C43.1541 47.02 42.8927 47.148 42.6483 47.2369L42.3816 49.1035C42.3372 49.4147 42.2092 49.6702 41.9976 49.8702C41.787 50.0702 41.5261 50.1702 41.215 50.1702H37.8483ZM39.515 43.8035C40.5372 43.8035 41.4038 43.448 42.115 42.7369C42.8261 42.0258 43.1816 41.1702 43.1816 40.1702C43.1816 39.1702 42.8261 38.3147 42.115 37.6035C41.4038 36.8924 40.5372 36.5369 39.515 36.5369C38.515 36.5369 37.6594 36.8924 36.9483 37.6035C36.2372 38.3147 35.8816 39.1702 35.8816 40.1702C35.8816 41.1702 36.2372 42.0258 36.9483 42.7369C37.6594 43.448 38.515 43.8035 39.515 43.8035Z" fill="white"/>
</g>
<defs>
<filter id="filter0_d_1_294" x="0" y="0" width="84" height="84" filterUnits="userSpaceOnUse" color-interpolation-filters="sRGB">
<feFlood flood-opacity="0" result="BackgroundImageFix"/>
<feColorMatrix in="SourceAlpha" type="matrix" values="0 0 0 0 0 0 0 0 0 0 0 0 0 0 0 0 0 0 127 0" result="hardAlpha"/>
<feOffset dy="4"/>
<feGaussianBlur stdDeviation="5"/>
<feComposite in2="hardAlpha" operator="out"/>
<feColorMatrix type="matrix" values="0 0 0 0 0.196078 0 0 0 0 0.756863 0 0 0 0 0.407843 0 0 0 0.15 0"/>
<feBlend mode="normal" in2="BackgroundImageFix" result="effect1_dropShadow_1_294"/>
<feBlend mode="normal" in="SourceGraphic" in2="effect1_dropShadow_1_294" result="shape"/>
</filter>
</defs>
</svg>
