<svg width="84" height="84" viewBox="0 0 84 84" fill="none" xmlns="http://www.w3.org/2000/svg">
<g filter="url(#filter0_d_1_284)">
<rect x="10" y="6" width="64" height="64" rx="16" fill="#08A202"/>
</g>
<mask id="mask0_1_284" style="mask-type:alpha" maskUnits="userSpaceOnUse" x="26" y="21" width="33" height="33">
<rect x="26.4124" y="21.5383" width="32" height="32" fill="#D9D9D9"/>
</mask>
<g mask="url(#mask0_1_284)">
<path d="M53.079 39.8716C52.4346 39.8716 51.8848 39.644 51.4297 39.1889C50.9737 38.7329 50.7457 38.1827 50.7457 37.5383C50.7457 36.8938 50.9737 36.3436 51.4297 35.8876C51.8848 35.4325 52.4346 35.2049 53.079 35.2049C53.7235 35.2049 54.2737 35.4325 54.7297 35.8876C55.1848 36.3436 55.4124 36.8938 55.4124 37.5383C55.4124 38.1827 55.1848 38.7329 54.7297 39.1889C54.2737 39.644 53.7235 39.8716 53.079 39.8716ZM31.7457 39.8716C31.1012 39.8716 30.5515 39.644 30.0964 39.1889C29.6404 38.7329 29.4124 38.1827 29.4124 37.5383C29.4124 36.8938 29.6404 36.3436 30.0964 35.8876C30.5515 35.4325 31.1012 35.2049 31.7457 35.2049C32.3901 35.2049 32.9404 35.4325 33.3964 35.8876C33.8515 36.3436 34.079 36.8938 34.079 37.5383C34.079 38.1827 33.8515 38.7329 33.3964 39.1889C32.9404 39.644 32.3901 39.8716 31.7457 39.8716ZM42.4124 50.5383C41.7679 50.5383 41.2177 50.3107 40.7617 49.8556C40.3066 49.3996 40.079 48.8494 40.079 48.2049C40.079 47.5605 40.3066 47.0103 40.7617 46.5543C41.2177 46.0992 41.7679 45.8716 42.4124 45.8716C43.0568 45.8716 43.607 46.0992 44.063 46.5543C44.5181 47.0103 44.7457 47.5605 44.7457 48.2049C44.7457 48.8494 44.5181 49.3996 44.063 49.8556C43.607 50.3107 43.0568 50.5383 42.4124 50.5383ZM46.179 33.7383C45.979 33.5383 45.879 33.2938 45.879 33.0049C45.879 32.716 45.979 32.4827 46.179 32.3049L50.179 28.3716C50.379 28.1938 50.6124 28.0992 50.879 28.0876C51.1457 28.0769 51.379 28.1716 51.579 28.3716C51.779 28.5716 51.879 28.8103 51.879 29.0876C51.879 29.3658 51.779 29.5938 51.579 29.7716L47.6124 33.7383C47.4124 33.916 47.1737 34.0049 46.8964 34.0049C46.6181 34.0049 46.379 33.916 46.179 33.7383ZM37.2457 33.7049L33.3124 29.7716C33.1346 29.5938 33.0404 29.3658 33.0297 29.0876C33.0181 28.8103 33.1124 28.5716 33.3124 28.3716C33.5124 28.1716 33.7457 28.0716 34.0124 28.0716C34.279 28.0716 34.5124 28.1716 34.7124 28.3716L38.6457 32.3049C38.8235 32.4827 38.9177 32.7103 38.9284 32.9876C38.9399 33.2658 38.8457 33.5049 38.6457 33.7049C38.4457 33.9049 38.2124 34.0049 37.9457 34.0049C37.679 34.0049 37.4457 33.9049 37.2457 33.7049ZM50.179 46.6383L46.2457 42.7049C46.0679 42.5272 45.9737 42.2992 45.963 42.0209C45.9515 41.7436 46.0457 41.5049 46.2457 41.3049C46.4457 41.1049 46.679 41.0049 46.9457 41.0049C47.2124 41.0049 47.4457 41.1049 47.6457 41.3049L51.579 45.2383C51.7568 45.416 51.851 45.644 51.8617 45.9223C51.8732 46.1996 51.779 46.4383 51.579 46.6383C51.379 46.8383 51.1457 46.9383 50.879 46.9383C50.6124 46.9383 50.379 46.8383 50.179 46.6383ZM33.2457 46.6383C33.0457 46.4383 32.9457 46.2049 32.9457 45.9383C32.9457 45.6716 33.0457 45.4383 33.2457 45.2383L37.179 41.3049C37.3568 41.1272 37.5848 41.0329 37.863 41.0223C38.1404 41.0107 38.379 41.1049 38.579 41.3049C38.779 41.5049 38.879 41.7383 38.879 42.0049C38.879 42.2716 38.779 42.5049 38.579 42.7049L34.6457 46.6383C34.4679 46.816 34.2404 46.9107 33.963 46.9223C33.6848 46.9329 33.4457 46.8383 33.2457 46.6383ZM42.4124 29.2049C41.7679 29.2049 41.2177 28.9769 40.7617 28.5209C40.3066 28.0658 40.079 27.516 40.079 26.8716C40.079 26.2272 40.3066 25.6769 40.7617 25.2209C41.2177 24.7658 41.7679 24.5383 42.4124 24.5383C43.0568 24.5383 43.607 24.7658 44.063 25.2209C44.5181 25.6769 44.7457 26.2272 44.7457 26.8716C44.7457 27.516 44.5181 28.0658 44.063 28.5209C43.607 28.9769 43.0568 29.2049 42.4124 29.2049Z" fill="white"/>
</g>
<defs>
<filter id="filter0_d_1_284" x="0" y="0" width="84" height="84" filterUnits="userSpaceOnUse" color-interpolation-filters="sRGB">
<feFlood flood-opacity="0" result="BackgroundImageFix"/>
<feColorMatrix in="SourceAlpha" type="matrix" values="0 0 0 0 0 0 0 0 0 0 0 0 0 0 0 0 0 0 127 0" result="hardAlpha"/>
<feOffset dy="4"/>
<feGaussianBlur stdDeviation="5"/>
<feComposite in2="hardAlpha" operator="out"/>
<feColorMatrix type="matrix" values="0 0 0 0 0.196078 0 0 0 0 0.756863 0 0 0 0 0.407843 0 0 0 0.15 0"/>
<feBlend mode="normal" in2="BackgroundImageFix" result="effect1_dropShadow_1_284"/>
<feBlend mode="normal" in="SourceGraphic" in2="effect1_dropShadow_1_284" result="shape"/>
</filter>
</defs>
</svg>
