<svg width="84" height="84" viewBox="0 0 84 84" fill="none" xmlns="http://www.w3.org/2000/svg">
<g filter="url(#filter0_d_1_242)">
<rect x="10" y="6" width="64" height="64" rx="16" fill="#08A202"/>
</g>
<mask id="mask0_1_242" style="mask-type:alpha" maskUnits="userSpaceOnUse" x="25" y="21" width="33" height="33">
<rect x="25.8074" y="21.8705" width="32" height="32" fill="#D9D9D9"/>
</mask>
<g mask="url(#mask0_1_242)">
<path d="M37.8074 43.5372C37.3407 43.5372 36.9465 43.3759 36.6247 43.0532C36.302 42.7315 36.1407 42.3372 36.1407 41.8706C36.1407 41.4039 36.302 41.0097 36.6247 40.6879C36.9465 40.3652 37.3407 40.2039 37.8074 40.2039C38.274 40.2039 38.6683 40.3652 38.99 40.6879C39.3127 41.0097 39.474 41.4039 39.474 41.8706C39.474 42.3372 39.3127 42.7315 38.99 43.0532C38.6683 43.3759 38.274 43.5372 37.8074 43.5372ZM45.8074 43.5372C45.3407 43.5372 44.9465 43.3759 44.6247 43.0532C44.302 42.7315 44.1407 42.3372 44.1407 41.8706C44.1407 41.4039 44.302 41.0097 44.6247 40.6879C44.9465 40.3652 45.3407 40.2039 45.8074 40.2039C46.274 40.2039 46.6683 40.3652 46.99 40.6879C47.3127 41.0097 47.474 41.4039 47.474 41.8706C47.474 42.3372 47.3127 42.7315 46.99 43.0532C46.6683 43.3759 46.274 43.5372 45.8074 43.5372ZM41.8074 51.2039C44.7851 51.2039 47.3074 50.1706 49.374 48.1039C51.4407 46.0372 52.474 43.515 52.474 40.5372C52.474 40.0039 52.4407 39.487 52.374 38.9866C52.3074 38.487 52.1851 38.0039 52.0074 37.5372C51.5407 37.6483 51.074 37.7319 50.6074 37.7879C50.1407 37.843 49.6518 37.8706 49.1407 37.8706C47.1185 37.8706 45.2074 37.4372 43.4074 36.5706C41.6074 35.7039 40.074 34.4928 38.8074 32.9372C38.0963 34.6706 37.0798 36.1763 35.758 37.4546C34.4354 38.7319 32.8963 39.6928 31.1407 40.3372V40.5372C31.1407 43.515 32.174 46.0372 34.2407 48.1039C36.3074 50.1706 38.8296 51.2039 41.8074 51.2039ZM41.8074 53.2039C40.0518 53.2039 38.402 52.8706 36.858 52.2039C35.3131 51.5372 33.974 50.6372 32.8407 49.5039C31.7074 48.3706 30.8074 47.0315 30.1407 45.4866C29.474 43.9426 29.1407 42.2928 29.1407 40.5372C29.1407 40.0483 29.1683 39.5595 29.2234 39.0706C29.2794 38.5817 29.374 38.1039 29.5074 37.6372C28.5074 37.0817 27.7074 36.2981 27.1074 35.2866C26.5074 34.2759 26.2074 33.1595 26.2074 31.9372C26.2074 30.0928 26.8518 28.5261 28.1407 27.2372C29.4296 25.9483 30.9963 25.3039 32.8407 25.3039C33.974 25.3039 35.0243 25.5759 35.9914 26.1199C36.9576 26.6648 37.7407 27.4039 38.3407 28.3372C38.8963 28.1817 39.4629 28.0648 40.0407 27.9866C40.6185 27.9092 41.2074 27.8706 41.8074 27.8706C43.5629 27.8706 45.2131 28.2039 46.758 28.8706C48.302 29.5372 49.6407 30.4372 50.774 31.5706C51.9074 32.7039 52.8074 34.0426 53.474 35.5866C54.1407 37.1314 54.474 38.7817 54.474 40.5372C54.474 42.2928 54.1407 43.9426 53.474 45.4866C52.8074 47.0315 51.9074 48.3706 50.774 49.5039C49.6407 50.6372 48.302 51.5372 46.758 52.2039C45.2131 52.8706 43.5629 53.2039 41.8074 53.2039Z" fill="white"/>
</g>
<defs>
<filter id="filter0_d_1_242" x="0" y="0" width="84" height="84" filterUnits="userSpaceOnUse" color-interpolation-filters="sRGB">
<feFlood flood-opacity="0" result="BackgroundImageFix"/>
<feColorMatrix in="SourceAlpha" type="matrix" values="0 0 0 0 0 0 0 0 0 0 0 0 0 0 0 0 0 0 127 0" result="hardAlpha"/>
<feOffset dy="4"/>
<feGaussianBlur stdDeviation="5"/>
<feComposite in2="hardAlpha" operator="out"/>
<feColorMatrix type="matrix" values="0 0 0 0 0.196078 0 0 0 0 0.756863 0 0 0 0 0.407843 0 0 0 0.15 0"/>
<feBlend mode="normal" in2="BackgroundImageFix" result="effect1_dropShadow_1_242"/>
<feBlend mode="normal" in="SourceGraphic" in2="effect1_dropShadow_1_242" result="shape"/>
</filter>
</defs>
</svg>
