<svg width="84" height="84" viewBox="0 0 84 84" fill="none" xmlns="http://www.w3.org/2000/svg">
<g filter="url(#filter0_d_1_232)">
<rect x="10" y="6" width="64" height="64" rx="16" fill="#08A202"/>
</g>
<path d="M46.9309 26.8908C46.8776 27.2241 46.8509 27.5574 46.8509 27.8908C46.8509 30.8908 49.2776 33.3161 52.2642 33.3161C52.5976 33.3161 52.9176 33.2774 53.2509 33.2241V43.9828C53.2509 48.5041 50.5842 51.1841 46.0509 51.1841H36.1989C31.6642 51.1841 28.9976 48.5041 28.9976 43.9828V34.1174C28.9976 29.5841 31.6642 26.8908 36.1989 26.8908H46.9309ZM47.1989 34.9974C46.8376 34.9574 46.4789 35.1174 46.2642 35.4108L43.0389 39.5841L39.3442 36.6774C39.1176 36.5041 38.8509 36.4361 38.5842 36.4641C38.3189 36.5041 38.0789 36.6494 37.9176 36.8628L33.9722 41.9974L33.8909 42.1174C33.6642 42.5428 33.7709 43.0894 34.1709 43.3841C34.3576 43.5041 34.5576 43.5841 34.7842 43.5841C35.0922 43.5974 35.3842 43.4361 35.5709 43.1841L38.9176 38.8761L42.7176 41.7308L42.8376 41.8094C43.2642 42.0361 43.7976 41.9308 44.1042 41.5294L47.9576 36.5574L47.9042 36.5841C48.1176 36.2908 48.1576 35.9174 48.0109 35.5841C47.8656 35.2508 47.5442 35.0241 47.1989 34.9974ZM52.451 24.517C54.2244 24.517 55.6644 25.957 55.6644 27.7304C55.6644 29.5037 54.2244 30.9437 52.451 30.9437C50.6777 30.9437 49.2377 29.5037 49.2377 27.7304C49.2377 25.957 50.6777 24.517 52.451 24.517Z" fill="white"/>
<defs>
<filter id="filter0_d_1_232" x="0" y="0" width="84" height="84" filterUnits="userSpaceOnUse" color-interpolation-filters="sRGB">
<feFlood flood-opacity="0" result="BackgroundImageFix"/>
<feColorMatrix in="SourceAlpha" type="matrix" values="0 0 0 0 0 0 0 0 0 0 0 0 0 0 0 0 0 0 127 0" result="hardAlpha"/>
<feOffset dy="4"/>
<feGaussianBlur stdDeviation="5"/>
<feComposite in2="hardAlpha" operator="out"/>
<feColorMatrix type="matrix" values="0 0 0 0 0.196078 0 0 0 0 0.756863 0 0 0 0 0.407843 0 0 0 0.15 0"/>
<feBlend mode="normal" in2="BackgroundImageFix" result="effect1_dropShadow_1_232"/>
<feBlend mode="normal" in="SourceGraphic" in2="effect1_dropShadow_1_232" result="shape"/>
</filter>
</defs>
</svg>
