<svg width="84" height="84" viewBox="0 0 84 84" fill="none" xmlns="http://www.w3.org/2000/svg">
<g filter="url(#filter0_d_1_274)">
<rect x="10" y="6" width="64" height="64" rx="16" fill="#08A202"/>
</g>
<mask id="mask0_1_274" style="mask-type:alpha" maskUnits="userSpaceOnUse" x="26" y="22" width="33" height="33">
<rect x="26.6995" y="22.0289" width="32" height="32" fill="#D9D9D9"/>
</mask>
<g mask="url(#mask0_1_274)">
<path d="M34.6995 48.4289C34.0328 48.4289 33.4661 48.1956 32.9995 47.7289C32.5328 47.2622 32.2995 46.6956 32.2995 46.0289C32.2995 45.3622 32.5328 44.7956 32.9995 44.3289C33.4661 43.8622 34.0328 43.6289 34.6995 43.6289C35.3661 43.6289 35.9328 43.8622 36.3995 44.3289C36.8661 44.7956 37.0995 45.3622 37.0995 46.0289C37.0995 46.6956 36.8661 47.2622 36.3995 47.7289C35.9328 48.1956 35.3661 48.4289 34.6995 48.4289ZM45.3661 48.4289C44.6995 48.4289 44.1328 48.1956 43.6661 47.7289C43.1995 47.2622 42.9661 46.6956 42.9661 46.0289C42.9661 45.3622 43.1995 44.7956 43.6661 44.3289C44.1328 43.8622 44.6995 43.6289 45.3661 43.6289C46.0328 43.6289 46.5995 43.8622 47.0661 44.3289C47.5328 44.7956 47.7661 45.3622 47.7661 46.0289C47.7661 46.6956 47.5328 47.2622 47.0661 47.7289C46.5995 48.1956 46.0328 48.4289 45.3661 48.4289ZM40.0328 43.0956C39.3661 43.0956 38.7995 42.8622 38.3328 42.3956C37.8661 41.9289 37.6328 41.3622 37.6328 40.6956C37.6328 40.0289 37.8661 39.4622 38.3328 38.9956C38.7995 38.5289 39.3661 38.2956 40.0328 38.2956C40.6995 38.2956 41.2661 38.5289 41.7328 38.9956C42.1995 39.4622 42.4328 40.0289 42.4328 40.6956C42.4328 41.3622 42.1995 41.9289 41.7328 42.3956C41.2661 42.8622 40.6995 43.0956 40.0328 43.0956ZM50.6995 43.0956C50.0328 43.0956 49.4661 42.8622 48.9995 42.3956C48.5328 41.9289 48.2995 41.3622 48.2995 40.6956C48.2995 40.0289 48.5328 39.4622 48.9995 38.9956C49.4661 38.5289 50.0328 38.2956 50.6995 38.2956C51.3661 38.2956 51.9328 38.5289 52.3995 38.9956C52.8661 39.4622 53.0995 40.0289 53.0995 40.6956C53.0995 41.3622 52.8661 41.9289 52.3995 42.3956C51.9328 42.8622 51.3661 43.0956 50.6995 43.0956ZM34.6995 37.7622C34.0328 37.7622 33.4661 37.5289 32.9995 37.0622C32.5328 36.5956 32.2995 36.0289 32.2995 35.3622C32.2995 34.6956 32.5328 34.1289 32.9995 33.6622C33.4661 33.1956 34.0328 32.9622 34.6995 32.9622C35.3661 32.9622 35.9328 33.1956 36.3995 33.6622C36.8661 34.1289 37.0995 34.6956 37.0995 35.3622C37.0995 36.0289 36.8661 36.5956 36.3995 37.0622C35.9328 37.5289 35.3661 37.7622 34.6995 37.7622ZM45.3661 37.7622C44.6995 37.7622 44.1328 37.5289 43.6661 37.0622C43.1995 36.5956 42.9661 36.0289 42.9661 35.3622C42.9661 34.6956 43.1995 34.1289 43.6661 33.6622C44.1328 33.1956 44.6995 32.9622 45.3661 32.9622C46.0328 32.9622 46.5995 33.1956 47.0661 33.6622C47.5328 34.1289 47.7661 34.6956 47.7661 35.3622C47.7661 36.0289 47.5328 36.5956 47.0661 37.0622C46.5995 37.5289 46.0328 37.7622 45.3661 37.7622ZM40.0328 32.4289C39.3661 32.4289 38.7995 32.1956 38.3328 31.7289C37.8661 31.2622 37.6328 30.6956 37.6328 30.0289C37.6328 29.3622 37.8661 28.7956 38.3328 28.3289C38.7995 27.8622 39.3661 27.6289 40.0328 27.6289C40.6995 27.6289 41.2661 27.8622 41.7328 28.3289C42.1995 28.7956 42.4328 29.3622 42.4328 30.0289C42.4328 30.6956 42.1995 31.2622 41.7328 31.7289C41.2661 32.1956 40.6995 32.4289 40.0328 32.4289ZM50.6995 32.4289C50.0328 32.4289 49.4661 32.1956 48.9995 31.7289C48.5328 31.2622 48.2995 30.6956 48.2995 30.0289C48.2995 29.3622 48.5328 28.7956 48.9995 28.3289C49.4661 27.8622 50.0328 27.6289 50.6995 27.6289C51.3661 27.6289 51.9328 27.8622 52.3995 28.3289C52.8661 28.7956 53.0995 29.3622 53.0995 30.0289C53.0995 30.6956 52.8661 31.2622 52.3995 31.7289C51.9328 32.1956 51.3661 32.4289 50.6995 32.4289Z" fill="white"/>
</g>
<defs>
<filter id="filter0_d_1_274" x="0" y="0" width="84" height="84" filterUnits="userSpaceOnUse" color-interpolation-filters="sRGB">
<feFlood flood-opacity="0" result="BackgroundImageFix"/>
<feColorMatrix in="SourceAlpha" type="matrix" values="0 0 0 0 0 0 0 0 0 0 0 0 0 0 0 0 0 0 127 0" result="hardAlpha"/>
<feOffset dy="4"/>
<feGaussianBlur stdDeviation="5"/>
<feComposite in2="hardAlpha" operator="out"/>
<feColorMatrix type="matrix" values="0 0 0 0 0.196078 0 0 0 0 0.756863 0 0 0 0 0.407843 0 0 0 0.15 0"/>
<feBlend mode="normal" in2="BackgroundImageFix" result="effect1_dropShadow_1_274"/>
<feBlend mode="normal" in="SourceGraphic" in2="effect1_dropShadow_1_274" result="shape"/>
</filter>
</defs>
</svg>
