<svg width="84" height="84" viewBox="0 0 84 84" fill="none" xmlns="http://www.w3.org/2000/svg">
<g filter="url(#filter0_d_1_252)">
<rect x="10" y="6" width="64" height="64" rx="16" fill="#08A202"/>
</g>
<path d="M56.1 37.9388C56.66 37.9388 57.1146 38.3846 57.1146 38.9351C57.1146 39.4842 56.66 39.9287 56.1 39.9287H54.684V44.6748C54.684 47.5487 52.3013 49.8838 49.3733 49.8838H47.2493C46.688 49.8838 46.2333 49.4379 46.2333 48.8875C46.2333 48.3384 46.688 47.8925 47.2493 47.8925H49.3733C51.1826 47.8925 52.6546 46.4504 52.6546 44.6748V39.9287H49.1573V41.2506C49.1706 42.9045 47.8173 44.2565 46.1306 44.2721H38.7653C37.08 44.2565 35.7266 42.9045 35.74 41.2506V39.9287H32.2426V44.6801C32.2426 46.4491 33.7106 47.8886 35.5146 47.8912L37.6853 47.8925C38.2453 47.8925 38.7 48.3384 38.7 48.8875C38.6986 49.4379 38.2453 49.8838 37.684 49.8838L35.512 49.8825C32.5906 49.8799 30.212 47.546 30.212 44.6801V39.9287H28.7973C28.2373 39.9287 27.7813 39.4842 27.7813 38.9351C27.7813 38.3846 28.2373 37.9388 28.7973 37.9388H56.1ZM46.1313 30.874C46.938 30.874 47.7126 31.1917 48.2766 31.7578C48.8446 32.3292 49.1593 33.0967 49.158 33.8956V35.556C49.1513 35.7509 48.9926 35.9091 48.794 35.9143H36.1006C35.9033 35.9077 35.7446 35.7495 35.7405 35.556V33.8956C35.726 32.2416 37.0806 30.891 38.766 30.874H46.1313ZM49.3728 25.8842C52.3021 25.8842 54.6834 28.2193 54.6834 31.0918V33.5669C54.6834 34.116 54.2301 34.5631 53.6688 34.5631C53.1088 34.5631 52.6541 34.116 52.6541 33.5669V31.0918C52.6541 29.3176 51.1821 27.8741 49.3728 27.8741H47.2488C46.6888 27.8741 46.2341 27.4296 46.2341 26.8805C46.2341 26.33 46.6888 25.8842 47.2488 25.8842H49.3728ZM37.6849 25.8838C38.2449 25.8838 38.6996 26.3296 38.6996 26.8801C38.6996 27.4292 38.2462 27.8751 37.6849 27.8751L35.5129 27.8764C33.7102 27.879 32.2436 29.3185 32.2436 31.0875V33.5665C32.2436 34.1156 31.7876 34.5628 31.2276 34.5628C30.6676 34.5628 30.2129 34.1156 30.2129 33.5665V31.0875C30.2129 28.2215 32.5902 25.8877 35.5116 25.8851L37.6849 25.8838Z" fill="white"/>
<defs>
<filter id="filter0_d_1_252" x="0" y="0" width="84" height="84" filterUnits="userSpaceOnUse" color-interpolation-filters="sRGB">
<feFlood flood-opacity="0" result="BackgroundImageFix"/>
<feColorMatrix in="SourceAlpha" type="matrix" values="0 0 0 0 0 0 0 0 0 0 0 0 0 0 0 0 0 0 127 0" result="hardAlpha"/>
<feOffset dy="4"/>
<feGaussianBlur stdDeviation="5"/>
<feComposite in2="hardAlpha" operator="out"/>
<feColorMatrix type="matrix" values="0 0 0 0 0.196078 0 0 0 0 0.756863 0 0 0 0 0.407843 0 0 0 0.15 0"/>
<feBlend mode="normal" in2="BackgroundImageFix" result="effect1_dropShadow_1_252"/>
<feBlend mode="normal" in="SourceGraphic" in2="effect1_dropShadow_1_252" result="shape"/>
</filter>
</defs>
</svg>
