<svg width="182" height="85" viewBox="0 0 182 85" fill="none" xmlns="http://www.w3.org/2000/svg">
<g clip-path="url(#clip0_1_948)">
<path d="M115.64 75.5956C116.464 75.2998 117.177 74.7559 117.679 74.0387C118.182 73.3215 118.45 72.4663 118.446 71.5906V70.2061C118.446 69.0719 117.995 67.9842 117.193 67.1821C116.391 66.3801 115.303 65.9294 114.169 65.9291H101.004C100.647 65.9301 100.305 66.0723 100.053 66.3248C99.8002 66.5773 99.6579 66.9194 99.6569 67.2765V80.4412C99.6579 80.7983 99.8002 81.1404 100.053 81.3929C100.305 81.6454 100.647 81.7877 101.004 81.7886H101.523C101.881 81.7877 102.223 81.6454 102.475 81.3929C102.728 81.1404 102.87 80.7983 102.871 80.4412V76.4856C102.871 76.4125 102.885 76.34 102.913 76.2724C102.94 76.2047 102.981 76.1433 103.033 76.0916C103.085 76.0399 103.146 75.9989 103.214 75.971C103.281 75.9432 103.354 75.929 103.427 75.9294H111.499C111.647 75.9296 111.792 75.9686 111.92 76.0423C112.048 76.116 112.154 76.222 112.228 76.3497L115.034 81.2447C115.152 81.4492 115.322 81.6194 115.525 81.7386C115.729 81.8578 115.96 81.9219 116.196 81.9246C116.451 81.9278 116.701 81.8546 116.913 81.7145L116.987 81.6403C117.293 81.4544 117.514 81.1576 117.606 80.8121C117.689 80.4582 117.631 80.0859 117.445 79.7737L115.393 76.2508C115.362 76.1945 115.344 76.1327 115.337 76.0691C115.331 76.0054 115.337 75.9411 115.356 75.8799C115.381 75.8153 115.419 75.7565 115.468 75.7076C115.517 75.6586 115.575 75.6205 115.64 75.5956ZM115.183 71.8501C115.183 72.7649 114.441 73.1852 113.712 73.1852H103.415C103.284 73.1852 103.158 73.1331 103.065 73.0403C102.972 72.9476 102.92 72.8219 102.92 72.6907V69.2419C102.92 69.1108 102.972 68.985 103.065 68.8923C103.158 68.7995 103.284 68.7475 103.415 68.7475H113.65C114.056 68.7475 114.446 68.9089 114.734 69.1964C115.021 69.4839 115.183 69.8737 115.183 70.2803V71.8501Z" fill="black"/>
<path d="M157.817 65.9291H143.676C143.396 65.9354 143.129 66.0494 142.931 66.2474C142.733 66.4454 142.619 66.7122 142.613 66.9921V80.7379C142.619 81.0179 142.733 81.2847 142.931 81.4827C143.129 81.6807 143.396 81.7947 143.676 81.801H157.817C158.951 81.8007 160.039 81.35 160.841 80.5479C161.643 79.7459 162.094 78.6582 162.094 77.524V70.2185C162.094 69.083 161.644 67.9938 160.842 67.1898C160.04 66.3857 158.952 65.9323 157.817 65.9291ZM158.892 70.2061V77.5116C158.892 77.9182 158.731 78.308 158.443 78.5955C158.156 78.8829 157.766 79.0444 157.36 79.0444H146.259C146.145 79.0431 146.035 78.9971 145.955 78.9163C145.874 78.8354 145.828 78.7261 145.826 78.6118V69.1183C145.828 69.0039 145.874 68.8946 145.955 68.8138C146.035 68.7329 146.145 68.6869 146.259 68.6856H157.36C157.764 68.685 158.153 68.8446 158.44 69.1295C158.727 69.4144 158.89 69.8015 158.892 70.2061Z" fill="black"/>
<path d="M140.87 79.8726L140.425 79.168H140.449L132.093 66.7696C131.611 66.0527 130.956 65.6571 130.264 65.6571H130.214C129.51 65.6571 128.854 66.0527 128.372 66.7696L120.226 78.859L120.028 79.168H120.041L119.596 79.8726C119.496 80.0123 119.429 80.1724 119.399 80.3413C119.369 80.5103 119.377 80.6838 119.423 80.8492C119.468 81.0156 119.549 81.1702 119.66 81.3025C119.771 81.4348 119.91 81.5415 120.065 81.6156L120.387 81.7763C120.717 81.927 121.09 81.9589 121.441 81.8665C121.793 81.7742 122.101 81.5632 122.315 81.2694L124.849 77.4498H135.641L138.175 81.2694C138.32 81.4748 138.513 81.6417 138.737 81.7559C138.961 81.87 139.209 81.9279 139.46 81.9246C139.683 81.9255 139.903 81.8747 140.103 81.7763L140.425 81.6156C140.581 81.5415 140.719 81.4348 140.83 81.3025C140.941 81.1702 141.022 81.0156 141.067 80.8492C141.103 80.6815 141.103 80.5084 141.069 80.3405C141.035 80.1726 140.967 80.0134 140.87 79.8726ZM133.342 74.4954C133.3 74.5743 133.238 74.6402 133.162 74.686C133.085 74.7318 132.998 74.7557 132.909 74.755H127.544C127.455 74.7557 127.368 74.7318 127.291 74.686C127.215 74.6402 127.153 74.5743 127.111 74.4954C127.07 74.4187 127.05 74.332 127.054 74.2447C127.059 74.1575 127.087 74.0732 127.136 74.001L129.93 69.8476L130.016 69.7116C130.035 69.6828 130.06 69.6594 130.091 69.6442C130.121 69.6289 130.155 69.6223 130.189 69.6251H130.226C130.262 69.6223 130.298 69.6288 130.331 69.6439C130.363 69.6591 130.391 69.6824 130.412 69.7116L133.292 73.9886C133.35 74.0584 133.386 74.144 133.395 74.2344C133.404 74.3248 133.385 74.4158 133.342 74.4954Z" fill="black"/>
<path d="M168.992 68.7103H180.933C181.072 68.7103 181.21 68.6828 181.339 68.6294C181.468 68.576 181.586 68.4977 181.684 68.399C181.783 68.3002 181.861 68.1831 181.915 68.0541C181.968 67.9251 181.996 67.7869 181.996 67.6473V67.0539C181.996 66.772 181.884 66.5016 181.684 66.3022C181.485 66.1028 181.215 65.9908 180.933 65.9908H168.534C167.397 65.9935 166.308 66.4462 165.504 67.2501C164.7 68.0539 164.247 69.1434 164.245 70.2802V77.5116C164.247 78.6484 164.7 79.7379 165.504 80.5417C166.308 81.3456 167.397 81.7983 168.534 81.801H180.933C181.071 81.8011 181.207 81.7741 181.335 81.7213C181.462 81.6686 181.578 81.5912 181.676 81.4936C181.774 81.396 181.851 81.2801 181.904 81.1525C181.956 81.025 181.983 80.8883 181.983 80.7502V80.1569C181.983 79.875 181.871 79.6046 181.672 79.4052C181.473 79.2058 181.202 79.0938 180.92 79.0938H168.992C168.575 79.0932 168.176 78.9276 167.882 78.6333C167.588 78.339 167.422 77.9401 167.422 77.5239V75.0888C167.422 74.9642 167.471 74.8447 167.559 74.7566C167.647 74.6685 167.767 74.619 167.891 74.619H179.153C179.434 74.619 179.705 74.507 179.904 74.3077C180.104 74.1083 180.216 73.8379 180.216 73.556V72.9626C180.216 72.6807 180.104 72.4103 179.904 72.2109C179.705 72.0115 179.434 71.8995 179.153 71.8995H167.891C167.767 71.8995 167.647 71.8501 167.559 71.762C167.471 71.6739 167.422 71.5544 167.422 71.4298V70.2431C167.434 69.8341 167.605 69.4459 167.897 69.1601C168.19 68.8742 168.582 68.713 168.992 68.7103Z" fill="black"/>
<path d="M96.443 66.0032H81.2139C80.4475 66.0032 80.0148 66.4235 80.0148 67.1899V67.4989C80.0148 68.29 80.4228 68.6979 81.2139 68.6979H86.4303C86.6333 68.6989 86.8277 68.78 86.9712 68.9235C87.1147 69.067 87.1958 69.2614 87.1968 69.4643V80.5895C87.1968 81.3559 87.617 81.7762 88.3834 81.7762H89.224C89.9904 81.7762 90.4107 81.3559 90.4107 80.5895V69.4643C90.4117 69.2614 90.4927 69.067 90.6362 68.9235C90.7798 68.78 90.9741 68.6989 91.1771 68.6979H96.443C97.2094 68.6979 97.6297 68.2653 97.6297 67.4989V67.1899C97.6297 66.4235 97.2094 66.0032 96.443 66.0032Z" fill="black"/>
<path d="M39.9146 65.9908H39.4573C39.2754 65.9905 39.0952 66.0261 38.9271 66.0956C38.759 66.165 38.6062 66.267 38.4776 66.3956C38.349 66.5242 38.247 66.677 38.1775 66.8451C38.1081 67.0132 38.0725 67.1934 38.0728 67.3753V76.9924C38.0709 77.5524 37.8475 78.0889 37.4515 78.4849C37.0556 78.8809 36.519 79.1042 35.959 79.1062H27.1825C26.6225 79.1042 26.086 78.8809 25.69 78.4849C25.294 78.0889 25.0707 77.5524 25.0687 76.9924V76.8441C25.0687 76.6834 25.0811 75.5832 25.0811 67.3629C25.0811 67.0023 24.9378 66.6565 24.6828 66.4015C24.4278 66.1465 24.082 66.0032 23.7213 66.0032H23.2516C23.0697 66.0029 22.8895 66.0385 22.7214 66.1079C22.5533 66.1774 22.4005 66.2794 22.2719 66.408C22.1433 66.5366 22.0413 66.6894 21.9719 66.8575C21.9024 67.0256 21.8668 67.2058 21.8671 67.3877V77.5363C21.8697 78.6731 22.3225 79.7626 23.1263 80.5665C23.9302 81.3703 25.0197 81.8231 26.1565 81.8257H36.9974C38.1277 81.8234 39.2111 81.3734 40.0104 80.5741C40.8097 79.7748 41.2597 78.6914 41.262 77.561C41.262 77.561 41.2744 76.7452 41.2744 76.6834V67.3877C41.2793 67.206 41.2478 67.0252 41.1817 66.8559C41.1156 66.6867 41.0162 66.5323 40.8895 66.4021C40.7627 66.2719 40.6111 66.1684 40.4437 66.0978C40.2763 66.0271 40.0964 65.9908 39.9146 65.9908Z" fill="#3DA542"/>
<path d="M48.4564 68.7103H60.3974C60.537 68.7103 60.6752 68.6828 60.8042 68.6294C60.9332 68.576 61.0504 68.4977 61.1491 68.399C61.2478 68.3002 61.3261 68.1831 61.3796 68.0541C61.433 67.9251 61.4605 67.7869 61.4605 67.6473V67.0539C61.4605 66.772 61.3485 66.5016 61.1491 66.3022C60.9497 66.1028 60.6793 65.9908 60.3974 65.9908H47.999C46.8622 65.9935 45.7727 66.4462 44.9688 67.2501C44.165 68.0539 43.7122 69.1434 43.7096 70.2802V77.5116C43.7122 78.6484 44.165 79.7379 44.9688 80.5417C45.7727 81.3456 46.8622 81.7983 47.999 81.801H60.3974C60.5354 81.8011 60.6721 81.7741 60.7997 81.7213C60.9272 81.6686 61.0431 81.5912 61.1407 81.4936C61.2383 81.396 61.3157 81.2801 61.3685 81.1525C61.4212 81.025 61.4483 80.8883 61.4481 80.7502V80.1569C61.4481 79.875 61.3361 79.6046 61.1368 79.4052C60.9374 79.2058 60.667 79.0938 60.385 79.0938H48.4564C48.0402 79.0932 47.6413 78.9276 47.347 78.6333C47.0528 78.339 46.8871 77.9401 46.8865 77.5239V75.0888C46.8865 74.9642 46.936 74.8447 47.0241 74.7566C47.1122 74.6685 47.2316 74.619 47.3562 74.619H58.6174C58.8993 74.619 59.1697 74.507 59.3691 74.3077C59.5684 74.1083 59.6804 73.8379 59.6804 73.556V72.9626C59.6804 72.6807 59.5684 72.4103 59.3691 72.2109C59.1697 72.0115 58.8993 71.8995 58.6174 71.8995H47.3562C47.2316 71.8995 47.1122 71.8501 47.0241 71.762C46.936 71.6739 46.8865 71.5544 46.8865 71.4298V70.2431C46.899 69.8341 47.0695 69.4459 47.3623 69.1601C47.655 68.8742 48.0472 68.713 48.4564 68.7103Z" fill="#3DA542"/>
<path d="M76.838 71.9119H67.9996C67.5835 71.9113 67.1845 71.7457 66.8903 71.4514C66.596 71.1571 66.4304 70.7582 66.4297 70.3421V70.2679C66.4304 69.8517 66.596 69.4528 66.8903 69.1585C67.1845 68.8643 67.5835 68.6987 67.9996 68.698H76.8998C77.1817 68.698 77.4521 68.586 77.6515 68.3866C77.8508 68.1873 77.9628 67.9169 77.9628 67.6349V67.0416C77.9628 66.7596 77.8508 66.4893 77.6515 66.2899C77.4521 66.0905 77.1817 65.9785 76.8998 65.9785H67.5175C66.3807 65.9811 65.2912 66.4339 64.4874 67.2377C63.6835 68.0416 63.2308 69.1311 63.2282 70.2679V70.3297C63.2308 71.4665 63.6835 72.556 64.4874 73.3599C65.2912 74.1637 66.3807 74.6165 67.5175 74.6191H67.6906V74.6314L67.9007 74.6191H76.3682C76.7773 74.6213 77.169 74.7849 77.4583 75.0742C77.7476 75.3634 77.9111 75.7551 77.9134 76.1642V77.5363C77.9127 77.9525 77.7471 78.3514 77.4529 78.6457C77.1586 78.94 76.7597 79.1056 76.3435 79.1062H74.786C74.745 79.1 74.7033 79.1 74.6624 79.1062H64.2912C64.0093 79.1062 63.7389 79.2182 63.5395 79.4176C63.3402 79.617 63.2282 79.8874 63.2282 80.1693V80.7503C63.2282 81.0322 63.3402 81.3026 63.5395 81.502C63.7389 81.7014 64.0093 81.8134 64.2912 81.8134H67.6906V81.8257H76.8132C77.95 81.8231 79.0396 81.3704 79.8434 80.5665C80.6473 79.7627 81.1 78.6732 81.1026 77.5363V76.1766C81.1003 75.0462 80.6503 73.9628 79.851 73.1636C79.0517 72.3643 77.9683 71.9142 76.838 71.9119Z" fill="#3DA542"/>
<path d="M19.4567 77.5239V70.2802C19.4541 69.1434 19.0014 68.0539 18.1975 67.2501C17.3937 66.4462 16.3042 65.9935 15.1673 65.9908H4.28939C3.15258 65.9935 2.06307 66.4462 1.25923 67.2501C0.455377 68.0539 0.00262331 69.1434 1.14441e-05 70.2802V77.5116C0.00262331 78.6484 0.455377 79.7379 1.25923 80.5417C2.06307 81.3456 3.15258 81.7983 4.28939 81.801H14.5246C14.6073 81.8 14.6889 81.8213 14.7606 81.8626C14.8324 81.9039 14.8917 81.9637 14.9325 82.0358C15.291 82.6786 16.0697 84.026 16.0697 84.026C16.1898 84.234 16.3629 84.4066 16.5714 84.526C16.7798 84.6454 17.0162 84.7075 17.2564 84.7059C17.4955 84.7058 17.7303 84.6418 17.9363 84.5204L18.3566 84.2732C18.6662 84.0912 18.8917 83.7946 18.9842 83.4476C19.0768 83.1005 19.0289 82.731 18.851 82.419L18.0228 80.9851C17.9941 80.9337 17.9834 80.8741 17.9923 80.8159C18.0013 80.7577 18.0294 80.7041 18.0723 80.6637C18.5072 80.2643 18.8548 79.7791 19.0931 79.2387C19.3313 78.6984 19.4552 78.1145 19.4567 77.5239ZM16.2551 70.6758V77.116C16.2538 77.6369 16.0463 78.1361 15.678 78.5044C15.3097 78.8727 14.8106 79.0802 14.2897 79.0815H5.16704C4.90884 79.0818 4.65312 79.0312 4.41451 78.9325C4.1759 78.8339 3.95911 78.6891 3.77653 78.5065C3.59396 78.324 3.4492 78.1072 3.35054 77.8686C3.25188 77.6299 3.20127 77.3742 3.20159 77.116V70.6758C3.20127 70.4176 3.25188 70.1619 3.35054 69.9232C3.4492 69.6846 3.59396 69.4678 3.77653 69.2853C3.95911 69.1027 4.1759 68.9579 4.41451 68.8593C4.65312 68.7606 4.90884 68.71 5.16704 68.7103H14.2897C14.5482 68.7089 14.8045 68.7587 15.0436 68.8569C15.2827 68.9552 15.5 69.0999 15.6828 69.2827C15.8656 69.4655 16.0103 69.6828 16.1085 69.9219C16.2068 70.161 16.2566 70.4173 16.2551 70.6758Z" fill="#3DA542"/>
<path d="M80.6329 28.4496C85.4662 19.5494 91.8323 12.8125 97.6174 9.68509L91.8075 0.537717C91.3502 -0.179239 90.6209 -0.179239 90.1882 0.537717L58.3949 50.6505C57.9375 51.3674 58.3208 51.5776 59.149 51.5776H74.3163C74.0814 45.1002 76.0222 36.8923 80.6329 28.4496Z" fill="#3EA448"/>
<path d="M99.5951 15.3836C96.4801 13.6778 89.7555 19.9944 84.5761 29.5002C79.3967 39.0061 77.7403 48.0793 80.8554 49.7975C83.1175 51.0213 86.9248 47.795 90.9916 42.492V30.3532C90.9916 29.0923 91.7828 28.4001 92.3761 29.5002L95.7631 35.9034C95.8126 35.8292 95.8373 35.7674 95.8867 35.6933C101.066 26.1874 102.723 17.1018 99.5951 15.3836Z" fill="#3EA448"/>
<path d="M123.625 50.6505L110.794 30.415C109.575 34.5224 107.922 38.488 105.862 42.2448C104.758 44.2635 103.549 46.2233 102.24 48.1164L104.663 51.5776H122.871C123.7 51.5776 124.083 51.3675 123.625 50.6505Z" fill="#3EA448"/>
</g>
<defs>
<clipPath id="clip0_1_948">
<rect width="181.996" height="84.7059" fill="white"/>
</clipPath>
</defs>
</svg>
