<svg width="320" height="320" viewBox="0 0 320 320" fill="none" xmlns="http://www.w3.org/2000/svg">
<g clip-path="url(#clip0_1_4196)">
<path opacity="0.2" d="M142.324 47.8727H32.9257C28.9934 47.8727 25.8057 51.0604 25.8057 54.9927V133.937C25.8057 137.869 28.9934 141.057 32.9257 141.057H142.324C146.256 141.057 149.444 137.869 149.444 133.937V54.9927C149.444 51.0604 146.256 47.8727 142.324 47.8727Z" fill="black"/>
<path d="M139.259 42.9678H29.8611C25.9289 42.9678 22.7411 46.1555 22.7411 50.0878V129.032C22.7411 132.965 25.9289 136.152 29.8611 136.152H139.259C143.192 136.152 146.379 132.965 146.379 129.032V50.0878C146.379 46.1555 143.192 42.9678 139.259 42.9678Z" fill="white" stroke="#263238" stroke-width="1.30117" stroke-linecap="round" stroke-linejoin="round"/>
<path d="M62.7131 85.5879L36.2817 94.1652C34.0036 87.1507 34.6048 79.5186 37.9529 72.9473C41.3011 66.376 47.122 61.4034 54.1358 59.1231C56.8999 58.1976 59.7982 57.7361 62.7131 57.7574V85.5879Z" fill="#08A202" stroke="#263238" stroke-width="1.30117" stroke-linecap="round" stroke-linejoin="round"/>
<path d="M62.7131 85.5879L79.0599 108.072C73.0941 112.404 65.652 114.189 58.3702 113.035C51.0884 111.881 44.563 107.882 40.2289 101.918C38.4941 99.5695 37.1603 96.9497 36.2817 94.1652L62.7131 85.5879Z" fill="white" stroke="#263238" stroke-width="1.30117" stroke-linecap="round" stroke-linejoin="round"/>
<path d="M62.7131 85.5879L89.1611 76.9939C91.0448 82.5699 91.081 88.6045 89.2644 94.2027C87.4479 99.8009 83.8753 104.664 79.0766 108.072L62.7131 85.5879Z" fill="#263238" stroke="#263238" stroke-width="1.30117" stroke-linecap="round" stroke-linejoin="round"/>
<path d="M62.7131 85.5879V57.7741C68.6023 57.7072 74.3562 59.5409 79.1206 63.0033C83.885 66.4656 87.4061 71.3719 89.1611 76.9939L62.7131 85.5879Z" fill="white" stroke="#263238" stroke-width="1.30117" stroke-linecap="round" stroke-linejoin="round"/>
<path d="M62.7547 102.909C72.3302 102.909 80.0925 95.1466 80.0925 85.5712C80.0925 75.9958 72.3302 68.2334 62.7547 68.2334C53.1793 68.2334 45.4169 75.9958 45.4169 85.5712C45.4169 95.1466 53.1793 102.909 62.7547 102.909Z" fill="white" stroke="#263238" stroke-width="1.30117" stroke-linecap="round" stroke-linejoin="round"/>
<path d="M136.453 56.0752H98.3547V59.2313H136.453V56.0752Z" fill="#08A202" stroke="#263238" stroke-width="1.30117" stroke-linecap="round" stroke-linejoin="round"/>
<path d="M128.259 62.8289H98.3547V65.985H128.259V62.8289Z" fill="#263238" stroke="#263238" stroke-width="1.30117" stroke-linecap="round" stroke-linejoin="round"/>
<path d="M120.331 69.5824H98.3547V72.7385H120.331V69.5824Z" fill="white" stroke="#263238" stroke-width="1.30117" stroke-linecap="round" stroke-linejoin="round"/>
<path d="M129.583 76.3361H98.3547V79.4922H129.583V76.3361Z" fill="#08A202" stroke="#263238" stroke-width="1.30117" stroke-linecap="round" stroke-linejoin="round"/>
<path d="M113.194 83.0896H98.3547V86.2457H113.194V83.0896Z" fill="#263238" stroke="#263238" stroke-width="1.30117" stroke-linecap="round" stroke-linejoin="round"/>
<path d="M136.453 89.8516H98.3547V93.0077H136.453V89.8516Z" fill="white" stroke="#263238" stroke-width="1.30117" stroke-linecap="round" stroke-linejoin="round"/>
<path d="M126.41 96.6051H98.3547V99.7612H126.41V96.6051Z" fill="#08A202" stroke="#263238" stroke-width="1.30117" stroke-linecap="round" stroke-linejoin="round"/>
<path d="M122.871 103.359H98.3547V106.515H122.871V103.359Z" fill="#263238" stroke="#263238" stroke-width="1.30117" stroke-linecap="round" stroke-linejoin="round"/>
<path d="M136.453 110.112H98.3547V113.268H136.453V110.112Z" fill="white" stroke="#263238" stroke-width="1.30117" stroke-linecap="round" stroke-linejoin="round"/>
<path d="M48.573 119.314H78.1022" stroke="#263238" stroke-width="1.30117" stroke-linecap="round" stroke-linejoin="round"/>
<path d="M44.3926 123.478H82.2827" stroke="#263238" stroke-width="1.30117" stroke-linecap="round" stroke-linejoin="round"/>
<path d="M99.3707 119.314H128.9" stroke="#263238" stroke-width="1.30117" stroke-linecap="round" stroke-linejoin="round"/>
<path d="M95.1902 123.478H133.08" stroke="#263238" stroke-width="1.30117" stroke-linecap="round" stroke-linejoin="round"/>
<path opacity="0.2" d="M142.932 179.922H48.9811C45.0488 179.922 41.8611 183.109 41.8611 187.042V254.344C41.8611 258.277 45.0488 261.464 48.9811 261.464H142.932C146.864 261.464 150.052 258.277 150.052 254.344V187.042C150.052 183.109 146.864 179.922 142.932 179.922Z" fill="black"/>
<path d="M139.251 175.641H45.3003C41.368 175.641 38.1803 178.829 38.1803 182.761V250.064C38.1803 253.996 41.368 257.184 45.3003 257.184H139.251C143.183 257.184 146.371 253.996 146.371 250.064V182.761C146.371 178.829 143.183 175.641 139.251 175.641Z" fill="white" stroke="#263238" stroke-width="1.30117" stroke-linecap="round" stroke-linejoin="round"/>
<path d="M45.5918 214.406H60.0233" stroke="#263238" stroke-width="1.30117" stroke-linecap="round" stroke-linejoin="round"/>
<path d="M45.5918 217.67H68.4174" stroke="#263238" stroke-width="1.30117" stroke-linecap="round" stroke-linejoin="round"/>
<path d="M45.5918 220.926H60.0233" stroke="#263238" stroke-width="1.30117" stroke-linecap="round" stroke-linejoin="round"/>
<path d="M45.5918 224.182H66.4105" stroke="#263238" stroke-width="1.30117" stroke-linecap="round" stroke-linejoin="round"/>
<path d="M45.5918 227.447H60.0233" stroke="#263238" stroke-width="1.30117" stroke-linecap="round" stroke-linejoin="round"/>
<path d="M45.5918 230.703H71.0905" stroke="#263238" stroke-width="1.30117" stroke-linecap="round" stroke-linejoin="round"/>
<path d="M81.733 214.406H96.1646" stroke="#263238" stroke-width="1.30117" stroke-linecap="round" stroke-linejoin="round"/>
<path d="M81.733 217.67H104.559" stroke="#263238" stroke-width="1.30117" stroke-linecap="round" stroke-linejoin="round"/>
<path d="M81.733 220.926H96.1646" stroke="#263238" stroke-width="1.30117" stroke-linecap="round" stroke-linejoin="round"/>
<path d="M81.733 224.182H102.552" stroke="#263238" stroke-width="1.30117" stroke-linecap="round" stroke-linejoin="round"/>
<path d="M81.733 227.447H96.1646" stroke="#263238" stroke-width="1.30117" stroke-linecap="round" stroke-linejoin="round"/>
<path d="M81.733 230.703H107.232" stroke="#263238" stroke-width="1.30117" stroke-linecap="round" stroke-linejoin="round"/>
<path d="M117.874 214.406H132.306" stroke="#263238" stroke-width="1.30117" stroke-linecap="round" stroke-linejoin="round"/>
<path d="M117.874 217.67H140.692" stroke="#263238" stroke-width="1.30117" stroke-linecap="round" stroke-linejoin="round"/>
<path d="M117.874 220.926H132.306" stroke="#263238" stroke-width="1.30117" stroke-linecap="round" stroke-linejoin="round"/>
<path d="M117.874 224.182H138.685" stroke="#263238" stroke-width="1.30117" stroke-linecap="round" stroke-linejoin="round"/>
<path d="M117.874 227.447H132.306" stroke="#263238" stroke-width="1.30117" stroke-linecap="round" stroke-linejoin="round"/>
<path d="M117.874 230.703H143.373" stroke="#263238" stroke-width="1.30117" stroke-linecap="round" stroke-linejoin="round"/>
<path d="M72.5978 203.697H44.6674V209.284H72.5978V203.697Z" fill="#263238"/>
<path d="M109.372 203.697H81.4416V209.284H109.372V203.697Z" fill="#263238"/>
<path d="M146.146 203.697H118.216V209.284H146.146V203.697Z" fill="#263238"/>
<path d="M76.9531 203.372V231.644" stroke="#263238" stroke-width="1.30117" stroke-linecap="round" stroke-linejoin="round"/>
<path d="M113.427 203.372V231.644" stroke="#263238" stroke-width="1.30117" stroke-linecap="round" stroke-linejoin="round"/>
<path d="M56.0511 190.456L62.0968 188.491C62.4846 189.686 62.5094 190.969 62.1681 192.178C61.8267 193.387 61.1346 194.468 60.1791 195.284C59.2236 196.1 58.0478 196.614 56.8001 196.762C55.5524 196.909 54.2889 196.684 53.1694 196.113C52.0498 195.543 51.1245 194.654 50.5103 193.558C49.8961 192.462 49.6207 191.208 49.7187 189.956C49.8168 188.703 50.284 187.508 51.0614 186.521C51.8387 185.534 52.8912 184.799 54.0858 184.41C54.7195 184.2 55.3835 184.096 56.0511 184.102V190.456Z" fill="#08A202" stroke="#263238" stroke-width="0.650585" stroke-miterlimit="10"/>
<path d="M56.0511 190.456V184.102C57.3969 184.086 58.7121 184.504 59.8012 185.294C60.8904 186.085 61.6955 187.206 62.0968 188.491L56.0511 190.456Z" fill="#263238" stroke="#263238" stroke-width="0.650585" stroke-miterlimit="10"/>
<path d="M117.258 190.456L123.304 188.491C123.692 189.686 123.717 190.97 123.376 192.179C123.035 193.389 122.343 194.47 121.387 195.286C120.431 196.102 119.255 196.617 118.006 196.764C116.758 196.912 115.494 196.686 114.375 196.115C113.255 195.544 112.33 194.654 111.716 193.557C111.102 192.46 110.828 191.206 110.927 189.953C111.026 188.7 111.495 187.505 112.273 186.518C113.052 185.531 114.106 184.798 115.301 184.41C115.932 184.2 116.593 184.096 117.258 184.102V190.456Z" fill="#08A202" stroke="#263238" stroke-width="0.650585" stroke-miterlimit="10"/>
<path d="M117.258 190.456V184.102C118.604 184.084 119.92 184.502 121.009 185.293C122.099 186.084 122.904 187.205 123.304 188.491L117.258 190.456Z" fill="#263238" stroke="#263238" stroke-width="0.650585" stroke-miterlimit="10"/>
<path d="M76.4701 190.456V196.81C74.7849 196.81 73.1688 196.14 71.9772 194.949C70.7856 193.757 70.1162 192.141 70.1162 190.456C70.1162 188.771 70.7856 187.155 71.9772 185.963C73.1688 184.771 74.7849 184.102 76.4701 184.102V190.456Z" fill="#08A202" stroke="#263238" stroke-width="0.650585" stroke-miterlimit="10"/>
<path d="M76.4701 190.456V184.102C78.1552 184.102 79.7714 184.771 80.9629 185.963C82.1545 187.155 82.824 188.771 82.824 190.456C82.824 192.141 82.1545 193.757 80.9629 194.949C79.7714 196.14 78.1552 196.81 76.4701 196.81V190.456Z" fill="#263238" stroke="#263238" stroke-width="0.650585" stroke-miterlimit="10"/>
<path d="M96.8558 190.456L102.902 192.421C102.643 193.215 102.231 193.95 101.689 194.585C101.147 195.22 100.485 195.742 99.7411 196.121C98.9972 196.499 98.186 196.728 97.3537 196.794C96.5214 196.859 95.6844 196.76 94.8905 196.502C94.0965 196.244 93.3612 195.832 92.7265 195.289C92.0917 194.747 91.57 194.085 91.1911 193.341C90.8122 192.597 90.5835 191.786 90.5181 190.954C90.4527 190.122 90.5519 189.285 90.81 188.491C91.2113 187.206 92.0164 186.085 93.1056 185.294C94.1948 184.504 95.51 184.086 96.8558 184.102V190.456Z" fill="#08A202" stroke="#263238" stroke-width="0.650585" stroke-miterlimit="10"/>
<path d="M96.8557 190.456V184.102C97.6908 184.101 98.5179 184.265 99.2898 184.583C100.062 184.902 100.763 185.37 101.354 185.96C101.945 186.55 102.414 187.251 102.733 188.022C103.053 188.794 103.218 189.621 103.218 190.456C103.221 191.124 103.114 191.788 102.901 192.421L96.8557 190.456Z" fill="#263238" stroke="#263238" stroke-width="0.650585" stroke-miterlimit="10"/>
<path d="M137.66 190.456L143.706 192.421C143.448 193.215 143.036 193.95 142.494 194.585C141.952 195.22 141.29 195.742 140.546 196.121C139.802 196.499 138.991 196.728 138.158 196.794C137.326 196.859 136.489 196.76 135.695 196.502C134.901 196.244 134.166 195.832 133.531 195.289C132.896 194.747 132.375 194.085 131.996 193.341C131.617 192.597 131.388 191.786 131.323 190.954C131.257 190.122 131.357 189.285 131.615 188.491C132.016 187.206 132.821 186.085 133.91 185.294C134.999 184.504 136.315 184.086 137.66 184.102V190.456Z" fill="#08A202" stroke="#263238" stroke-width="0.650585" stroke-miterlimit="10"/>
<path d="M137.66 190.456V184.102C138.495 184.101 139.322 184.265 140.093 184.583C140.865 184.902 141.565 185.37 142.156 185.961C142.746 186.551 143.214 187.252 143.533 188.023C143.852 188.795 144.015 189.621 144.014 190.456C144.02 191.124 143.916 191.788 143.706 192.421L137.66 190.456Z" fill="#263238" stroke="#263238" stroke-width="0.650585" stroke-miterlimit="10"/>
<path d="M138.909 248.14H133.347V250.022H138.909V248.14Z" fill="#08A202" stroke="#263238" stroke-width="0.975877" stroke-linecap="round" stroke-linejoin="round"/>
<path d="M132.731 238.739H127.168V250.022H132.731V238.739Z" fill="#263238" stroke="#263238" stroke-width="0.975877" stroke-linecap="round" stroke-linejoin="round"/>
<path d="M126.56 242.794H120.997V250.031H126.56V242.794Z" fill="white" stroke="#263238" stroke-width="0.975877" stroke-linecap="round" stroke-linejoin="round"/>
<path d="M120.381 237.148H114.818V250.022H120.381V237.148Z" fill="#08A202" stroke="#263238" stroke-width="0.975877" stroke-linecap="round" stroke-linejoin="round"/>
<path d="M114.202 246.7H108.639V250.031H114.202V246.7Z" fill="#263238" stroke="#263238" stroke-width="0.975877" stroke-linecap="round" stroke-linejoin="round"/>
<path d="M108.023 245.684H102.46V250.022H108.023V245.684Z" fill="white" stroke="#263238" stroke-width="0.975877" stroke-linecap="round" stroke-linejoin="round"/>
<path d="M101.844 241.345H96.2811V250.031H101.844V241.345Z" fill="#08A202" stroke="#263238" stroke-width="0.975877" stroke-linecap="round" stroke-linejoin="round"/>
<path d="M95.6649 248.582H90.1022V250.031H95.6649V248.582Z" fill="#263238" stroke="#263238" stroke-width="0.975877" stroke-linecap="round" stroke-linejoin="round"/>
<path d="M89.4859 238.739H83.9232V250.022H89.4859V238.739Z" fill="white" stroke="#263238" stroke-width="0.975877" stroke-linecap="round" stroke-linejoin="round"/>
<path d="M83.307 240.912H77.7442V250.031H83.307V240.912Z" fill="#08A202" stroke="#263238" stroke-width="0.975877" stroke-linecap="round" stroke-linejoin="round"/>
<path d="M77.1362 249.589H71.5735V250.022H77.1362V249.589Z" fill="#263238" stroke="#263238" stroke-width="0.975877" stroke-linecap="round" stroke-linejoin="round"/>
<path d="M70.9573 249.448H65.3945V250.022H70.9573V249.448Z" fill="white" stroke="#263238" stroke-width="0.975877" stroke-linecap="round" stroke-linejoin="round"/>
<path d="M64.7783 242.794H59.2155V250.031H64.7783V242.794Z" fill="#08A202" stroke="#263238" stroke-width="0.975877" stroke-linecap="round" stroke-linejoin="round"/>
<path d="M58.5993 248.582H53.0366V250.031H58.5993V248.582Z" fill="#263238" stroke="#263238" stroke-width="0.975877" stroke-linecap="round" stroke-linejoin="round"/>
<path d="M52.4203 247.133H46.8575V250.031H52.4203V247.133Z" fill="white" stroke="#263238" stroke-width="0.975877" stroke-linecap="round" stroke-linejoin="round"/>
<path opacity="0.2" d="M289.179 109.321H179.781C175.848 109.321 172.661 112.509 172.661 116.441V195.386C172.661 199.318 175.848 202.506 179.781 202.506H289.179C293.111 202.506 296.299 199.318 296.299 195.386V116.441C296.299 112.509 293.111 109.321 289.179 109.321Z" fill="black"/>
<path d="M284.89 104.425H175.492C171.56 104.425 168.372 107.612 168.372 111.545V190.489C168.372 194.421 171.56 197.609 175.492 197.609H284.89C288.823 197.609 292.01 194.421 292.01 190.489V111.545C292.01 107.612 288.823 104.425 284.89 104.425Z" fill="white" stroke="#263238" stroke-width="1.30117" stroke-linecap="round" stroke-linejoin="round"/>
<path d="M284.224 177.332H277.812V184.443H284.224V177.332Z" fill="#08A202" stroke="#263238" stroke-width="0.975877" stroke-linecap="round" stroke-linejoin="round"/>
<path d="M277.096 141.773H270.684V184.435H277.096V141.773Z" fill="#263238" stroke="#263238" stroke-width="0.975877" stroke-linecap="round" stroke-linejoin="round"/>
<path d="M269.967 157.096H263.555V184.443H269.967V157.096Z" fill="white" stroke="#263238" stroke-width="0.975877" stroke-linecap="round" stroke-linejoin="round"/>
<path d="M262.847 135.761H256.435V184.443H262.847V135.761Z" fill="#08A202" stroke="#263238" stroke-width="0.975877" stroke-linecap="round" stroke-linejoin="round"/>
<path d="M255.719 171.861H249.307V184.443H255.719V171.861Z" fill="#263238" stroke="#263238" stroke-width="0.975877" stroke-linecap="round" stroke-linejoin="round"/>
<path d="M248.591 168.03H242.179V184.435H248.591V168.03Z" fill="white" stroke="#263238" stroke-width="0.975877" stroke-linecap="round" stroke-linejoin="round"/>
<path d="M241.471 151.625H235.059V184.443H241.471V151.625Z" fill="#08A202" stroke="#263238" stroke-width="0.975877" stroke-linecap="round" stroke-linejoin="round"/>
<path d="M234.342 178.972H227.93V184.443H234.342V178.972Z" fill="#263238" stroke="#263238" stroke-width="0.975877" stroke-linecap="round" stroke-linejoin="round"/>
<path d="M227.214 141.773H220.802V184.435H227.214V141.773Z" fill="white" stroke="#263238" stroke-width="0.975877" stroke-linecap="round" stroke-linejoin="round"/>
<path d="M220.094 149.984H213.682V184.443H220.094V149.984Z" fill="#08A202" stroke="#263238" stroke-width="0.975877" stroke-linecap="round" stroke-linejoin="round"/>
<path d="M212.966 182.795H206.554V184.435H212.966V182.795Z" fill="#263238" stroke="#263238" stroke-width="0.975877" stroke-linecap="round" stroke-linejoin="round"/>
<path d="M205.837 182.253H199.425V184.443H205.837V182.253Z" fill="white" stroke="#263238" stroke-width="0.975877" stroke-linecap="round" stroke-linejoin="round"/>
<path d="M198.709 157.096H192.297V184.443H198.709V157.096Z" fill="#08A202" stroke="#263238" stroke-width="0.975877" stroke-linecap="round" stroke-linejoin="round"/>
<path d="M191.589 178.972H185.177V184.443H191.589V178.972Z" fill="#263238" stroke="#263238" stroke-width="0.975877" stroke-linecap="round" stroke-linejoin="round"/>
<path d="M184.461 173.501H178.049V184.443H184.461V173.501Z" fill="white" stroke="#263238" stroke-width="0.975877" stroke-linecap="round" stroke-linejoin="round"/>
<path d="M284.64 123.894H178.881V129.307H284.64V123.894Z" fill="#08A202" stroke="#263238" stroke-width="1.30117" stroke-miterlimit="10"/>
<path d="M223.9 124.286H206.745V128.907H223.9V124.286Z" fill="#263238" stroke="#263238" stroke-width="1.30117" stroke-miterlimit="10"/>
<path d="M256.81 124.286H224.591V128.907H256.81V124.286Z" fill="white" stroke="#263238" stroke-width="1.30117" stroke-miterlimit="10"/>
<path opacity="0.2" d="M275.688 8.65027H189.882C185.95 8.65027 182.762 11.838 182.762 15.7703V76.9356C182.762 80.8679 185.95 84.0556 189.882 84.0556H275.688C279.621 84.0556 282.808 80.8679 282.808 76.9356V15.7703C282.808 11.838 279.621 8.65027 275.688 8.65027Z" fill="black"/>
<path d="M272.008 3.75366H186.201C182.269 3.75366 179.081 6.94139 179.081 10.8737V72.039C179.081 75.9713 182.269 79.159 186.201 79.159H272.008C275.94 79.159 279.128 75.9713 279.128 72.039V10.8737C279.128 6.94139 275.94 3.75366 272.008 3.75366Z" fill="white" stroke="#263238" stroke-width="1.30117" stroke-linecap="round" stroke-linejoin="round"/>
<path d="M183.728 72.0973H277.662" stroke="#263238" stroke-width="0.650585" stroke-miterlimit="10"/>
<path d="M183.728 72.0973V73.488" stroke="#263238" stroke-width="0.650585" stroke-miterlimit="10"/>
<path d="M189.99 72.0973V73.488" stroke="#263238" stroke-width="0.650585" stroke-miterlimit="10"/>
<path d="M196.253 72.0973V73.488" stroke="#263238" stroke-width="0.650585" stroke-miterlimit="10"/>
<path d="M202.515 72.0973V73.488" stroke="#263238" stroke-width="0.650585" stroke-miterlimit="10"/>
<path d="M208.777 72.0973V73.488" stroke="#263238" stroke-width="0.650585" stroke-miterlimit="10"/>
<path d="M215.039 72.0973V73.488" stroke="#263238" stroke-width="0.650585" stroke-miterlimit="10"/>
<path d="M221.302 72.0973V73.488" stroke="#263238" stroke-width="0.650585" stroke-miterlimit="10"/>
<path d="M227.564 72.0973V73.488" stroke="#263238" stroke-width="0.650585" stroke-miterlimit="10"/>
<path d="M233.826 72.0973V73.488" stroke="#263238" stroke-width="0.650585" stroke-miterlimit="10"/>
<path d="M240.088 72.0973V73.488" stroke="#263238" stroke-width="0.650585" stroke-miterlimit="10"/>
<path d="M246.351 72.0973V73.488" stroke="#263238" stroke-width="0.650585" stroke-miterlimit="10"/>
<path d="M252.613 72.0973V73.488" stroke="#263238" stroke-width="0.650585" stroke-miterlimit="10"/>
<path d="M258.875 72.0973V73.488" stroke="#263238" stroke-width="0.650585" stroke-miterlimit="10"/>
<path d="M265.137 72.0973V73.488" stroke="#263238" stroke-width="0.650585" stroke-miterlimit="10"/>
<path d="M271.4 72.0973V73.488" stroke="#263238" stroke-width="0.650585" stroke-miterlimit="10"/>
<path d="M277.662 72.0973V73.488" stroke="#263238" stroke-width="0.650585" stroke-miterlimit="10"/>
<path d="M186.859 70.9647H274.531V58.8482L268.327 46.8567C268.287 46.7722 268.259 46.6825 268.244 46.5902L262.731 11.0235C262.731 10.8468 262.661 10.6774 262.536 10.5524C262.411 10.4275 262.241 10.3573 262.065 10.3573C261.888 10.3573 261.718 10.4275 261.594 10.5524C261.469 10.6774 261.398 10.8468 261.398 11.0235L255.786 54.443C255.759 54.651 255.655 54.8413 255.494 54.976L250.09 59.1397C250.012 59.1976 249.922 59.2369 249.826 59.2543C249.731 59.2718 249.632 59.2671 249.539 59.2405C249.446 59.214 249.36 59.1663 249.288 59.1011C249.216 59.036 249.159 58.9552 249.124 58.8649L243.678 47.6311C243.637 47.5257 243.569 47.4332 243.481 47.3633C243.392 47.2935 243.286 47.2489 243.174 47.2344C243.062 47.2199 242.949 47.2359 242.845 47.2809C242.742 47.3258 242.652 47.3979 242.587 47.4896L236.957 54.7761L230.695 62.8538L224.433 54.7761L218.912 47.6561C218.839 47.5566 218.739 47.4804 218.624 47.4368C218.509 47.3932 218.384 47.3841 218.264 47.4106C218.143 47.4371 218.034 47.4981 217.948 47.586C217.861 47.674 217.803 47.7852 217.779 47.9059L211.95 66.0848L205.688 33.6826L199.425 69.3159L193.163 64.4693L188.167 50.3958C187.883 49.5631 186.867 49.8296 186.867 50.6956L186.859 70.9647Z" fill="#08A202"/>
<path d="M274.531 70.9898H186.859V60.6054L193.055 50.296C193.098 50.2248 193.127 50.1454 193.138 50.0628L198.651 19.4759C198.681 19.3203 198.764 19.18 198.887 19.0791C199.009 18.9783 199.163 18.9231 199.321 18.9231C199.48 18.9231 199.633 18.9783 199.756 19.0791C199.878 19.18 199.961 19.3203 199.992 19.4759L205.596 56.8164C205.631 57.0027 205.739 57.1674 205.896 57.2744L211.3 60.8719C211.378 60.9239 211.465 60.9593 211.557 60.9758C211.649 60.9923 211.744 60.9894 211.835 60.9675C211.925 60.9456 212.011 60.9051 212.085 60.8485C212.159 60.7919 212.221 60.7204 212.266 60.6387L217.704 50.9788C217.757 50.8854 217.831 50.806 217.921 50.7471C218.011 50.6882 218.113 50.6515 218.22 50.6401C218.326 50.6287 218.434 50.6429 218.534 50.6815C218.634 50.7202 218.724 50.7821 218.795 50.8622L224.433 57.1078L230.695 64.053L236.957 57.1078L242.47 50.9871C242.549 50.9014 242.648 50.8371 242.758 50.8005C242.869 50.7638 242.987 50.7559 243.101 50.7776C243.215 50.7993 243.322 50.8498 243.411 50.9244C243.5 50.999 243.569 51.0951 243.611 51.2037L249.44 66.8343H255.702L261.965 69.6157L268.227 65.452L273.223 53.3521C273.279 53.2012 273.386 53.075 273.526 52.9962C273.666 52.9174 273.83 52.8912 273.988 52.9223C274.145 52.9535 274.287 53.0399 274.386 53.166C274.486 53.2921 274.537 53.4497 274.531 53.6103V70.9898Z" fill="#263238"/>
<path d="M234.334 13.8049H253.737" stroke="#263238" stroke-width="1.30117" stroke-linecap="round" stroke-linejoin="round"/>
<path d="M234.334 18.3517H253.737" stroke="#263238" stroke-width="1.30117" stroke-linecap="round" stroke-linejoin="round"/>
<path d="M234.334 22.8903H253.737" stroke="#263238" stroke-width="1.30117" stroke-linecap="round" stroke-linejoin="round"/>
<path d="M234.334 27.437H253.737" stroke="#263238" stroke-width="1.30117" stroke-linecap="round" stroke-linejoin="round"/>
<path d="M234.334 31.9755H253.737" stroke="#263238" stroke-width="1.30117" stroke-linecap="round" stroke-linejoin="round"/>
<path d="M234.334 36.5223H253.737" stroke="#263238" stroke-width="1.30117" stroke-linecap="round" stroke-linejoin="round"/>
<path d="M229.921 13.8049H232.352" stroke="#263238" stroke-width="1.30117" stroke-linecap="round" stroke-linejoin="round"/>
<path d="M229.921 18.3517H232.352" stroke="#263238" stroke-width="1.30117" stroke-linecap="round" stroke-linejoin="round"/>
<path d="M229.921 22.8903H232.352" stroke="#263238" stroke-width="1.30117" stroke-linecap="round" stroke-linejoin="round"/>
<path d="M229.921 27.437H232.352" stroke="#263238" stroke-width="1.30117" stroke-linecap="round" stroke-linejoin="round"/>
<path d="M229.921 31.9755H232.352" stroke="#263238" stroke-width="1.30117" stroke-linecap="round" stroke-linejoin="round"/>
<path d="M229.921 36.5223H232.352" stroke="#263238" stroke-width="1.30117" stroke-linecap="round" stroke-linejoin="round"/>
<path d="M158.063 323.754C185.4 323.754 207.561 312.755 207.561 299.188C207.561 285.62 185.4 274.621 158.063 274.621C130.725 274.621 108.564 285.62 108.564 299.188C108.564 312.755 130.725 323.754 158.063 323.754Z" fill="#08A202"/>
<path opacity="0.5" d="M158.063 323.754C185.4 323.754 207.561 312.755 207.561 299.188C207.561 285.62 185.4 274.621 158.063 274.621C130.725 274.621 108.564 285.62 108.564 299.188C108.564 312.755 130.725 323.754 158.063 323.754Z" fill="white"/>
<path d="M141.433 114.001C141.433 114.001 128.725 159.328 128.725 162.817C128.725 165.79 132.889 171.727 137.485 169.346C142.082 166.964 143.123 159.552 143.123 159.552L141.433 114.001Z" fill="white" stroke="#263238" stroke-width="1.30117" stroke-linecap="round" stroke-linejoin="round"/>
<path d="M175.425 299.671C175.425 299.671 168.922 308.456 168.43 312.162C167.939 315.868 172.969 316.159 175.184 314.435C177.399 312.712 182.013 301.469 182.013 301.469L175.425 299.671Z" fill="white" stroke="#263238" stroke-width="1.30117" stroke-linecap="round" stroke-linejoin="round"/>
<path d="M139.934 278.519C139.934 278.519 128.8 283.199 128.8 285.872C128.8 288.545 134.587 287.871 138.793 286.313C142.998 284.756 149.702 282.083 149.702 282.083C149.702 282.083 143.273 277.853 139.934 278.519Z" fill="white" stroke="#263238" stroke-width="1.30117" stroke-linecap="round" stroke-linejoin="round"/>
<path d="M143.423 172.76L143.048 187.233C143.048 187.233 140.159 213.731 138.818 227.988C137.477 242.244 141.716 274.971 141.716 274.971L139.709 276.97V278.977L149.702 282.091C150.147 280.036 150.445 277.952 150.593 275.854V272.523L161.061 209.959C161.061 209.959 169.296 273.198 170.637 280.542C171.978 287.887 173.968 295.682 173.968 295.682L173.302 297.905L174.185 301.919L181.088 303.701C182.255 301.899 182.945 299.83 183.095 297.689C183.536 293.675 183.761 284.323 183.761 284.323C183.761 284.323 183.32 251.846 184.877 229.778C185.804 216.205 185.654 202.581 184.427 189.032L183.32 174.342C170.296 178.859 156.048 178.294 143.423 172.76Z" fill="#263238" stroke="#263238" stroke-width="1.30117" stroke-linecap="round" stroke-linejoin="round"/>
<path d="M161.086 209.942L159.97 201.706L155.523 197.034" stroke="white" stroke-width="1.30117" stroke-linecap="round" stroke-linejoin="round"/>
<path d="M176.675 180.779C176.675 180.779 173.552 186.567 182.012 189.24" stroke="white" stroke-width="1.30117" stroke-linecap="round" stroke-linejoin="round"/>
<path d="M182.012 191.913V294.774" stroke="white" stroke-width="1.30117" stroke-linecap="round" stroke-linejoin="round"/>
<path d="M153.957 182.112L154.848 187.458C154.848 187.458 152.625 191.463 153.516 193.245" stroke="white" stroke-width="1.30117" stroke-linecap="round" stroke-linejoin="round"/>
<path d="M158.421 108.222C158.421 108.222 141.724 113.11 141.433 114.001C141.141 114.892 143.423 172.76 143.423 172.76C143.423 172.76 147.878 179.588 160.078 180.629C172.278 181.67 183.828 175.283 183.828 175.283L191.789 122.595C191.789 122.595 172.636 109.529 171.303 109.229C169.971 108.93 162.135 107.181 158.421 108.222Z" fill="white" stroke="#263238" stroke-width="1.30117" stroke-linecap="round" stroke-linejoin="round"/>
<path d="M157.272 119.347L161.235 129.074L168.014 121.396C168.014 121.396 167.506 116.533 163.018 116.025C161.824 115.831 160.599 116.056 159.552 116.662C158.505 117.267 157.699 118.216 157.272 119.347Z" fill="#263238" stroke="#263238" stroke-width="1.30117" stroke-linecap="round" stroke-linejoin="round"/>
<path d="M158.421 108.222L151.384 119.347C151.384 119.347 155.481 118.323 157.396 119.989C159.312 121.654 161.494 123.444 161.494 123.444C161.494 123.444 164.825 120.755 167.506 121.654C169.342 122.33 171.066 123.279 172.619 124.469C172.619 124.469 174.285 113.468 172.111 108.48C169.938 103.492 163.026 101.693 158.421 108.222Z" fill="white" stroke="#263238" stroke-width="1.30117" stroke-linecap="round" stroke-linejoin="round"/>
<path d="M160.211 109.496C159.997 112.734 159.955 115.98 160.086 119.222C160.336 123.32 161.618 124.219 163.151 121.529C164.683 118.839 168.147 110.653 168.147 108.347C168.152 106.894 168.236 105.443 168.397 104C168.397 104 163.026 109.737 160.211 109.496Z" fill="white" stroke="#263238" stroke-width="1.30117" stroke-linecap="round" stroke-linejoin="round"/>
<path d="M161.235 129.074L154.582 162.975L159.062 174.234L164.566 165.024L161.235 129.074Z" fill="#263238" stroke="#263238" stroke-width="1.30117" stroke-linecap="round" stroke-linejoin="round"/>
<path d="M174.301 159.994C174.301 159.994 159.312 150.942 157.979 149.759C156.647 148.577 156.639 149.459 155.598 150.051C154.557 150.642 150.701 155.247 149.96 156.713C149.219 158.178 148.028 160.277 149.519 160.577C151.009 160.876 152.192 158.078 152.192 157.604C152.192 157.129 154.415 154.639 154.415 154.639C154.415 154.639 152.192 159.977 152.933 160.427C153.674 160.876 158.721 162.925 159.761 162.925C160.802 162.925 161.535 160.993 161.535 160.993C161.535 160.993 163.026 162.925 164.508 162.775C165.399 162.677 166.254 162.372 167.006 161.884L172.053 165.89L174.301 159.994Z" fill="white" stroke="#263238" stroke-width="1.30117" stroke-linecap="round" stroke-linejoin="round"/>
<path d="M174.301 159.994C174.301 159.994 172.436 158.87 169.971 157.362L167.772 162.517L172.078 165.931L174.301 159.994Z" fill="white" stroke="#263238" stroke-width="1.30117" stroke-linecap="round" stroke-linejoin="round"/>
<path d="M154.848 161.484C154.848 161.484 155.298 156.729 157.23 154.056" stroke="#263238" stroke-width="1.30117" stroke-linecap="round" stroke-linejoin="round"/>
<path d="M157.371 162.076C157.371 162.076 158.412 157.912 160.494 155.547" stroke="#263238" stroke-width="1.30117" stroke-linecap="round" stroke-linejoin="round"/>
<path d="M185.577 125.268C182.016 128.417 179.568 132.632 178.598 137.285L187.95 163.866C187.95 163.866 176.816 159.261 175.459 159.119C174.101 158.978 169.371 165.498 170.712 166.981C172.053 168.463 198.193 183.161 199.8 181.229C201.407 179.297 193.138 126.759 192.23 124.827C191.323 122.895 191.939 121.862 188.816 121.413" fill="white"/>
<path d="M185.577 125.268C182.016 128.417 179.568 132.632 178.598 137.285L187.95 163.866C187.95 163.866 176.816 159.261 175.459 159.119C174.101 158.978 169.371 165.498 170.712 166.981C172.053 168.463 198.193 183.161 199.8 181.229C201.407 179.297 193.138 126.759 192.23 124.827C191.323 122.895 191.939 121.862 188.816 121.413" stroke="#263238" stroke-width="1.30117" stroke-linecap="round" stroke-linejoin="round"/>
<path d="M187.95 163.866C187.95 163.866 193.296 165.057 194.778 167.872L187.95 163.866Z" fill="white"/>
<path d="M187.95 163.866C187.95 163.866 193.296 165.057 194.778 167.872" stroke="#263238" stroke-width="1.30117" stroke-linecap="round" stroke-linejoin="round"/>
<path d="M128.192 141.973L140.117 168.621C140.241 168.886 140.457 169.096 140.725 169.212L157.788 176.207C157.992 176.295 158.217 176.321 158.436 176.282C158.654 176.244 158.857 176.142 159.019 175.99C159.18 175.838 159.294 175.642 159.346 175.426C159.398 175.21 159.386 174.984 159.312 174.775L149.76 148.96C149.593 148.507 149.329 148.096 148.986 147.755C148.644 147.414 148.232 147.152 147.778 146.986L129.641 140.416C129.427 140.331 129.193 140.312 128.968 140.363C128.744 140.413 128.54 140.53 128.383 140.699C128.227 140.867 128.125 141.079 128.09 141.306C128.056 141.534 128.092 141.766 128.192 141.973Z" fill="#08A202" stroke="#263238" stroke-width="1.30117" stroke-linecap="round" stroke-linejoin="round"/>
<path d="M132.664 156.18C132.497 156.145 132.325 156.15 132.16 156.195C131.996 156.239 131.844 156.321 131.717 156.434C131.59 156.547 131.491 156.689 131.428 156.847C131.366 157.005 131.341 157.176 131.356 157.346C131.353 157.73 131.499 158.1 131.764 158.378C132.422 158.845 137.361 159.211 137.169 158.278C137.044 157.554 134.496 156.538 132.664 156.18Z" fill="white" stroke="#263238" stroke-width="1.30117" stroke-linecap="round" stroke-linejoin="round"/>
<path d="M131.123 154.381C130.925 154.34 130.72 154.346 130.525 154.398C130.33 154.45 130.149 154.548 129.998 154.682C129.847 154.816 129.729 154.984 129.654 155.172C129.579 155.359 129.549 155.562 129.566 155.763C129.562 156.22 129.739 156.66 130.057 156.988C130.832 157.537 136.719 157.979 136.47 156.871C136.295 156.013 133.272 154.806 131.123 154.381Z" fill="white" stroke="#263238" stroke-width="1.30117" stroke-linecap="round" stroke-linejoin="round"/>
<path d="M130.657 151.733C130.443 151.694 130.224 151.704 130.015 151.764C129.806 151.823 129.614 151.93 129.452 152.076C129.291 152.222 129.166 152.402 129.086 152.604C129.006 152.806 128.974 153.024 128.991 153.24C128.988 153.737 129.179 154.215 129.524 154.573C130.357 155.172 136.736 155.655 136.494 154.456C136.286 153.515 132.997 152.208 130.657 151.733Z" fill="white" stroke="#263238" stroke-width="1.30117" stroke-linecap="round" stroke-linejoin="round"/>
<path d="M129.699 149.21C129.486 149.171 129.266 149.181 129.057 149.241C128.848 149.3 128.656 149.407 128.495 149.553C128.334 149.698 128.209 149.879 128.129 150.081C128.049 150.283 128.016 150.501 128.034 150.717C128.028 150.964 128.072 151.209 128.164 151.438C128.255 151.667 128.392 151.875 128.567 152.049C129.399 152.649 135.778 153.132 135.537 151.933C135.32 150.992 132.039 149.709 129.699 149.21Z" fill="white" stroke="#263238" stroke-width="1.30117" stroke-linecap="round" stroke-linejoin="round"/>
<path d="M152.092 90.2511C152.092 90.2511 153.091 100.444 155.323 105.166C157.555 109.887 158.304 112.119 160.544 112.119C162.784 112.119 167.006 108.888 168.988 105.907C169.982 104.467 170.896 102.974 171.728 101.435L172.219 100.194C172.219 100.194 175.7 97.6959 176.45 95.9721C177.199 94.2483 175.7 92.9908 172.969 94.4814C172.969 94.4814 173.96 86.7785 171.97 82.0568C169.979 77.3352 154.832 81.807 152.092 90.2511Z" fill="white" stroke="#263238" stroke-width="1.30117" stroke-miterlimit="10"/>
<path d="M149.385 94.1234L166.174 97.546C166.174 97.546 166.29 100.153 164.508 100.977C163.632 101.352 162.669 101.473 161.728 101.325C160.787 101.178 159.906 100.769 159.187 100.144C157.888 98.9617 157.888 96.7133 157.888 96.7133C157.888 96.7133 156.822 95.8805 156.705 96.7133C156.585 97.4889 156.185 98.1937 155.581 98.6941C154.976 99.1944 154.209 99.4556 153.424 99.428C152.641 99.3898 151.887 99.1191 151.258 98.6504C150.629 98.1817 150.154 97.5363 149.893 96.7965C149.604 95.9326 149.433 95.0333 149.385 94.1234Z" fill="white" stroke="#263238" stroke-width="1.30117" stroke-linecap="round" stroke-linejoin="round"/>
<path d="M166.174 97.5459L173.152 93.8818" stroke="#263238" stroke-width="1.30117" stroke-linecap="round" stroke-linejoin="round"/>
<path d="M149.385 94.1234L152.1 93.0575" stroke="#263238" stroke-width="1.30117" stroke-linecap="round" stroke-linejoin="round"/>
<path d="M156.83 97.4294L155.648 101.81L157.072 102.159L157.421 105.59L159.67 104.999" fill="white"/>
<path d="M156.83 97.4294L155.648 101.81L157.072 102.159L157.421 105.59L159.67 104.999" stroke="#263238" stroke-width="1.30117" stroke-linecap="round" stroke-linejoin="round"/>
<path d="M159.312 73.8543C159.312 73.8543 149.369 81.5572 148.378 86.2789C147.387 91.0006 153.841 92.9908 158.071 92.2414C162.301 91.4919 168.472 87.5197 168.472 87.5197C168.472 87.5197 164.991 92.9908 167.723 93.2323C168.96 93.4109 170.216 93.4109 171.453 93.2323C171.453 93.2323 169.963 96.2219 171.203 96.2219C172.444 96.2219 172.944 94.4814 172.944 94.4814C172.944 94.4814 176.425 86.2789 175.442 78.8258C174.459 71.3727 165.266 69.1326 159.312 73.8543Z" fill="#263238" stroke="#263238" stroke-width="1.30117" stroke-miterlimit="10"/>
</g>
<defs>
<clipPath id="clip0_1_4196">
<rect width="320" height="320" fill="white"/>
</clipPath>
</defs>
</svg>
