<svg width="320" height="320" viewBox="0 0 320 320" fill="none" xmlns="http://www.w3.org/2000/svg">
<path d="M262.49 203.213C263.885 203.853 267.29 203.744 267.296 203.744C267.302 203.744 266.56 201.51 266.496 201.376C265.747 199.814 263.386 197.229 261.459 197.491C261.141 197.543 260.837 197.662 260.568 197.839C260.298 198.016 260.069 198.248 259.895 198.52C259.721 198.792 259.607 199.097 259.559 199.416C259.51 199.735 259.53 200.06 259.616 200.371C259.936 201.702 261.299 202.694 262.49 203.213Z" fill="#263238"/>
<path d="M263.68 213.12C265.126 213.331 268.16 212.448 268.41 212.378C268.909 214.124 269.524 215.834 270.253 217.498C270.669 218.464 271.123 219.418 271.59 220.384C271.309 219.981 271.059 219.616 271.021 219.571C269.882 218.259 266.918 216.371 265.133 217.152C264.84 217.286 264.578 217.481 264.365 217.723C264.152 217.965 263.992 218.249 263.896 218.557C263.8 218.865 263.77 219.19 263.808 219.51C263.846 219.83 263.95 220.139 264.115 220.416C264.755 221.619 266.355 222.214 267.635 222.4C268.915 222.586 271.546 221.888 272.237 221.696C272.416 222.061 272.595 222.432 272.781 222.797C273.658 224.55 274.547 226.298 275.341 228.032C275.629 228.672 275.885 229.261 276.154 229.875C275.904 229.517 275.693 229.235 275.654 229.171C274.522 227.859 271.558 225.971 269.773 226.752C269.479 226.885 269.217 227.08 269.003 227.322C268.789 227.564 268.629 227.848 268.533 228.156C268.437 228.464 268.407 228.789 268.445 229.11C268.484 229.43 268.589 229.739 268.755 230.016C269.395 231.219 270.995 231.814 272.275 232C273.555 232.186 275.93 231.552 276.755 231.328C277.005 231.968 277.261 232.608 277.472 233.248C277.613 233.683 277.773 234.086 277.888 234.528C278.003 234.97 278.125 235.398 278.246 235.808C278.445 236.64 278.656 237.491 278.829 238.31C278.957 238.874 279.066 239.418 279.174 239.962C278.893 239.322 278.323 238.157 278.266 238.042C277.344 236.576 274.694 234.278 272.813 234.758C272.502 234.847 272.214 235 271.966 235.208C271.718 235.415 271.517 235.672 271.375 235.963C271.233 236.253 271.154 236.57 271.143 236.893C271.131 237.216 271.188 237.537 271.309 237.837C271.782 239.117 273.229 239.949 274.509 240.326C275.872 240.742 278.886 240.365 279.264 240.326C279.45 241.229 279.616 242.106 279.757 242.938C280.269 245.824 280.582 248.243 280.774 249.939C280.813 250.24 280.838 250.509 280.87 250.765H275.021L275.418 258.509H288.858L289.254 250.765H283.808C283.846 250.682 283.885 250.598 283.93 250.515C284.672 248.954 285.709 246.72 286.829 243.981C287.187 243.117 287.546 242.189 287.91 241.229C288.275 241.306 291.264 241.914 292.659 241.6C293.939 241.312 295.456 240.595 296.019 239.347C296.166 239.056 296.25 238.737 296.264 238.412C296.278 238.086 296.223 237.761 296.102 237.458C295.98 237.156 295.796 236.882 295.562 236.656C295.327 236.43 295.046 236.257 294.739 236.147C292.896 235.507 290.086 237.619 289.056 239.014C288.998 239.098 288.416 240.064 288.096 240.678C288.243 240.288 288.384 239.904 288.531 239.501C288.826 238.701 289.094 237.894 289.389 237.024C289.517 236.597 289.645 236.171 289.773 235.744C289.914 235.322 290.003 234.848 290.118 234.4C290.368 233.35 290.573 232.269 290.758 231.2C291.462 231.456 293.958 232.326 295.238 232.237C296.518 232.147 298.15 231.674 298.899 230.522C299.085 230.258 299.213 229.957 299.275 229.641C299.338 229.324 299.332 228.998 299.26 228.683C299.187 228.368 299.049 228.073 298.855 227.815C298.66 227.557 298.414 227.343 298.131 227.187C296.403 226.298 293.306 227.942 292.077 229.165C292 229.242 291.219 230.214 290.797 230.765C290.899 230.125 291.008 229.453 291.091 228.787C291.328 226.867 291.514 224.902 291.699 222.95C291.757 222.355 291.827 221.76 291.885 221.165C292.134 221.254 295.085 222.355 296.544 222.253C297.824 222.163 299.456 221.69 300.205 220.538C300.391 220.274 300.519 219.974 300.581 219.658C300.643 219.342 300.637 219.016 300.565 218.702C300.492 218.388 300.355 218.092 300.16 217.835C299.966 217.578 299.719 217.365 299.437 217.21C297.709 216.32 294.611 217.958 293.382 219.181C293.293 219.277 292.166 220.685 291.898 221.056C292.038 219.744 292.186 218.438 292.39 217.152C292.649 215.422 293.024 213.712 293.51 212.032C293.626 212.077 296.71 213.242 298.189 213.133C299.469 213.043 301.107 212.57 301.856 211.418C302.041 211.153 302.167 210.853 302.229 210.537C302.29 210.221 302.283 209.895 302.21 209.581C302.137 209.267 301.999 208.972 301.805 208.715C301.61 208.458 301.364 208.245 301.082 208.09C299.354 207.2 296.262 208.838 295.034 210.061C294.938 210.157 293.754 211.674 293.523 211.981C293.555 211.885 293.574 211.782 293.6 211.686C294.135 210.011 294.816 208.385 295.635 206.829C296.077 205.965 296.544 205.165 297.024 204.397C297.574 204.672 300.109 205.901 301.459 205.952C302.81 206.003 304.416 205.715 305.299 204.672C305.512 204.429 305.671 204.145 305.766 203.836C305.862 203.528 305.891 203.203 305.853 202.883C305.815 202.563 305.711 202.254 305.546 201.977C305.381 201.699 305.159 201.46 304.896 201.274C303.277 200.198 300.026 201.491 298.669 202.554C298.592 202.611 297.907 203.296 297.421 203.795C297.638 203.45 297.856 203.091 298.061 202.771C298.874 201.542 299.693 200.474 300.429 199.533C300.851 199.002 301.242 198.528 301.613 198.086C302.291 198.086 305.043 197.99 306.246 197.446C307.45 196.902 308.755 195.872 309.043 194.528C309.121 194.215 309.132 193.889 309.075 193.572C309.018 193.254 308.895 192.952 308.714 192.685C308.533 192.419 308.298 192.193 308.024 192.023C307.75 191.853 307.443 191.743 307.123 191.699C305.203 191.494 302.899 194.138 302.195 195.725C302.131 195.859 301.427 198.112 301.459 198.112H301.504C301.139 198.522 300.749 198.976 300.339 199.475C299.584 200.403 298.739 201.453 297.894 202.675C296.963 203.968 296.108 205.314 295.334 206.707C294.47 208.263 293.746 209.893 293.171 211.578C293.173 211.599 293.173 211.62 293.171 211.642C293.171 211.072 293.171 209.478 293.171 209.357C292.947 207.635 291.507 204.442 289.594 204.09C289.275 204.04 288.949 204.058 288.638 204.142C288.326 204.227 288.036 204.376 287.786 204.58C287.536 204.784 287.332 205.038 287.187 205.327C287.042 205.615 286.959 205.93 286.944 206.253C286.829 207.616 287.821 208.986 288.787 209.85C289.875 210.822 292.902 211.77 293.146 211.84C292.598 213.566 292.171 215.328 291.866 217.114C291.68 218.157 291.526 219.206 291.386 220.262C291.386 219.77 291.386 219.334 291.386 219.27C291.162 217.549 289.722 214.355 287.808 214.003C287.489 213.954 287.164 213.973 286.853 214.058C286.542 214.143 286.252 214.292 286.002 214.496C285.753 214.7 285.549 214.954 285.403 215.242C285.258 215.529 285.174 215.844 285.158 216.166C285.05 217.536 286.035 218.899 287.002 219.763C287.968 220.627 290.547 221.498 291.226 221.683C291.181 222.093 291.123 222.496 291.072 222.906C290.842 224.826 290.618 226.797 290.342 228.698C290.24 229.338 290.118 230.029 290.003 230.682C290.003 230.246 290.003 229.882 290.003 229.824C289.779 228.102 288.339 224.909 286.432 224.557C286.113 224.508 285.788 224.527 285.477 224.612C285.166 224.696 284.876 224.846 284.627 225.05C284.377 225.253 284.173 225.507 284.027 225.795C283.882 226.083 283.798 226.398 283.782 226.72C283.667 228.083 284.659 229.453 285.626 230.317C286.592 231.181 288.915 231.962 289.728 232.237C289.587 232.909 289.446 233.581 289.274 234.221C289.152 234.656 289.062 235.085 288.915 235.501C288.768 235.917 288.64 236.358 288.499 236.781C288.211 237.581 287.91 238.413 287.61 239.187C287.405 239.725 287.194 240.237 286.97 240.755C287.072 240.115 287.251 238.778 287.251 238.669C287.228 237.144 286.816 235.651 286.054 234.33C286.06 234.158 286.049 233.987 286.022 233.818C285.979 233.5 285.87 233.194 285.702 232.921C285.533 232.648 285.309 232.414 285.045 232.233C284.78 232.052 284.48 231.928 284.164 231.871C283.849 231.813 283.525 231.822 283.213 231.898C281.338 232.397 280.147 235.686 280.058 237.421C280.058 237.523 280.122 238.637 280.173 239.341C280.077 238.931 279.994 238.534 279.891 238.118C279.693 237.286 279.469 236.461 279.251 235.558C279.123 235.136 278.995 234.707 278.861 234.278C278.726 233.85 278.56 233.408 278.406 232.966C278.035 231.955 277.613 230.944 277.158 229.933C277.888 229.76 280.454 229.107 281.491 228.314C282.528 227.52 283.61 226.234 283.597 224.864C283.606 224.541 283.547 224.22 283.424 223.922C283.3 223.623 283.116 223.354 282.881 223.132C282.647 222.91 282.368 222.739 282.064 222.632C281.759 222.525 281.436 222.483 281.114 222.509C279.194 222.72 277.51 225.798 277.158 227.494C277.158 227.603 277.024 228.845 276.973 229.536C276.698 228.928 276.422 228.326 276.128 227.725C275.264 225.984 274.336 224.25 273.414 222.522C273.133 221.99 272.864 221.459 272.582 220.928C272.845 220.87 275.917 220.154 277.062 219.264C278.086 218.477 279.181 217.19 279.168 215.814C279.177 215.492 279.118 215.171 278.995 214.873C278.872 214.575 278.687 214.306 278.452 214.084C278.218 213.862 277.939 213.693 277.635 213.586C277.33 213.479 277.006 213.438 276.685 213.466C274.765 213.677 273.082 216.749 272.73 218.451C272.73 218.579 272.538 220.371 272.525 220.832C271.917 219.661 271.322 218.483 270.778 217.306C270.031 215.717 269.39 214.082 268.858 212.41C268.979 212.41 272.186 211.654 273.37 210.746C274.4 209.958 275.488 208.666 275.482 207.296C275.49 206.973 275.43 206.653 275.306 206.355C275.183 206.057 274.998 205.788 274.764 205.566C274.53 205.344 274.252 205.174 273.948 205.066C273.643 204.958 273.32 204.916 272.998 204.941C271.078 205.152 269.389 208.23 269.043 209.926C269.011 210.061 268.838 211.994 268.832 212.346C268.832 212.25 268.762 212.147 268.736 212.051C268.255 210.36 267.925 208.629 267.75 206.88C267.642 205.92 267.59 204.992 267.565 204.09C268.205 204.013 270.97 203.642 272.128 202.938C273.286 202.234 274.458 201.107 274.598 199.738C274.644 199.418 274.621 199.092 274.531 198.782C274.442 198.472 274.288 198.184 274.079 197.937C273.871 197.691 273.613 197.491 273.322 197.351C273.031 197.212 272.713 197.135 272.39 197.126C270.47 197.126 268.448 199.994 267.91 201.645C267.878 201.734 267.686 202.682 267.552 203.366C267.552 202.963 267.552 202.541 267.552 202.15C267.552 200.678 267.648 199.334 267.744 198.144C267.802 197.466 267.866 196.864 267.936 196.288C268.493 195.904 270.739 194.317 271.43 193.184C272.122 192.051 272.659 190.483 272.154 189.203C272.043 188.901 271.871 188.626 271.648 188.394C271.425 188.163 271.155 187.981 270.857 187.861C270.559 187.74 270.239 187.683 269.918 187.694C269.597 187.705 269.281 187.783 268.992 187.923C267.264 188.819 266.81 192.288 267.072 194.003C267.072 194.15 267.75 196.416 267.776 196.397H267.808C267.738 196.947 267.661 197.536 267.59 198.176C267.475 199.366 267.354 200.736 267.315 202.189C267.26 203.777 267.299 205.367 267.43 206.95C267.568 208.725 267.863 210.483 268.314 212.205V212.269C268.006 211.789 267.11 210.477 267.034 210.349C265.901 209.069 262.938 207.149 261.146 207.93C260.852 208.064 260.591 208.258 260.378 208.5C260.165 208.743 260.005 209.027 259.909 209.335C259.813 209.643 259.783 209.967 259.821 210.287C259.858 210.608 259.963 210.916 260.128 211.194C260.8 212.307 262.4 212.902 263.68 213.12ZM282.938 238.573C283.93 239.648 286.477 240.909 286.81 241.069C286.458 241.92 286.112 242.746 285.779 243.52C284.608 246.208 283.533 248.403 282.765 249.92C282.611 250.227 282.47 250.502 282.336 250.752H282.208C282.17 250.451 282.131 250.112 282.08 249.766C281.843 248.051 281.44 245.613 280.896 242.726C280.717 241.811 280.506 240.806 280.256 239.834C281.17 239.456 282.062 239.024 282.925 238.541L282.938 238.573Z" fill="#263238"/>
<path d="M296.96 203.962C296.992 203.962 297.6 201.696 297.6 201.549C297.837 199.834 297.286 196.371 295.539 195.526C295.245 195.394 294.926 195.324 294.603 195.323C294.281 195.322 293.961 195.389 293.666 195.519C293.371 195.649 293.106 195.841 292.89 196.08C292.673 196.32 292.51 196.602 292.41 196.909C291.942 198.189 292.538 199.782 293.242 200.87C294.08 202.144 296.96 203.962 296.96 203.962Z" fill="#263238"/>
<path d="M293.901 58.7712H227.2V147.526H293.901V58.7712Z" stroke="#A1A1A1" stroke-linecap="round" stroke-linejoin="round"/>
<path d="M290.195 63.6992H230.906V142.592H290.195V63.6992Z" stroke="#A1A1A1" stroke-linecap="round" stroke-linejoin="round"/>
<path d="M269.818 90.8224H251.29V115.475H269.818V90.8224Z" stroke="#A1A1A1" stroke-linecap="round" stroke-linejoin="round"/>
<path d="M153.267 31.8336H38.0096V258.374H153.267V31.8336Z" stroke="#A1A1A1" stroke-linecap="round" stroke-linejoin="round"/>
<path d="M92.864 42.1504H49.1072V88.992H92.864V42.1504Z" stroke="#A1A1A1" stroke-linecap="round" stroke-linejoin="round"/>
<path d="M86.176 49.312H55.7952V81.8304H86.176V49.312Z" stroke="#A1A1A1" stroke-linecap="round" stroke-linejoin="round"/>
<path d="M55.7952 49.312L49.1072 42.1504" stroke="#A1A1A1" stroke-linecap="round" stroke-linejoin="round"/>
<path d="M86.176 81.8304L92.864 88.992" stroke="#A1A1A1" stroke-linecap="round" stroke-linejoin="round"/>
<path d="M86.176 49.312L92.864 42.1504" stroke="#A1A1A1" stroke-linecap="round" stroke-linejoin="round"/>
<path d="M55.7952 81.8304L49.1072 88.992" stroke="#A1A1A1" stroke-linecap="round" stroke-linejoin="round"/>
<path d="M144.902 42.1504H101.146V88.992H144.902V42.1504Z" stroke="#A1A1A1" stroke-linecap="round" stroke-linejoin="round"/>
<path d="M138.221 49.312H107.84V81.8304H138.221V49.312Z" stroke="#A1A1A1" stroke-linecap="round" stroke-linejoin="round"/>
<path d="M107.84 49.312L101.146 42.1504" stroke="#A1A1A1" stroke-linecap="round" stroke-linejoin="round"/>
<path d="M138.214 81.8304L144.909 88.992" stroke="#A1A1A1" stroke-linecap="round" stroke-linejoin="round"/>
<path d="M138.214 49.312L144.909 42.1504" stroke="#A1A1A1" stroke-linecap="round" stroke-linejoin="round"/>
<path d="M107.84 81.8304L101.146 88.992" stroke="#A1A1A1" stroke-linecap="round" stroke-linejoin="round"/>
<path d="M92.864 100.922H49.1072V147.763H92.864V100.922Z" stroke="#A1A1A1" stroke-linecap="round" stroke-linejoin="round"/>
<path d="M86.176 108.083H55.7952V140.602H86.176V108.083Z" stroke="#A1A1A1" stroke-linecap="round" stroke-linejoin="round"/>
<path d="M55.7952 108.083L49.1072 100.922" stroke="#A1A1A1" stroke-linecap="round" stroke-linejoin="round"/>
<path d="M86.176 140.602L92.864 147.763" stroke="#A1A1A1" stroke-linecap="round" stroke-linejoin="round"/>
<path d="M86.176 108.083L92.864 100.922" stroke="#A1A1A1" stroke-linecap="round" stroke-linejoin="round"/>
<path d="M55.7952 140.602L49.1072 147.763" stroke="#A1A1A1" stroke-linecap="round" stroke-linejoin="round"/>
<path d="M144.902 100.922H101.146V147.763H144.902V100.922Z" stroke="#A1A1A1" stroke-linecap="round" stroke-linejoin="round"/>
<path d="M138.221 108.083H107.84V140.602H138.221V108.083Z" stroke="#A1A1A1" stroke-linecap="round" stroke-linejoin="round"/>
<path d="M107.84 108.083L101.146 100.922" stroke="#A1A1A1" stroke-linecap="round" stroke-linejoin="round"/>
<path d="M138.214 140.602L144.909 147.763" stroke="#A1A1A1" stroke-linecap="round" stroke-linejoin="round"/>
<path d="M138.214 108.083L144.909 100.922" stroke="#A1A1A1" stroke-linecap="round" stroke-linejoin="round"/>
<path d="M107.84 140.602L101.146 147.763" stroke="#A1A1A1" stroke-linecap="round" stroke-linejoin="round"/>
<path d="M92.864 159.693H49.1072V206.534H92.864V159.693Z" stroke="#A1A1A1" stroke-linecap="round" stroke-linejoin="round"/>
<path d="M86.176 166.854H55.7952V199.373H86.176V166.854Z" stroke="#A1A1A1" stroke-linecap="round" stroke-linejoin="round"/>
<path d="M55.7952 166.854L49.1072 159.693" stroke="#A1A1A1" stroke-linecap="round" stroke-linejoin="round"/>
<path d="M86.176 199.373L92.864 206.534" stroke="#A1A1A1" stroke-linecap="round" stroke-linejoin="round"/>
<path d="M86.176 166.854L92.864 159.693" stroke="#A1A1A1" stroke-linecap="round" stroke-linejoin="round"/>
<path d="M55.7952 199.373L49.1072 206.534" stroke="#A1A1A1" stroke-linecap="round" stroke-linejoin="round"/>
<path d="M144.902 159.693H101.146V206.534H144.902V159.693Z" stroke="#A1A1A1" stroke-linecap="round" stroke-linejoin="round"/>
<path d="M138.221 166.854H107.84V199.373H138.221V166.854Z" stroke="#A1A1A1" stroke-linecap="round" stroke-linejoin="round"/>
<path d="M107.84 166.854L101.146 159.693" stroke="#A1A1A1" stroke-linecap="round" stroke-linejoin="round"/>
<path d="M138.214 199.373L144.909 206.534" stroke="#A1A1A1" stroke-linecap="round" stroke-linejoin="round"/>
<path d="M138.214 166.854L144.909 159.693" stroke="#A1A1A1" stroke-linecap="round" stroke-linejoin="round"/>
<path d="M107.84 199.373L101.146 206.534" stroke="#A1A1A1" stroke-linecap="round" stroke-linejoin="round"/>
<path d="M92.864 218.464H49.1072V258.374H92.864V218.464Z" stroke="#A1A1A1" stroke-linecap="round" stroke-linejoin="round"/>
<path d="M86.176 225.626H55.7952V258.144H86.176V225.626Z" stroke="#A1A1A1" stroke-linecap="round" stroke-linejoin="round"/>
<path d="M55.7952 225.626L49.1072 218.464" stroke="#A1A1A1" stroke-linecap="round" stroke-linejoin="round"/>
<path d="M86.176 225.626L92.864 218.464" stroke="#A1A1A1" stroke-linecap="round" stroke-linejoin="round"/>
<path d="M144.902 218.464H101.146V258.374H144.902V218.464Z" stroke="#A1A1A1" stroke-linecap="round" stroke-linejoin="round"/>
<path d="M138.221 225.626H107.84V258.144H138.221V225.626Z" stroke="#A1A1A1" stroke-linecap="round" stroke-linejoin="round"/>
<path d="M107.84 225.626L101.146 218.464" stroke="#A1A1A1" stroke-linecap="round" stroke-linejoin="round"/>
<path d="M138.214 225.626L144.909 218.464" stroke="#A1A1A1" stroke-linecap="round" stroke-linejoin="round"/>
<path d="M47.5904 153.395C47.5904 152.685 47.3798 151.991 46.9853 151.4C46.5908 150.81 46.0301 150.35 45.374 150.078C44.7179 149.806 43.996 149.735 43.2996 149.874C42.6031 150.012 41.9633 150.354 41.4612 150.856C40.9591 151.359 40.6171 151.998 40.4786 152.695C40.3401 153.391 40.4112 154.113 40.6829 154.769C40.9547 155.425 41.4148 155.986 42.0053 156.38C42.5957 156.775 43.2899 156.986 44 156.986C44.9522 156.986 45.8655 156.607 46.5388 155.934C47.2121 155.261 47.5904 154.347 47.5904 153.395Z" stroke="#A1A1A1" stroke-linecap="round" stroke-linejoin="round"/>
<path d="M276.205 258.374C274.125 244.39 264.973 182.598 265.133 180.749C265.306 178.656 240.755 170.995 240.755 170.995L227.002 170.47V170.304L224.826 170.387L222.65 170.304V170.47L208.896 170.995C208.896 170.995 184.352 178.675 184.525 180.749C184.678 182.598 175.526 244.39 173.453 258.374H276.205Z" fill="#08A202" stroke="#263238" stroke-linecap="round" stroke-linejoin="round"/>
<path d="M264.71 180.141L265.133 180.749C265.146 180.576 264.992 180.371 264.71 180.141Z" fill="#263238" stroke="#263238" stroke-linecap="round" stroke-linejoin="round"/>
<path d="M240.915 184.96L260.934 178.163C253.965 175.142 240.755 171.021 240.755 171.021L234.534 170.784L240.915 184.96Z" fill="#263238" stroke="#263238" stroke-linecap="round" stroke-linejoin="round"/>
<path d="M265.344 182.989L272.64 258.374H276.23C274.336 245.76 266.733 194.445 265.344 182.989Z" fill="#263238" stroke="#263238" stroke-linecap="round" stroke-linejoin="round"/>
<path d="M275.238 258.374L263.206 233.696L256.838 233.843L256.019 258.374H275.238Z" fill="#08A202" stroke="#263238" stroke-linecap="round" stroke-linejoin="round"/>
<path d="M253.651 204.934V201.978" stroke="#263238" stroke-linecap="round" stroke-linejoin="round"/>
<path d="M253.651 232.026V208.32" stroke="#263238" stroke-linecap="round" stroke-linejoin="round"/>
<path d="M193.619 258.374L192.8 233.843L186.432 233.696L174.4 258.374H193.619Z" fill="#08A202" stroke="#263238" stroke-linecap="round" stroke-linejoin="round"/>
<path d="M195.987 211.136V201.978" stroke="#263238" stroke-linecap="round" stroke-linejoin="round"/>
<path d="M195.987 232.026V213.389" stroke="#263238" stroke-linecap="round" stroke-linejoin="round"/>
<path d="M217.952 186.669L224.915 195.718L217.254 246.035L226.304 257.35L233.619 245.165L226.304 195.2L233.446 186.317L226.656 178.31L217.952 186.669Z" fill="#263238" stroke="#263238" stroke-linecap="round" stroke-linejoin="round"/>
<path d="M226.163 183.68C226.163 183.68 219.341 187.52 217.427 189.952C215.514 192.384 210.989 197.088 210.989 197.632C210.989 198.176 206.637 181.446 206.637 176.224C206.637 171.002 206.112 171.52 207.507 169.952C208.902 168.384 213.267 164.032 214.47 163.514C215.674 162.995 236.576 163.341 237.798 163.859C239.021 164.378 242.15 170.65 243.021 172.742C243.452 173.696 243.801 174.686 244.064 175.699C244.064 175.699 242.144 187.014 241.798 189.779C241.453 192.544 238.842 198.483 238.842 198.483C238.842 198.483 230.835 189.088 230.31 187.866C229.786 186.643 226.163 183.68 226.163 183.68Z" fill="#08A202" stroke="#263238" stroke-linecap="round" stroke-linejoin="round"/>
<path d="M213.421 156.723L213.606 169.779L226.163 183.706L237.082 170.822L237.446 157.242L213.421 156.723Z" fill="white" stroke="#263238" stroke-linecap="round" stroke-linejoin="round"/>
<path d="M220.205 161.958L220.934 163.181L235.994 172.115L237.082 170.822L237.446 157.242L218.682 156.838L220.205 161.958Z" fill="#263238"/>
<path d="M210.515 137.197C210.515 137.197 208.531 130.835 205.498 132.442C202.464 134.048 203.731 140.902 205.555 142.899C206.89 144.21 208.521 145.181 210.31 145.728C210.31 145.728 209.382 154.746 213.421 158.061C217.459 161.376 219.181 165.466 221.626 165.574C224.07 165.683 229.99 165.574 231.046 165.299C232.102 165.024 237.882 160.544 239.104 156.595C239.853 154.12 240.317 151.566 240.486 148.986C240.486 148.986 246.854 142.995 247.181 139.526C247.507 136.058 244.621 134.88 243.187 135.341L241.773 135.802L242.592 125.203C242.592 125.203 250.97 124.883 251.008 124.013C251.046 123.142 247.59 118.63 247.59 118.63C247.59 118.63 257.869 118.739 258.579 114.419C259.29 110.099 250.432 105.69 247.782 106.445C245.133 107.2 240.922 107.878 240.922 107.878C240.922 107.878 247.027 103.795 244.333 101.76C241.638 99.7248 236.397 100.013 233.338 102.138C231.754 103.18 230.296 104.402 228.992 105.779C227.143 103.985 224.725 102.892 222.157 102.688C217.818 102.317 215.296 104.122 216.493 104.698C217.183 105.014 217.766 105.526 218.17 106.17C218.17 106.17 209.376 108.045 208.269 113.21C207.162 118.374 210.515 137.197 210.515 137.197Z" fill="white" stroke="#263238" stroke-linecap="round" stroke-linejoin="round"/>
<path d="M243.2 135.341L242.093 135.699L241.165 138.035L240.525 148.986C240.525 148.986 246.893 142.995 247.219 139.526C247.546 136.058 244.602 134.88 243.2 135.341Z" fill="#263238"/>
<path d="M216.698 136.256L221.325 136.672" stroke="#263238" stroke-linecap="round" stroke-linejoin="round"/>
<path d="M232.506 137.171L236.947 136.947" stroke="#263238" stroke-linecap="round" stroke-linejoin="round"/>
<path d="M208.378 133.19L210.515 137.197C210.052 135.743 209.327 134.385 208.378 133.19Z" stroke="#263238" stroke-linecap="round" stroke-linejoin="round"/>
<path d="M258.56 114.419C259.277 110.093 250.515 106.445 247.763 106.445C245.401 106.437 243.064 106.925 240.902 107.878C240.902 107.878 247.008 103.795 244.314 101.76C241.619 99.7248 236.378 100.013 233.318 102.138C231.735 103.18 230.276 104.402 228.973 105.779C227.123 103.985 224.706 102.892 222.138 102.688C217.798 102.317 215.277 104.122 216.474 104.698C217.164 105.014 217.747 105.526 218.15 106.17C218.15 106.17 209.357 108.045 208.25 113.21C207.142 118.374 210.496 137.184 210.496 137.184L211.917 136.544C211.852 134.695 212.234 132.857 213.03 131.187C214.387 128.115 216.006 126.963 216.102 124.704C216.198 122.445 213.971 117.811 216.806 116.723C219.642 115.635 236.646 116.723 238.4 117.158C240.154 117.594 241.261 119.379 240.614 122.138C239.968 124.896 239.411 125.741 240.045 127.168C240.678 128.595 241.325 133.325 241.274 134.714L241.216 136.102L241.133 138.022L241.99 135.712L241.754 135.789L242.573 125.19C242.573 125.19 250.95 124.87 250.989 124C251.027 123.13 247.571 118.618 247.571 118.618C247.571 118.618 257.869 118.739 258.56 114.419Z" fill="#263238" stroke="#263238" stroke-linecap="round" stroke-linejoin="round"/>
<path d="M242.56 117.171C243.209 117.526 243.885 117.828 244.582 118.074" stroke="#6E6E6E" stroke-linecap="round" stroke-linejoin="round"/>
<path d="M223.872 112.064C223.872 112.064 233.536 116.307 235.469 115.763C237.402 115.219 236.16 111.36 236.16 111.36C237.421 113.127 238.95 114.686 240.691 115.981" stroke="#6E6E6E" stroke-linecap="round" stroke-linejoin="round"/>
<path d="M230.342 130.24L229.062 135.584C229.062 135.584 229.568 139.789 229.978 142.419C230.244 143.873 230.116 145.371 229.606 146.758L222.65 146.451L231.258 148.262L232.371 145.888L230.221 135.277L230.342 130.24Z" fill="#263238" stroke="#263238" stroke-linecap="round" stroke-linejoin="round"/>
<path d="M219.718 149.632C220.591 150.625 221.813 151.241 223.13 151.354L229.389 151.629C229.94 151.608 230.48 151.468 230.973 151.22C231.466 150.972 231.899 150.62 232.243 150.189" stroke="#263238" stroke-linecap="round" stroke-linejoin="round"/>
<path d="M221.254 133.581C221.216 134.355 220.864 134.97 220.461 134.95C220.058 134.931 219.757 134.31 219.821 133.517C219.885 132.723 220.211 132.128 220.614 132.141C221.018 132.154 221.286 132.806 221.254 133.581Z" fill="#263238" stroke="#263238" stroke-linecap="round" stroke-linejoin="round"/>
<path d="M233.792 134.138C233.76 134.912 233.402 135.526 232.998 135.507C232.595 135.488 232.301 134.867 232.358 134.074C232.416 133.28 232.749 132.685 233.152 132.704C233.555 132.723 233.824 133.363 233.792 134.138Z" fill="#263238" stroke="#263238" stroke-linecap="round" stroke-linejoin="round"/>
<path d="M217.197 128.083C219.777 127.287 222.561 127.474 225.011 128.608" stroke="#263238" stroke-width="3" stroke-linecap="round" stroke-linejoin="round"/>
<path d="M230.925 128.87C230.925 128.87 234.317 127.104 237.005 129.312" stroke="#263238" stroke-width="3" stroke-linecap="round" stroke-linejoin="round"/>
<path d="M236.416 225.363C234.45 224.053 232.651 222.508 231.059 220.762C230.753 220.408 230.332 220.173 229.87 220.097C229.409 220.021 228.935 220.109 228.531 220.346L227.379 220.986C227.047 221.176 226.776 221.458 226.601 221.799C226.426 222.14 226.354 222.525 226.394 222.906C226.509 224.186 226.893 226.106 228.128 227.328C229.292 228.504 230.622 229.502 232.077 230.291L237.798 228.122L236.416 225.363Z" fill="white" stroke="#263238" stroke-linecap="round" stroke-linejoin="round"/>
<path d="M211.341 225.363C211.341 225.363 214.995 222.976 217.03 220.346C217.223 220.102 217.497 219.937 217.801 219.881C218.106 219.824 218.421 219.88 218.688 220.038L220.755 221.229C220.96 221.347 221.129 221.519 221.242 221.727C221.355 221.935 221.408 222.17 221.395 222.406C221.338 223.616 221.03 225.926 219.622 227.334C218.458 228.51 217.128 229.509 215.674 230.298L209.952 228.128L211.341 225.363Z" fill="white" stroke="#263238" stroke-linecap="round" stroke-linejoin="round"/>
<path d="M262.771 258.374V228.128C262.771 227.587 262.556 227.067 262.173 226.684C261.79 226.301 261.271 226.086 260.73 226.086H188.614C188.346 226.086 188.08 226.138 187.831 226.24C187.583 226.342 187.357 226.492 187.167 226.682C186.976 226.872 186.825 227.097 186.722 227.345C186.619 227.593 186.566 227.859 186.566 228.128V258.374H262.771Z" fill="#737373" stroke="#263238" stroke-linecap="round" stroke-linejoin="round"/>
<path d="M261.76 226.362C261.455 226.183 261.109 226.088 260.755 226.086H188.614C188.297 226.086 187.984 226.16 187.701 226.302C187.418 226.444 187.171 226.651 186.982 226.906C191.866 231.014 217.472 252.256 225.99 252.582C234.803 252.928 256.243 231.904 261.76 226.362Z" stroke="#263238" stroke-linecap="round" stroke-linejoin="round"/>
<path d="M230.042 245.056H221.837V258.182H230.042V245.056Z" fill="#263238" stroke="#263238" stroke-linecap="round" stroke-linejoin="round"/>
<path d="M212.064 218.003H209.491C208.682 218.003 208.026 218.659 208.026 219.469V228.205C208.026 229.014 208.682 229.67 209.491 229.67H212.064C212.873 229.67 213.53 229.014 213.53 228.205V219.469C213.53 218.659 212.873 218.003 212.064 218.003Z" fill="white" stroke="#263238" stroke-linecap="round" stroke-linejoin="round"/>
<path d="M208.877 229.562C209.049 229.634 209.234 229.671 209.421 229.67H212.134C212.357 229.672 212.577 229.619 212.774 229.517V226.195H208.896L208.877 229.562Z" stroke="#263238" stroke-linecap="round" stroke-linejoin="round"/>
<path d="M209.267 221.837H212.173" stroke="#263238" stroke-linecap="round" stroke-linejoin="round"/>
<path d="M209.85 220.8C210.254 220.632 210.693 220.562 211.13 220.596C211.567 220.629 211.99 220.765 212.365 220.992" stroke="#263238" stroke-linecap="round" stroke-linejoin="round"/>
<path d="M200.25 218.003H197.677C196.867 218.003 196.211 218.659 196.211 219.469V228.205C196.211 229.014 196.867 229.67 197.677 229.67H200.25C201.059 229.67 201.715 229.014 201.715 228.205V219.469C201.715 218.659 201.059 218.003 200.25 218.003Z" fill="white" stroke="#263238" stroke-linecap="round" stroke-linejoin="round"/>
<path d="M197.062 229.562C197.235 229.634 197.42 229.671 197.606 229.67H200.32C200.543 229.674 200.763 229.621 200.96 229.517V226.195H197.12L197.062 229.562Z" stroke="#263238" stroke-linecap="round" stroke-linejoin="round"/>
<path d="M197.453 221.837H200.358" stroke="#263238" stroke-linecap="round" stroke-linejoin="round"/>
<path d="M198.029 220.8C198.435 220.632 198.874 220.562 199.312 220.595C199.75 220.629 200.175 220.765 200.55 220.992" stroke="#263238" stroke-linecap="round" stroke-linejoin="round"/>
<path d="M193.952 220.224H192.429C191.619 220.224 190.963 220.88 190.963 221.69V228.205C190.963 229.014 191.619 229.67 192.429 229.67H193.952C194.761 229.67 195.418 229.014 195.418 228.205V221.69C195.418 220.88 194.761 220.224 193.952 220.224Z" fill="white" stroke="#263238" stroke-linecap="round" stroke-linejoin="round"/>
<path d="M191.654 229.581C191.792 229.64 191.94 229.67 192.09 229.67H194.291C194.464 229.666 194.635 229.625 194.79 229.549V226.854H191.654V229.581Z" stroke="#263238" stroke-linecap="round" stroke-linejoin="round"/>
<path d="M191.968 223.322H194.317" stroke="#263238" stroke-linecap="round" stroke-linejoin="round"/>
<path d="M192.435 222.464C192.764 222.328 193.12 222.27 193.474 222.297C193.829 222.324 194.172 222.434 194.477 222.618" stroke="#263238" stroke-linecap="round" stroke-linejoin="round"/>
<path d="M205.965 216.474H203.392C202.583 216.474 201.926 217.13 201.926 217.939V228.205C201.926 229.014 202.583 229.67 203.392 229.67H205.965C206.774 229.67 207.43 229.014 207.43 228.205V217.939C207.43 217.13 206.774 216.474 205.965 216.474Z" fill="white" stroke="#263238" stroke-linecap="round" stroke-linejoin="round"/>
<path d="M202.778 229.562C202.948 229.634 203.13 229.671 203.315 229.67H206.035C206.258 229.674 206.478 229.621 206.675 229.517V226.195H202.803L202.778 229.562Z" stroke="#263238" stroke-linecap="round" stroke-linejoin="round"/>
<path d="M203.162 221.837H206.074" stroke="#263238" stroke-linecap="round" stroke-linejoin="round"/>
<path d="M203.744 220.8C204.15 220.632 204.59 220.562 205.028 220.595C205.466 220.629 205.89 220.765 206.266 220.992" stroke="#263238" stroke-linecap="round" stroke-linejoin="round"/>
<path d="M236.589 229.67H239.162C239.971 229.67 240.627 229.014 240.627 228.205V219.469C240.627 218.659 239.971 218.003 239.162 218.003H236.589C235.779 218.003 235.123 218.659 235.123 219.469V228.205C235.123 229.014 235.779 229.67 236.589 229.67Z" fill="white" stroke="#263238" stroke-linecap="round" stroke-linejoin="round"/>
<path d="M239.776 229.562C239.604 229.634 239.419 229.671 239.232 229.67H236.518C236.296 229.674 236.075 229.621 235.878 229.517V226.195H239.718L239.776 229.562Z" stroke="#263238" stroke-linecap="round" stroke-linejoin="round"/>
<path d="M239.386 221.837H236.48" stroke="#263238" stroke-linecap="round" stroke-linejoin="round"/>
<path d="M238.81 220.8C238.404 220.632 237.964 220.562 237.526 220.595C237.088 220.629 236.664 220.765 236.288 220.992" stroke="#263238" stroke-linecap="round" stroke-linejoin="round"/>
<path d="M248.403 229.67H250.976C251.785 229.67 252.442 229.014 252.442 228.205V219.469C252.442 218.659 251.785 218.003 250.976 218.003H248.403C247.594 218.003 246.938 218.659 246.938 219.469V228.205C246.938 229.014 247.594 229.67 248.403 229.67Z" fill="white" stroke="#263238" stroke-linecap="round" stroke-linejoin="round"/>
<path d="M251.59 229.562C251.42 229.634 251.237 229.671 251.053 229.67H248.32C248.097 229.673 247.877 229.62 247.68 229.517V226.195H251.552L251.59 229.562Z" stroke="#263238" stroke-linecap="round" stroke-linejoin="round"/>
<path d="M251.206 221.837H248.301" stroke="#263238" stroke-linecap="round" stroke-linejoin="round"/>
<path d="M250.624 220.8C250.218 220.632 249.778 220.562 249.34 220.595C248.902 220.629 248.478 220.765 248.102 220.992" stroke="#263238" stroke-linecap="round" stroke-linejoin="round"/>
<path d="M254.707 229.664H256.23C257.04 229.664 257.696 229.008 257.696 228.198V221.683C257.696 220.874 257.04 220.218 256.23 220.218H254.707C253.898 220.218 253.242 220.874 253.242 221.683V228.198C253.242 229.008 253.898 229.664 254.707 229.664Z" fill="white" stroke="#263238" stroke-linecap="round" stroke-linejoin="round"/>
<path d="M257.005 229.581C256.865 229.64 256.715 229.671 256.563 229.67H254.368C254.195 229.668 254.024 229.626 253.869 229.549V226.854H257.005V229.581Z" stroke="#263238" stroke-linecap="round" stroke-linejoin="round"/>
<path d="M256.691 223.322H254.336" stroke="#263238" stroke-linecap="round" stroke-linejoin="round"/>
<path d="M256.218 222.464C255.89 222.328 255.535 222.27 255.182 222.297C254.828 222.324 254.486 222.434 254.182 222.618" stroke="#263238" stroke-linecap="round" stroke-linejoin="round"/>
<path d="M242.688 229.664H245.261C246.07 229.664 246.726 229.008 246.726 228.198V217.933C246.726 217.123 246.07 216.467 245.261 216.467H242.688C241.878 216.467 241.222 217.123 241.222 217.933V228.198C241.222 229.008 241.878 229.664 242.688 229.664Z" fill="white" stroke="#263238" stroke-linecap="round" stroke-linejoin="round"/>
<path d="M245.875 229.562C245.705 229.634 245.522 229.671 245.338 229.67H242.624C242.401 229.673 242.181 229.62 241.984 229.517V226.195H245.856L245.875 229.562Z" stroke="#263238" stroke-linecap="round" stroke-linejoin="round"/>
<path d="M245.491 221.837H242.586" stroke="#263238" stroke-linecap="round" stroke-linejoin="round"/>
<path d="M244.909 220.8C244.504 220.632 244.065 220.562 243.628 220.596C243.191 220.629 242.768 220.765 242.394 220.992" stroke="#263238" stroke-linecap="round" stroke-linejoin="round"/>
<path d="M74.1121 258.374H302.118" stroke="#263238" stroke-linecap="round" stroke-linejoin="round"/>
<path d="M141.299 240.237L145.318 260.365H131.898L141.299 240.237Z" fill="#263238" stroke="#263238" stroke-linecap="round" stroke-linejoin="round"/>
<path d="M136.723 261.971H64.1152L68.6912 240.237H141.299L136.723 261.971Z" fill="#08A202" stroke="#263238" stroke-linecap="round" stroke-linejoin="round"/>
<path d="M77.0496 96.4224C77.0496 96.4224 60.9216 105.523 60.512 107.379C60.1024 109.235 60.9216 128.883 60.3008 130.33C59.68 131.776 51.0016 144.8 51.0016 151.622C51.0016 158.445 50.7968 195.456 50.7968 195.456L39.04 216.749L67.5712 227.085L81.8368 205.376C81.8368 205.376 91.3472 196.902 93.4144 194.835L90.0736 95.808L77.0496 96.4224Z" fill="white" stroke="#263238" stroke-linecap="round" stroke-linejoin="round"/>
<path d="M69.6064 112.134C69.6064 112.134 77.2544 114.413 79.9424 117.101" stroke="#263238" stroke-linecap="round" stroke-linejoin="round"/>
<path d="M71.8784 125.779C71.8784 125.779 74.1568 125.139 78.2784 125.574" stroke="#263238" stroke-linecap="round" stroke-linejoin="round"/>
<path d="M71.4431 64.352C71.4431 64.352 91.4751 200.915 91.7759 205.792C92.0767 210.669 92.384 216.717 92.384 216.717C92.384 216.717 116.966 210.65 133.05 208.525C149.133 206.4 202.547 201.85 202.547 201.85C202.547 201.85 188.89 108.07 187.072 95.6096C185.254 83.1488 179.482 45.536 179.482 45.536C179.482 45.536 121.824 50.6944 103.917 50.6944C92.435 50.7687 80.9741 51.6821 69.6255 53.4272L71.4431 64.352Z" fill="white" stroke="#263238" stroke-linecap="round" stroke-linejoin="round"/>
<path d="M94.3616 63.776C95.776 63.6672 96.4608 64.3456 96.6336 65.696L96.7296 66.4384C96.8576 67.4304 96.5888 68.0768 95.8528 68.3584C96.704 68.5376 97.1008 69.1904 97.2288 70.1568L97.408 71.5648C97.4275 71.9416 97.5373 72.3081 97.728 72.6336L96.7104 72.7168C96.5261 72.3824 96.421 72.0102 96.4032 71.6288L96.2176 70.208C96.0896 69.184 95.5776 68.928 94.7328 68.9664L94.0288 69.0176L94.528 72.8576L93.5232 72.9344L92.352 63.936L94.3616 63.776ZM94.656 68.064C95.4496 68 95.8912 67.7056 95.7696 66.7264L95.6544 65.856C95.552 65.0432 95.2 64.64 94.4512 64.6976L93.4784 64.7744L93.9072 68.1216L94.656 68.064Z" fill="#263238"/>
<path d="M101.12 67.3024L101.235 68.2112L99.0335 68.3776L99.4495 71.5776L102.15 71.3664L102.272 72.288L98.5663 72.5696L97.3951 63.5264L101.101 63.2384L101.222 64.16L98.5215 64.3648L98.9183 67.456L101.12 67.3024Z" fill="#263238"/>
<path d="M106.31 65.0688L106.419 65.8816L105.466 65.952L105.357 65.088C105.248 64.2752 104.864 63.808 104.128 63.8656C103.392 63.9232 103.142 64.4352 103.245 65.248L103.885 70.0288C103.994 70.848 104.39 71.3088 105.114 71.2576C105.837 71.2064 106.099 70.6816 105.997 69.8688L105.843 68.6912L106.797 68.6208L106.944 69.7472C107.117 71.1168 106.592 72.0704 105.203 72.1728C103.814 72.2752 103.066 71.424 102.893 70.0544L102.285 65.376C102.112 64.0064 102.637 63.0528 104.013 62.9504C105.389 62.848 106.138 63.6928 106.31 65.0688Z" fill="#263238"/>
<path d="M107.149 64.9984C106.97 63.616 107.539 62.6752 108.915 62.5664C110.291 62.4576 111.098 63.3024 111.277 64.6848L111.885 69.3632C112.058 70.7328 111.494 71.6928 110.106 71.7952C108.717 71.8976 107.93 71.0528 107.757 69.6832L107.149 64.9984ZM108.749 69.6576C108.858 70.4832 109.267 70.9376 109.984 70.88C110.701 70.8224 110.995 70.3168 110.886 69.4912L110.246 64.7104C110.138 63.8976 109.741 63.4304 109.005 63.488C108.269 63.5456 108 64.0576 108.109 64.8704L108.749 69.6576Z" fill="#263238"/>
<path d="M116.435 71.2064L115.469 71.2768L113.05 64.1984L113.978 71.4048L113.107 71.4752L111.936 62.4256L113.338 62.3232L115.75 69.4336L116.25 62.08L117.651 61.9712L118.816 71.04L117.862 71.1168L116.928 63.8336L116.435 71.2064Z" fill="#263238"/>
<path d="M123.168 70.688L122.202 70.7648L119.782 63.68L120.71 70.8928L119.834 70.9568L118.669 61.9136L120.07 61.8048L122.483 68.9152L122.976 61.5808L124.378 61.472L125.549 70.5216L124.595 70.592L123.654 63.3152L123.168 70.688Z" fill="#263238"/>
<path d="M129.133 65.152L129.248 66.0608L127.046 66.2272L127.462 69.4272L130.163 69.216L130.285 70.1376L126.579 70.4192L125.44 61.3952L129.146 61.1072L129.267 62.0288L126.566 62.2336L126.963 65.3248L129.133 65.152Z" fill="#263238"/>
<path d="M132.096 70.016L131.2 70.0864L130.029 61.0368L131.309 60.9408L134.24 67.3408L133.389 60.8L134.272 60.7296L135.443 69.76L134.4 69.8368L131.155 62.72L132.096 70.016Z" fill="#263238"/>
<path d="M137.414 60.4736C138.816 60.3648 139.571 61.1648 139.75 62.56L140.339 67.1232C140.518 68.5056 139.987 69.408 138.586 69.5168L136.474 69.6768L135.302 60.6336L137.414 60.4736ZM138.451 68.6016C139.174 68.544 139.462 68.064 139.354 67.2384L138.752 62.5856C138.65 61.76 138.24 61.3056 137.51 61.3888L136.429 61.472L137.357 68.6848L138.451 68.6016Z" fill="#263238"/>
<path d="M142.336 67.3856L142.227 69.2352L141.299 69.3056L141.856 60.16L143.309 60.0512L146.202 68.9664L145.197 69.0432L144.64 67.2L142.336 67.3856ZM142.336 66.5152L144.339 66.3552L142.65 61.2352L142.336 66.5152Z" fill="#263238"/>
<path d="M148.294 68.768L147.251 60.64L145.587 60.768L145.472 59.8528L149.792 59.52L149.914 60.4352L148.25 60.5632L149.299 68.6912L148.294 68.768Z" fill="#263238"/>
<path d="M151.494 59.3856L152.659 68.4352L151.654 68.512L150.49 59.4688L151.494 59.3856Z" fill="#263238"/>
<path d="M152.73 61.4976C152.55 60.1152 153.114 59.1744 154.49 59.0656C155.866 58.9568 156.678 59.8016 156.858 61.184L157.459 65.8624C157.638 67.232 157.069 68.1856 155.68 68.2944C154.291 68.4032 153.51 67.5456 153.331 66.176L152.73 61.4976ZM154.33 66.1568C154.432 66.9824 154.842 67.4368 155.565 67.3792C156.288 67.3216 156.57 66.816 156.461 65.9904L155.821 61.2096C155.712 60.3904 155.315 59.9296 154.586 59.9872C153.856 60.0448 153.581 60.5568 153.683 61.3696L154.33 66.1568Z" fill="#263238"/>
<path d="M159.584 67.904L158.682 67.9744L157.517 58.9248L158.797 58.8288L161.722 65.2288L160.877 58.688L161.766 58.6176L162.931 67.6672L161.894 67.744L158.643 60.608L159.584 67.904Z" fill="#263238"/>
<path d="M116.422 84.4416L115.258 75.392L116.256 75.3152L117.306 83.4496L119.866 83.2512L119.987 84.1664L116.422 84.4416Z" fill="#263238"/>
<path d="M123.315 78.8224L123.43 79.7248L121.229 79.8976L121.645 83.0976L124.346 82.8928L124.467 83.808L120.762 84.096L119.59 75.0464L123.296 74.7648L123.418 75.68L120.717 75.8912L121.114 78.976L123.315 78.8224Z" fill="#263238"/>
<path d="M126.72 83.6544L125.658 75.52L123.994 75.648L123.878 74.7328L128.198 74.4L128.32 75.3152L126.656 75.4432L127.706 83.5712L126.72 83.6544Z" fill="#263238"/>
<path d="M131.373 83.2896L130.323 75.1616L128.666 75.2896L128.55 74.3744L132.87 74.0416L132.986 74.9568L131.328 75.0848L132.378 83.2128L131.373 83.2896Z" fill="#263238"/>
<path d="M137.286 77.7472L137.402 78.6496L135.206 78.8224L135.616 82.0224L138.317 81.8112L138.438 82.7328L134.733 83.0144L133.568 73.9712L137.267 73.6832L137.389 74.6048L134.688 74.8096L135.085 77.8944L137.286 77.7472Z" fill="#263238"/>
<path d="M140.205 73.4784C141.619 73.3696 142.304 74.048 142.477 75.3984L142.573 76.1344C142.701 77.1264 142.432 77.7792 141.696 78.0544C142.547 78.24 142.944 78.8864 143.072 79.8528L143.251 81.2608C143.272 81.6394 143.381 82.0078 143.571 82.336L142.554 82.4128C142.369 82.0784 142.264 81.7062 142.246 81.3248L142.061 79.904C141.933 78.8864 141.421 78.624 140.576 78.6624L139.872 78.72L140.371 82.56L139.366 82.6368L138.195 73.5936L140.205 73.4784ZM140.499 77.76C141.293 77.7024 141.741 77.408 141.613 76.4224L141.498 75.5584C141.395 74.7456 141.043 74.3424 140.294 74.4L139.322 74.4704L139.75 77.8176L140.499 77.76Z" fill="#263238"/>
<path d="M155.29 120.89L178.624 118.4C177.606 114.406 176.902 111.578 176.902 111.36C176.902 110.835 172.602 109.901 170.643 109.498C170.259 108.858 169.491 107.706 169.165 107.578H169.075L169.005 106.733C169.228 106.392 169.385 106.012 169.466 105.613C169.561 104.939 169.582 104.256 169.53 103.578C169.709 103.341 170.95 101.696 170.906 100.8C170.904 100.612 170.855 100.427 170.764 100.262C170.672 100.098 170.54 99.9593 170.381 99.8592C170.26 99.7982 170.128 99.7648 169.993 99.7615C169.857 99.7581 169.723 99.785 169.6 99.84L169.357 99.9616L169.165 97.344C169.885 97.2685 170.586 97.0693 171.238 96.7552C171.322 96.6912 171.315 96.6528 171.315 96.6272C171.041 96.1715 170.698 95.7612 170.298 95.4112C170.893 95.3088 172.902 94.88 172.915 93.8176C172.891 93.5741 172.806 93.3408 172.667 93.1393C172.528 92.9378 172.341 92.7748 172.122 92.6656C171.341 92.16 170.125 91.872 169.658 92.0832C169.19 92.2944 168.614 92.4992 168.25 92.6208C168.531 92.3136 168.96 91.7824 168.89 91.3408C168.877 91.2606 168.845 91.1844 168.798 91.1188C168.75 91.0531 168.687 90.9998 168.614 90.9632C168.118 90.7723 167.578 90.7227 167.055 90.8199C166.532 90.917 166.046 91.1571 165.651 91.5136C165.299 91.8393 164.977 92.1971 164.691 92.5824C164.125 92.2055 163.449 92.0297 162.771 92.0832C161.888 92.1408 161.229 92.4992 161.197 92.7872C161.191 92.8336 161.203 92.8805 161.23 92.9185C161.258 92.9564 161.298 92.9827 161.344 92.992C161.486 93.0329 161.617 93.1051 161.728 93.2032C161.261 93.3952 159.552 94.2016 159.475 95.4688C159.472 95.5114 159.472 95.5542 159.475 95.5968V95.7952C159.475 95.8272 159.475 95.8656 159.475 95.9104C159.475 95.9552 159.475 95.9104 159.475 95.9552V96.1216V96.16V96.3072C159.475 96.3072 159.475 96.352 159.475 96.3712C159.472 96.416 159.472 96.4609 159.475 96.5056V96.576C159.475 96.6272 159.475 96.6784 159.507 96.7296V96.7808L159.546 96.992V97.0496L159.584 97.216V97.2928C159.584 97.344 159.584 97.3952 159.616 97.4464V97.5168C159.616 97.5872 159.616 97.6576 159.667 97.7216L159.725 97.9584V98.0224C159.725 98.08 159.757 98.1376 159.77 98.2016V98.272C159.77 98.3296 159.77 98.3936 159.821 98.4576V98.5088C159.866 98.6688 159.91 98.8352 159.955 98.9888V99.0336L160.013 99.232V99.2768C160.013 99.3536 160.058 99.424 160.077 99.4944C160.122 99.6544 160.173 99.8144 160.218 99.9616C160.218 100.032 160.262 100.109 160.288 100.173L160.544 100.986C160.544 100.986 160.544 100.986 160.512 100.986L160.474 100.928L160.429 100.883L160.371 100.813C160.353 100.797 160.335 100.78 160.32 100.762L160.288 100.73L160.237 100.685L160.198 100.653C160.093 100.564 159.968 100.5 159.834 100.467C159.746 100.444 159.654 100.441 159.565 100.46C159.476 100.479 159.392 100.519 159.322 100.576C159.196 100.681 159.097 100.813 159.032 100.964C158.968 101.114 158.94 101.277 158.95 101.44C158.956 102.185 159.242 102.9 159.75 103.443C160.146 103.728 160.601 103.918 161.082 104C161.082 104.378 161.286 106.221 162.246 106.982L162.419 108.422C161.918 108.956 161.447 109.518 161.011 110.106C160.851 110.336 160.794 110.432 160.794 110.598C158.874 111.443 155.149 113.158 155.245 113.658C155.52 113.856 155.443 116.774 155.29 120.89Z" fill="#263238"/>
<path d="M182.214 114.163C182.231 113.076 181.924 112.008 181.334 111.095C180.744 110.182 179.896 109.465 178.898 109.034C177.9 108.603 176.796 108.477 175.726 108.673C174.657 108.869 173.67 109.378 172.889 110.135C172.109 110.892 171.571 111.863 171.342 112.926C171.114 113.99 171.206 115.096 171.607 116.107C172.008 117.118 172.699 117.987 173.594 118.605C174.489 119.222 175.546 119.561 176.634 119.578C177.356 119.589 178.073 119.457 178.744 119.191C179.415 118.925 180.027 118.529 180.546 118.026C181.064 117.524 181.478 116.924 181.764 116.261C182.051 115.598 182.204 114.885 182.214 114.163Z" fill="#08A202" stroke="#263238" stroke-linecap="round" stroke-linejoin="round"/>
<path d="M174.47 113.075L177.011 116.026L182.003 107.046" stroke="#263238" stroke-width="3" stroke-linecap="round" stroke-linejoin="round"/>
<path d="M99.8528 104.774L147.872 100.41" stroke="#263238" stroke-linecap="round" stroke-linejoin="round"/>
<path d="M100.723 111.757L148.742 107.392" stroke="#263238" stroke-linecap="round" stroke-linejoin="round"/>
<path d="M123.834 116.723L149.613 114.381" stroke="#263238" stroke-linecap="round" stroke-linejoin="round"/>
<path d="M101.594 118.746L119.11 117.152" stroke="#263238" stroke-linecap="round" stroke-linejoin="round"/>
<path d="M102.47 125.728L150.49 121.363" stroke="#263238" stroke-linecap="round" stroke-linejoin="round"/>
<path d="M134.694 131.488L181.043 127.04" stroke="#263238" stroke-linecap="round" stroke-linejoin="round"/>
<path d="M103.776 134.458L131.194 131.827" stroke="#263238" stroke-linecap="round" stroke-linejoin="round"/>
<path d="M163.629 138.438L182.355 136.64" stroke="#263238" stroke-linecap="round" stroke-linejoin="round"/>
<path d="M105.088 144.064L158.317 138.95" stroke="#263238" stroke-linecap="round" stroke-linejoin="round"/>
<path d="M169.658 147.59L183.667 146.246" stroke="#263238" stroke-linecap="round" stroke-linejoin="round"/>
<path d="M128.973 151.501L164.902 148.051" stroke="#263238" stroke-linecap="round" stroke-linejoin="round"/>
<path d="M106.4 153.664L125.638 151.821" stroke="#263238" stroke-linecap="round" stroke-linejoin="round"/>
<path d="M169.709 157.318L184.973 155.853" stroke="#263238" stroke-linecap="round" stroke-linejoin="round"/>
<path d="M107.706 163.27L160.544 158.195" stroke="#263238" stroke-linecap="round" stroke-linejoin="round"/>
<path d="M129.51 170.906L186.285 165.453" stroke="#263238" stroke-linecap="round" stroke-linejoin="round"/>
<path d="M109.018 172.877L122.163 171.61" stroke="#263238" stroke-linecap="round" stroke-linejoin="round"/>
<path d="M152.269 178.451L187.597 175.059" stroke="#263238" stroke-linecap="round" stroke-linejoin="round"/>
<path d="M110.33 182.477L147.424 178.918" stroke="#263238" stroke-linecap="round" stroke-linejoin="round"/>
<path d="M182.848 185.242L188.902 184.659" stroke="#263238" stroke-linecap="round" stroke-linejoin="round"/>
<path d="M147.872 188.602L177.536 185.754" stroke="#263238" stroke-linecap="round" stroke-linejoin="round"/>
<path d="M111.635 192.083L142.682 189.101" stroke="#263238" stroke-linecap="round" stroke-linejoin="round"/>
<path d="M73.12 147.699C73.12 147.699 76.6336 136.122 78.2912 130.95C79.9488 125.779 80.9792 121.645 82.2208 117.306C83.4624 112.966 82.8608 103.456 82.8608 101.594C82.8608 99.7312 94.0288 100.352 95.4752 100.557C96.9216 100.762 100.851 125.165 99.6096 130.125C98.368 135.085 93.8496 139.219 93.8496 142.112C93.8496 145.005 93.6384 150.592 93.6384 151.834C93.6384 153.075 96.7424 165.274 96.9472 170.643C97.152 176.013 94.0544 184.083 93.4336 184.909C92.8128 185.734 78.3424 203.104 78.3424 203.104" fill="white"/>
<path d="M73.12 147.699C73.12 147.699 76.6336 136.122 78.2912 130.95C79.9488 125.779 80.9792 121.645 82.2208 117.306C83.4624 112.966 82.8608 103.456 82.8608 101.594C82.8608 99.7312 94.0288 100.352 95.4752 100.557C96.9216 100.762 100.851 125.165 99.6096 130.125C98.368 135.085 93.8496 139.219 93.8496 142.112C93.8496 145.005 93.6384 150.592 93.6384 151.834C93.6384 153.075 96.7424 165.274 96.9472 170.643C97.152 176.013 94.0544 184.083 93.4336 184.909C92.8128 185.734 78.3424 203.104 78.3424 203.104" stroke="#263238" stroke-linecap="round" stroke-linejoin="round"/>
<path d="M84.0768 114.413C84.0768 114.413 88.832 112.346 92.7616 113.997C92.7616 113.997 93.1776 104.282 90.8992 101.594" stroke="#263238" stroke-linecap="round" stroke-linejoin="round"/>
<path d="M81.8047 123.098C84.1811 123.551 86.6395 123.26 88.8448 122.266" stroke="#263238" stroke-linecap="round" stroke-linejoin="round"/>
<path d="M82.4256 121.024C82.4256 121.024 86.7648 118.547 91.52 120.384" stroke="#263238" stroke-linecap="round" stroke-linejoin="round"/>
<path d="M90.4896 118.752C89.5015 118.34 88.4364 118.145 87.3665 118.181C86.2966 118.216 85.2467 118.481 84.288 118.957" stroke="#263238" stroke-linecap="round" stroke-linejoin="round"/>
<path d="M42.0032 207.29C42.0032 207.29 55.0528 205.773 65.6832 212.755C76.3136 219.738 79.36 228.531 79.36 228.531L70.56 246.746C70.56 246.746 55.36 231.872 45.0432 228.23C34.7264 224.589 33.2032 224.288 33.2032 224.288L42.0032 207.29Z" fill="white" stroke="#263238" stroke-linecap="round" stroke-linejoin="round"/>
<path d="M23.04 232.595C31.2832 251.648 45.5488 268.307 66.7392 281.306L78.9632 245.325C78.9632 245.325 70.464 228.941 60.448 223.475C50.432 218.01 33.44 215.891 33.44 215.891L23.04 232.595Z" fill="#263238" stroke="#263238" stroke-linecap="round" stroke-linejoin="round"/>
<path d="M96.3584 91.68L175.808 85.568" stroke="#08A202" stroke-linecap="round" stroke-linejoin="round"/>
</svg>
