<svg width="822" height="751" viewBox="0 0 822 751" fill="none" xmlns="http://www.w3.org/2000/svg">
<path d="M363.922 182.256C361.604 181.027 359.867 178.93 359.092 176.424C358.317 173.918 358.567 171.206 359.787 168.884L368.664 151.949C369.269 150.792 370.098 149.766 371.101 148.931C372.104 148.095 373.262 147.466 374.509 147.079C375.757 146.692 377.068 146.556 378.368 146.677C379.668 146.798 380.931 147.175 382.085 147.786C383.241 148.392 384.267 149.22 385.102 150.223C385.938 151.226 386.567 152.385 386.954 153.632C387.341 154.879 387.478 156.19 387.356 157.49C387.235 158.79 386.858 160.053 386.247 161.207L377.368 178.079C376.76 179.237 375.93 180.264 374.925 181.101C373.92 181.938 372.76 182.569 371.511 182.957C370.262 183.345 368.949 183.483 367.647 183.362C366.344 183.242 365.078 182.866 363.922 182.256Z" fill="white" stroke="#1E201F" stroke-width="1.19148" stroke-linecap="round" stroke-linejoin="round"/>
<path d="M391.224 247.096C379.157 241.474 366.195 238.022 352.931 236.897C336.275 236.653 319.619 237.414 303.055 239.176L269.443 199.364C272.847 187.63 275.016 175.572 275.912 163.387C276.408 147.606 269.636 141.12 260.378 135.74C251.119 130.36 247.735 139.256 248.895 143.488C250.422 147.767 252.255 151.932 254.379 155.949C254.379 155.949 232.99 128.818 226.609 123.521C220.228 118.224 214.475 130.198 216.61 131.959C216.61 131.959 208.89 125.197 202.936 128.503C196.982 131.809 201.059 142.747 201.059 142.747C201.059 142.747 191.461 143.616 189.753 150.459C188.045 157.301 196.422 167.137 196.422 167.137C196.422 167.137 191.086 173.508 195.591 183.705C200.096 193.902 210.637 210.221 215.965 213.296C218.599 214.695 221.119 216.298 223.503 218.09C243.283 260.099 241.882 257.387 250.126 273.946C255.931 285.596 278.41 307.492 295.277 312.262C312.145 317.032 361.118 314.386 361.118 314.386C361.118 314.386 394.787 281.359 391.224 247.096Z" fill="white"/>
<mask id="mask0_244_2" style="mask-type:luminance" maskUnits="userSpaceOnUse" x="189" y="122" width="203" height="194">
<path d="M391.224 247.096C379.157 241.474 366.195 238.022 352.931 236.897C336.275 236.653 319.619 237.414 303.055 239.176L269.443 199.364C272.847 187.63 275.016 175.572 275.912 163.387C276.408 147.606 269.636 141.12 260.378 135.74C251.119 130.36 247.735 139.256 248.895 143.488C250.422 147.767 252.255 151.932 254.379 155.949C254.379 155.949 232.99 128.818 226.609 123.521C220.228 118.224 214.475 130.198 216.61 131.959C216.61 131.959 208.89 125.197 202.936 128.503C196.982 131.809 201.059 142.747 201.059 142.747C201.059 142.747 191.461 143.616 189.753 150.459C188.045 157.301 196.422 167.137 196.422 167.137C196.422 167.137 191.086 173.508 195.591 183.705C200.096 193.902 210.637 210.221 215.965 213.296C218.599 214.695 221.119 216.298 223.503 218.09C243.283 260.099 241.882 257.387 250.126 273.946C255.931 285.596 278.41 307.492 295.277 312.262C312.145 317.032 361.118 314.386 361.118 314.386C361.118 314.386 394.787 281.359 391.224 247.096Z" fill="white"/>
</mask>
<g mask="url(#mask0_244_2)">
<path d="M361.294 314.35C361.294 314.35 394.861 281.316 391.224 247.096C391.224 247.096 389.765 246.392 387.29 245.353L372.082 242.717C358.215 252.353 344.976 262.865 332.447 274.187C313.633 291.63 290.683 290.799 270.42 270.519C250.158 250.24 223.737 218.152 223.737 218.152C243.516 260.161 242.115 257.45 250.359 274.008C256.165 285.659 278.643 307.554 295.511 312.324C312.378 317.094 361.294 314.35 361.294 314.35Z" fill="#08A202"/>
<path opacity="0.5" d="M361.294 314.35C361.294 314.35 394.861 281.316 391.224 247.096C391.224 247.096 389.765 246.392 387.29 245.353L372.082 242.717C358.215 252.353 344.976 262.865 332.447 274.187C313.633 291.63 290.683 290.799 270.42 270.519C250.158 250.24 223.737 218.152 223.737 218.152C243.516 260.161 242.115 257.45 250.359 274.008C256.165 285.659 278.643 307.554 295.511 312.324C312.378 317.094 361.294 314.35 361.294 314.35Z" fill="white"/>
</g>
<path d="M391.224 247.096C379.157 241.474 366.195 238.022 352.931 236.897C336.275 236.653 319.619 237.414 303.055 239.176L269.443 199.364C272.847 187.63 275.016 175.572 275.912 163.387C276.408 147.606 269.636 141.12 260.378 135.74C251.119 130.36 247.735 139.256 248.895 143.488C250.422 147.767 252.255 151.932 254.379 155.949C254.379 155.949 232.99 128.818 226.609 123.521C220.228 118.224 214.475 130.198 216.61 131.959C216.61 131.959 208.89 125.197 202.936 128.503C196.982 131.809 201.059 142.747 201.059 142.747C201.059 142.747 191.461 143.616 189.753 150.459C188.045 157.301 196.422 167.137 196.422 167.137C196.422 167.137 191.086 173.508 195.591 183.705C200.096 193.902 210.637 210.221 215.965 213.296C218.599 214.695 221.119 216.298 223.503 218.09C243.283 260.099 241.882 257.387 250.126 273.946C255.931 285.596 278.41 307.492 295.277 312.262C312.145 317.032 361.118 314.386 361.118 314.386C361.118 314.386 394.787 281.359 391.224 247.096Z" stroke="#1E201F" stroke-width="1.19148" stroke-linecap="round" stroke-linejoin="round"/>
<path d="M290.013 223.71L269.408 199.417C272.812 187.683 274.98 175.625 275.877 163.441C276.373 147.659 269.601 141.173 260.343 135.793C251.084 130.413 247.7 139.309 248.86 143.541C250.387 147.821 252.22 151.985 254.344 156.002C254.344 156.002 232.955 128.872 226.574 123.574C220.193 118.277 214.44 130.251 216.575 132.012C216.575 132.012 208.855 125.251 202.901 128.557C196.947 131.863 201.024 142.8 201.024 142.8C201.024 142.8 191.426 143.669 189.718 150.512C188.01 157.354 196.387 167.191 196.387 167.191C196.387 167.191 191.051 173.562 195.556 183.758C200.061 193.955 210.601 210.274 215.93 213.349C218.564 214.748 221.084 216.351 223.468 218.143C232.216 236.714 236.844 246.61 239.944 253.176L290.013 223.71Z" fill="white" stroke="#1E201F" stroke-width="1.19148" stroke-linecap="round" stroke-linejoin="round"/>
<path d="M286.418 308.428C288.189 309.389 290.013 310.247 291.883 310.998C297.267 296.276 308.641 261.843 308.845 237.808C305.343 238.58 303.055 239.176 303.055 239.176C303.055 239.176 297.754 280.367 286.418 308.428Z" fill="white" stroke="#1E201F" stroke-width="1.19148" stroke-linecap="round" stroke-linejoin="round"/>
<path d="M254.35 155.9C254.35 155.9 230.534 168.498 239.421 189.588" stroke="#1E201F" stroke-width="1.19148" stroke-linecap="round" stroke-linejoin="round"/>
<path d="M216.582 131.909L231.689 156.251" stroke="#1E201F" stroke-width="1.19148" stroke-linecap="round" stroke-linejoin="round"/>
<path d="M201.088 142.796L215.641 164.299" stroke="#1E201F" stroke-width="1.19148" stroke-linecap="round" stroke-linejoin="round"/>
<path d="M196.451 167.187L207.045 179.724" stroke="#1E201F" stroke-width="1.19148" stroke-linecap="round" stroke-linejoin="round"/>
<path d="M235.707 152.385C235.707 152.385 211.929 172.002 206.76 186.468" stroke="#1E201F" stroke-width="1.19148" stroke-linecap="round" stroke-linejoin="round"/>
<path d="M319.305 311.483C323.618 299.124 314.404 284.704 298.557 279.081C283.298 273.678 267.548 278.593 262.552 289.999C272.042 299.654 284.771 309.28 295.351 312.219C302.767 313.84 310.329 314.699 317.92 314.783C318.496 313.735 318.96 312.629 319.305 311.483Z" fill="#08A202"/>
<path d="M319.305 311.483C323.618 299.124 314.404 284.704 298.557 279.081C283.298 273.678 267.548 278.593 262.552 289.999C272.042 299.654 284.771 309.28 295.351 312.219C302.767 313.84 310.329 314.699 317.92 314.783C318.496 313.735 318.96 312.629 319.305 311.483Z" stroke="#1E201F" stroke-width="1.19148" stroke-linecap="round" stroke-linejoin="round"/>
<path d="M319.204 350.001C319.204 350.001 308.845 357.528 307.089 362.522C305.334 367.517 291.936 405.453 295.392 421.355C298.849 437.257 338.35 468.01 365.112 473.22C391.873 478.43 423.603 481.989 440.552 467.696C457.501 453.404 462.404 411.752 460.076 402.535C457.749 393.318 331.39 345.236 331.39 345.236C331.39 345.236 323.085 342.99 319.204 350.001Z" fill="white"/>
<mask id="mask1_244_2" style="mask-type:luminance" maskUnits="userSpaceOnUse" x="294" y="344" width="167" height="134">
<path d="M319.204 350.001C319.204 350.001 308.845 357.528 307.089 362.522C305.334 367.517 291.936 405.453 295.392 421.355C298.849 437.257 338.35 468.01 365.112 473.22C391.873 478.43 423.603 481.989 440.552 467.696C457.501 453.404 462.404 411.752 460.076 402.535C457.749 393.318 331.39 345.236 331.39 345.236C331.39 345.236 323.085 342.99 319.204 350.001Z" fill="white"/>
</mask>
<g mask="url(#mask1_244_2)">
<path d="M319.204 350.001C319.204 350.001 317.161 351.476 314.697 353.59L319.572 356.335C319.572 356.335 330.807 381.037 362.145 398.278C393.483 415.518 431.303 416.12 436.045 426.213C440.786 436.307 451.49 447.267 426.433 459.596C401.375 471.924 352.129 445.777 331.714 430.816C321.099 423.029 308.005 409.467 296.409 399.811C294.693 406.892 294.289 414.228 295.219 421.455C298.676 437.356 338.178 468.11 364.939 473.32C391.7 478.53 423.43 482.089 440.379 467.796C457.328 453.503 462.231 411.851 459.904 402.635C457.576 393.418 331.217 345.335 331.217 345.335C331.217 345.335 323.085 342.99 319.204 350.001Z" fill="#08A202"/>
<path opacity="0.5" d="M319.204 350.001C319.204 350.001 317.161 351.476 314.697 353.59L319.572 356.335C319.572 356.335 330.807 381.037 362.145 398.278C393.483 415.518 431.303 416.12 436.045 426.213C440.786 436.307 451.49 447.267 426.433 459.596C401.375 471.924 352.129 445.777 331.714 430.816C321.099 423.029 308.005 409.467 296.409 399.811C294.693 406.892 294.289 414.228 295.219 421.455C298.676 437.356 338.178 468.11 364.939 473.32C391.7 478.53 423.43 482.089 440.379 467.796C457.328 453.503 462.231 411.851 459.904 402.635C457.576 393.418 331.217 345.335 331.217 345.335C331.217 345.335 323.085 342.99 319.204 350.001Z" fill="white"/>
</g>
<path d="M319.204 350.001C319.204 350.001 308.845 357.528 307.089 362.522C305.334 367.517 291.936 405.453 295.392 421.355C298.849 437.257 338.35 468.01 365.112 473.22C391.873 478.43 423.603 481.989 440.552 467.696C457.501 453.404 462.404 411.752 460.076 402.535C457.749 393.318 331.39 345.236 331.39 345.236C331.39 345.236 323.085 342.99 319.204 350.001Z" stroke="#1E201F" stroke-width="1.19148" stroke-linecap="round" stroke-linejoin="round"/>
<path d="M382.341 241.795C382.341 241.795 368.366 244.6 355.219 262.06C342.073 279.52 313.271 330.265 319.744 356.236C323.973 373.304 409.585 414.973 444.925 409.571C454.411 408.109 463.363 407.316 471.764 385.227C480.164 363.137 492.698 308.033 492.276 287.188C491.855 266.343 471.4 262.426 462.833 258.128C454.265 253.83 391.559 229.499 382.341 241.795Z" fill="white"/>
<mask id="mask2_244_2" style="mask-type:luminance" maskUnits="userSpaceOnUse" x="318" y="238" width="175" height="173">
<path d="M382.341 241.795C382.341 241.795 368.366 244.6 355.219 262.06C342.073 279.52 313.271 330.265 319.744 356.236C323.973 373.304 409.585 414.973 444.925 409.571C454.411 408.109 463.363 407.316 471.764 385.227C480.164 363.137 492.698 308.033 492.276 287.188C491.855 266.343 471.4 262.426 462.833 258.128C454.265 253.83 391.559 229.499 382.341 241.795Z" fill="white"/>
</mask>
<g mask="url(#mask2_244_2)">
<path d="M492.247 286.908L467.696 313.848C467.696 313.848 457.778 368.923 452.064 384.954C446.35 400.985 397.625 398.191 379.088 393.891L373.626 392.636C399.294 403.873 427.953 412.198 444.954 409.621C454.44 408.158 463.391 407.365 471.792 385.276C480.193 363.186 492.726 308.082 492.305 287.237C492.304 287.125 492.284 287.014 492.247 286.908Z" fill="#08A202"/>
<path d="M474.719 292.62L492.116 285.372C490.578 266.126 471.223 262.233 462.804 258.079C454.386 253.925 391.559 229.499 382.341 241.795C379.735 242.46 377.225 243.456 374.873 244.758C366.507 264.459 375.579 276.296 402.42 291.56C429.261 306.824 474.719 292.62 474.719 292.62Z" fill="#08A202"/>
<g opacity="0.5">
<path d="M492.247 286.908L467.696 313.848C467.696 313.848 457.778 368.923 452.064 384.954C446.35 400.985 397.625 398.191 379.088 393.891L373.626 392.636C399.294 403.873 427.953 412.198 444.954 409.621C454.44 408.158 463.391 407.365 471.792 385.276C480.193 363.186 492.726 308.082 492.305 287.237C492.304 287.125 492.284 287.014 492.247 286.908Z" fill="white"/>
<path d="M474.719 292.62L492.116 285.372C490.578 266.126 471.223 262.233 462.804 258.079C454.386 253.925 391.559 229.499 382.341 241.795C379.735 242.46 377.225 243.456 374.873 244.758C366.507 264.459 375.579 276.296 402.42 291.56C429.261 306.824 474.719 292.62 474.719 292.62Z" fill="white"/>
</g>
</g>
<path d="M382.341 241.795C382.341 241.795 368.366 244.6 355.219 262.06C342.073 279.52 313.271 330.265 319.744 356.236C323.973 373.304 409.585 414.973 444.925 409.571C454.411 408.109 463.363 407.316 471.764 385.227C480.164 363.137 492.698 308.033 492.276 287.188C491.855 266.343 471.4 262.426 462.833 258.128C454.265 253.83 391.559 229.499 382.341 241.795Z" stroke="#1E201F" stroke-width="1.19148" stroke-linecap="round" stroke-linejoin="round"/>
<path d="M434.533 301.869L380.929 278.104C372.456 274.348 362.543 278.171 358.786 286.644L340.495 327.901C336.738 336.374 340.562 346.288 349.035 350.044L402.638 373.809C411.111 377.566 421.025 373.743 424.781 365.27L443.073 324.012C446.829 315.539 443.006 305.626 434.533 301.869Z" fill="white" stroke="#1E201F" stroke-width="1.19148" stroke-linecap="round" stroke-linejoin="round"/>
<path d="M389.226 293.552C390.142 295.138 390.566 296.96 390.447 298.787C390.327 300.615 389.668 302.366 388.553 303.819C387.438 305.271 385.917 306.361 384.183 306.95C382.449 307.539 380.579 307.6 378.81 307.126C377.041 306.652 375.452 305.664 374.245 304.287C373.037 302.91 372.265 301.206 372.026 299.39C371.787 297.574 372.092 295.729 372.902 294.086C373.712 292.444 374.991 291.078 376.577 290.162C378.704 288.934 381.231 288.602 383.603 289.237C385.975 289.873 387.998 291.425 389.226 293.552Z" fill="#08A202" stroke="#1E201F" stroke-width="1.19148" stroke-linecap="round" stroke-linejoin="round"/>
<path d="M378.033 324.425C378.955 326.01 379.385 327.833 379.27 329.664C379.154 331.494 378.497 333.248 377.383 334.705C376.269 336.162 374.748 337.254 373.012 337.845C371.276 338.436 369.403 338.498 367.632 338.023C365.861 337.549 364.27 336.559 363.062 335.179C361.854 333.8 361.083 332.092 360.846 330.274C360.61 328.455 360.918 326.607 361.733 324.965C362.548 323.322 363.832 321.958 365.423 321.046C367.544 319.822 370.063 319.49 372.428 320.124C374.793 320.757 376.809 322.304 378.033 324.425Z" fill="#08A202" stroke="#1E201F" stroke-width="1.19148" stroke-linecap="round" stroke-linejoin="round"/>
<path d="M489.574 262.627C518.435 232.531 517.434 184.736 487.338 155.874C457.241 127.012 409.446 128.014 380.584 158.11C351.723 188.207 352.724 236.002 382.82 264.864C412.917 293.725 460.712 292.724 489.574 262.627Z" fill="white"/>
<mask id="mask3_244_2" style="mask-type:luminance" maskUnits="userSpaceOnUse" x="359" y="134" width="152" height="152">
<path d="M489.574 262.627C518.435 232.531 517.434 184.736 487.338 155.874C457.241 127.012 409.446 128.014 380.584 158.11C351.723 188.207 352.724 236.002 382.82 264.864C412.917 293.725 460.712 292.724 489.574 262.627Z" fill="white"/>
</mask>
<g mask="url(#mask3_244_2)">
<path d="M460.211 139.165C456.407 137.817 452.503 136.771 448.535 136.036C460.165 147.3 467.862 162.007 470.488 177.983C473.113 193.959 470.528 210.356 463.114 224.749C455.699 239.142 443.85 250.767 429.318 257.904C414.786 265.042 398.343 267.314 382.42 264.384C390.504 272.265 400.254 278.232 410.95 281.845C421.646 285.458 433.017 286.626 444.224 285.262C455.431 283.898 466.189 280.037 475.707 273.963C485.224 267.89 493.257 259.758 499.215 250.168C505.172 240.578 508.903 229.774 510.131 218.551C511.359 207.328 510.053 195.972 506.311 185.321C502.568 174.669 496.483 164.993 488.505 157.005C480.527 149.017 470.858 142.92 460.211 139.165Z" fill="#08A202"/>
<path opacity="0.5" d="M460.211 139.165C456.407 137.817 452.503 136.771 448.535 136.036C460.165 147.3 467.862 162.007 470.488 177.983C473.113 193.959 470.528 210.356 463.114 224.749C455.699 239.142 443.85 250.767 429.318 257.904C414.786 265.042 398.343 267.314 382.42 264.384C390.504 272.265 400.254 278.232 410.95 281.845C421.646 285.458 433.017 286.626 444.224 285.262C455.431 283.898 466.189 280.037 475.707 273.963C485.224 267.89 493.257 259.758 499.215 250.168C505.172 240.578 508.903 229.774 510.131 218.551C511.359 207.328 510.053 195.972 506.311 185.321C502.568 174.669 496.483 164.993 488.505 157.005C480.527 149.017 470.858 142.92 460.211 139.165Z" fill="white"/>
</g>
<path d="M489.574 262.627C518.435 232.531 517.434 184.736 487.338 155.874C457.241 127.012 409.446 128.014 380.584 158.11C351.723 188.207 352.724 236.002 382.82 264.864C412.917 293.725 460.712 292.724 489.574 262.627Z" stroke="#1E201F" stroke-width="1.19148" stroke-linecap="round" stroke-linejoin="round"/>
<path d="M519.205 222.028L528.851 194.745" stroke="#1E201F" stroke-width="1.19148" stroke-linecap="round" stroke-linejoin="round"/>
<path d="M535.092 193.873C535.606 192.42 535.521 190.823 534.857 189.433C534.193 188.042 533.004 186.972 531.552 186.459C530.099 185.945 528.502 186.029 527.111 186.693C525.721 187.357 524.651 188.546 524.137 189.999C523.883 190.718 523.773 191.481 523.813 192.243C523.853 193.005 524.043 193.751 524.372 194.44C525.036 195.83 526.225 196.9 527.678 197.414C529.13 197.927 530.728 197.843 532.118 197.179C533.509 196.515 534.578 195.326 535.092 193.873Z" fill="#263238"/>
<path d="M507.26 255.244C506.031 254.809 504.9 254.136 503.932 253.264C502.963 252.391 502.177 251.336 501.616 250.16C501.056 248.983 500.733 247.707 500.666 246.405C500.6 245.104 500.79 243.801 501.227 242.573L507.551 224.579C508.439 222.098 510.272 220.07 512.651 218.937C515.03 217.804 517.76 217.658 520.246 218.532C521.475 218.965 522.607 219.635 523.577 220.506C524.547 221.376 525.336 222.429 525.898 223.605C526.461 224.78 526.786 226.055 526.856 227.356C526.925 228.658 526.737 229.96 526.303 231.188L519.955 249.198C519.073 251.683 517.24 253.716 514.86 254.85C512.479 255.984 509.745 256.126 507.26 255.244Z" fill="white" stroke="#1E201F" stroke-width="1.19148" stroke-linecap="round" stroke-linejoin="round"/>
<path d="M493.03 277.837C493.03 277.837 463.68 285.636 464.698 310.479C465.717 335.322 504.445 376.359 504.445 376.359C504.445 376.359 503.298 417.224 500.48 423.227C497.662 429.229 483.561 435.462 474.33 449.675C465.099 463.887 473.363 468.229 478.167 468.515C482.971 468.801 489.67 455.787 492.946 454.225C496.222 452.663 499.139 458.512 494.195 478.441C489.252 498.37 483.786 501.953 490.734 505.838C492.669 506.98 494.919 507.471 497.154 507.24C499.39 507.01 501.492 506.069 503.153 504.556C503.565 506.274 504.585 507.786 506.023 508.811C507.462 509.837 509.223 510.308 510.981 510.137C517.489 509.67 518.563 506.516 518.563 506.516C518.563 506.516 521.788 513.241 527.64 512.494C531.965 511.448 535.897 509.177 538.966 505.955C538.966 505.955 546.452 508.608 550.469 505.137C554.486 501.667 557.51 483.142 559.469 467.733C561.429 452.323 570.785 396.158 569.645 365.693C568.506 335.228 549.068 315.065 538.246 302.133C527.424 289.201 504.328 275.525 493.03 277.837Z" fill="white"/>
<mask id="mask4_244_2" style="mask-type:luminance" maskUnits="userSpaceOnUse" x="464" y="277" width="106" height="236">
<path d="M493.03 277.837C493.03 277.837 463.68 285.636 464.698 310.479C465.717 335.322 504.445 376.359 504.445 376.359C504.445 376.359 503.298 417.224 500.48 423.227C497.662 429.229 483.561 435.462 474.33 449.675C465.099 463.887 473.363 468.229 478.167 468.515C482.971 468.801 489.67 455.787 492.946 454.225C496.222 452.663 499.139 458.512 494.195 478.441C489.252 498.37 483.786 501.953 490.734 505.838C492.669 506.98 494.919 507.471 497.154 507.24C499.39 507.01 501.492 506.069 503.153 504.556C503.565 506.274 504.585 507.786 506.023 508.811C507.462 509.837 509.223 510.308 510.981 510.137C517.489 509.67 518.563 506.516 518.563 506.516C518.563 506.516 521.788 513.241 527.64 512.494C531.965 511.448 535.897 509.177 538.966 505.955C538.966 505.955 546.452 508.608 550.469 505.137C554.486 501.667 557.51 483.142 559.469 467.733C561.429 452.323 570.785 396.158 569.645 365.693C568.506 335.228 549.068 315.065 538.246 302.133C527.424 289.201 504.328 275.525 493.03 277.837Z" fill="white"/>
</mask>
<g mask="url(#mask4_244_2)">
<path d="M538.288 302.207C527.516 289.247 504.328 275.525 493.03 277.837L492.352 278.031C513.052 293.839 529.592 314.449 540.544 338.081C560.955 380.843 542.059 434.785 537.487 453.249C533.832 468.059 530.016 488.06 519.108 507.518C519.914 509.06 521.139 510.344 522.641 511.222C524.143 512.1 525.862 512.538 527.601 512.484C531.926 511.437 535.858 509.167 538.927 505.945C538.927 505.945 546.413 508.598 550.43 505.127C554.447 501.656 557.471 483.132 559.43 467.722C561.39 452.312 570.746 396.148 569.606 365.683C568.467 335.218 549.11 315.139 538.288 302.207Z" fill="#08A202"/>
<path opacity="0.5" d="M538.288 302.207C527.516 289.247 504.328 275.525 493.03 277.837L492.352 278.031C513.052 293.839 529.592 314.449 540.544 338.081C560.955 380.843 542.059 434.785 537.487 453.249C533.832 468.059 530.016 488.06 519.108 507.518C519.914 509.06 521.139 510.344 522.641 511.222C524.143 512.1 525.862 512.538 527.601 512.484C531.926 511.437 535.858 509.167 538.927 505.945C538.927 505.945 546.413 508.598 550.43 505.127C554.447 501.656 557.471 483.132 559.43 467.722C561.39 452.312 570.746 396.148 569.606 365.683C568.467 335.218 549.11 315.139 538.288 302.207Z" fill="white"/>
</g>
<path d="M493.03 277.837C493.03 277.837 463.68 285.636 464.698 310.479C465.717 335.322 504.445 376.359 504.445 376.359C504.445 376.359 503.298 417.224 500.48 423.227C497.662 429.229 483.561 435.462 474.33 449.675C465.099 463.887 473.363 468.229 478.167 468.515C482.971 468.801 489.67 455.787 492.946 454.225C496.222 452.662 499.139 458.512 494.195 478.441C489.252 498.37 483.786 501.953 490.734 505.838C492.669 506.98 494.919 507.471 497.154 507.24C499.39 507.01 501.492 506.069 503.153 504.556C503.565 506.274 504.585 507.786 506.023 508.811C507.462 509.837 509.223 510.308 510.981 510.137C517.489 509.67 518.563 506.516 518.563 506.516C518.563 506.516 521.788 513.241 527.64 512.494C531.965 511.448 535.897 509.177 538.966 505.955C538.966 505.955 546.452 508.608 550.469 505.137C554.486 501.667 557.51 483.142 559.469 467.732C561.429 452.323 570.785 396.158 569.645 365.693C568.506 335.228 549.068 315.065 538.246 302.133C527.424 289.201 504.328 275.525 493.03 277.837Z" stroke="#1E201F" stroke-width="1.19148" stroke-linecap="round" stroke-linejoin="round"/>
<path d="M550.487 505.226C554.504 501.755 557.528 483.231 559.488 467.821C560.612 459.112 564.091 437.33 566.693 414.542C543.102 391.973 514.975 397.389 503.241 401.169C502.603 410.947 501.67 420.5 500.438 423.153C497.62 429.155 483.519 435.388 474.287 449.601C465.056 463.813 473.321 468.155 478.124 468.441C482.928 468.727 489.627 455.713 492.904 454.151C496.18 452.588 499.096 458.438 494.153 478.367C489.209 498.296 483.787 501.953 490.734 505.838C492.669 506.98 494.92 507.471 497.155 507.24C499.39 507.01 501.492 506.069 503.154 504.556C503.566 506.274 504.585 507.786 506.024 508.811C507.462 509.837 509.223 510.308 510.982 510.137C517.489 509.67 518.564 506.516 518.564 506.516C518.564 506.516 521.788 513.241 527.641 512.494C531.966 511.448 535.898 509.177 538.966 505.955C538.966 505.955 546.471 508.696 550.487 505.226Z" stroke="#1E201F" stroke-width="1.19148" stroke-linecap="round" stroke-linejoin="round"/>
<path d="M503.154 504.556C509.736 494.253 514.281 482.783 516.545 470.768" stroke="#1E201F" stroke-width="1.19148" stroke-linecap="round" stroke-linejoin="round"/>
<path d="M518.539 506.53C525.644 496.028 530.54 484.191 532.93 471.738" stroke="#1E201F" stroke-width="1.19148" stroke-linecap="round" stroke-linejoin="round"/>
<path d="M538.984 506.043C538.984 506.043 547.057 487.203 548.746 474.516" stroke="#1E201F" stroke-width="1.19148" stroke-linecap="round" stroke-linejoin="round"/>
<path d="M567.331 349.889C566.766 347.714 566.079 345.611 565.356 343.561C536.715 341.706 513.266 361.265 501.696 373.307C503.38 375.198 504.402 376.285 504.402 376.285L504.25 380.979C532.832 353.785 554.602 349.21 567.331 349.889Z" fill="white" stroke="#1E201F" stroke-width="1.19148" stroke-linecap="round" stroke-linejoin="round"/>
<path d="M560.201 370.817C563.276 371.9 566.511 372.456 569.771 372.464C569.771 370.128 569.765 367.894 569.76 365.891C568.893 349.866 563.333 334.45 553.772 321.561C548.668 324.814 544.796 329.678 542.769 335.382C540.412 342.393 540.922 350.052 544.187 356.689C547.452 363.327 553.208 368.405 560.201 370.817Z" fill="#08A202" stroke="#1E201F" stroke-width="1.19148" stroke-linecap="round" stroke-linejoin="round"/>
<path d="M274.471 415.833C274.471 415.833 301.831 439.516 316.299 434.09C330.768 428.665 336.19 395.662 330.215 376.707C324.239 357.753 303.331 351.796 274.637 345.859C245.943 339.923 213.106 345.787 197.528 371.856C181.95 397.925 169.096 454.07 169.096 454.07C169.096 454.07 137.067 447.657 131.361 463.815C125.655 479.973 157.399 500.993 174.81 507.16C192.221 513.327 221.47 520.226 237.205 505.483C252.94 490.739 247.648 448.295 253.669 431.429C259.69 414.563 270.103 414.308 274.471 415.833Z" fill="white"/>
<mask id="mask5_244_2" style="mask-type:luminance" maskUnits="userSpaceOnUse" x="130" y="343" width="203" height="172">
<path d="M274.471 415.833C274.471 415.833 301.831 439.516 316.299 434.09C330.768 428.665 336.19 395.662 330.215 376.707C324.239 357.753 303.331 351.796 274.637 345.859C245.943 339.923 213.106 345.787 197.528 371.856C181.95 397.925 169.096 454.07 169.096 454.07C169.096 454.07 137.067 447.657 131.361 463.815C125.655 479.973 157.399 500.993 174.81 507.16C192.221 513.327 221.47 520.226 237.205 505.483C252.94 490.739 247.648 448.295 253.669 431.429C259.69 414.563 270.103 414.308 274.471 415.833Z" fill="white"/>
</mask>
<g mask="url(#mask5_244_2)">
<path d="M308.078 406.004C282.462 407.962 274.184 380.632 250.37 385.827C226.557 391.022 236.088 403.712 234.83 438.687C233.572 473.661 202.973 489.156 179.209 494.322C171.661 495.936 164.037 497.165 156.364 498.004C162.203 501.784 168.43 504.928 174.938 507.382C192.349 513.549 221.425 520.318 237.135 505.589C252.845 490.86 247.578 448.401 253.599 431.535C259.62 414.669 270.181 414.329 274.524 415.868C274.524 415.868 301.884 439.551 316.352 434.125C330.821 428.7 336.244 395.697 330.268 376.742C329.298 373.634 327.819 370.708 325.894 368.082L324.842 368.426C324.842 368.426 333.606 404.063 308.078 406.004Z" fill="#08A202"/>
<path opacity="0.5" d="M308.078 406.004C282.462 407.962 274.184 380.632 250.37 385.827C226.557 391.022 236.088 403.712 234.83 438.687C233.572 473.661 202.973 489.156 179.209 494.322C171.661 495.936 164.037 497.165 156.364 498.004C162.203 501.784 168.43 504.928 174.938 507.382C192.349 513.549 221.425 520.318 237.135 505.589C252.845 490.86 247.578 448.401 253.599 431.535C259.62 414.669 270.181 414.329 274.524 415.868C274.524 415.868 301.884 439.551 316.352 434.125C330.821 428.7 336.244 395.697 330.268 376.742C329.298 373.634 327.819 370.708 325.894 368.082L324.842 368.426C324.842 368.426 333.606 404.063 308.078 406.004Z" fill="white"/>
</g>
<path d="M274.471 415.833C274.471 415.833 301.831 439.516 316.299 434.09C330.768 428.665 336.19 395.662 330.215 376.707C324.239 357.753 303.331 351.796 274.637 345.859C245.943 339.923 213.106 345.787 197.528 371.856C181.95 397.925 169.096 454.07 169.096 454.07C169.096 454.07 137.067 447.657 131.361 463.815C125.655 479.973 157.399 500.993 174.81 507.16C192.221 513.327 221.47 520.226 237.205 505.483C252.94 490.739 247.648 448.295 253.669 431.429C259.69 414.563 270.103 414.308 274.471 415.833Z" stroke="#1E201F" stroke-width="1.19148" stroke-linecap="round" stroke-linejoin="round"/>
<path d="M182.811 406.54C174.719 430.36 169.269 454.2 169.269 454.2C169.269 454.2 137.241 447.787 131.534 463.945C125.828 480.103 157.572 501.123 174.983 507.29C192.394 513.457 221.47 520.226 237.205 505.482C251.381 492.199 248.295 456.311 252.111 437.164C227.605 430.493 204.243 420.169 182.811 406.54Z" stroke="#1E201F" stroke-width="1.19148" stroke-linecap="round" stroke-linejoin="round"/>
<path d="M223.012 349.839C220.862 350.768 218.764 351.815 216.729 352.973C235.755 372.009 250.704 394.721 260.663 419.725C262.331 418.059 264.347 416.782 266.566 415.988C257.823 397.711 242.096 368.134 223.012 349.839Z" stroke="#1E201F" stroke-width="1.19148" stroke-linecap="round" stroke-linejoin="round"/>
<path d="M259.049 380.29C257.384 384.953 254.374 389.018 250.399 391.97C246.424 394.923 241.663 396.631 236.717 396.879C231.772 397.127 226.864 395.903 222.614 393.362C218.364 390.822 214.962 387.078 212.839 382.605C210.716 378.131 209.967 373.129 210.686 368.23C211.405 363.33 213.56 358.754 216.879 355.08C220.198 351.405 224.532 348.797 229.333 347.585C234.134 346.372 239.186 346.61 243.852 348.269C246.954 349.371 249.808 351.075 252.251 353.281C254.694 355.488 256.678 358.154 258.089 361.128C259.501 364.102 260.312 367.326 260.477 370.613C260.642 373.901 260.156 377.189 259.049 380.29Z" fill="#08A202" stroke="#1E201F" stroke-width="1.19148" stroke-linecap="round" stroke-linejoin="round"/>
<path d="M237.205 505.483C240.822 501.769 243.461 497.216 244.886 492.231C234.375 500.866 212.538 512.618 179.459 500.396C147.296 488.566 136.733 471.011 133.223 460.601C132.512 461.606 131.939 462.7 131.517 463.856C125.786 480.029 157.554 501.035 174.965 507.202C192.376 513.369 221.47 520.226 237.205 505.483Z" stroke="#1E201F" stroke-width="1.19148" stroke-linecap="round" stroke-linejoin="round"/>
<path d="M394.407 486.409C394.407 486.409 429.535 477.906 433.544 463.024C437.552 448.142 422.419 418.683 394.98 418.339C375.132 418.152 359.154 425.863 337.597 445.679C316.04 465.494 301.808 495.72 313.965 523.443C326.122 551.166 364.456 594.371 364.456 594.371C364.456 594.371 340.662 616.695 350.493 630.759C360.324 644.823 395.896 631.161 410.999 620.566C426.102 609.971 448.557 590.23 445.681 568.894C442.805 547.558 405.166 527.211 394.972 512.632C384.779 498.054 390.633 489.048 394.407 486.409Z" fill="white"/>
<mask id="mask6_244_2" style="mask-type:luminance" maskUnits="userSpaceOnUse" x="309" y="418" width="137" height="219">
<path d="M394.407 486.409C394.407 486.409 429.535 477.906 433.544 463.024C437.552 448.142 422.419 418.683 394.98 418.339C375.132 418.152 359.154 425.863 337.597 445.679C316.04 465.494 301.808 495.72 313.965 523.443C326.122 551.166 364.456 594.371 364.456 594.371C364.456 594.371 340.662 616.695 350.493 630.759C360.324 644.823 395.896 631.161 410.999 620.566C426.102 609.971 448.557 590.23 445.681 568.894C442.805 547.558 405.166 527.211 394.972 512.632C384.779 498.054 390.633 489.048 394.407 486.409Z" fill="white"/>
</mask>
<g mask="url(#mask6_244_2)">
<path d="M394.407 486.409C394.407 486.409 429.535 477.906 433.544 463.024C436.165 453.319 430.635 437.529 418.918 427.548C418.918 427.548 428.807 438.979 412.943 452.415C397.079 465.851 364.555 476.075 360.984 499.521C357.413 522.967 394.849 545.241 408.96 565.979C423.072 586.717 422.328 596.655 402.089 611.63C381.849 626.605 353.505 622.243 354.481 634.247C367.714 641.839 397.509 629.967 411.019 620.489C426.147 609.879 448.578 590.152 445.702 568.816C442.825 547.48 405.186 527.133 394.993 512.555C384.8 497.976 390.633 489.048 394.407 486.409Z" fill="#08A202"/>
<path opacity="0.5" d="M394.407 486.409C394.407 486.409 429.535 477.906 433.544 463.024C436.165 453.319 430.635 437.529 418.918 427.548C418.918 427.548 428.807 438.979 412.943 452.415C397.079 465.851 364.555 476.075 360.984 499.521C357.413 522.967 394.849 545.241 408.96 565.979C423.072 586.717 422.328 596.655 402.089 611.63C381.849 626.605 353.505 622.243 354.481 634.247C367.714 641.839 397.509 629.967 411.019 620.489C426.147 609.879 448.578 590.152 445.702 568.816C442.825 547.48 405.186 527.133 394.993 512.555C384.8 497.976 390.633 489.048 394.407 486.409Z" fill="white"/>
</g>
<path d="M394.407 486.409C394.407 486.409 429.535 477.906 433.544 463.024C437.552 448.142 422.419 418.683 394.98 418.339C375.132 418.152 359.154 425.863 337.597 445.679C316.04 465.494 301.808 495.72 313.965 523.443C326.122 551.166 364.456 594.371 364.456 594.371C364.456 594.371 340.662 616.695 350.493 630.759C360.324 644.823 395.896 631.161 410.999 620.566C426.102 609.971 448.557 590.23 445.681 568.894C442.805 547.558 405.166 527.211 394.972 512.632C384.779 498.054 390.633 489.048 394.407 486.409Z" stroke="#1E201F" stroke-width="1.19148" stroke-linecap="round" stroke-linejoin="round"/>
<path d="M333.659 555.73C348.352 576.165 364.563 594.441 364.563 594.441C364.563 594.441 340.769 616.766 350.599 630.829C360.43 644.893 396.002 631.232 411.105 620.637C426.208 610.042 448.664 590.3 445.787 568.964C443.189 549.705 412.379 531.271 398.816 517.125C379.163 533.198 357.197 546.213 333.659 555.73Z" stroke="#1E201F" stroke-width="1.19148" stroke-linecap="round" stroke-linejoin="round"/>
<path d="M310.856 490.135C310.366 492.415 310.006 494.721 309.777 497.042C336.289 492.654 363.415 493.679 389.52 500.055C389.172 497.767 389.328 495.432 389.977 493.211C370.004 489.444 336.783 485.069 310.856 490.135Z" stroke="#1E201F" stroke-width="1.19148" stroke-linecap="round" stroke-linejoin="round"/>
<path d="M354.491 509.708C363.853 499.505 363.172 483.645 352.969 474.283C342.767 464.92 326.906 465.602 317.544 475.805C308.182 486.007 308.863 501.868 319.066 511.23C329.269 520.592 345.129 519.911 354.491 509.708Z" fill="#08A202" stroke="#1E201F" stroke-width="1.19148" stroke-linecap="round" stroke-linejoin="round"/>
<path d="M445.73 568.865C444.816 563.762 442.636 558.968 439.392 554.924C440.322 568.501 437.215 593.093 408.127 612.914C379.8 632.23 359.37 630.635 348.874 627.385C349.262 628.556 349.814 629.666 350.514 630.682C360.369 644.731 395.917 631.084 411.02 620.489C426.123 609.894 448.607 590.201 445.73 568.865Z" stroke="#1E201F" stroke-width="1.19148" stroke-linecap="round" stroke-linejoin="round"/>
<path d="M441.223 170.097C429.765 165.3 418.655 159.71 407.975 153.367C396.075 158.263 385.915 166.613 378.808 177.34C371.701 188.067 367.972 200.678 368.103 213.546C368.234 226.413 372.22 238.945 379.544 249.525C386.869 260.105 397.196 268.247 409.194 272.899C421.191 277.551 434.308 278.499 446.85 275.623C459.392 272.746 470.784 266.176 479.556 256.761C488.327 247.346 494.074 235.517 496.057 222.803C498.039 210.089 496.164 197.072 490.675 185.434C473.722 181.979 457.156 176.841 441.223 170.097Z" fill="#1E201F" stroke="#1E201F" stroke-width="1.19148" stroke-linecap="round" stroke-linejoin="round"/>
<path d="M475.844 217.585C474.722 221.58 472.424 225.145 469.249 227.816C466.073 230.488 462.168 232.143 458.04 232.566C453.912 232.989 449.752 232.161 446.101 230.189C442.45 228.217 439.476 225.192 437.567 221.508C435.657 217.824 434.899 213.651 435.393 209.531C435.886 205.41 437.607 201.534 440.332 198.404C443.058 195.275 446.661 193.038 450.674 191.983C454.688 190.929 458.926 191.106 462.837 192.491C465.342 193.28 467.667 194.556 469.677 196.245C471.688 197.935 473.345 200.005 474.553 202.336C475.762 204.668 476.498 207.215 476.72 209.832C476.941 212.448 476.644 215.083 475.844 217.585Z" fill="white"/>
<path d="M433.65 186.84C433.261 188.001 432.534 189.02 431.562 189.766C430.59 190.512 429.418 190.951 428.195 191.027C426.973 191.102 425.755 190.811 424.699 190.191C423.642 189.571 422.795 188.649 422.266 187.545C421.736 186.44 421.548 185.203 421.726 183.991C421.904 182.779 422.439 181.647 423.264 180.741C424.089 179.836 425.165 179.196 426.355 178.906C427.545 178.615 428.794 178.686 429.944 179.11C431.45 179.658 432.682 180.774 433.374 182.219C434.067 183.664 434.166 185.323 433.65 186.84Z" fill="white"/>
<path d="M697.405 708.162C728.023 684.82 733.922 641.076 710.58 610.457C687.238 579.839 643.494 573.94 612.876 597.282C582.257 620.624 576.358 664.368 599.7 694.986C623.042 725.605 666.786 731.504 697.405 708.162Z" fill="#08A202" stroke="#263238" stroke-miterlimit="10"/>
<g opacity="0.28">
<path d="M713.93 615.332L587.62 669.699C587.915 670.909 588.238 672.118 588.614 673.301L715.946 618.503C715.301 617.428 714.602 616.38 713.93 615.332Z" fill="black"/>
<path d="M679.558 587.383C677.784 586.711 676.01 586.146 674.183 585.636L593.452 620.331C593.264 620.707 593.022 621.056 592.834 621.433C592.189 622.723 591.651 624.12 591.087 625.356L679.558 587.383Z" fill="black"/>
<path d="M631.452 718.181L719.493 679.294C720.138 677.681 720.729 676.069 721.267 674.456L626.722 716.219C628.281 716.918 629.84 717.617 631.452 718.181Z" fill="black"/>
<path d="M700.493 599.852C699.472 598.966 698.423 598.079 697.322 597.165L585.523 647.555C585.523 648.925 585.523 650.242 585.523 651.667L700.493 599.852Z" fill="black"/>
<path d="M589.823 676.902C590.253 678.057 590.683 679.213 591.167 680.342L718.821 624.308C718.31 623.18 717.719 622.105 717.155 621.003L589.823 676.902Z" fill="black"/>
<path d="M715.65 687.087C716.242 686.039 716.886 685.045 717.424 683.97C717.961 682.895 718.015 682.545 718.338 681.847L633.979 719.014C635.86 719.605 637.741 720.143 639.622 720.573L715.65 687.087Z" fill="black"/>
<path d="M610.14 705.846L724.68 657.471C724.68 656.101 724.68 654.784 724.68 653.413L606.942 703.158C608.017 704.072 609.119 704.959 610.14 705.846Z" fill="black"/>
</g>
<path d="M770.555 600.309C764.374 586.549 734.409 585.636 695.306 595.714C699.738 598.86 703.788 602.513 707.373 606.598C721.697 604.932 731.721 606.598 734.543 611.973C740.832 624.227 708.851 650.887 663.083 671.5C617.316 692.113 575.177 698.966 568.808 686.711C565.61 680.476 572.355 670.586 585.765 659.46C585.251 654.264 585.314 649.028 585.954 643.846C549.485 667.388 528.146 691.951 534.623 706.356C543.68 726.512 603.825 719.121 668.996 689.855C734.167 660.589 779.612 620.465 770.555 600.309Z" fill="white" stroke="#263238" stroke-miterlimit="10"/>
<path d="M698.316 600.524C728.577 593.779 751.044 595.149 755.747 605.765C763.325 622.83 722.664 657.418 664.938 682.975C607.211 708.533 554.295 715.413 546.69 698.321C541.664 686.98 557.923 667.899 586.357 648.899" stroke="#263238" stroke-miterlimit="10"/>
<path d="M815.356 451.633C818.733 434.852 807.868 418.511 791.087 415.133C774.306 411.755 757.964 422.621 754.587 439.402C751.209 456.183 762.075 472.524 778.856 475.902C795.636 479.279 811.978 468.414 815.356 451.633Z" fill="#08A202" stroke="#263238" stroke-miterlimit="10"/>
<path opacity="0.23" d="M805.436 424.022C805.436 424.022 800.988 417.849 795.642 420.13C790.296 422.411 790.752 426.887 791.365 429.268C791.978 431.649 794.216 433.859 792.676 435.398C791.137 436.938 787.359 438.022 787.601 440.445C787.875 442.406 788.304 444.341 788.884 446.233L788.613 450.439C788.613 450.439 788.841 452.848 785.463 453.889C782.084 454.93 780.23 453.718 778.049 456.37C775.868 459.022 774.471 458.822 775.055 461.203C775.64 463.584 775.811 465.309 780.644 468.331C785.477 471.353 795.613 471.71 802.157 467.575C808.701 463.441 813.192 459.506 814.232 448.956C815.273 438.407 809.927 427.058 805.436 424.022Z" fill="black"/>
<path opacity="0.23" d="M759.886 431.791C759.886 431.791 757.776 435.128 757.776 442.099C757.776 449.07 764.334 451.893 765.617 447.231C766.901 442.569 763.992 434.515 768.782 430.195C773.573 425.875 782.64 422.539 779.261 420.101C775.882 417.663 761.811 423.238 759.886 431.791Z" fill="black"/>
<path opacity="0.23" d="M767.1 458.508C767.1 458.508 761.996 456.241 761.996 459.72C761.996 463.199 766.444 469.372 769.124 464.582C771.805 459.791 769.196 458.651 767.1 458.508Z" fill="black"/>
<path opacity="0.23" d="M784.023 432.79C784.023 432.79 772.133 432.234 776.167 437.751C780.202 443.268 787.858 436.24 784.023 432.79Z" fill="black"/>
</svg>
