<svg width="1728" height="1117" viewBox="0 0 1728 1117" fill="none" xmlns="http://www.w3.org/2000/svg">
<g clip-path="url(#clip0_233_1171)">
<rect width="1728" height="1117" fill="#08A202"/>
<g opacity="0.5">
<path d="M733.198 324.291C718.957 322.939 717.966 321.873 716.634 307.612C715.282 321.854 714.216 322.844 699.955 324.177C714.197 325.548 715.187 326.614 716.519 340.856C717.89 326.576 718.957 325.567 733.198 324.291Z" fill="white"/>
<path d="M1684.48 506.771C1670.23 505.419 1669.24 504.353 1667.93 490.092C1666.56 504.333 1665.49 505.324 1651.25 506.656C1665.49 508.027 1666.48 509.093 1667.8 523.335C1669.17 509.093 1670.18 508.046 1684.48 506.771Z" fill="white"/>
<path d="M1512.01 754.976C1497.77 753.624 1496.78 752.558 1495.45 738.297C1494.08 752.539 1493.01 753.529 1478.77 754.862C1493.01 756.214 1494 757.28 1495.33 771.541C1496.68 757.375 1497.75 756.309 1512.01 754.976Z" fill="white"/>
<path d="M646.129 747.074C631.887 745.704 630.897 744.637 629.564 730.395C628.212 744.637 627.146 745.627 612.885 746.941C627.127 748.312 628.117 749.378 629.45 763.62C630.801 749.378 631.868 748.331 646.129 747.074Z" fill="white"/>
<path d="M801.952 379.317C792.432 378.403 791.613 377.679 790.776 368.045C789.843 377.66 789.138 378.384 779.504 379.241C789.119 380.155 789.843 380.878 790.699 390.493C791.575 380.878 792.299 380.174 801.952 379.317Z" fill="white"/>
<path d="M657.705 420.957C648.185 420.043 647.366 419.32 646.529 409.705C645.596 419.32 644.872 420.024 635.257 420.881C644.777 421.795 645.596 422.519 646.433 432.153C647.366 422.538 648.071 421.776 657.705 420.957Z" fill="white"/>
<path d="M942.029 430.706C932.414 429.773 931.71 429.068 930.853 419.434C929.939 428.954 929.215 429.773 919.6 430.63C929.215 431.544 929.92 432.267 930.777 441.882C931.691 432.267 932.414 431.544 942.029 430.706Z" fill="white"/>
<path d="M845.058 685.613C835.538 684.699 834.72 683.976 833.882 674.361C832.949 683.881 832.226 684.68 822.61 685.537C832.226 686.451 832.949 687.175 833.787 696.79C834.72 687.175 835.424 686.432 845.058 685.613Z" fill="white"/>
<path d="M1296.84 271.817C1287.22 270.884 1286.52 270.18 1285.66 260.545C1284.75 270.16 1284.03 270.884 1274.41 271.741C1284.03 272.655 1284.73 273.378 1285.59 282.993C1286.5 273.378 1287.22 272.655 1296.84 271.817Z" fill="white"/>
<path d="M1161.29 733.309C1151.68 732.395 1150.96 731.671 1150.1 722.056C1149.18 731.671 1148.46 732.376 1138.85 733.232C1148.46 734.146 1149.17 734.87 1150.02 744.504C1150.94 734.889 1151.66 734.165 1161.29 733.309Z" fill="white"/>
<path d="M1749.91 666.496C1754.16 661.998 1753.97 654.9 1749.47 650.642C1744.97 646.384 1737.88 646.579 1733.62 651.077C1729.36 655.575 1729.55 662.673 1734.05 666.931C1738.55 671.188 1745.65 670.994 1749.91 666.496Z" fill="white"/>
<path d="M1521.08 540.468C1525.47 536.101 1525.49 529 1521.13 524.608C1516.76 520.216 1509.66 520.197 1505.27 524.564C1500.87 528.931 1500.85 536.032 1505.22 540.424C1509.59 544.815 1516.69 544.835 1521.08 540.468Z" fill="white"/>
<path d="M737.977 556.751C728.362 555.837 727.658 555.113 726.801 545.498C725.887 555.113 725.164 555.818 715.548 556.674C725.068 557.588 725.868 558.312 726.725 567.927C727.696 558.312 728.362 557.607 737.977 556.751Z" fill="white"/>
<path d="M1123.92 320.997C1114.3 320.064 1113.6 319.36 1112.74 309.726C1111.83 319.246 1111.1 320.064 1101.49 320.921C1111.1 321.835 1111.81 322.559 1112.67 332.174C1113.58 322.559 1114.3 321.835 1123.92 320.997Z" fill="white"/>
<path d="M975.369 254.814C965.753 253.9 965.03 253.177 964.173 243.562C963.259 253.082 962.536 253.881 952.92 254.738C962.44 255.652 963.24 256.376 964.097 266.01C965.011 256.395 965.696 255.671 975.369 254.814Z" fill="white"/>
<path d="M601.708 593.403C592.188 592.489 591.389 591.765 590.532 582.15C589.618 591.67 588.894 592.489 579.279 593.326C588.799 594.259 589.599 594.964 590.456 604.598C591.37 595.04 592.093 594.259 601.708 593.403Z" fill="white"/>
<path d="M976.473 850.176C966.857 849.262 966.134 848.539 965.296 838.923C964.363 848.539 963.64 849.243 954.024 850.1C963.64 851.014 964.363 851.737 965.201 861.352C966.134 851.661 966.857 850.957 976.473 850.176Z" fill="white"/>
<path d="M1611.15 855.241C1601.63 854.327 1600.81 853.603 1599.98 843.988C1599.04 853.603 1598.34 854.327 1588.7 855.165C1598.22 856.097 1599.04 856.802 1599.9 866.436C1600.85 856.821 1601.63 856.097 1611.15 855.241Z" fill="white"/>
<path d="M1670.9 301.405C1661.38 300.491 1660.58 299.768 1659.72 290.153C1658.81 299.673 1658.09 300.472 1648.45 301.329C1657.97 302.243 1658.79 302.967 1659.65 312.601C1660.66 302.986 1661.28 302.262 1670.9 301.405Z" fill="white"/>
<g opacity="0.8">
<path d="M733.198 324.291C718.957 322.939 717.966 321.873 716.634 307.612C715.282 321.854 714.216 322.844 699.955 324.177C714.197 325.548 715.187 326.614 716.519 340.856C717.89 326.576 718.957 325.567 733.198 324.291Z" fill="white"/>
<path d="M1684.48 506.771C1670.23 505.419 1669.24 504.353 1667.93 490.092C1666.56 504.333 1665.49 505.324 1651.25 506.656C1665.49 508.027 1666.48 509.093 1667.8 523.335C1669.17 509.093 1670.18 508.046 1684.48 506.771Z" fill="white"/>
<path d="M1512.01 754.976C1497.77 753.624 1496.78 752.558 1495.45 738.297C1494.08 752.539 1493.01 753.529 1478.77 754.862C1493.01 756.214 1494 757.28 1495.33 771.541C1496.68 757.375 1497.75 756.309 1512.01 754.976Z" fill="white"/>
<path d="M646.129 747.074C631.887 745.704 630.897 744.637 629.564 730.395C628.212 744.637 627.146 745.627 612.885 746.941C627.127 748.312 628.117 749.378 629.45 763.62C630.801 749.378 631.868 748.331 646.129 747.074Z" fill="white"/>
<path d="M801.952 379.317C792.432 378.403 791.613 377.679 790.776 368.045C789.843 377.66 789.138 378.384 779.504 379.241C789.119 380.155 789.843 380.878 790.699 390.493C791.575 380.878 792.299 380.174 801.952 379.317Z" fill="white"/>
<path d="M657.705 420.957C648.185 420.043 647.366 419.32 646.529 409.705C645.596 419.32 644.872 420.024 635.257 420.881C644.777 421.795 645.596 422.519 646.433 432.153C647.366 422.538 648.071 421.776 657.705 420.957Z" fill="white"/>
<path d="M942.029 430.706C932.414 429.773 931.71 429.068 930.853 419.434C929.939 428.954 929.215 429.773 919.6 430.63C929.215 431.544 929.92 432.267 930.777 441.882C931.691 432.267 932.414 431.544 942.029 430.706Z" fill="white"/>
<path d="M845.058 685.613C835.538 684.699 834.72 683.976 833.882 674.361C832.949 683.881 832.226 684.68 822.61 685.537C832.226 686.451 832.949 687.175 833.787 696.79C834.72 687.175 835.424 686.432 845.058 685.613Z" fill="white"/>
<path d="M1296.84 271.817C1287.22 270.884 1286.52 270.18 1285.66 260.545C1284.75 270.16 1284.03 270.884 1274.41 271.741C1284.03 272.655 1284.73 273.378 1285.59 282.993C1286.5 273.378 1287.22 272.655 1296.84 271.817Z" fill="white"/>
<path d="M1161.29 733.309C1151.68 732.395 1150.96 731.671 1150.1 722.056C1149.18 731.671 1148.46 732.376 1138.85 733.232C1148.46 734.146 1149.17 734.87 1150.02 744.504C1150.94 734.889 1151.66 734.165 1161.29 733.309Z" fill="white"/>
<path d="M1749.91 666.496C1754.16 661.998 1753.97 654.9 1749.47 650.642C1744.97 646.384 1737.88 646.579 1733.62 651.077C1729.36 655.575 1729.55 662.673 1734.05 666.931C1738.55 671.188 1745.65 670.994 1749.91 666.496Z" fill="white"/>
<path d="M1521.08 540.468C1525.47 536.101 1525.49 529 1521.13 524.608C1516.76 520.216 1509.66 520.197 1505.27 524.564C1500.87 528.931 1500.85 536.032 1505.22 540.424C1509.59 544.815 1516.69 544.835 1521.08 540.468Z" fill="white"/>
<path d="M737.977 556.751C728.362 555.837 727.658 555.113 726.801 545.498C725.887 555.113 725.164 555.818 715.548 556.674C725.068 557.588 725.868 558.312 726.725 567.927C727.696 558.312 728.362 557.607 737.977 556.751Z" fill="white"/>
<path d="M1123.92 320.997C1114.3 320.064 1113.6 319.36 1112.74 309.726C1111.83 319.246 1111.1 320.064 1101.49 320.921C1111.1 321.835 1111.81 322.559 1112.67 332.174C1113.58 322.559 1114.3 321.835 1123.92 320.997Z" fill="white"/>
<path d="M975.369 254.814C965.753 253.9 965.03 253.177 964.173 243.562C963.259 253.082 962.536 253.881 952.92 254.738C962.44 255.652 963.24 256.376 964.097 266.01C965.011 256.395 965.696 255.671 975.369 254.814Z" fill="white"/>
<path d="M601.708 593.403C592.188 592.489 591.389 591.765 590.532 582.15C589.618 591.67 588.894 592.489 579.279 593.326C588.799 594.259 589.599 594.964 590.456 604.598C591.37 595.04 592.093 594.259 601.708 593.403Z" fill="white"/>
<path d="M976.473 850.176C966.857 849.262 966.134 848.539 965.296 838.923C964.363 848.539 963.64 849.243 954.024 850.1C963.64 851.014 964.363 851.737 965.201 861.352C966.134 851.661 966.857 850.957 976.473 850.176Z" fill="white"/>
<path d="M1611.15 855.241C1601.63 854.327 1600.81 853.603 1599.98 843.988C1599.04 853.603 1598.34 854.327 1588.7 855.165C1598.22 856.097 1599.04 856.802 1599.9 866.436C1600.85 856.821 1601.63 856.097 1611.15 855.241Z" fill="white"/>
<path d="M1670.9 301.405C1661.38 300.491 1660.58 299.768 1659.72 290.153C1658.81 299.673 1658.09 300.472 1648.45 301.329C1657.97 302.243 1658.79 302.967 1659.65 312.601C1660.66 302.986 1661.28 302.262 1670.9 301.405Z" fill="white"/>
</g>
<path d="M1075.33 906.077C950.902 906.077 834.663 887.266 739.253 850.995C677.164 827.385 627.298 797.683 591.027 762.573C553.442 726.245 532.174 685.785 527.776 642.316C523.378 598.848 536.249 554.961 565.856 511.911C594.416 470.366 637.446 431.315 693.614 395.882C809.206 323.015 967.448 273.397 1139.34 256.128C1311.23 238.859 1476.18 256.128 1603.8 304.718C1665.89 328.328 1715.76 358.03 1752.03 393.14C1789.63 429.468 1810.88 469.928 1815.24 513.396C1819.6 556.865 1806.77 600.752 1777.16 643.801C1748.6 685.347 1705.57 724.398 1649.38 759.831C1533.87 832.773 1375.61 882.392 1203.7 899.68C1160.32 903.926 1117.35 906.077 1075.33 906.077ZM1267.75 250.664C1225.74 250.664 1182.83 252.815 1139.44 257.156C967.695 274.292 809.587 323.891 694.223 396.681C578.86 469.471 520.198 556.617 528.766 642.297C537.334 727.977 612.218 801.662 739.596 850.176C866.973 898.69 1031.9 915.826 1203.7 898.633C1375.49 881.44 1533.56 831.898 1648.91 759.108C1764.25 686.318 1822.93 599.172 1814.37 513.492C1805.8 427.812 1730.86 354.127 1603.54 305.632C1508.18 269.456 1392.04 250.664 1267.75 250.664Z" fill="white"/>
<path d="M1091.84 844.712C985.212 844.712 885.652 828.033 803.951 795.874C751.267 775.139 708.941 749.093 678.097 718.438C646.148 686.68 628.021 651.36 624.233 613.433C620.444 575.505 631.201 537.273 656.22 499.84C680.381 463.664 716.71 429.773 764.234 398.928C861.928 335.696 995.931 292.837 1141.55 278.272C1287.17 263.706 1427.02 279.147 1535.3 321.759C1587.98 342.493 1630.33 368.559 1661.15 399.195C1693.1 430.953 1711.23 466.292 1715.02 504.2C1718.8 542.109 1708.05 580.36 1683.03 617.812C1658.89 654.064 1622.58 687.955 1574.98 718.8C1477.28 782.032 1343.28 824.872 1197.66 839.456C1161.94 842.96 1126.51 844.712 1091.84 844.712ZM1247.49 273.949C1212.82 273.949 1177.44 275.72 1141.7 279.3C996.236 293.846 862.385 336.648 764.71 399.804C667.034 462.96 617.683 538.796 625.146 613.337C632.61 687.879 696.223 752.463 804.256 794.998C912.289 837.533 1052.08 852.994 1197.57 838.428C1343.05 823.863 1476.9 781.08 1574.56 717.924C1672.21 654.769 1721.6 578.932 1714.12 504.372C1706.64 429.811 1642.99 365.246 1534.99 322.768C1453.37 290.629 1353.85 273.949 1247.49 273.949Z" fill="white"/>
<path d="M1103.87 793.989C1012.92 793.989 927.806 779.519 858.063 751.625C765.909 714.783 711.588 658.938 705.133 594.374C698.679 529.809 740.833 464.292 823.867 409.914C906.9 355.536 1020.65 318.96 1144.37 306.489C1268.09 294.018 1386.96 307.555 1479.01 344.359C1571.07 381.164 1625.49 437.046 1631.96 501.63C1638.44 566.213 1596.24 631.692 1513.21 686.07C1430.18 740.448 1316.43 777.12 1192.71 789.496C1162.7 792.504 1132.98 793.989 1103.87 793.989ZM1233.21 302.947C1204.13 302.947 1174.45 304.433 1144.46 307.441C1020.89 319.798 907.224 356.488 824.4 410.714C741.576 464.94 699.65 530.076 706.066 594.278C712.483 658.481 766.595 714.04 858.386 750.749C950.178 787.458 1068.99 800.92 1192.58 788.563C1316.17 776.206 1429.83 739.516 1512.64 685.271C1595.44 631.026 1637.43 565.909 1631.01 501.744C1624.59 437.579 1570.48 381.963 1478.69 345.254C1409.02 317.399 1324.05 302.947 1233.21 302.947Z" fill="white"/>
<path d="M1114.21 743.438C1037.59 743.438 965.886 731.043 907.148 707.262C829.807 675.865 784.187 628.36 778.704 573.506C773.22 518.652 808.521 463.074 878.093 416.978C947.665 370.882 1042.98 339.866 1146.71 329.489C1250.44 319.112 1350.09 330.651 1427.32 362.009C1504.55 393.368 1550.22 440.816 1555.73 495.689C1561.23 550.563 1525.93 606.121 1456.34 652.236C1386.75 698.351 1291.45 729.329 1187.72 739.744C1162.89 742.2 1138.27 743.438 1114.21 743.438ZM1219.65 326.709C1195.93 326.709 1171.58 327.909 1146.8 330.384C1043.23 340.742 947.989 371.758 878.626 417.701C809.263 463.645 774.191 518.88 779.618 573.353C790.89 685.956 973.826 760.155 1187.63 738.773C1401.43 717.391 1566.05 608.368 1554.77 495.784C1544.82 396.243 1400.59 326.709 1219.61 326.709H1219.65Z" fill="white"/>
<path d="M1123.19 695.514C1059.87 695.514 1000.6 685.118 952.044 665.05C888.355 638.813 850.771 599.191 846.201 553.476C841.631 507.761 870.61 461.474 927.844 423.147C985.079 384.819 1063.45 359.077 1148.71 350.547C1233.97 342.017 1316.09 351.728 1379.66 377.927C1443.24 404.126 1480.94 443.786 1485.53 489.501C1490.11 535.216 1461.1 581.503 1403.88 619.83C1346.67 658.158 1268.28 683.881 1183.02 692.43C1162.82 694.524 1142.77 695.514 1123.19 695.514ZM1208.09 348.586C1188.81 348.586 1169.01 349.557 1148.88 351.575C1063.69 360.086 985.383 385.847 928.378 423.927C871.372 462.007 842.602 508.027 847.134 553.4C851.665 598.772 889.022 638.089 952.406 664.193C1015.79 690.297 1097.72 700.027 1182.9 691.497C1358.66 673.904 1494.04 583.349 1484.65 489.673C1476.35 406.658 1357.29 348.586 1208.09 348.586Z" fill="white"/>
<path d="M1133.78 655.587C1014.91 655.587 919.657 607.511 912.917 539.139C905.301 462.274 1012.15 388.399 1151.28 374.481C1290.4 360.562 1409.84 411.761 1417.53 488.721C1421.34 526.02 1398.49 563.681 1353.41 594.793C1308.32 625.904 1246.52 646.657 1179.17 653.398C1163.71 654.845 1148.48 655.587 1133.78 655.587ZM1196.61 373.148C1181.84 373.148 1166.72 373.89 1151.35 375.414C1012.74 389.294 906.215 462.693 913.85 539.043C921.485 615.394 1040.45 666.231 1179.06 652.369C1246.25 645.648 1307.96 624.895 1352.84 593.936C1397.71 562.977 1420.26 525.677 1416.56 488.74C1409.69 420.862 1314.89 373.148 1196.54 373.148H1196.61Z" fill="white"/>
<path d="M1141.42 620.192C1049.49 620.192 975.635 582.112 970.246 528.152C967.295 498.774 984.793 469.128 1019.5 444.738C1054.21 420.348 1101.76 404.107 1153.62 398.909C1260.82 388.17 1352.91 428.707 1358.99 489.254C1361.92 518.613 1344.42 548.278 1309.73 572.668C1275.04 597.058 1227.46 613.28 1175.59 618.478C1164 619.64 1152.57 620.192 1141.42 620.192ZM1187.84 398.147C1176.69 398.147 1165.32 398.719 1153.72 399.861C1102 405.04 1054.54 421.243 1020.04 445.557C985.536 469.871 968.285 499.097 971.179 528.114C977.196 588.128 1068.85 628.265 1175.5 617.602C1227.21 612.443 1274.68 596.22 1309.18 571.906C1343.68 547.592 1360.93 518.385 1358.03 489.349C1352.68 435.847 1279.27 398.147 1187.84 398.147Z" fill="white"/>
<path d="M1148.35 587.119C1083.72 587.119 1031.82 560.33 1028.01 522.383C1025.94 501.744 1038.24 480.8 1062.65 463.664C1087.06 446.528 1120.43 435.104 1156.88 431.467C1232.2 423.851 1296.95 452.411 1301.2 495.004C1303.27 515.681 1290.98 536.53 1266.57 553.704C1242.16 570.878 1208.78 582.264 1172.34 585.901C1164.19 586.72 1156.1 587.119 1148.35 587.119ZM1180.85 431.296C1173.04 431.296 1165.03 431.696 1156.9 432.496C1120.72 436.132 1087.32 447.499 1063.12 464.521C1038.92 481.543 1026.95 502.03 1028.85 522.345C1033.06 564.405 1097.4 592.527 1172.13 585.044C1208.3 581.407 1241.72 570.04 1265.9 553.019C1290.08 535.997 1302.08 515.51 1300.17 495.194C1296.52 457.647 1245.03 431.296 1180.85 431.296Z" fill="white"/>
<g opacity="0.7">
<path d="M1075.33 906.077C950.902 906.077 834.663 887.266 739.253 850.995C677.164 827.385 627.298 797.683 591.027 762.573C553.442 726.245 532.174 685.785 527.776 642.316C523.378 598.848 536.249 554.961 565.856 511.911C594.416 470.366 637.446 431.315 693.614 395.882C809.206 323.015 967.448 273.397 1139.34 256.128C1311.23 238.859 1476.18 256.128 1603.8 304.718C1665.89 328.328 1715.76 358.03 1752.03 393.14C1789.63 429.468 1810.88 469.928 1815.24 513.396C1819.6 556.865 1806.77 600.752 1777.16 643.801C1748.6 685.347 1705.57 724.398 1649.38 759.831C1533.87 832.773 1375.61 882.392 1203.7 899.68C1160.32 903.926 1117.35 906.077 1075.33 906.077ZM1267.75 250.664C1225.74 250.664 1182.83 252.815 1139.44 257.156C967.695 274.292 809.587 323.891 694.223 396.681C578.86 469.471 520.198 556.617 528.766 642.297C537.334 727.977 612.218 801.662 739.596 850.176C866.973 898.69 1031.9 915.826 1203.7 898.633C1375.49 881.44 1533.56 831.898 1648.91 759.108C1764.25 686.318 1822.93 599.172 1814.37 513.492C1805.8 427.812 1730.86 354.127 1603.54 305.632C1508.18 269.456 1392.04 250.664 1267.75 250.664Z" fill="white"/>
<path d="M1091.84 844.712C985.212 844.712 885.652 828.033 803.951 795.874C751.267 775.139 708.941 749.093 678.097 718.438C646.148 686.68 628.021 651.36 624.233 613.433C620.444 575.505 631.201 537.273 656.22 499.84C680.381 463.664 716.71 429.773 764.234 398.928C861.928 335.696 995.931 292.837 1141.55 278.272C1287.17 263.706 1427.02 279.147 1535.3 321.759C1587.98 342.493 1630.33 368.559 1661.15 399.195C1693.1 430.953 1711.23 466.292 1715.02 504.2C1718.8 542.109 1708.05 580.36 1683.03 617.812C1658.89 654.064 1622.58 687.955 1574.98 718.8C1477.28 782.032 1343.28 824.872 1197.66 839.456C1161.94 842.96 1126.51 844.712 1091.84 844.712ZM1247.49 273.949C1212.82 273.949 1177.44 275.72 1141.7 279.3C996.236 293.846 862.385 336.648 764.71 399.804C667.034 462.96 617.683 538.796 625.146 613.337C632.61 687.879 696.223 752.463 804.256 794.998C912.289 837.533 1052.08 852.994 1197.57 838.428C1343.05 823.863 1476.9 781.08 1574.56 717.924C1672.21 654.769 1721.6 578.932 1714.12 504.372C1706.64 429.811 1642.99 365.246 1534.99 322.768C1453.37 290.629 1353.85 273.949 1247.49 273.949Z" fill="white"/>
<path d="M1103.87 793.989C1012.92 793.989 927.806 779.519 858.063 751.625C765.909 714.783 711.588 658.938 705.133 594.374C698.679 529.809 740.833 464.292 823.867 409.914C906.9 355.536 1020.65 318.96 1144.37 306.489C1268.09 294.018 1386.96 307.555 1479.01 344.359C1571.07 381.164 1625.49 437.046 1631.96 501.63C1638.44 566.213 1596.24 631.692 1513.21 686.07C1430.18 740.448 1316.43 777.12 1192.71 789.496C1162.7 792.504 1132.98 793.989 1103.87 793.989ZM1233.21 302.947C1204.13 302.947 1174.45 304.433 1144.46 307.441C1020.89 319.798 907.224 356.488 824.4 410.714C741.576 464.94 699.65 530.076 706.066 594.278C712.483 658.481 766.595 714.04 858.386 750.749C950.178 787.458 1068.99 800.92 1192.58 788.563C1316.17 776.206 1429.83 739.516 1512.64 685.271C1595.44 631.026 1637.43 565.909 1631.01 501.744C1624.59 437.579 1570.48 381.963 1478.69 345.254C1409.02 317.399 1324.05 302.947 1233.21 302.947Z" fill="white"/>
<path d="M1114.21 743.438C1037.59 743.438 965.886 731.043 907.148 707.262C829.807 675.865 784.187 628.36 778.704 573.506C773.22 518.652 808.521 463.074 878.093 416.978C947.665 370.882 1042.98 339.866 1146.71 329.489C1250.44 319.112 1350.09 330.651 1427.32 362.009C1504.55 393.368 1550.22 440.816 1555.73 495.689C1561.23 550.563 1525.93 606.121 1456.34 652.236C1386.75 698.351 1291.45 729.329 1187.72 739.744C1162.89 742.2 1138.27 743.438 1114.21 743.438ZM1219.65 326.709C1195.93 326.709 1171.58 327.909 1146.8 330.384C1043.23 340.742 947.989 371.758 878.626 417.701C809.263 463.645 774.191 518.88 779.618 573.353C790.89 685.956 973.826 760.155 1187.63 738.773C1401.43 717.391 1566.05 608.368 1554.77 495.784C1544.82 396.243 1400.59 326.709 1219.61 326.709H1219.65Z" fill="white"/>
<path d="M1123.19 695.514C1059.87 695.514 1000.6 685.118 952.044 665.05C888.355 638.813 850.771 599.191 846.201 553.476C841.631 507.761 870.61 461.474 927.844 423.147C985.079 384.819 1063.45 359.077 1148.71 350.547C1233.97 342.017 1316.09 351.728 1379.66 377.927C1443.24 404.126 1480.94 443.786 1485.53 489.501C1490.11 535.216 1461.1 581.503 1403.88 619.83C1346.67 658.158 1268.28 683.881 1183.02 692.43C1162.82 694.524 1142.77 695.514 1123.19 695.514ZM1208.09 348.586C1188.81 348.586 1169.01 349.557 1148.88 351.575C1063.69 360.086 985.383 385.847 928.378 423.927C871.372 462.007 842.602 508.027 847.134 553.4C851.665 598.772 889.022 638.089 952.406 664.193C1015.79 690.297 1097.72 700.027 1182.9 691.497C1358.66 673.904 1494.04 583.349 1484.65 489.673C1476.35 406.658 1357.29 348.586 1208.09 348.586Z" fill="white"/>
<path d="M1133.78 655.587C1014.91 655.587 919.657 607.511 912.917 539.139C905.301 462.274 1012.15 388.399 1151.28 374.481C1290.4 360.562 1409.84 411.761 1417.53 488.721C1421.34 526.02 1398.49 563.681 1353.41 594.793C1308.32 625.904 1246.52 646.657 1179.17 653.398C1163.71 654.845 1148.48 655.587 1133.78 655.587ZM1196.61 373.148C1181.84 373.148 1166.72 373.89 1151.35 375.414C1012.74 389.294 906.215 462.693 913.85 539.043C921.485 615.394 1040.45 666.231 1179.06 652.369C1246.25 645.648 1307.96 624.895 1352.84 593.936C1397.71 562.977 1420.26 525.677 1416.56 488.74C1409.69 420.862 1314.89 373.148 1196.54 373.148H1196.61Z" fill="white"/>
<path d="M1141.42 620.192C1049.49 620.192 975.635 582.112 970.246 528.152C967.295 498.774 984.793 469.128 1019.5 444.738C1054.21 420.348 1101.76 404.107 1153.62 398.909C1260.82 388.17 1352.91 428.707 1358.99 489.254C1361.92 518.613 1344.42 548.278 1309.73 572.668C1275.04 597.058 1227.46 613.28 1175.59 618.478C1164 619.64 1152.57 620.192 1141.42 620.192ZM1187.84 398.147C1176.69 398.147 1165.32 398.719 1153.72 399.861C1102 405.04 1054.54 421.243 1020.04 445.557C985.536 469.871 968.285 499.097 971.179 528.114C977.196 588.128 1068.85 628.265 1175.5 617.602C1227.21 612.443 1274.68 596.22 1309.18 571.906C1343.68 547.592 1360.93 518.385 1358.03 489.349C1352.68 435.847 1279.27 398.147 1187.84 398.147Z" fill="white"/>
<path d="M1148.35 587.119C1083.72 587.119 1031.82 560.33 1028.01 522.383C1025.94 501.744 1038.24 480.8 1062.65 463.664C1087.06 446.528 1120.43 435.104 1156.88 431.467C1232.2 423.851 1296.95 452.411 1301.2 495.004C1303.27 515.681 1290.98 536.53 1266.57 553.704C1242.16 570.878 1208.78 582.264 1172.34 585.901C1164.19 586.72 1156.1 587.119 1148.35 587.119ZM1180.85 431.296C1173.04 431.296 1165.03 431.696 1156.9 432.496C1120.72 436.132 1087.32 447.499 1063.12 464.521C1038.92 481.543 1026.95 502.03 1028.85 522.345C1033.06 564.405 1097.4 592.527 1172.13 585.044C1208.3 581.407 1241.72 570.04 1265.9 553.019C1290.08 535.997 1302.08 515.51 1300.17 495.194C1296.52 457.647 1245.03 431.296 1180.85 431.296Z" fill="white"/>
</g>
</g>
<path d="M469.007 1034.36C454.55 1080.84 375.414 1111.03 310.161 1112.33C244.908 1113.62 209.342 1055.39 238.525 1004.42C267.708 953.45 332.018 925.74 398.367 934.36C464.715 942.98 483.463 987.885 469.007 1034.36Z" fill="#08A202"/>
<path d="M933.884 294.058C933.4 289.237 931.498 284.667 928.418 280.927C925.338 277.186 921.218 274.443 916.579 273.044C911.94 271.645 906.99 271.652 902.355 273.066C897.72 274.479 893.609 277.235 890.54 280.985C887.472 284.735 885.583 289.311 885.115 294.133C884.646 298.956 885.618 303.809 887.908 308.08C890.197 312.351 893.701 315.846 897.977 318.126C902.253 320.405 907.109 321.365 911.93 320.885C915.134 320.566 918.243 319.619 921.08 318.098C923.917 316.577 926.427 314.512 928.466 312.021C930.504 309.529 932.032 306.661 932.962 303.579C933.892 300.497 934.205 297.262 933.884 294.058Z" fill="white" stroke="#263238" stroke-miterlimit="10"/>
<path d="M895.189 289.117C895.206 289.3 895.169 289.484 895.081 289.645C894.994 289.807 894.86 289.939 894.698 290.024C894.535 290.109 894.351 290.144 894.168 290.124C893.986 290.105 893.813 290.031 893.672 289.913C893.532 289.795 893.43 289.637 893.379 289.461C893.328 289.284 893.331 289.097 893.387 288.922C893.443 288.747 893.55 288.593 893.694 288.479C893.838 288.365 894.013 288.297 894.196 288.282C894.316 288.27 894.438 288.282 894.554 288.318C894.669 288.353 894.777 288.412 894.869 288.489C894.962 288.567 895.038 288.663 895.093 288.771C895.148 288.879 895.18 288.997 895.189 289.117Z" fill="#263238"/>
<path d="M901.236 285.71C901.254 285.882 901.239 286.056 901.19 286.222C901.141 286.388 901.059 286.543 900.95 286.677C900.841 286.811 900.706 286.923 900.554 287.005C900.402 287.086 900.235 287.137 900.062 287.154C899.805 287.179 899.547 287.128 899.319 287.006C899.091 286.885 898.904 286.699 898.782 286.471C898.66 286.244 898.607 285.985 898.632 285.728C898.656 285.471 898.756 285.227 898.919 285.027C899.082 284.826 899.3 284.678 899.547 284.602C899.794 284.525 900.057 284.524 900.305 284.597C900.553 284.67 900.773 284.815 900.939 285.013C901.104 285.211 901.208 285.454 901.236 285.71Z" fill="#263238"/>
<path d="M900.581 295.096C900.585 295.131 900.581 295.165 900.569 295.198C900.558 295.231 900.541 295.261 900.517 295.287C900.494 295.312 900.465 295.332 900.434 295.346C900.402 295.36 900.368 295.367 900.333 295.367C900.301 295.37 900.268 295.367 900.236 295.357C900.205 295.347 900.176 295.332 900.151 295.311C900.126 295.29 900.105 295.264 900.09 295.235C900.075 295.206 900.065 295.174 900.063 295.141C900.051 295.101 900.048 295.058 900.055 295.017C900.063 294.975 900.08 294.936 900.105 294.902C900.13 294.868 900.163 294.841 900.201 294.822C900.238 294.803 900.28 294.793 900.322 294.793C900.364 294.793 900.406 294.803 900.443 294.822C900.481 294.841 900.514 294.868 900.539 294.902C900.564 294.936 900.581 294.975 900.589 295.017C900.596 295.058 900.594 295.101 900.581 295.141V295.096Z" fill="#263238"/>
<path d="M914.344 291.193C914.354 291.279 914.346 291.366 914.321 291.449C914.297 291.532 914.256 291.609 914.202 291.676C914.147 291.744 914.08 291.799 914.004 291.84C913.927 291.881 913.844 291.907 913.758 291.915C913.672 291.924 913.585 291.916 913.502 291.891C913.419 291.866 913.342 291.826 913.275 291.771C913.208 291.717 913.152 291.65 913.111 291.574C913.07 291.498 913.045 291.414 913.036 291.328C913.027 291.242 913.035 291.156 913.06 291.073C913.084 290.99 913.125 290.913 913.179 290.846C913.234 290.779 913.301 290.723 913.377 290.682C913.453 290.641 913.536 290.615 913.622 290.606C913.708 290.597 913.795 290.605 913.878 290.629C913.961 290.654 914.039 290.694 914.106 290.749C914.173 290.804 914.229 290.871 914.269 290.947C914.31 291.023 914.336 291.107 914.344 291.193Z" fill="#263238"/>
<path d="M910.689 284.627C910.718 284.754 910.719 284.886 910.694 285.013C910.668 285.141 910.616 285.261 910.54 285.367C910.464 285.473 910.367 285.562 910.255 285.628C910.143 285.694 910.018 285.735 909.889 285.75C909.76 285.764 909.629 285.751 909.505 285.711C909.381 285.672 909.267 285.606 909.17 285.52C909.073 285.433 908.995 285.327 908.942 285.208C908.889 285.089 908.862 284.96 908.862 284.83C908.849 284.709 908.861 284.586 908.896 284.469C908.932 284.352 908.99 284.243 909.067 284.149C909.145 284.054 909.241 283.976 909.349 283.919C909.457 283.862 909.575 283.826 909.697 283.815C909.815 283.803 909.935 283.814 910.049 283.848C910.164 283.882 910.27 283.939 910.362 284.014C910.455 284.09 910.531 284.183 910.587 284.288C910.643 284.393 910.678 284.509 910.689 284.627Z" fill="#263238"/>
<path d="M904.236 291.667C904.238 291.77 904.202 291.87 904.136 291.949C904.069 292.027 903.977 292.079 903.875 292.096C903.823 292.102 903.77 292.097 903.72 292.082C903.67 292.067 903.623 292.042 903.583 292.008C903.542 291.974 903.51 291.933 903.486 291.886C903.463 291.839 903.449 291.787 903.447 291.735C903.44 291.634 903.471 291.534 903.533 291.455C903.596 291.376 903.686 291.323 903.785 291.306C903.839 291.3 903.893 291.304 903.944 291.319C903.996 291.334 904.044 291.359 904.086 291.392C904.128 291.426 904.163 291.467 904.189 291.515C904.215 291.562 904.231 291.614 904.236 291.667Z" fill="#263238"/>
<path d="M910.035 296.54C910.041 296.608 910.034 296.677 910.014 296.742C909.993 296.808 909.96 296.868 909.916 296.921C909.872 296.973 909.818 297.016 909.757 297.048C909.696 297.079 909.63 297.099 909.561 297.104C909.491 297.114 909.42 297.109 909.352 297.09C909.284 297.071 909.221 297.038 909.166 296.994C909.111 296.949 909.066 296.894 909.033 296.832C909 296.769 908.98 296.701 908.975 296.63C908.969 296.562 908.976 296.493 908.996 296.428C909.017 296.363 909.05 296.302 909.094 296.25C909.138 296.197 909.192 296.154 909.253 296.123C909.314 296.091 909.38 296.072 909.449 296.066C909.589 296.054 909.728 296.096 909.838 296.184C909.947 296.273 910.018 296.4 910.035 296.54Z" fill="#263238"/>
<path d="M897.377 302.971C897.401 303.15 897.371 303.333 897.292 303.495C897.213 303.658 897.088 303.794 896.932 303.887C896.777 303.979 896.597 304.024 896.417 304.015C896.236 304.007 896.061 303.945 895.915 303.839C895.769 303.732 895.657 303.585 895.594 303.415C895.53 303.246 895.518 303.061 895.558 302.885C895.599 302.708 895.69 302.548 895.821 302.422C895.952 302.297 896.116 302.213 896.294 302.181C896.418 302.155 896.546 302.155 896.669 302.182C896.793 302.208 896.909 302.261 897.011 302.335C897.114 302.409 897.199 302.504 897.262 302.614C897.325 302.723 897.364 302.845 897.377 302.971Z" fill="#263238"/>
<path d="M908.772 305.295C908.85 305.467 908.887 305.655 908.879 305.844C908.871 306.034 908.818 306.218 908.725 306.383C908.632 306.548 908.5 306.688 908.342 306.792C908.184 306.896 908.004 306.961 907.815 306.982C907.627 307.003 907.437 306.978 907.26 306.911C907.083 306.844 906.924 306.735 906.797 306.595C906.67 306.454 906.579 306.286 906.53 306.103C906.481 305.92 906.476 305.728 906.515 305.543C906.49 305.227 906.589 304.913 906.791 304.669C906.993 304.424 907.283 304.268 907.598 304.234C907.891 304.233 908.173 304.341 908.39 304.537C908.607 304.733 908.743 305.003 908.772 305.295Z" fill="#263238"/>
<path d="M919.466 295.412C919.482 295.55 919.469 295.69 919.43 295.824C919.39 295.957 919.324 296.081 919.236 296.188C919.148 296.296 919.039 296.384 918.915 296.448C918.792 296.513 918.657 296.552 918.519 296.563C918.241 296.588 917.964 296.503 917.749 296.325C917.533 296.148 917.396 295.893 917.368 295.615C917.348 295.339 917.436 295.065 917.612 294.851C917.789 294.637 918.04 294.499 918.316 294.465C918.454 294.449 918.594 294.461 918.727 294.501C918.86 294.541 918.984 294.606 919.091 294.695C919.199 294.783 919.287 294.892 919.352 295.016C919.416 295.139 919.455 295.274 919.466 295.412Z" fill="#263238"/>
<path d="M919.895 280.927C919.907 281.03 919.899 281.134 919.87 281.233C919.841 281.332 919.793 281.425 919.728 281.505C919.662 281.585 919.581 281.651 919.49 281.699C919.398 281.747 919.298 281.776 919.195 281.784C919.091 281.797 918.986 281.789 918.885 281.76C918.785 281.732 918.691 281.684 918.609 281.619C918.527 281.553 918.459 281.473 918.409 281.381C918.358 281.29 918.326 281.189 918.315 281.085C918.296 280.873 918.361 280.662 918.496 280.497C918.631 280.333 918.826 280.228 919.037 280.205C919.245 280.192 919.451 280.26 919.61 280.394C919.77 280.529 919.872 280.719 919.895 280.927Z" fill="#263238"/>
<path d="M909.02 278.558C909.039 278.767 908.977 278.975 908.847 279.139C908.717 279.303 908.528 279.41 908.32 279.438C908.11 279.451 907.902 279.384 907.738 279.25C907.575 279.116 907.469 278.925 907.44 278.716C907.42 278.507 907.483 278.297 907.616 278.134C907.749 277.972 907.942 277.868 908.151 277.847C908.361 277.826 908.57 277.89 908.733 278.023C908.896 278.156 908.999 278.349 909.02 278.558Z" fill="#263238"/>
<path d="M926.663 290.087C926.655 290.214 926.601 290.334 926.513 290.426C926.425 290.517 926.307 290.575 926.181 290.588C926.054 290.602 925.927 290.57 925.821 290.499C925.716 290.428 925.638 290.322 925.603 290.2C925.612 290.073 925.665 289.953 925.753 289.862C925.842 289.77 925.959 289.713 926.086 289.699C926.213 289.686 926.34 289.717 926.445 289.788C926.551 289.859 926.628 289.965 926.663 290.087Z" fill="#263238"/>
<path d="M923.369 299.18C923.382 299.286 923.373 299.393 923.343 299.495C923.313 299.597 923.263 299.692 923.196 299.774C923.128 299.856 923.045 299.924 922.951 299.973C922.857 300.022 922.753 300.052 922.647 300.06C922.493 300.072 922.338 300.039 922.203 299.964C922.067 299.889 921.957 299.776 921.885 299.638C921.813 299.501 921.784 299.346 921.8 299.192C921.815 299.038 921.876 298.892 921.975 298.772C922.073 298.652 922.204 298.564 922.352 298.518C922.5 298.473 922.658 298.471 922.807 298.515C922.956 298.558 923.088 298.645 923.188 298.763C923.288 298.881 923.351 299.026 923.369 299.18Z" fill="#263238"/>
<path d="M917.233 304.843C917.245 304.947 917.237 305.053 917.209 305.153C917.18 305.254 917.132 305.348 917.067 305.43C917.002 305.511 916.921 305.58 916.83 305.63C916.738 305.68 916.637 305.712 916.533 305.723C916.43 305.734 916.325 305.724 916.225 305.693C916.125 305.663 916.032 305.614 915.952 305.548C915.871 305.482 915.804 305.401 915.755 305.309C915.706 305.217 915.675 305.116 915.665 305.013C915.654 304.909 915.664 304.804 915.694 304.704C915.725 304.605 915.774 304.512 915.84 304.431C915.906 304.35 915.987 304.284 916.079 304.234C916.171 304.185 916.272 304.154 916.375 304.144C916.581 304.125 916.787 304.188 916.947 304.318C917.107 304.449 917.21 304.638 917.233 304.843Z" fill="#263238"/>
<path d="M912.652 312.221C912.671 312.427 912.608 312.633 912.478 312.793C912.347 312.953 912.158 313.056 911.953 313.079C911.849 313.089 911.744 313.079 911.645 313.049C911.545 313.019 911.452 312.969 911.371 312.903C911.208 312.77 911.105 312.577 911.084 312.368C911.063 312.159 911.126 311.949 911.259 311.786C911.393 311.624 911.585 311.52 911.795 311.499C911.899 311.49 912.003 311.501 912.102 311.533C912.202 311.564 912.294 311.615 912.374 311.682C912.453 311.749 912.519 311.831 912.567 311.924C912.615 312.016 912.644 312.117 912.652 312.221Z" fill="#263238"/>
<path d="M895.956 312.695C895.985 312.823 895.986 312.955 895.96 313.084C895.933 313.212 895.88 313.333 895.803 313.439C895.726 313.545 895.628 313.634 895.514 313.699C895.401 313.764 895.275 313.805 895.144 313.818C895.014 313.831 894.882 313.816 894.758 313.774C894.634 313.732 894.52 313.664 894.424 313.575C894.328 313.486 894.252 313.378 894.201 313.257C894.15 313.137 894.126 313.007 894.129 312.876C894.113 312.755 894.122 312.633 894.154 312.516C894.187 312.399 894.243 312.29 894.319 312.195C894.395 312.1 894.489 312.022 894.596 311.964C894.703 311.907 894.82 311.871 894.941 311.86C895.062 311.848 895.185 311.86 895.302 311.895C895.419 311.93 895.528 311.988 895.623 312.066C895.717 312.144 895.795 312.239 895.852 312.347C895.91 312.455 895.945 312.573 895.956 312.695Z" fill="#263238"/>
<path d="M901.912 311.026C901.934 311.208 901.9 311.392 901.817 311.555C901.733 311.719 901.603 311.853 901.442 311.942C901.282 312.031 901.098 312.07 900.916 312.055C900.733 312.04 900.559 311.97 900.416 311.856C900.272 311.741 900.166 311.586 900.111 311.411C900.056 311.237 900.054 311.049 900.106 310.873C900.157 310.697 900.26 310.54 900.401 310.423C900.542 310.305 900.714 310.232 900.897 310.213C901.017 310.198 901.14 310.206 901.256 310.239C901.373 310.272 901.482 310.328 901.577 310.403C901.672 310.479 901.751 310.573 901.808 310.68C901.866 310.787 901.901 310.905 901.912 311.026Z" fill="#263238"/>
<path d="M892.278 294.465C892.294 294.619 892.279 294.775 892.234 294.923C892.189 295.071 892.115 295.209 892.016 295.329C891.918 295.448 891.796 295.547 891.659 295.62C891.522 295.692 891.372 295.737 891.218 295.751C890.919 295.755 890.63 295.648 890.406 295.449C890.183 295.251 890.042 294.977 890.011 294.68C889.98 294.383 890.061 294.085 890.238 293.844C890.416 293.604 890.677 293.439 890.97 293.382C891.286 293.356 891.599 293.455 891.844 293.657C892.088 293.86 892.244 294.149 892.278 294.465Z" fill="#263238"/>
<path d="M893.09 299.925C893.109 300.137 893.044 300.348 892.909 300.512C892.774 300.677 892.58 300.782 892.368 300.805C892.162 300.824 891.957 300.761 891.797 300.63C891.636 300.499 891.534 300.311 891.511 300.105C891.499 300.001 891.507 299.896 891.535 299.796C891.564 299.695 891.612 299.601 891.677 299.519C891.742 299.437 891.823 299.369 891.914 299.319C892.006 299.268 892.107 299.236 892.211 299.225C892.419 299.206 892.627 299.268 892.791 299.398C892.955 299.529 893.062 299.717 893.09 299.925Z" fill="#263238"/>
<path d="M924.204 308.002C924.217 308.124 924.205 308.246 924.17 308.363C924.134 308.481 924.076 308.589 923.998 308.684C923.921 308.778 923.825 308.856 923.717 308.914C923.609 308.971 923.491 309.006 923.369 309.017C923.248 309.03 923.125 309.018 923.008 308.983C922.891 308.947 922.782 308.889 922.688 308.812C922.593 308.734 922.515 308.638 922.458 308.53C922.401 308.422 922.365 308.304 922.354 308.183C922.33 307.937 922.405 307.692 922.561 307.502C922.718 307.312 922.944 307.191 923.189 307.167C923.434 307.143 923.679 307.218 923.869 307.374C924.06 307.531 924.18 307.757 924.204 308.002Z" fill="#263238"/>
<path d="M930.431 298.481C930.406 298.603 930.34 298.712 930.243 298.791C930.146 298.869 930.026 298.912 929.901 298.912C929.777 298.912 929.656 298.869 929.559 298.791C929.463 298.712 929.396 298.603 929.371 298.481C929.358 298.341 929.4 298.201 929.489 298.091C929.577 297.982 929.705 297.911 929.845 297.894C929.923 297.887 930.003 297.898 930.077 297.925C930.151 297.952 930.219 297.995 930.275 298.051C930.331 298.107 930.374 298.174 930.401 298.248C930.428 298.323 930.438 298.402 930.431 298.481Z" fill="#263238"/>
<path d="M905.613 297.511C905.628 297.649 905.616 297.789 905.576 297.922C905.537 298.055 905.471 298.179 905.382 298.287C905.294 298.394 905.185 298.482 905.062 298.547C904.939 298.611 904.804 298.65 904.665 298.661C904.456 298.683 904.245 298.642 904.059 298.543C903.874 298.444 903.721 298.293 903.622 298.107C903.523 297.922 903.481 297.711 903.501 297.502C903.522 297.293 903.604 297.095 903.738 296.932C903.872 296.77 904.051 296.651 904.252 296.591C904.453 296.53 904.668 296.531 904.869 296.593C905.07 296.655 905.248 296.775 905.38 296.939C905.513 297.102 905.594 297.301 905.613 297.511Z" fill="#263238"/>
<path d="M902.747 279.618C902.76 279.739 902.748 279.86 902.712 279.976C902.677 280.092 902.618 280.199 902.54 280.292C902.462 280.384 902.367 280.46 902.259 280.515C902.151 280.57 902.033 280.603 901.912 280.611C901.687 280.606 901.47 280.518 901.305 280.364C901.139 280.211 901.035 280.002 901.013 279.777C900.991 279.552 901.052 279.327 901.184 279.144C901.317 278.961 901.511 278.833 901.732 278.783C901.853 278.771 901.976 278.783 902.093 278.818C902.21 278.853 902.319 278.912 902.414 278.989C902.508 279.067 902.586 279.162 902.643 279.27C902.701 279.378 902.736 279.497 902.747 279.618Z" fill="#263238"/>
<path d="M894.986 281.694C894.992 281.746 894.987 281.799 894.972 281.85C894.957 281.9 894.932 281.947 894.898 281.987C894.864 282.027 894.822 282.06 894.775 282.083C894.728 282.107 894.677 282.12 894.625 282.123C894.536 282.102 894.457 282.051 894.401 281.979C894.344 281.908 894.313 281.819 894.313 281.728C894.313 281.637 894.344 281.548 894.401 281.477C894.457 281.405 894.536 281.355 894.625 281.333C894.719 281.339 894.807 281.378 894.874 281.445C894.94 281.512 894.98 281.6 894.986 281.694Z" fill="#263238"/>
<path d="M918.857 311.883C918.863 311.951 918.856 312.02 918.835 312.085C918.815 312.15 918.782 312.211 918.738 312.263C918.693 312.316 918.64 312.359 918.579 312.391C918.518 312.422 918.451 312.441 918.383 312.447C918.313 312.456 918.242 312.451 918.174 312.432C918.106 312.413 918.043 312.381 917.988 312.336C917.933 312.292 917.888 312.237 917.855 312.174C917.822 312.112 917.802 312.043 917.797 311.973C917.79 311.905 917.798 311.836 917.818 311.771C917.839 311.705 917.872 311.645 917.916 311.592C917.96 311.54 918.014 311.497 918.075 311.465C918.136 311.434 918.202 311.415 918.27 311.409C918.34 311.4 918.411 311.404 918.479 311.423C918.547 311.443 918.611 311.475 918.666 311.52C918.721 311.564 918.766 311.619 918.799 311.681C918.832 311.744 918.851 311.812 918.857 311.883Z" fill="#263238"/>
<path d="M907.034 314.5C907.044 314.586 907.036 314.673 907.011 314.756C906.987 314.839 906.946 314.916 906.892 314.983C906.837 315.051 906.77 315.106 906.694 315.147C906.617 315.188 906.534 315.214 906.448 315.222C906.362 315.231 906.275 315.223 906.192 315.198C906.109 315.173 906.032 315.133 905.965 315.078C905.898 315.024 905.842 314.957 905.801 314.881C905.76 314.805 905.735 314.721 905.726 314.635C905.717 314.549 905.725 314.463 905.75 314.38C905.774 314.297 905.815 314.22 905.869 314.153C905.924 314.086 905.991 314.03 906.067 313.989C906.143 313.948 906.226 313.922 906.312 313.913C906.398 313.904 906.485 313.912 906.568 313.936C906.651 313.961 906.729 314.001 906.796 314.056C906.863 314.111 906.919 314.178 906.959 314.254C907 314.33 907.026 314.414 907.034 314.5Z" fill="#263238"/>
<path d="M920.008 287.29C919.982 287.411 919.916 287.521 919.819 287.6C919.723 287.678 919.602 287.721 919.478 287.721C919.353 287.721 919.232 287.678 919.136 287.6C919.039 287.521 918.973 287.411 918.947 287.29C918.931 287.211 918.932 287.129 918.951 287.051C918.971 286.973 919.007 286.9 919.058 286.838C919.108 286.775 919.172 286.725 919.245 286.691C919.318 286.656 919.397 286.638 919.478 286.638C919.558 286.638 919.637 286.656 919.71 286.691C919.783 286.725 919.847 286.775 919.898 286.838C919.948 286.9 919.984 286.973 920.004 287.051C920.023 287.129 920.024 287.211 920.008 287.29Z" fill="#263238"/>
<path d="M915.901 278.265C915.91 278.351 915.903 278.438 915.878 278.521C915.854 278.604 915.813 278.681 915.758 278.748C915.704 278.815 915.636 278.871 915.56 278.912C915.484 278.953 915.4 278.978 915.314 278.987C915.228 278.996 915.142 278.987 915.059 278.963C914.976 278.938 914.899 278.897 914.832 278.843C914.765 278.788 914.709 278.721 914.668 278.645C914.627 278.569 914.601 278.486 914.592 278.4C914.583 278.314 914.592 278.227 914.616 278.145C914.641 278.062 914.682 277.985 914.736 277.918C914.791 277.851 914.858 277.795 914.934 277.754C915.01 277.713 915.093 277.687 915.179 277.678C915.265 277.669 915.352 277.676 915.435 277.701C915.518 277.725 915.595 277.766 915.662 277.821C915.73 277.875 915.785 277.943 915.826 278.019C915.867 278.095 915.893 278.179 915.901 278.265Z" fill="#263238"/>
<path d="M889.381 762.455C900.708 748.407 898.502 727.837 884.455 716.509C870.407 705.182 849.836 707.388 838.509 721.436C827.182 735.484 829.388 756.054 843.436 767.381C857.484 778.708 878.054 776.502 889.381 762.455Z" fill="white" stroke="#263238" stroke-miterlimit="10"/>
<g opacity="0.21">
<path d="M881.74 715.625C882.573 715.708 883.392 715.898 884.176 716.191C880.21 713.033 875.562 710.844 870.602 709.795C868.231 712.145 860.943 719.454 856.353 725.023L852.938 729.178L846.412 737.118C853.336 732.628 860.03 727.792 866.469 722.63C871.581 718.084 881.74 715.625 881.74 715.625Z" fill="black"/>
<path d="M892.552 726.111C891.424 724.086 890.09 722.183 888.571 720.433C887.105 722.654 885.414 724.717 883.524 726.589C875.431 735.726 870.471 735.53 875.431 735.726C879.673 735.9 889.985 728.09 892.552 726.111Z" fill="black"/>
<path d="M896.446 738.619V744.101C896.598 742.277 896.598 740.443 896.446 738.619Z" fill="black"/>
<path d="M887.896 719.715C887.57 719.345 887.244 718.976 886.874 718.606C886.949 718.856 887.08 719.086 887.257 719.279C887.434 719.471 887.653 719.62 887.896 719.715Z" fill="black"/>
<path d="M896.402 745.472C892.336 747.614 888.445 750.072 884.764 752.825C879.608 756.805 865.468 767.922 865.468 767.922L856.288 773.012C855.984 773.126 855.686 773.257 855.396 773.404C859.227 774.443 863.215 774.775 867.165 774.383C871.276 773.077 878.194 760.199 893.465 755.761C894.998 752.514 895.99 749.039 896.402 745.472Z" fill="black"/>
</g>
<g opacity="0.21">
<path d="M873.495 744.232C873.495 744.232 846.564 758.567 837.731 761.374C839.403 763.614 841.347 765.638 843.518 767.4C847.39 765.355 851.784 762.831 856.353 759.829C868.709 751.65 871.581 752.063 879.194 745.754C886.808 739.446 873.495 744.232 873.495 744.232Z" fill="black"/>
<path d="M836.318 759.351C839.929 755.5 848.826 751.041 849.892 743.84C850.762 737.814 839.407 746.385 832.793 751.824C833.643 754.473 834.827 757.002 836.318 759.351Z" fill="black"/>
</g>
</g>
<defs>
<clipPath id="clip0_233_1171">
<rect width="1728" height="1117" fill="white"/>
</clipPath>
</defs>
</svg>
