<svg width="1728" height="1117" viewBox="0 0 1728 1117" fill="none" xmlns="http://www.w3.org/2000/svg">
<g clip-path="url(#clip0_233_5)">
<path d="M-4 -42V424C3.51583 417.777 10.6192 411.05 17.1268 403.729C52.048 364.469 76.8869 308.369 128.077 296.335C170.56 286.36 212.08 311.893 251.218 331.203C290.355 350.513 342.645 362.272 373.533 331.523C384.119 320.953 390.306 306.859 395.531 292.857C411.387 250.394 421.653 203.721 452.404 170.409C497.865 121.219 572.611 116.231 639.612 113.852C706.613 111.427 781.771 104.38 824.804 53.0852C847.122 26.4998 856.334 -6.94933 860 -41.9542H-4V-42ZM138.068 248.747C130.506 251.492 116.895 251.126 113.641 242.112C112.358 238.588 113.183 234.196 115.612 231.313C115.795 231.084 116.024 230.855 116.253 230.626C122.486 224.678 134.126 226.142 141.505 228.659C143.063 229.162 144.575 229.803 145.813 230.855C152.87 236.712 144.071 246.505 138.022 248.701L138.068 248.747ZM304.287 237.765C283.572 259.957 224.179 277.437 198.194 253.963C178.121 235.843 196.132 200.929 215.471 191.092C229.816 183.816 246.36 182.306 262.4 182.214C273.032 182.169 283.939 182.764 293.746 186.882C303.278 190.908 311.711 198.825 313.911 208.891C313.956 209.166 314.048 209.44 314.094 209.715C315.927 219.828 311.253 230.26 304.241 237.765H304.287Z" fill="white"/>
<path fill-rule="evenodd" clip-rule="evenodd" d="M1488.74 248.112C1539.57 233.847 1595.92 218.034 1640.92 187.08H1640.88C1662.32 172.324 1678.48 155.808 1693.82 140.124C1705.06 128.628 1715.87 117.58 1728 108V1117.96C1438.95 1117.96 1150.29 1117.97 861.979 1117.98C574.337 1117.99 287.031 1118 0 1118C10.5748 1100.48 21.9783 1083.47 34.3288 1067.14C113.758 962.011 231.976 883.918 362.741 861.939C454.514 846.488 547.364 858.316 640.27 870.152C678.104 874.972 715.949 879.794 753.734 882.774C884.301 893.073 1030.49 874.685 1117.07 777.374C1167.92 720.229 1189.18 646.434 1210.59 572.121C1226.66 516.347 1242.81 460.281 1271.62 410.744C1316.29 333.953 1391.97 275.432 1478.03 251.124C1481.57 250.125 1485.14 249.122 1488.74 248.112ZM1432.34 446.653C1438.73 450.362 1446.27 453.006 1454.95 454.269L1454.99 454.229C1544.79 467.212 1601.93 313.512 1497.48 320.378C1463.75 322.627 1422.71 338.057 1409.49 371.677C1398.96 398.471 1406.45 431.697 1432.34 446.653ZM310.161 1112.33C375.414 1111.03 454.55 1080.84 469.007 1034.36C483.463 987.885 464.715 942.98 398.367 934.36C332.018 925.74 267.708 953.45 238.525 1004.42C209.342 1055.39 244.908 1113.62 310.161 1112.33Z" fill="white"/>
</g>
<defs>
<clipPath id="clip0_233_5">
<rect width="1728" height="1117" fill="white"/>
</clipPath>
</defs>
</svg>
