<svg width="517" height="320" viewBox="0 0 517 320" fill="none" xmlns="http://www.w3.org/2000/svg">
<g clip-path="url(#clip0_1_1998)">
<path d="M353.99 209.498L506.458 191.499L514.014 255.511C514.186 256.971 513.772 258.439 512.861 259.594C511.951 260.748 510.619 261.493 509.16 261.665L367.701 278.364C366.241 278.537 364.773 278.122 363.618 277.212C362.464 276.301 361.719 274.97 361.547 273.51L353.99 209.498Z" fill="#263238" stroke="#263238" stroke-width="1.25965" stroke-linecap="round" stroke-linejoin="round"/>
<path d="M336.992 18.2266L478.451 1.52752C479.911 1.35519 481.379 1.76982 482.533 2.68021C483.687 3.5906 484.432 4.92218 484.605 6.38199L506.461 191.524L353.993 209.523L332.143 24.4306C332.051 23.7044 332.103 22.967 332.297 22.2611C332.492 21.5552 332.824 20.8948 333.274 20.318C333.725 19.7411 334.286 19.2593 334.924 18.9003C335.562 18.5414 336.265 18.3124 336.992 18.2266Z" fill="white" stroke="#263238" stroke-width="1.25965" stroke-linecap="round" stroke-linejoin="round"/>
<path d="M362.98 120.182C362.865 113.942 387.56 102.757 418.22 98.808C446.781 95.1319 475.395 101.457 479.854 107.324C484.314 113.19 482.538 194.526 482.538 194.526L380.31 206.594C380.31 206.594 363.331 139.166 362.98 120.182Z" fill="#263238"/>
<path d="M436.911 99.3032C435.511 102.66 433.229 105.575 430.307 107.74C427.385 109.904 423.932 111.238 420.313 111.6C409.818 112.839 401.101 104.647 401.101 104.647C404.4 100.896 403.901 94.7398 402.782 89.9885C402.24 87.6501 401.503 85.3611 400.579 83.1456L431.953 79.4419C430.778 85.9227 431.388 90.4423 432.495 93.4826C434.139 97.9562 436.911 99.3032 436.911 99.3032Z" fill="#BFBFBF" stroke="#263238" stroke-width="1.25965" stroke-miterlimit="10"/>
<path d="M488.368 151.08C488.368 151.08 484.565 184.939 480.043 194.77L363.473 208.379C363.473 208.379 368.694 198.883 373.036 195.263C377.378 191.643 393.935 194.369 397.087 193.997C400.24 193.625 454.474 178.242 456.48 177.295C458.487 176.348 462.187 149.782 462.187 149.782C462.187 149.782 481.888 148.294 488.368 151.08Z" fill="#BFBFBF"/>
<mask id="mask0_1_1998" style="mask-type:luminance" maskUnits="userSpaceOnUse" x="363" y="149" width="126" height="60">
<path d="M488.368 151.08C488.368 151.08 484.565 184.939 480.043 194.77L363.473 208.379C363.473 208.379 368.694 198.883 373.036 195.263C377.378 191.643 393.935 194.369 397.087 193.997C400.24 193.625 454.474 178.242 456.48 177.295C458.487 176.348 462.187 149.782 462.187 149.782C462.187 149.782 481.888 148.294 488.368 151.08Z" fill="white"/>
</mask>
<g mask="url(#mask0_1_1998)">
<path opacity="0.15" d="M488.368 151.08C488.368 151.08 486.744 165.579 484.334 178.37C480.935 176.539 475.706 175.228 468.179 177.005C452.557 180.701 442.174 184.184 442.174 184.184C442.174 184.184 427.15 193.15 423.177 201.407L363.473 208.379C363.473 208.379 368.694 198.883 373.036 195.263C377.377 191.643 393.935 194.369 397.087 193.997C400.24 193.625 454.474 178.242 456.48 177.295C458.487 176.348 461.877 151.988 462.136 149.991C469.019 149.506 475.927 149.479 482.814 149.909C484.71 150.046 486.578 150.44 488.368 151.08Z" fill="black"/>
</g>
<path d="M488.368 151.08C488.368 151.08 484.565 184.939 480.043 194.77L363.473 208.379C363.473 208.379 368.694 198.883 373.036 195.263C377.378 191.643 393.935 194.369 397.087 193.997C400.24 193.625 454.474 178.242 456.48 177.295C458.487 176.348 462.187 149.782 462.187 149.782C462.187 149.782 481.888 148.294 488.368 151.08Z" stroke="#263238" stroke-width="1.25965" stroke-linecap="round" stroke-linejoin="round"/>
<path d="M465.35 118.333C461.235 122.37 458.602 137.242 458.602 137.242L459.084 154.651C459.084 154.651 480.856 154.922 488.845 163.822C488.845 163.822 489.099 160.71 488.322 159.394C491.033 151.03 492.736 142.372 493.396 133.604C494.497 118.977 483.82 106.209 476.754 104.912" fill="#263238"/>
<path d="M465.35 118.333C461.235 122.37 458.602 137.242 458.602 137.242L459.084 154.651" fill="#263238"/>
<path d="M465.35 118.333C461.235 122.37 458.602 137.242 458.602 137.242L459.084 154.651" stroke="white" stroke-width="1.25965" stroke-linecap="round" stroke-linejoin="round"/>
<path d="M477.069 148.951C479.422 148.471 486.34 150.013 487.722 151.626C489.105 153.238 490.529 155.417 489.076 157.072C489.642 158.235 490.059 159.464 490.319 160.731C490.499 162.257 488.266 163.218 488.266 163.218C488.687 163.99 488.789 164.896 488.55 165.742C488.311 166.589 487.75 167.307 486.987 167.745C486.987 167.745 488.007 170.58 485.717 172.03L484.357 171.252C484.357 171.252 476.575 173.35 472.585 172.642" fill="#BFBFBF"/>
<path d="M477.069 148.951C479.422 148.471 486.34 150.013 487.722 151.626C489.105 153.238 490.529 155.417 489.076 157.072C489.642 158.235 490.059 159.464 490.319 160.731C490.499 162.257 488.266 163.218 488.266 163.218C488.687 163.99 488.789 164.896 488.55 165.742C488.311 166.589 487.75 167.307 486.987 167.745C486.987 167.745 488.007 170.58 485.717 172.03L484.357 171.252C484.357 171.252 476.575 173.35 472.585 172.642" stroke="#263238" stroke-width="1.25965" stroke-linecap="round" stroke-linejoin="round"/>
<path d="M479.206 158.998C479.525 158.131 479.928 157.298 480.409 156.51C481.078 155.086 478.238 154.229 478.933 153.133C480.781 150.314 478.352 149.396 478.352 149.396C477.152 147.179 462.664 153.607 461.397 150.928C459.566 147.022 466.809 138.328 461.354 134.875C460.557 134.361 460.338 139.917 454.688 146.101C451.801 149.258 452.624 157.088 446.943 161.298C441.263 165.507 429.228 171.431 416.183 174.391C408.932 176.033 396.898 181.221 396.898 181.221C396.898 181.221 395.579 171.23 392.332 165.855C389.084 160.479 370.542 159.421 370.542 159.421L365.449 173.975C365.449 173.975 375.95 199.536 380.309 206.594L407.983 202.921C414.722 199.646 421.227 195.912 427.453 191.744C436.529 185.824 446.277 181.003 456.491 177.383C460.161 176.239 475.223 173.281 477.187 171.87C477.545 171.657 477.857 171.375 478.103 171.039C478.35 170.703 478.526 170.321 478.622 169.915C478.717 169.509 478.73 169.089 478.659 168.678C478.588 168.268 478.435 167.876 478.209 167.526C477.436 166.031 478.899 164.451 478.899 164.451" fill="#BFBFBF"/>
<path d="M479.206 158.998C479.525 158.131 479.928 157.298 480.409 156.51C481.078 155.086 478.238 154.229 478.933 153.133C480.781 150.314 478.352 149.396 478.352 149.396C477.152 147.179 462.664 153.607 461.397 150.928C459.566 147.022 466.809 138.328 461.354 134.875C460.557 134.361 460.338 139.917 454.688 146.101C451.801 149.258 452.624 157.088 446.943 161.298C441.263 165.507 429.228 171.431 416.183 174.391C408.932 176.033 396.898 181.221 396.898 181.221C396.898 181.221 395.579 171.23 392.332 165.855C389.084 160.479 370.542 159.421 370.542 159.421L365.449 173.975C365.449 173.975 375.95 199.536 380.309 206.594L407.983 202.921C414.722 199.646 421.227 195.912 427.453 191.744C436.529 185.824 446.277 181.003 456.491 177.383C460.161 176.239 475.223 173.281 477.187 171.87C477.545 171.657 477.857 171.375 478.103 171.039C478.35 170.703 478.526 170.321 478.622 169.915C478.717 169.509 478.73 169.089 478.659 168.678C478.588 168.268 478.435 167.876 478.209 167.526C477.436 166.031 478.899 164.451 478.899 164.451" stroke="#263238" stroke-width="1.25965" stroke-linecap="round" stroke-linejoin="round"/>
<path d="M489.076 157.072C489.076 157.072 486.469 155.084 485.894 154.835C485.319 154.586 480.988 153.994 480.988 153.994" stroke="#263238" stroke-width="1.25965" stroke-linecap="round" stroke-linejoin="round"/>
<path d="M488.274 163.281C488.274 163.281 486.966 161.228 485.307 160.929C483.897 160.729 482.477 160.608 481.053 160.569" stroke="#263238" stroke-width="1.25965" stroke-linecap="round" stroke-linejoin="round"/>
<path d="M486.991 167.783C486.991 167.783 484.44 166.587 483.364 166.169C482.271 165.889 481.141 165.783 480.016 165.854" stroke="#263238" stroke-width="1.25965" stroke-linecap="round" stroke-linejoin="round"/>
<path d="M366.261 115.736C366.261 115.736 355.015 117.177 354.587 139.767C354.309 152.243 362.365 171.701 363.533 175.583C364.383 178.029 366.128 180.062 368.416 181.273C368.416 181.273 380.924 171.184 394.274 170.166C394.274 170.166 395.78 162.835 393.358 162.41C390.936 161.986 394.014 147.873 387.575 138.993" fill="#263238"/>
<path d="M395.183 167.661C395.183 167.661 396.679 160.344 394.269 159.918C391.86 159.492 394.912 145.382 388.486 136.501" fill="#263238"/>
<path d="M395.183 167.661C395.183 167.661 396.679 160.344 394.269 159.918C391.86 159.492 394.912 145.382 388.486 136.501" stroke="white" stroke-width="1.25965" stroke-linecap="round" stroke-linejoin="round"/>
<path d="M432.495 93.4825C410.529 102.1 404.497 89.6846 404.497 89.6846L402.782 89.9885C402.24 87.65 401.503 85.3611 400.579 83.1456L431.953 79.4419C430.831 85.9417 431.362 90.4452 432.495 93.4825Z" fill="#263238"/>
<path d="M436.247 56.6113C436.247 56.6113 438.424 53.5639 439.781 54.3169C440.701 54.9035 441.441 55.7316 441.921 56.7107C442.401 57.6898 442.603 58.7821 442.504 59.8681C442.092 62.2886 439.644 66.6873 439.698 69.0782C439.751 71.4691 438.537 74.2888 436.694 72.9716C434.852 71.6543 436.247 56.6113 436.247 56.6113Z" fill="#BFBFBF" stroke="#263238" stroke-width="1.25965" stroke-miterlimit="10"/>
<path d="M391.213 61.9275C391.213 61.9275 388.386 59.4707 387.241 60.5191C386.484 61.3036 385.957 62.2814 385.718 63.3454C385.478 64.4094 385.537 65.5186 385.886 66.5518C386.837 68.8113 390.256 72.5174 390.76 74.8551C391.264 77.1929 393.102 79.6522 394.587 77.9422C396.072 76.2321 391.213 61.9275 391.213 61.9275Z" fill="#BFBFBF" stroke="#263238" stroke-width="1.25965" stroke-miterlimit="10"/>
<path d="M409.383 27.6034C441.17 23.8509 438.61 67.063 434.359 81.3395C432.871 86.3604 422.964 93.8719 417.823 94.4788C413.031 95.0444 401.199 88.8308 398.735 84.6063C391.205 71.6443 379.097 31.1786 409.383 27.6034Z" fill="#BFBFBF" stroke="#263238" stroke-width="1.25965" stroke-miterlimit="10"/>
<path d="M417.859 53.0995C417.859 53.0995 425.826 49.5589 428.988 54.3226" stroke="#263238" stroke-width="1.25965" stroke-linecap="round" stroke-linejoin="round"/>
<path d="M424.81 59.3312C424.925 60.3069 424.518 61.1541 423.905 61.2265C423.292 61.2988 422.711 60.5683 422.596 59.5926C422.481 58.6168 422.874 57.7586 423.487 57.6863C424.1 57.6139 424.695 58.3554 424.81 59.3312Z" fill="#263238"/>
<path d="M408.152 54.2455C408.152 54.2455 399.58 52.6571 397.614 58.0263" stroke="#263238" stroke-width="1.25965" stroke-linecap="round" stroke-linejoin="round"/>
<path d="M402.843 61.9244C402.958 62.9001 403.552 63.6292 404.165 63.5568C404.778 63.4845 405.173 62.6388 405.057 61.663C404.942 60.6873 404.36 59.9442 403.747 60.0166C403.134 60.089 402.728 60.9486 402.843 61.9244Z" fill="#263238"/>
<path d="M423.77 36.8765C416.103 40.3562 407.544 41.3667 399.277 39.768C399.277 39.768 394.956 40.0243 393.521 42.3753C392.087 44.7263 394.555 51.1321 395.332 53.8435C396.109 56.555 392.121 58.8776 393.529 65.6495L392.195 68.2043C392.195 68.2043 386.404 57.726 386.411 48.1108C386.417 38.4956 391.974 34.0979 391.974 34.0979C391.974 34.0979 393.735 25.5946 409.78 23.764C427.025 21.7916 429.866 30.9185 429.866 30.9185C429.866 30.9185 442.47 37.3327 436.823 63.7477L434.573 60.8043C434.625 57.3835 433.449 54.0573 431.259 51.4288C429.5 49.4168 431.126 42.5657 430.159 39.2046C429.191 35.8434 423.77 36.8765 423.77 36.8765Z" fill="#263238"/>
<path d="M415.506 58.6284C415.506 58.6284 417.136 68.3548 418.859 70.9165C420.582 73.4783 415.749 74.5435 413.455 73.1654" stroke="#263238" stroke-width="1.25965" stroke-linecap="round" stroke-linejoin="round"/>
<path d="M408.943 78.9999C409.58 80.539 410.801 81.7631 412.339 82.4043C414.626 83.0855 421.16 81.921 422.318 80.9852C423.476 80.0494 423.791 77.4501 423.791 77.4501" fill="white"/>
<path d="M408.943 78.9999C409.58 80.539 410.801 81.7631 412.339 82.4043C414.626 83.0855 421.16 81.921 422.318 80.9852C423.476 80.0494 423.791 77.4501 423.791 77.4501" stroke="#263238" stroke-width="1.25965" stroke-linecap="round" stroke-linejoin="round"/>
<path d="M408.217 78.8699C408.217 78.8699 415.018 79.9571 424.643 76.931" stroke="#263238" stroke-width="1.25965" stroke-linecap="round" stroke-linejoin="round"/>
<path d="M418.474 38.859C418.474 38.859 414.905 39.3564 414.913 40.9282C414.921 42.5001 415.222 44.8365 411.772 44.2925C411.772 44.2925 410.932 47.2835 407.902 45.5738C404.872 43.864 404.411 46.7342 404.411 46.7342C404.411 46.7342 403.16 46.8819 403.115 45.3144C403.115 45.3144 399.999 45.3525 400.221 47.2289C400.442 49.1053 395.779 51.0764 395.557 49.2C395.557 49.2 395.258 53.6493 392.059 53.0884C388.86 52.5274 387.949 57.5944 387.949 57.5944C387.949 57.5944 385.595 54.6378 386.71 51.8299C386.71 51.8299 383.602 49.3556 384.029 46.3118C384.27 44.5112 384.744 42.7496 385.44 41.0716C385.44 41.0716 382.106 36.899 385.827 34.2527C389.548 31.6064 388.635 30.5346 388.576 30.0342C388.517 29.5338 389.814 25.9053 393.057 26.626C396.301 27.3466 396.842 23.3379 399.278 22.264C401.713 21.1901 406.398 20.8019 407.321 21.3145C407.905 21.6291 408.552 21.8088 409.214 21.8403C409.876 21.8719 410.537 21.7546 411.148 21.4969C412.269 20.8953 415.611 19.5495 416.359 20.7296C416.765 21.26 417.279 21.6977 417.868 22.0133C418.456 22.3288 419.105 22.5149 419.772 22.5591C420.993 22.694 422.031 20.745 423.449 22.1249C424.868 23.5049 418.474 38.859 418.474 38.859Z" fill="#263238"/>
<path d="M418.474 38.859C421.757 37.7612 423.007 39.9728 423.522 41.6497C424.037 43.3266 426.867 43.3351 426.867 43.3351C426.867 43.3351 428.554 44.2013 428.61 44.6767C428.667 45.152 429.349 44.2724 429.129 42.4084C429.129 42.4084 430.196 45.4281 430.748 47.1006C430.928 47.5797 431.213 48.0119 431.584 48.3644C431.954 48.717 432.4 48.9807 432.887 49.1358C433.375 49.2908 433.891 49.3331 434.397 49.2593C434.903 49.1856 435.386 48.9978 435.809 48.7102C438.108 47.3354 438.274 50.7911 438.274 50.7911C438.849 50.2427 439.223 49.5177 439.338 48.7317C439.452 47.9456 439.299 47.144 438.904 46.4549C438.904 46.4549 440.695 42.933 439.439 40.2401C438.182 37.5472 440.348 34.6153 437.801 33.026C435.254 31.4368 435.479 31.7274 435.157 30.5096C434.836 29.2918 435.002 27.3696 433.271 27.1046C431.54 26.8396 429.274 26.2319 429.161 25.2687C429.047 24.3055 426.131 22.2778 421.829 24.5107C417.526 26.7436 418.474 38.859 418.474 38.859Z" fill="#263238"/>
<path d="M426.929 212.773L368.622 219.656C368.015 219.727 367.461 220.037 367.082 220.517C366.704 220.997 366.531 221.608 366.603 222.215C366.674 222.822 366.984 223.376 367.464 223.755C367.944 224.133 368.555 224.306 369.162 224.234L427.47 217.351C428.077 217.279 428.631 216.969 429.009 216.489C429.388 216.009 429.56 215.399 429.489 214.792C429.417 214.184 429.107 213.631 428.627 213.252C428.147 212.873 427.536 212.701 426.929 212.773Z" fill="white"/>
<path d="M497.802 223.47L369.841 238.576C369.501 238.616 369.19 238.79 368.978 239.058C368.766 239.327 368.67 239.669 368.71 240.009C368.75 240.349 368.924 240.66 369.192 240.872C369.461 241.084 369.803 241.18 370.143 241.14L498.104 226.035C498.444 225.994 498.755 225.821 498.967 225.552C499.179 225.283 499.275 224.941 499.235 224.601C499.195 224.261 499.022 223.951 498.753 223.739C498.484 223.527 498.142 223.43 497.802 223.47Z" fill="white"/>
<path d="M474.999 232.631L370.594 244.956C370.254 244.996 369.944 245.169 369.731 245.438C369.519 245.707 369.423 246.049 369.463 246.389C369.503 246.729 369.677 247.04 369.946 247.252C370.214 247.464 370.556 247.56 370.896 247.52L475.302 235.195C475.642 235.155 475.952 234.981 476.164 234.713C476.376 234.444 476.473 234.102 476.433 233.762C476.393 233.421 476.219 233.111 475.95 232.899C475.681 232.687 475.339 232.591 474.999 232.631Z" fill="white"/>
<path d="M402.334 224.479L368.646 228.455C368.306 228.496 367.996 228.669 367.784 228.938C367.572 229.207 367.475 229.549 367.515 229.889C367.555 230.229 367.729 230.539 367.998 230.751C368.267 230.963 368.609 231.06 368.949 231.02L402.637 227.043C402.977 227.003 403.287 226.829 403.499 226.56C403.712 226.292 403.808 225.949 403.768 225.609C403.728 225.269 403.554 224.959 403.285 224.747C403.017 224.535 402.675 224.438 402.334 224.479Z" fill="white"/>
<path d="M500.185 243.978L497.107 244.341C496.375 244.428 495.851 245.091 495.938 245.824L496.301 248.901C496.387 249.633 497.051 250.157 497.783 250.071L500.861 249.707C501.593 249.621 502.117 248.957 502.03 248.225L501.667 245.147C501.581 244.415 500.917 243.891 500.185 243.978Z" fill="white"/>
<path d="M488.401 245.369L485.323 245.732C484.591 245.819 484.067 246.482 484.154 247.215L484.517 250.292C484.603 251.024 485.267 251.548 486 251.462L489.077 251.098C489.809 251.012 490.333 250.348 490.246 249.616L489.883 246.538C489.797 245.806 489.133 245.282 488.401 245.369Z" fill="white"/>
<path d="M476.617 246.76L473.539 247.123C472.807 247.21 472.283 247.874 472.37 248.606L472.733 251.683C472.819 252.416 473.483 252.939 474.216 252.853L477.293 252.489C478.025 252.403 478.549 251.739 478.462 251.007L478.099 247.929C478.013 247.197 477.349 246.674 476.617 246.76Z" fill="white"/>
<path d="M189.039 228.971L341.506 210.972L349.062 274.984C349.235 276.443 348.82 277.912 347.91 279.066C346.999 280.22 345.668 280.965 344.208 281.138L202.749 297.837C201.289 298.009 199.821 297.594 198.667 296.684C197.513 295.774 196.767 294.442 196.595 292.982L189.039 228.971Z" fill="#263238" stroke="#263238" stroke-width="1.25965" stroke-linecap="round" stroke-linejoin="round"/>
<path d="M261.977 232.245L203.67 239.128C203.063 239.2 202.509 239.51 202.13 239.99C201.752 240.47 201.579 241.081 201.651 241.688C201.723 242.295 202.033 242.849 202.513 243.227C202.993 243.606 203.603 243.778 204.21 243.707L262.518 236.824C263.125 236.752 263.679 236.442 264.057 235.962C264.436 235.482 264.609 234.871 264.537 234.264C264.465 233.657 264.155 233.103 263.675 232.724C263.195 232.346 262.584 232.173 261.977 232.245Z" fill="white"/>
<path d="M332.862 242.941L204.889 258.048C204.549 258.088 204.238 258.262 204.026 258.531C203.814 258.8 203.718 259.142 203.758 259.482C203.798 259.822 203.972 260.132 204.24 260.344C204.509 260.556 204.851 260.653 205.191 260.613L333.165 245.506C333.505 245.466 333.815 245.292 334.027 245.023C334.239 244.754 334.336 244.412 334.296 244.072C334.256 243.732 334.082 243.422 333.813 243.21C333.544 242.998 333.202 242.901 332.862 242.941Z" fill="white"/>
<path d="M310.047 252.103L205.642 264.428C205.302 264.468 204.992 264.642 204.78 264.911C204.567 265.18 204.471 265.522 204.511 265.862C204.551 266.202 204.725 266.512 204.994 266.724C205.262 266.936 205.605 267.033 205.945 266.993L310.35 254.668C310.69 254.628 311 254.454 311.212 254.185C311.424 253.916 311.521 253.574 311.481 253.234C311.441 252.894 311.267 252.584 310.998 252.372C310.729 252.16 310.387 252.063 310.047 252.103Z" fill="white"/>
<path d="M237.382 243.951L203.694 247.928C203.354 247.968 203.044 248.142 202.832 248.411C202.62 248.679 202.523 249.021 202.563 249.362C202.603 249.702 202.777 250.012 203.046 250.224C203.315 250.436 203.657 250.533 203.997 250.492L237.685 246.516C238.025 246.475 238.335 246.302 238.547 246.033C238.76 245.764 238.856 245.422 238.816 245.082C238.776 244.742 238.602 244.432 238.333 244.22C238.065 244.007 237.722 243.911 237.382 243.951Z" fill="white"/>
<path d="M335.232 263.45L332.155 263.814C331.423 263.9 330.899 264.564 330.986 265.296L331.349 268.374C331.435 269.106 332.099 269.629 332.831 269.543L335.909 269.18C336.641 269.093 337.165 268.43 337.078 267.697L336.715 264.62C336.629 263.887 335.965 263.364 335.232 263.45Z" fill="white"/>
<path d="M323.448 264.841L320.371 265.205C319.639 265.291 319.115 265.955 319.202 266.687L319.565 269.765C319.651 270.497 320.315 271.021 321.047 270.934L324.125 270.571C324.857 270.484 325.381 269.821 325.294 269.088L324.931 266.011C324.845 265.279 324.181 264.755 323.448 264.841Z" fill="white"/>
<path d="M311.664 266.233L308.587 266.596C307.855 266.682 307.331 267.346 307.418 268.078L307.781 271.156C307.867 271.888 308.531 272.412 309.263 272.325L312.341 271.962C313.073 271.875 313.597 271.212 313.51 270.479L313.147 267.402C313.06 266.67 312.397 266.146 311.664 266.233Z" fill="white"/>
<path d="M172.04 37.699L313.499 21C314.959 20.8276 316.427 21.2423 317.581 22.1526C318.735 23.063 319.481 24.3946 319.653 25.8544L341.509 210.997L189.041 228.995L167.191 43.9031C167.099 43.1768 167.151 42.4395 167.346 41.7336C167.54 41.0277 167.872 40.3672 168.323 39.7904C168.773 39.2136 169.334 38.7317 169.972 38.3728C170.61 38.0138 171.313 37.7848 172.04 37.699Z" fill="white" stroke="#263238" stroke-width="1.25965" stroke-linecap="round" stroke-linejoin="round"/>
<path d="M271.713 85.9658C274.914 103.942 276.932 114.054 280.586 128.894C284.241 143.734 285.23 160.17 262.681 169.44C240.132 178.71 212.521 164.973 210.316 154.35C208.111 143.728 213.781 117.082 209.245 96.9297C204.71 76.7775 221.496 59.1948 236.555 58.3683C251.615 57.5418 269.602 73.9878 271.713 85.9658Z" fill="#08A202" stroke="#263238" stroke-width="1.25965" stroke-linecap="round" stroke-linejoin="round"/>
<path d="M261.977 113.511C261.977 113.511 262.823 132.284 270.334 144.018" stroke="#263238" stroke-width="1.25965" stroke-linecap="round" stroke-linejoin="round"/>
<path d="M218.756 110.66C218.756 110.66 224.546 128.875 219.214 148.493" stroke="#263238" stroke-width="1.25965" stroke-linecap="round" stroke-linejoin="round"/>
<path d="M229.41 124.839C230.876 133.79 231.349 142.875 230.819 151.93" stroke="#263238" stroke-width="1.25965" stroke-linecap="round" stroke-linejoin="round"/>
<path d="M264.853 97.5826C264.853 97.5826 267.292 110.296 271.073 115.354" stroke="#263238" stroke-width="1.25965" stroke-linecap="round" stroke-linejoin="round"/>
<path d="M339.67 201.118C338.128 199.001 336.299 197.108 334.237 195.493C329.341 192.05 306.477 146.538 296.478 140.919L293.289 185.03C295.833 188.535 303.379 196.371 303.249 198.276C303.119 200.181 307.401 202.504 307.401 202.504C305.896 205.764 310.738 214.655 310.738 214.655L340.849 211.1L339.67 201.118Z" fill="#999999"/>
<mask id="mask1_1_1998" style="mask-type:luminance" maskUnits="userSpaceOnUse" x="293" y="140" width="48" height="75">
<path d="M339.67 201.118C338.128 199.001 336.299 197.108 334.237 195.493C329.341 192.05 306.477 146.538 296.478 140.919L293.289 185.03C295.833 188.535 303.379 196.371 303.249 198.276C303.119 200.181 307.401 202.504 307.401 202.504C305.896 205.764 310.738 214.655 310.738 214.655L340.849 211.1L339.67 201.118Z" fill="white"/>
</mask>
<g mask="url(#mask1_1_1998)">
<path opacity="0.15" d="M337.39 211.458L310.732 214.605C310.732 214.605 305.878 205.716 307.395 202.454C307.395 202.454 303.125 200.13 303.243 198.226C303.361 196.322 295.799 188.463 293.288 185.03L294.873 163.103L296.96 160.256C296.96 160.256 299.818 165.563 299.806 169.002C301.056 167.49 301.811 165.629 301.967 163.673C301.967 163.673 312.362 182.208 311.585 192.713C311.585 192.713 323.914 188.632 333.045 194.315C333.045 194.315 324.36 193.59 322.712 195.534C322.709 195.509 335.949 194.2 337.39 211.458Z" fill="black"/>
</g>
<path d="M339.67 201.118C338.128 199.001 336.299 197.108 334.237 195.493C329.341 192.05 306.477 146.538 296.478 140.919L293.289 185.03C295.833 188.535 303.379 196.371 303.249 198.276C303.119 200.181 307.401 202.504 307.401 202.504C305.896 205.764 310.738 214.655 310.738 214.655L340.849 211.1L339.67 201.118Z" stroke="#263238" stroke-width="1.25965" stroke-linecap="round" stroke-linejoin="round"/>
<path d="M274.903 136.084C274.903 136.084 257.703 148.757 249.334 149.744C240.965 150.732 216.319 142.772 216.319 142.772C223.617 141.2 232.526 136.622 233.798 132.464C234.467 130.292 233.084 123.733 231.64 117.942C230.3 112.608 228.886 107.942 228.886 107.942L257.126 108.414C256.853 112.766 256.831 117.131 257.058 121.486C257.181 124.129 257.588 126.752 258.273 129.308C260.454 136.179 274.903 136.084 274.903 136.084Z" fill="white" stroke="#263238" stroke-width="1.25965" stroke-linecap="round" stroke-linejoin="round"/>
<path d="M300.655 145.576C299.01 139.162 284.231 136.886 284.231 136.886L277.692 133.599C277.692 133.599 258.128 146.233 249.997 147.738C241.867 149.243 216.107 140.869 216.107 140.869L211.146 145.475C211.146 145.475 197.004 148.603 193.732 154.406C190.46 160.208 217.356 225.59 217.356 225.59L293.665 216.581C294.805 206.942 296.646 197.399 299.173 188.027C301.868 178.627 294.165 173.004 297.582 156.504" fill="#999999"/>
<mask id="mask2_1_1998" style="mask-type:luminance" maskUnits="userSpaceOnUse" x="193" y="133" width="108" height="93">
<path d="M300.655 145.576C299.01 139.162 284.231 136.886 284.231 136.886L277.692 133.599C277.692 133.599 258.128 146.233 249.997 147.738C241.867 149.243 216.107 140.869 216.107 140.869L211.146 145.475C211.146 145.475 197.004 148.603 193.732 154.406C190.46 160.208 217.356 225.59 217.356 225.59L293.665 216.581C294.805 206.942 296.646 197.399 299.173 188.027C301.868 178.627 294.165 173.004 297.582 156.504" fill="white"/>
</mask>
<g mask="url(#mask2_1_1998)">
<path opacity="0.15" d="M299.139 188.069C296.613 197.44 294.772 206.984 293.632 216.623L217.323 225.632C217.323 225.632 210.435 208.865 204.066 191.555L213.481 167.409C213.481 167.409 220.88 170.341 220.573 173.764C220.573 173.764 229.068 195.009 237.702 195.511C246.336 196.014 255.382 187.767 269.279 188.587C282.64 189.382 294.771 189.637 299.252 180.102C299.871 182.727 299.832 185.463 299.139 188.069Z" fill="black"/>
</g>
<path d="M300.655 145.576C299.01 139.162 284.231 136.886 284.231 136.886L277.692 133.599C277.692 133.599 258.128 146.233 249.997 147.738C241.867 149.243 216.107 140.869 216.107 140.869L211.146 145.475C211.146 145.475 197.004 148.603 193.732 154.406C190.46 160.208 217.356 225.59 217.356 225.59L293.665 216.581C294.805 206.942 296.646 197.399 299.173 188.027C301.868 178.627 294.165 173.004 297.582 156.504" stroke="#263238" stroke-width="1.25965" stroke-linecap="round" stroke-linejoin="round"/>
<path d="M271.429 125.028C273.741 130.679 276.423 136.172 279.458 141.47C284.423 149.86 286.681 159.576 285.926 169.296C285.926 169.296 290.115 170.07 289.687 164.514C289.259 158.958 289.836 152.345 285.807 143.574C285.807 143.574 291.546 150.177 291.786 161.983C292.605 154.434 291.265 146.807 287.921 139.989C282.322 128.131 281.519 127.985 277.589 116.399" fill="#08A202"/>
<path d="M271.429 125.028C273.741 130.679 276.423 136.172 279.458 141.47C284.423 149.86 286.681 159.576 285.926 169.296C285.926 169.296 290.115 170.07 289.687 164.514C289.259 158.958 289.836 152.345 285.807 143.574C285.807 143.574 291.546 150.177 291.786 161.983C292.605 154.434 291.265 146.807 287.921 139.989C282.322 128.131 281.519 127.985 277.589 116.399" stroke="#263238" stroke-width="1.25965" stroke-linecap="round" stroke-linejoin="round"/>
<path d="M292.818 208.551C292.818 208.551 298.179 200.244 302.352 199.27C306.524 198.295 308.286 199.039 311.539 201.026L313.615 202.278C313.615 202.278 316.426 198.801 322.808 198.276C330.646 197.629 339.273 203.663 338.024 211.129L295.141 216.192L292.818 208.551Z" fill="white"/>
<mask id="mask3_1_1998" style="mask-type:luminance" maskUnits="userSpaceOnUse" x="292" y="198" width="47" height="19">
<path d="M292.818 208.551C292.818 208.551 298.179 200.244 302.352 199.27C306.524 198.295 308.286 199.039 311.539 201.026L313.615 202.278C313.615 202.278 316.426 198.801 322.808 198.276C330.646 197.629 339.273 203.663 338.024 211.129L295.141 216.192L292.818 208.551Z" fill="white"/>
</mask>
<g mask="url(#mask3_1_1998)">
<path opacity="0.15" d="M333.02 211.72L318.008 213.492C316.649 211.002 316.419 207.338 315.715 206.634C315.01 205.931 313.732 205.74 312.667 205.206C311.602 204.672 311.341 201.925 310.012 201.41C308.682 200.894 307.367 201.354 306.849 201.161C306.332 200.969 306.305 199.019 305.065 198.835C307.486 198.714 309.112 199.486 311.56 200.986L313.635 202.238C314.881 200.909 316.428 199.899 318.146 199.295C329.319 201.858 332.252 208.335 333.02 211.72Z" fill="black"/>
</g>
<path d="M292.818 208.551C292.818 208.551 298.179 200.244 302.352 199.27C306.524 198.295 308.286 199.039 311.539 201.026L313.615 202.278C313.615 202.278 316.426 198.801 322.808 198.276C330.646 197.629 339.273 203.663 338.024 211.129L295.141 216.192L292.818 208.551Z" stroke="#263238" stroke-width="1.25965" stroke-linecap="round" stroke-linejoin="round"/>
<path d="M239.078 206.739C254.796 205.366 267.462 209.299 280.067 208.521C292.672 207.744 298.942 207.245 302.835 205.834C306.727 204.423 319.064 213.621 319.064 213.621L237.751 223.22L221.044 219.979L228.745 209.139L239.078 206.739Z" fill="white" stroke="#263238" stroke-width="1.25965" stroke-linecap="round" stroke-linejoin="round"/>
<path d="M203.261 155.183C213.547 160.121 231.756 205.955 233.94 205.227C236.125 204.5 239.078 206.739 239.078 206.739C239.078 206.739 237.224 216.712 237.776 223.217L217.948 225.558C217.948 225.558 207.899 227.137 203.198 212.674C194.155 184.848 188.236 158.137 193.786 154.437" fill="#999999"/>
<path d="M203.261 155.183C213.547 160.121 231.756 205.955 233.94 205.227C236.125 204.5 239.078 206.739 239.078 206.739C239.078 206.739 237.224 216.712 237.776 223.217L217.948 225.558C217.948 225.558 207.899 227.137 203.198 212.674C194.155 184.848 188.236 158.137 193.786 154.437" stroke="#263238" stroke-width="1.25965" stroke-linecap="round" stroke-linejoin="round"/>
<path d="M313.615 202.278C313.615 202.278 318.851 205.592 320.227 208.867" stroke="#263238" stroke-width="1.25965" stroke-linecap="round" stroke-linejoin="round"/>
<path d="M298.869 206.835C298.869 206.835 304.044 203.611 304.721 203.328" stroke="#263238" stroke-width="1.25965" stroke-linecap="round" stroke-linejoin="round"/>
<path d="M307.471 206.644L309.014 205.637" stroke="#263238" stroke-width="1.25965" stroke-linecap="round" stroke-linejoin="round"/>
<path d="M257.179 108.433C256.906 112.785 256.883 117.15 257.111 121.505C254.745 123.378 251.824 124.41 248.807 124.439C245.768 124.495 242.761 123.806 240.05 122.432C237.338 121.059 235.005 119.042 233.252 116.559L231.69 117.936C230.35 112.602 228.936 107.936 228.936 107.936L257.179 108.433Z" fill="#263238"/>
<path d="M218.67 92.532C218.67 92.532 215.863 90.2379 214.712 91.2362C213.961 91.9506 213.431 92.866 213.185 93.8733C212.94 94.8806 212.99 95.9372 213.328 96.9171C214.262 99.0265 217.654 102.507 218.14 104.695C218.627 106.883 220.44 109.243 221.93 107.571C223.419 105.898 218.67 92.532 218.67 92.532Z" fill="white" stroke="#263238" stroke-width="1.25965" stroke-linecap="round" stroke-linejoin="round"/>
<path d="M263.693 87.2172C263.693 87.2172 265.889 84.3323 267.24 85.0353C268.137 85.5551 268.866 86.3219 269.339 87.2444C269.812 88.1668 270.01 89.2059 269.909 90.2377C269.492 92.5067 267.004 96.6817 267.04 98.9224C267.077 101.163 265.863 103.881 264.025 102.602C262.187 101.322 263.693 87.2172 263.693 87.2172Z" fill="white" stroke="#263238" stroke-width="1.25965" stroke-linecap="round" stroke-linejoin="round"/>
<path d="M237.981 58.2C206.207 61.9509 219.336 99.3534 226.794 112.248C229.41 116.784 240.331 122.268 245.473 121.661C250.264 121.096 259.096 113.711 260.463 108.958C264.806 94.6073 268.28 54.6233 237.981 58.2Z" fill="white" stroke="#263238" stroke-width="1.25965" stroke-linecap="round" stroke-linejoin="round"/>
<path d="M235.686 84.9551C235.686 84.9551 227.109 83.4308 225.148 88.7359" stroke="#263238" stroke-width="1.25965" stroke-linecap="round" stroke-linejoin="round"/>
<path d="M231.688 94.2804C232.303 94.2078 232.708 93.3593 232.593 92.3851C232.478 91.411 231.886 90.6801 231.271 90.7527C230.656 90.8253 230.251 91.6739 230.366 92.648C230.481 93.6222 231.073 94.353 231.688 94.2804Z" fill="#263238"/>
<path d="M245.393 83.8092C245.393 83.8092 253.379 80.3296 256.522 85.0322" stroke="#263238" stroke-width="1.25965" stroke-linecap="round" stroke-linejoin="round"/>
<path d="M251.44 91.9487C252.055 91.8761 252.46 91.0275 252.345 90.0534C252.23 89.0792 251.639 88.3484 251.024 88.4209C250.409 88.4935 250.004 89.3421 250.119 90.3162C250.234 91.2904 250.825 92.0212 251.44 91.9487Z" fill="#263238"/>
<path d="M243.278 89.7413C242.485 92.3717 246.778 99.4118 245.688 100.809C244.903 101.686 243.835 102.261 242.67 102.433" fill="white"/>
<path d="M243.278 89.7413C242.485 92.3717 246.778 99.4118 245.688 100.809C244.903 101.686 243.835 102.261 242.67 102.433" stroke="#263238" stroke-width="1.25965" stroke-linecap="round" stroke-linejoin="round"/>
<path d="M251.166 104.563C251.166 104.563 243.783 108.746 236.405 106.306L251.166 104.563Z" fill="white"/>
<path d="M251.166 104.563C251.166 104.563 243.783 108.746 236.405 106.306" stroke="#263238" stroke-width="1.25965" stroke-linecap="round" stroke-linejoin="round"/>
<path d="M233.248 64.3017C233.248 64.3017 234.109 80.1945 229.931 82.7298C228.842 83.3911 227.401 82.7875 225.38 85.0048C225.853 83.1099 225.969 81.1433 225.722 79.2058C225.722 79.2058 225.202 89.1987 215.229 99.9144C212.572 102.765 210.34 102.66 209.9 100.543C206.92 86.0424 204.865 57.8857 232.621 52.8713C237.345 50.6595 242.686 50.1438 247.746 51.4111C252.805 52.6784 257.273 55.6512 260.396 59.8285C266.581 67.4547 270.521 76.6515 271.776 86.3898C271.546 88.0673 271.213 89.7291 270.778 91.3655C270.778 91.3655 272.211 98.4516 271.521 102.173C271.521 102.173 264.553 88.1683 259.783 84.7233C256.594 82.4234 256.329 76.9499 253.918 74.4695C253.918 74.4695 254.985 77.8188 252.937 79.4813C251.837 80.3722 248.983 79.6183 246.813 79.8237C245.647 79.9635 244.548 80.4416 243.652 81.1989C243.652 81.1989 241.91 70.2046 233.248 64.3017Z" fill="#08A202"/>
<path d="M213.787 102.52C214.036 101.542 214.532 100.644 215.229 99.9144C225.047 89.0649 225.722 79.2058 225.722 79.2058C225.969 81.1433 225.853 83.1099 225.38 85.0048C227.401 82.7875 228.842 83.3911 229.931 82.7298C234.109 80.1945 233.248 64.3017 233.248 64.3017C241.91 70.2045 243.65 81.1864 243.65 81.1864C244.547 80.4291 245.646 79.951 246.811 79.8112C248.975 79.5557 251.835 80.3597 252.935 79.4688C254.984 77.8063 253.916 74.457 253.916 74.457C256.34 76.936 256.593 82.4109 259.782 84.7108C262.72 86.8246 266.474 92.9391 268.947 97.3403" stroke="#263238" stroke-width="1.25965" stroke-linecap="round" stroke-linejoin="round"/>
<path d="M210.962 111.58C210.997 108.955 210.882 106.33 210.618 103.719C207.415 90.6643 202.717 58.2787 232.627 52.9213C237.351 50.7095 242.692 50.1938 247.752 51.4611C252.811 52.7284 257.279 55.7013 260.402 59.8785C266.971 67.997 271.004 77.8702 271.998 88.2662" stroke="#263238" stroke-width="1.25965" stroke-linecap="round" stroke-linejoin="round"/>
<path d="M252.543 69.1649C252.543 69.1649 249.14 57.7452 236.873 55.794" stroke="#263238" stroke-width="1.25965" stroke-linecap="round" stroke-linejoin="round"/>
<path d="M258.667 61.301C264.263 68.6644 267.179 77.7162 266.935 86.9613" stroke="#263238" stroke-width="1.25965" stroke-linecap="round" stroke-linejoin="round"/>
<path d="M226.455 59.4085C226.455 59.4085 225.923 75.4277 216.711 85.9267" stroke="#263238" stroke-width="1.25965" stroke-linecap="round" stroke-linejoin="round"/>
<path d="M218.682 65.1206C218.682 65.1206 208.644 76.7951 208.507 91.4233" stroke="#263238" stroke-width="1.25965" stroke-linecap="round" stroke-linejoin="round"/>
<path d="M233.248 64.3017C233.161 62.4161 232.939 60.539 232.584 58.6849" stroke="#263238" stroke-width="1.25965" stroke-linecap="round" stroke-linejoin="round"/>
<path d="M217.213 163.24C217.213 163.24 221.66 170.401 220.378 177.161" stroke="#263238" stroke-width="1.25965" stroke-linecap="round" stroke-linejoin="round"/>
<path d="M302.056 160.771C302.234 162.712 301.938 164.668 301.194 166.47C300.451 168.272 299.281 169.867 297.785 171.118" stroke="#263238" stroke-width="1.25965" stroke-linecap="round" stroke-linejoin="round"/>
<path d="M309.657 198.407C309.657 198.407 316.849 193.36 325.551 194.438" stroke="#263238" stroke-width="1.25965" stroke-linecap="round" stroke-linejoin="round"/>
<path d="M230.926 206.344C230.926 206.344 225.24 211.036 219.99 210.4" stroke="#263238" stroke-width="1.25965" stroke-linecap="round" stroke-linejoin="round"/>
<path d="M24.0865 248.443L176.554 230.444L184.11 294.456C184.283 295.916 183.868 297.384 182.958 298.538C182.047 299.693 180.716 300.438 179.256 300.61L37.797 317.309C36.3372 317.481 34.8687 317.067 33.7146 316.156C32.5605 315.246 31.8153 313.914 31.643 312.455L24.0865 248.443Z" fill="#263238" stroke="#263238" stroke-width="1.25965" stroke-linecap="round" stroke-linejoin="round"/>
<path d="M7.08808 57.1715L148.547 40.4724C150.007 40.3001 151.475 40.7147 152.629 41.6251C153.783 42.5355 154.529 43.8671 154.701 45.3269L176.557 230.469L24.0895 248.468L2.23952 63.3755C2.14709 62.6493 2.19945 61.9119 2.39359 61.206C2.58772 60.5001 2.91979 59.8397 3.3706 59.2629C3.82141 58.686 4.38203 58.2042 5.0201 57.8452C5.65816 57.4863 6.36102 57.2573 7.08808 57.1715Z" fill="white" stroke="#263238" stroke-width="1.25965" stroke-linecap="round" stroke-linejoin="round"/>
<path d="M29.4353 208.44C29.4353 208.44 22.8988 222.479 21.2438 224.362L23.2093 241.012L49.5247 221.962L50.1022 201.067C50.1022 201.067 33.3546 202.638 29.4353 208.44Z" fill="white"/>
<mask id="mask4_1_1998" style="mask-type:luminance" maskUnits="userSpaceOnUse" x="21" y="201" width="30" height="41">
<path d="M29.4353 208.44C29.4353 208.44 22.8988 222.479 21.2438 224.362L23.2093 241.012L49.5247 221.962L50.1022 201.067C50.1022 201.067 33.3546 202.638 29.4353 208.44Z" fill="white"/>
</mask>
<g mask="url(#mask4_1_1998)">
<path opacity="0.4" d="M29.4353 208.44C29.4353 208.44 22.8988 222.479 21.2438 224.362L23.2093 241.012L49.5247 221.962L50.1022 201.067C50.1022 201.067 33.3546 202.638 29.4353 208.44Z" fill="#08A202"/>
</g>
<path d="M29.4353 208.44C29.4353 208.44 22.8988 222.479 21.2438 224.362L23.2093 241.012L49.5247 221.962L50.1022 201.067C50.1022 201.067 33.3546 202.638 29.4353 208.44Z" stroke="#263238" stroke-width="1.25965" stroke-linecap="round" stroke-linejoin="round"/>
<path d="M53.4834 152.456C40.7614 160.3 35.696 185.619 31.4609 204.003C31.4609 204.003 28.7544 206.327 29.4418 208.389C29.4418 208.389 31.5942 206.207 38.6639 206.032C45.7335 205.857 55.3473 222.721 55.3473 222.721L71.5012 199.251" fill="#08A202"/>
<mask id="mask5_1_1998" style="mask-type:luminance" maskUnits="userSpaceOnUse" x="29" y="152" width="43" height="71">
<path d="M53.4834 152.456C40.7614 160.3 35.696 185.619 31.4609 204.003C31.4609 204.003 28.7544 206.327 29.4418 208.389C29.4418 208.389 31.5942 206.207 38.6639 206.032C45.7335 205.857 55.3473 222.721 55.3473 222.721L71.5012 199.251" fill="white"/>
</mask>
<g mask="url(#mask5_1_1998)">
<path opacity="0.15" d="M53.4834 152.456C40.7614 160.3 35.696 185.619 31.4609 204.003C31.4609 204.003 28.7544 206.327 29.4418 208.389C29.4418 208.389 31.5942 206.207 38.6639 206.032C45.7335 205.857 55.3473 222.721 55.3473 222.721L71.5012 199.251" fill="black"/>
</g>
<path d="M53.4834 152.456C40.7614 160.3 35.696 185.619 31.4609 204.003C31.4609 204.003 28.7544 206.327 29.4418 208.389C29.4418 208.389 31.5942 206.207 38.6639 206.032C45.7335 205.857 55.3473 222.721 55.3473 222.721L71.5012 199.251" stroke="#263238" stroke-width="1.25965" stroke-linecap="round" stroke-linejoin="round"/>
<path d="M51.9512 155.808C52.2788 154.616 52.7962 153.484 53.4834 152.456C58.2607 146.4 97.6293 134.561 97.6293 134.561C107.02 134.627 116.379 135.647 125.564 137.605C141.83 140.872 152.945 141.983 157.647 153.338C162.348 164.693 159.205 195.011 159.205 195.011L160.561 232.396L56.4437 244.687C56.4437 244.687 50.3481 208.952 48.4253 203.624C47.3107 200.521 47.5896 185.8 48.9643 172.84" fill="#08A202"/>
<mask id="mask6_1_1998" style="mask-type:luminance" maskUnits="userSpaceOnUse" x="47" y="134" width="114" height="111">
<path d="M51.9512 155.808C52.2788 154.616 52.7962 153.484 53.4834 152.456C58.2607 146.4 97.6293 134.561 97.6293 134.561C107.02 134.627 116.379 135.647 125.564 137.605C141.83 140.872 152.945 141.983 157.647 153.338C162.348 164.693 159.205 195.011 159.205 195.011L160.561 232.396L56.4437 244.687C56.4437 244.687 50.3481 208.952 48.4253 203.624C47.3107 200.521 47.5896 185.8 48.9643 172.84" fill="white"/>
</mask>
<g mask="url(#mask6_1_1998)">
<path opacity="0.15" d="M160.144 179.971C159.853 188.25 159.197 194.949 159.197 194.949L159.841 211.146C155.919 217.571 148.245 228.738 138.725 234.91L83.5446 241.424L61.485 223.569L54.2001 232.128C52.2464 221.273 49.5362 206.803 48.3678 203.567C47.4845 201.135 47.4725 191.255 48.219 180.817L103.898 232.895L136.597 205.823L152.984 174.551L160.144 179.971Z" fill="black"/>
</g>
<path d="M51.9512 155.808C52.2788 154.616 52.7962 153.484 53.4834 152.456C58.2607 146.4 97.6293 134.561 97.6293 134.561C107.02 134.627 116.379 135.647 125.564 137.605C141.83 140.872 152.945 141.983 157.647 153.338C162.348 164.693 159.205 195.011 159.205 195.011L160.561 232.396L56.4437 244.687C56.4437 244.687 50.3481 208.952 48.4253 203.624C47.3107 200.521 47.5896 185.8 48.9643 172.84" stroke="#263238" stroke-width="1.25965" stroke-linecap="round" stroke-linejoin="round"/>
<path d="M78.8329 121.14C78.8329 121.14 87.2172 134.788 81.2488 141.606C81.2488 141.606 84.9573 151.531 89.6582 153.424C94.3591 155.317 115.163 137.285 115.163 137.285C115.163 137.285 108.199 122.557 110.207 117.436L78.8329 121.14Z" fill="white" stroke="#263238" stroke-width="1.25965" stroke-linecap="round" stroke-linejoin="round"/>
<path d="M114.437 94.6007C114.437 94.6007 116.614 91.5532 117.971 92.3062C118.892 92.8908 119.634 93.7185 120.115 94.6981C120.595 95.6778 120.796 96.7711 120.694 97.8575C120.295 100.277 117.833 104.677 117.887 107.068C117.941 109.458 116.727 112.278 114.884 110.961C113.042 109.644 114.437 94.6007 114.437 94.6007Z" fill="white" stroke="#263238" stroke-width="1.25965" stroke-linecap="round" stroke-linejoin="round"/>
<path d="M69.4022 99.917C69.4022 99.917 66.5754 97.4602 65.4308 98.5086C64.6733 99.2931 64.1463 100.271 63.9072 101.335C63.6682 102.399 63.7264 103.508 64.0754 104.541C65.0396 106.799 68.4453 110.507 68.9496 112.845C69.4539 115.182 71.2917 117.642 72.7768 115.932C74.2619 114.222 69.4022 99.917 69.4022 99.917Z" fill="white" stroke="#263238" stroke-width="1.25965" stroke-linecap="round" stroke-linejoin="round"/>
<path d="M87.635 65.5854C119.422 61.833 115.35 101.266 111.112 115.541C109.625 120.562 100.281 128.438 95.1265 129.047C90.3479 129.611 80.0396 124.486 77.5926 120.196C70.0379 107.237 57.3492 69.1606 87.635 65.5854Z" fill="white" stroke="#263238" stroke-width="1.25965" stroke-linecap="round" stroke-linejoin="round"/>
<path d="M96.1116 91.0815C96.1116 91.0815 104.09 87.5394 107.24 92.3046" stroke="#263238" stroke-width="1.25965" stroke-linecap="round" stroke-linejoin="round"/>
<path d="M103.062 97.3133C103.177 98.289 102.77 99.1362 102.157 99.2086C101.544 99.2809 100.963 98.5504 100.848 97.5747C100.733 96.5989 101.126 95.7407 101.739 95.6684C102.352 95.596 102.947 96.3375 103.062 97.3133Z" fill="#263238"/>
<path d="M86.4042 92.2275C86.4042 92.2275 77.8326 90.6391 75.8662 96.0083" stroke="#263238" stroke-width="1.25965" stroke-linecap="round" stroke-linejoin="round"/>
<path d="M81.133 99.902C81.2482 100.878 81.8416 101.607 82.4546 101.534C83.0676 101.462 83.4624 100.616 83.3472 99.6406C83.2321 98.6649 82.6497 97.9219 82.0367 97.9942C81.4237 98.0666 81.0179 98.9263 81.133 99.902Z" fill="#263238"/>
<path d="M89.2075 106.306C88.1043 107.704 92.56 109.347 93.3606 109.253C94.1612 109.158 97.1173 107.122 97.0021 106.146" fill="white"/>
<path d="M89.2075 106.306C88.1043 107.704 92.56 109.347 93.3606 109.253C94.1612 109.158 97.1173 107.122 97.0021 106.146" stroke="#263238" stroke-width="1.25965" stroke-linecap="round" stroke-linejoin="round"/>
<path d="M71.8314 103.626C71.8314 103.626 74.712 111.911 75.6262 112.564C76.5405 113.217 79.8315 115.2 79.8315 115.2C79.8315 115.2 85.0689 111.753 86.1859 111.546C87.3029 111.338 91.0068 111.661 93.9466 111.314C96.8863 110.967 98.8028 109.473 100.595 110.149C102.387 110.825 107.087 112.82 107.087 112.82C107.087 112.82 111.01 108.552 111.216 108.362C111.422 108.173 112.825 98.7863 112.825 98.7863L113.83 99.4541C113.83 99.4541 115.344 120.762 113.96 123.221C112.576 125.68 102.484 133.455 96.2288 134.193C89.974 134.931 76.6906 129.853 75.7883 127.905C74.8861 125.957 71.1933 105.312 71.8314 103.626Z" fill="#263238"/>
<path d="M84.7896 116.48C84.7896 116.48 86.6512 117.744 87.5268 117.425C89.5476 116.809 91.616 116.361 93.7107 116.086C95.8374 115.835 98.129 116.123 99.8407 116.009C100.915 115.918 101.952 115.574 102.868 115.005" stroke="white" stroke-width="1.25965" stroke-linecap="round" stroke-linejoin="round"/>
<path d="M102.073 74.8526C94.4051 78.3324 85.8457 79.3428 77.5787 77.7441C77.5787 77.7441 73.2709 77.999 71.8236 80.3515C70.3763 82.704 72.8573 89.1082 73.634 91.8197C74.4107 94.5312 70.4231 96.8537 71.8313 103.626L71.5741 106.282C71.5741 106.282 65.5574 95.0689 65.5609 85.4287C65.5645 75.7885 70.3228 72.0431 70.3228 72.0431C70.3228 72.0431 72.0841 63.5398 88.1288 61.7092C105.374 59.7368 108.215 68.8637 108.215 68.8637C108.215 68.8637 119.891 75.6919 114.245 102.107L112.923 98.7495C112.974 95.3287 111.799 92.0026 109.609 89.374C107.849 87.3621 109.476 80.511 108.508 77.1498C107.541 73.7886 102.073 74.8526 102.073 74.8526Z" fill="#263238"/>
<path d="M35.0974 218.046C35.0974 218.046 35.7368 204.767 37.4529 202.864C41.9443 197.933 41.544 196.154 44.4875 194.119C45.5941 193.285 46.4824 192.196 47.0767 190.944C47.6711 189.692 47.9538 188.315 47.9007 186.93C47.9007 186.93 53.4548 187.67 48.0892 196.37C46.974 198.234 46.1394 200.251 45.6123 202.358C45.209 203.991 49.6254 204.763 55.2445 202.616C62.3095 199.93 68.7392 209.483 60.6219 215.934C56.0502 219.671 51.9848 223.989 48.5281 228.777L40.0989 246.553L24.0865 248.443L22.0073 230.829C22.0073 230.829 32.1371 223.913 35.0974 218.046Z" fill="white" stroke="#263238" stroke-width="1.25965" stroke-linecap="round" stroke-linejoin="round"/>
<path d="M55.3862 218.644C55.3862 218.644 59.3351 215.134 62.0901 214.619L55.3862 218.644Z" fill="white"/>
<path d="M55.3862 218.644C55.3862 218.644 59.3351 215.134 62.0901 214.619" stroke="#263238" stroke-width="1.25965" stroke-linecap="round" stroke-linejoin="round"/>
<path d="M54.5947 211.939C55.9202 211.153 57.1418 210.203 58.2311 209.113C59.0858 207.972 61.9703 203.826 61.9703 203.826" fill="white"/>
<path d="M54.5947 211.939C55.9202 211.153 57.1418 210.203 58.2311 209.113C59.0858 207.972 61.9703 203.826 61.9703 203.826" stroke="#263238" stroke-width="1.25965" stroke-linecap="round" stroke-linejoin="round"/>
<path d="M46.2278 158.792C44.0605 158.375 38.034 159.759 36.3884 159.357C34.7428 158.955 32.9435 160.69 34.4921 163.386C36.0408 166.083 44.6342 165.17 44.6342 165.17L46.2278 158.792Z" fill="white" stroke="#263238" stroke-width="1.25965" stroke-linecap="round" stroke-linejoin="round"/>
<path d="M38.6024 162.102C38.6024 162.102 31.8969 162.031 30.2135 162.813C29.6337 163.059 28.6538 167.437 29.8107 171.435C30.9676 175.434 38.0424 174.979 38.0424 174.979L38.6024 162.102Z" fill="white" stroke="#263238" stroke-width="1.25965" stroke-linecap="round" stroke-linejoin="round"/>
<path d="M30.9267 166.813C31.3008 167.373 31.8454 167.798 32.4798 168.025C33.1142 168.252 33.8047 168.268 34.4492 168.072" stroke="#263238" stroke-width="1.25965" stroke-linecap="round" stroke-linejoin="round"/>
<path d="M32.7312 169.099C32.7312 169.099 27.6254 172.48 27.4498 174.859C27.2741 177.239 29.2926 180.692 29.2926 180.692L35.8018 179.531L32.7312 169.099Z" fill="white" stroke="#263238" stroke-width="1.25965" stroke-linecap="round" stroke-linejoin="round"/>
<path d="M31.1762 178.276C30.0627 179.634 29.0189 181.049 28.0489 182.513C27.4113 183.667 31.6811 189.429 32.588 190.235C33.4949 191.041 40.566 190.663 40.566 190.663C40.566 190.663 34.9799 179.767 31.1762 178.276Z" fill="white" stroke="#263238" stroke-width="1.25965" stroke-linecap="round" stroke-linejoin="round"/>
<path d="M33.4725 188.38C33.4725 188.38 36.9198 187.389 36.0149 184.452" stroke="#263238" stroke-width="1.25965" stroke-linecap="round" stroke-linejoin="round"/>
<path d="M34.2703 186.434C38.413 189.293 45.171 193.785 48.6442 194.948C53.1882 196.479 73.1948 227.564 91.2227 240.492L137.108 235.075C137.108 235.075 145.829 219.878 148.668 211.26C151.506 202.643 155.2 179.35 155.2 179.35L137.075 176.238L122.205 198.123L112.599 218.499C112.599 218.499 66.4301 189.601 60.2233 179.679C54.0165 169.757 48.7298 158.496 46.2279 158.792C43.3131 159.136 44.3325 161.324 38.5899 162.103C35.9003 162.421 36.0547 165.662 33.9561 167.978C31.8575 170.293 29.977 169.513 31.1025 176.039C31.8431 180.378 27.9893 180.504 30.7465 183.768" fill="white"/>
<path d="M34.2703 186.434C38.413 189.293 45.171 193.785 48.6442 194.948C53.1882 196.479 73.1948 227.564 91.2227 240.492L137.108 235.075C137.108 235.075 145.829 219.878 148.668 211.26C151.506 202.643 155.2 179.35 155.2 179.35L137.075 176.238L122.205 198.123L112.599 218.499C112.599 218.499 66.4301 189.601 60.2233 179.679C54.0165 169.757 48.7298 158.496 46.2279 158.792C43.3131 159.136 44.3325 161.324 38.5899 162.103C35.9003 162.421 36.0547 165.662 33.9561 167.978C31.8575 170.293 29.977 169.513 31.1025 176.039C31.8431 180.378 27.9893 180.504 30.7465 183.768" stroke="#263238" stroke-width="1.25965" stroke-linecap="round" stroke-linejoin="round"/>
<path d="M131.17 148.777C126.678 152.098 123.323 175.997 124.565 181.039C125.807 186.08 119.796 197.165 121.316 199.725C121.316 199.725 131.143 197.652 137.18 199.691C143.217 201.731 148.957 208.981 148.552 213.291C148.552 213.291 151.554 212.936 151.377 211.435C151.2 209.934 160.591 193.858 163.865 182.805C167.139 171.751 165.483 149.343 149.885 144.323" fill="#08A202"/>
<path d="M131.17 148.777C126.678 152.098 123.323 175.997 124.565 181.039C125.807 186.08 119.796 197.165 121.316 199.725C121.316 199.725 131.143 197.652 137.18 199.691C143.217 201.731 148.957 208.981 148.552 213.291C148.552 213.291 151.554 212.936 151.377 211.435C151.2 209.934 160.591 193.858 163.865 182.805C167.139 171.751 165.483 149.343 149.885 144.323" stroke="#263238" stroke-width="1.25965" stroke-linecap="round" stroke-linejoin="round"/>
<path d="M48.289 197.742C48.289 197.742 49.5031 191.802 56.2715 185.206C60.6395 180.949 62.8688 181.675 62.8688 181.675L67.4415 186.78L67.0651 187.674C64.8742 188.754 62.933 190.279 61.3659 192.152C58.5948 194.941 56.4397 198.281 55.0396 201.955L53.4384 202.144L48.289 197.742Z" fill="#757575" stroke="#263238" stroke-width="1.25965" stroke-linecap="round" stroke-linejoin="round"/>
<path d="M64.5087 187.938C64.6399 189.027 64.4447 190.131 63.9479 191.109C63.4511 192.088 62.6751 192.897 61.7182 193.434C60.7613 193.971 59.6665 194.211 58.5726 194.126C57.4787 194.04 56.4349 193.631 55.5734 192.952C54.7119 192.272 54.0715 191.352 53.7333 190.308C53.3952 189.264 53.3744 188.144 53.6738 187.088C53.9732 186.032 54.5791 185.089 55.4149 184.378C56.2507 183.667 57.2787 183.22 58.3687 183.094C59.8246 182.926 61.2879 183.341 62.4386 184.249C63.5893 185.156 64.3336 186.483 64.5087 187.938Z" fill="white" stroke="#263238" stroke-width="1.25965" stroke-linecap="round" stroke-linejoin="round"/>
<path d="M118.484 165.419C118.484 165.419 119.074 178.795 123.005 183.836" stroke="#263238" stroke-width="1.25965" stroke-linecap="round" stroke-linejoin="round"/>
<path d="M81.4126 157.391C81.4126 157.391 88.1181 161.115 100.346 152.416" stroke="#263238" stroke-width="1.25965" stroke-linecap="round" stroke-linejoin="round"/>
<path d="M60.6281 227.805C60.6281 227.805 74.2689 239.779 80.0421 241.837" stroke="#263238" stroke-width="1.25965" stroke-linecap="round" stroke-linejoin="round"/>
<path d="M97.0378 251.716L38.7179 258.601C38.1108 258.672 37.557 258.982 37.1783 259.462C36.7997 259.942 36.6272 260.553 36.6989 261.16C36.7706 261.767 37.0805 262.321 37.5605 262.7C38.0405 263.078 38.6513 263.251 39.2584 263.179L97.5783 256.294C98.1854 256.223 98.7392 255.913 99.1179 255.433C99.4965 254.953 99.669 254.342 99.5973 253.735C99.5256 253.128 99.2157 252.574 98.7357 252.195C98.2557 251.817 97.6449 251.644 97.0378 251.716Z" fill="white"/>
<path d="M167.91 262.413L39.9492 277.519C39.6091 277.559 39.2989 277.733 39.0868 278.002C38.8747 278.271 38.7782 278.613 38.8183 278.953C38.8584 279.293 39.032 279.603 39.3009 279.815C39.5697 280.027 39.9118 280.124 40.2519 280.084L168.225 264.977C168.565 264.936 168.876 264.763 169.088 264.494C169.3 264.225 169.396 263.883 169.356 263.543C169.316 263.203 169.142 262.893 168.874 262.681C168.605 262.468 168.263 262.372 167.923 262.412L167.91 262.413Z" fill="white"/>
<path d="M145.095 271.576L40.7023 283.899C40.3622 283.939 40.052 284.113 39.8399 284.382C39.6279 284.65 39.5313 284.993 39.5714 285.333C39.6116 285.673 39.7852 285.983 40.054 286.195C40.3229 286.407 40.6649 286.504 41.005 286.464L145.41 274.139C145.75 274.098 146.061 273.925 146.273 273.656C146.485 273.387 146.581 273.045 146.541 272.705C146.501 272.365 146.327 272.055 146.059 271.843C145.79 271.631 145.448 271.534 145.108 271.574L145.095 271.576Z" fill="white"/>
<path d="M72.4304 263.423L38.7545 267.399C38.4144 267.439 38.1042 267.613 37.8921 267.881C37.68 268.15 37.5834 268.492 37.6236 268.832C37.6637 269.173 37.8373 269.483 38.1062 269.695C38.375 269.907 38.7171 270.003 39.0572 269.963L72.7331 265.988C73.0732 265.948 73.3834 265.774 73.5955 265.505C73.8075 265.236 73.9041 264.894 73.864 264.554C73.8238 264.214 73.6502 263.904 73.3814 263.692C73.1125 263.48 72.7704 263.383 72.4304 263.423Z" fill="white"/>
<path d="M170.28 282.923L167.203 283.286C166.471 283.372 165.947 284.036 166.034 284.769L166.397 287.846C166.483 288.578 167.147 289.102 167.879 289.015L170.957 288.652C171.689 288.566 172.213 287.902 172.126 287.17L171.763 284.092C171.677 283.36 171.013 282.836 170.28 282.923Z" fill="white"/>
<path d="M158.496 284.314L155.419 284.677C154.687 284.764 154.163 285.427 154.25 286.16L154.613 289.237C154.699 289.969 155.363 290.493 156.095 290.406L159.173 290.043C159.905 289.957 160.429 289.293 160.342 288.561L159.979 285.483C159.893 284.751 159.229 284.227 158.496 284.314Z" fill="white"/>
<path d="M146.712 285.705L143.635 286.068C142.903 286.155 142.379 286.818 142.466 287.551L142.829 290.628C142.915 291.36 143.579 291.884 144.311 291.798L147.389 291.434C148.121 291.348 148.645 290.684 148.558 289.952L148.195 286.874C148.109 286.142 147.445 285.618 146.712 285.705Z" fill="white"/>
</g>
<defs>
<clipPath id="clip0_1_1998">
<rect width="488.744" height="264.526" fill="white" transform="translate(0 57.2979) rotate(-6.73255)"/>
</clipPath>
</defs>
</svg>
