<svg width="800" height="800" viewBox="0 0 800 800" fill="none" xmlns="http://www.w3.org/2000/svg">
<path d="M82.656 741.28H720.352" stroke="#263238" stroke-linecap="round" stroke-linejoin="round"/>
<path d="M145.968 229.472H185.888V213.44H145.968V229.472Z" stroke="#263238" stroke-linecap="round" stroke-linejoin="round"/>
<path d="M177.936 247.808H217.856V231.776H177.936V247.808Z" stroke="#263238" stroke-linecap="round" stroke-linejoin="round"/>
<path d="M269.568 351.776H309.488V335.744H269.568V351.776Z" stroke="#263238" stroke-linecap="round" stroke-linejoin="round"/>
<path d="M249.616 372.944H289.536V356.912H249.616V372.944Z" stroke="#263238" stroke-linecap="round" stroke-linejoin="round"/>
<path d="M126 502.368H165.92V486.336H126V502.368Z" stroke="#263238" stroke-linecap="round" stroke-linejoin="round"/>
<path d="M147.872 522.32H187.792V506.288H147.872V522.32Z" stroke="#263238" stroke-linecap="round" stroke-linejoin="round"/>
<path d="M380.4 541.376H420.32V525.344H380.4V541.376Z" stroke="#263238" stroke-linecap="round" stroke-linejoin="round"/>
<path d="M359.296 562.72H399.216V546.688H359.296V562.72Z" stroke="#263238" stroke-linecap="round" stroke-linejoin="round"/>
<path d="M138.624 646.512H178.544V630.48H138.624V646.512Z" stroke="#263238" stroke-linecap="round" stroke-linejoin="round"/>
<path d="M170.736 502.368H210.656V486.336H170.736V502.368Z" stroke="#263238" stroke-linecap="round" stroke-linejoin="round"/>
<path d="M360.496 439.744C321.68 440.176 281.68 440.176 244.08 439.744" stroke="#263238" stroke-linecap="round" stroke-linejoin="round"/>
<path d="M376.48 439.744H366.72" stroke="#263238" stroke-linecap="round" stroke-linejoin="round"/>
<path d="M693.44 666.416C654.624 666.848 614.624 666.848 577.024 666.416" stroke="#263238" stroke-linecap="round" stroke-linejoin="round"/>
<path d="M709.424 666.416H699.664" stroke="#263238" stroke-linecap="round" stroke-linejoin="round"/>
<path d="M527.584 178.08C488.768 178.512 448.768 178.512 411.168 178.08" stroke="#263238" stroke-linecap="round" stroke-linejoin="round"/>
<path d="M543.568 178.08H533.808" stroke="#263238" stroke-linecap="round" stroke-linejoin="round"/>
<path d="M182.816 295.808C165.749 296.096 148.72 296.155 131.728 295.984" stroke="#263238" stroke-linecap="round" stroke-linejoin="round"/>
<path d="M511.632 634.256C494.565 634.544 477.541 634.603 460.56 634.432" stroke="#263238" stroke-linecap="round" stroke-linejoin="round"/>
<path d="M176.752 605.248H182.256" stroke="#263238" stroke-linecap="round" stroke-linejoin="round"/>
<path d="M118.752 605.248H170.496" stroke="#263238" stroke-linecap="round" stroke-linejoin="round"/>
<path d="M314.016 135.184H319.52" stroke="#263238" stroke-linecap="round" stroke-linejoin="round"/>
<path d="M256 135.184H307.744" stroke="#263238" stroke-linecap="round" stroke-linejoin="round"/>
<path d="M665.088 587.264H625.168V603.296H665.088V587.264Z" stroke="#263238" stroke-linecap="round" stroke-linejoin="round"/>
<path d="M633.12 568.928H593.2V584.96H633.12V568.928Z" stroke="#263238" stroke-linecap="round" stroke-linejoin="round"/>
<path d="M541.488 464.96H501.568V480.992H541.488V464.96Z" stroke="#263238" stroke-linecap="round" stroke-linejoin="round"/>
<path d="M561.44 443.792H521.52V459.824H561.44V443.792Z" stroke="#263238" stroke-linecap="round" stroke-linejoin="round"/>
<path d="M685.056 314.368H645.136V330.4H685.056V314.368Z" stroke="#263238" stroke-linecap="round" stroke-linejoin="round"/>
<path d="M663.184 294.416H623.264V310.448H663.184V294.416Z" stroke="#263238" stroke-linecap="round" stroke-linejoin="round"/>
<path d="M430.672 275.36H390.752V291.392H430.672V275.36Z" stroke="#263238" stroke-linecap="round" stroke-linejoin="round"/>
<path d="M451.76 254.016H411.84V270.048H451.76V254.016Z" stroke="#263238" stroke-linecap="round" stroke-linejoin="round"/>
<path d="M579.28 135.824H539.36V151.856H579.28V135.824Z" stroke="#263238" stroke-linecap="round" stroke-linejoin="round"/>
<path d="M640.32 314.368H600.4V330.4H640.32V314.368Z" stroke="#263238" stroke-linecap="round" stroke-linejoin="round"/>
<path d="M450.576 376.992C489.376 376.56 529.376 376.56 566.992 376.992" stroke="#263238" stroke-linecap="round" stroke-linejoin="round"/>
<path d="M434.592 376.992H444.336" stroke="#263238" stroke-linecap="round" stroke-linejoin="round"/>
<path d="M628.24 520.928C645.307 520.64 662.336 520.576 679.328 520.736" stroke="#263238" stroke-linecap="round" stroke-linejoin="round"/>
<path d="M634.304 211.488H628.8" stroke="#263238" stroke-linecap="round" stroke-linejoin="round"/>
<path d="M692.32 211.488H640.56" stroke="#263238" stroke-linecap="round" stroke-linejoin="round"/>
<path d="M565.952 329.6L539.2 309.28C539.2 309.28 506.816 248 504.976 245.76L495.28 258.288C495.28 258.288 513.552 311.648 516.256 319.088C518.96 326.528 530.08 334.928 535.456 340.64C540.832 346.352 562.16 361.36 562.16 361.36L565.952 329.6Z" fill="white" stroke="#263238" stroke-linecap="round" stroke-linejoin="round"/>
<path d="M432.736 509.264H408.08C400.655 509.264 393.512 506.423 388.115 501.323C382.718 496.224 379.477 489.253 379.056 481.84L377.712 458.16H463.088L461.744 481.84C461.327 489.252 458.089 496.222 452.695 501.322C447.301 506.422 440.159 509.263 432.736 509.264Z" fill="#263238"/>
<path d="M548.88 286.688C548.883 269.555 545.458 252.594 538.808 236.804C532.158 221.014 522.417 206.714 510.157 194.745C497.898 182.777 483.368 173.381 467.423 167.112C451.478 160.842 434.44 157.826 417.312 158.24C347.84 159.84 291.76 217.44 291.92 286.992C291.959 319.839 304.625 351.415 327.296 375.184C340.484 388.832 349.796 405.749 354.272 424.192L355.12 427.808H485.696L486.192 425.68C490.847 406.46 500.476 388.802 514.112 374.48C536.479 350.724 548.917 319.316 548.88 286.688Z" fill="white"/>
<mask id="mask0_1_2165" style="mask-type:luminance" maskUnits="userSpaceOnUse" x="291" y="158" width="258" height="270">
<path d="M548.88 286.688C548.883 269.555 545.458 252.594 538.808 236.804C532.158 221.014 522.417 206.714 510.157 194.745C497.898 182.777 483.368 173.381 467.423 167.112C451.478 160.842 434.44 157.826 417.312 158.24C347.84 159.84 291.76 217.44 291.92 286.992C291.959 319.839 304.625 351.415 327.296 375.184C340.484 388.832 349.796 405.749 354.272 424.192L355.12 427.808H485.696L486.192 425.68C490.847 406.46 500.476 388.802 514.112 374.48C536.479 350.724 548.917 319.316 548.88 286.688Z" fill="white"/>
</mask>
<g mask="url(#mask0_1_2165)">
<path opacity="0.4" d="M417.312 158.24C347.84 159.84 291.76 217.44 291.92 286.992C291.959 319.84 304.625 351.415 327.296 375.184C340.484 388.832 349.796 405.749 354.272 424.192L355.12 427.808H485.696L486.192 425.68C490.847 406.457 500.482 388.798 514.128 374.48C531.428 356.007 542.886 332.836 547.064 307.874C551.242 282.912 547.953 257.272 537.611 234.173C527.269 211.073 510.334 191.544 488.932 178.034C467.53 164.525 442.614 157.639 417.312 158.24ZM419.984 390.4C397.298 390.397 375.123 383.667 356.262 371.061C337.401 358.456 322.702 340.54 314.023 319.58C305.344 298.621 303.074 275.558 307.502 253.309C311.93 231.059 322.855 210.623 338.898 194.583C354.94 178.543 375.378 167.62 397.628 163.195C419.878 158.77 442.941 161.043 463.899 169.725C484.858 178.407 502.771 193.109 515.374 211.972C527.977 230.834 534.704 253.011 534.704 275.696C534.704 290.761 531.737 305.678 525.971 319.595C520.206 333.513 511.755 346.158 501.102 356.81C490.449 367.461 477.803 375.91 463.884 381.673C449.966 387.437 435.048 390.402 419.984 390.4Z" fill="#08A202"/>
</g>
<path d="M548.88 286.688C548.883 269.555 545.458 252.594 538.808 236.804C532.158 221.014 522.417 206.714 510.157 194.745C497.898 182.777 483.368 173.381 467.423 167.112C451.478 160.842 434.44 157.826 417.312 158.24C347.84 159.84 291.76 217.44 291.92 286.992C291.959 319.839 304.625 351.415 327.296 375.184C340.484 388.832 349.796 405.749 354.272 424.192L355.12 427.808H485.696L486.192 425.68C490.847 406.46 500.476 388.802 514.112 374.48C536.479 350.724 548.917 319.316 548.88 286.688Z" stroke="#263238" stroke-miterlimit="10"/>
<path d="M376.56 492.672H464.256C471.396 488.723 477.417 483.028 481.757 476.119C486.097 469.211 488.614 461.314 489.072 453.168L491.296 413.856H349.52L351.728 453.168C352.192 461.314 354.713 469.21 359.056 476.118C363.398 483.027 369.42 488.722 376.56 492.672Z" fill="#08A202" stroke="#263238" stroke-linecap="round" stroke-linejoin="round"/>
<path d="M490.64 428.128L352.8 439.248C351.411 439.363 350.032 438.923 348.967 438.023C347.903 437.123 347.238 435.837 347.12 434.448C347.009 433.06 347.451 431.684 348.35 430.62C349.25 429.556 350.533 428.89 351.92 428.768L489.792 417.6C491.181 417.485 492.56 417.926 493.625 418.825C494.69 419.725 495.354 421.011 495.472 422.4C495.533 423.094 495.457 423.793 495.247 424.457C495.037 425.121 494.698 425.737 494.248 426.27C493.799 426.802 493.249 427.241 492.63 427.56C492.011 427.878 491.334 428.072 490.64 428.128Z" fill="#08A202" stroke="#263238" stroke-linecap="round" stroke-linejoin="round"/>
<path d="M490.608 448.992L354.24 460C352.852 460.107 351.479 459.663 350.416 458.765C349.353 457.866 348.686 456.586 348.56 455.2C348.449 453.812 348.891 452.436 349.79 451.372C350.689 450.308 351.972 449.642 353.36 449.52L489.76 438.4C491.148 438.289 492.524 438.731 493.588 439.63C494.652 440.53 495.318 441.813 495.44 443.2C495.513 443.899 495.444 444.606 495.239 445.279C495.034 445.951 494.697 446.576 494.246 447.116C493.796 447.656 493.242 448.1 492.617 448.422C491.992 448.744 491.309 448.938 490.608 448.992Z" fill="#08A202" stroke="#263238" stroke-linecap="round" stroke-linejoin="round"/>
<path d="M486.4 470.304L360.736 480.448C359.349 480.555 357.975 480.111 356.912 479.213C355.849 478.314 355.182 477.034 355.056 475.648C354.941 474.257 355.381 472.877 356.28 471.809C357.18 470.742 358.466 470.074 359.856 469.952L485.52 459.808C486.908 459.701 488.281 460.145 489.344 461.043C490.407 461.942 491.074 463.222 491.2 464.608C491.311 465.998 490.869 467.376 489.971 468.443C489.072 469.509 487.789 470.178 486.4 470.304Z" fill="#08A202" stroke="#263238" stroke-linecap="round" stroke-linejoin="round"/>
<path d="M520.304 715.2C520.304 715.2 523.216 732.992 520.304 741.296H461.456C461.456 741.296 458.976 735.072 461.456 731.136C463.936 727.2 482.592 724.976 488.4 719.664C492.846 715.249 496.868 710.428 500.416 705.264L520.304 715.2Z" fill="#263238" stroke="#263238" stroke-miterlimit="10"/>
<path d="M460.352 738.144H521.088L521.6 741.28H460.352V738.144Z" fill="white" stroke="#263238" stroke-linecap="round" stroke-linejoin="round"/>
<path d="M506.16 713.024C506.16 713.024 500.624 714.352 500 714.624C499.376 714.896 494 723.12 488.608 724.576C483.216 726.032 477.824 725.744 478.656 728.368" stroke="white" stroke-linecap="round" stroke-linejoin="round"/>
<path d="M493.904 713.024L500.208 717.664" stroke="white" stroke-linecap="round" stroke-linejoin="round"/>
<path d="M490.976 717.088L497.056 721.552" stroke="white" stroke-linecap="round" stroke-linejoin="round"/>
<path d="M487.088 720.656L492.368 725.76" stroke="white" stroke-linecap="round" stroke-linejoin="round"/>
<path d="M481.76 723.264L484.048 728.304" stroke="white" stroke-linecap="round" stroke-linejoin="round"/>
<path d="M521.264 723.2C514.421 722.629 507.535 723.484 501.04 725.712C490.464 729.424 486.816 732.656 487.088 733.632C487.36 734.608 488.608 737.488 488.608 737.488H493.904C493.904 737.488 491.984 734.112 492.304 733.632C492.624 733.152 510.752 726.096 521.2 727.344L521.264 723.2Z" fill="white"/>
<path d="M606.272 741.28C606.272 741.28 608.544 732.624 605.888 729.408C601.088 723.648 606.464 718.816 601.68 716.816L599.68 719.136C599.296 716.784 600.416 709.616 591.552 708.672C580.832 707.552 580.624 715.344 580.048 717.92L580.224 714.32C575.648 714.32 578.016 718.88 571.088 726.352C569.274 728.363 567.894 730.726 567.035 733.295C566.176 735.864 565.856 738.582 566.096 741.28H606.272Z" fill="#263238" stroke="#263238" stroke-miterlimit="10"/>
<path d="M566.048 738.144H607.168L606.272 741.28H566.096L566.048 738.144Z" fill="white" stroke="#263238" stroke-linecap="round" stroke-linejoin="round"/>
<path d="M579.2 725.984C579.2 725.984 592.704 721.52 599.216 727.104" stroke="white" stroke-linecap="round" stroke-linejoin="round"/>
<path d="M579.2 723.04C579.2 723.04 591.072 719.28 599.216 724.304" stroke="white" stroke-linecap="round" stroke-linejoin="round"/>
<path d="M579.952 720.128C579.952 720.128 591.152 715.92 599.264 721.728" stroke="white" stroke-linecap="round" stroke-linejoin="round"/>
<path d="M571.088 726.4L572.432 727.712C572.613 727.892 572.727 728.129 572.753 728.382C572.779 728.636 572.717 728.891 572.576 729.104C570.789 731.799 569.832 734.959 569.824 738.192H567.856C568.296 735.036 569.259 731.976 570.704 729.136L569.696 728.112L571.088 726.4Z" fill="white"/>
<path d="M530.896 631.536C530.896 631.536 522.16 646.384 507.392 643.216" stroke="#263238" stroke-linecap="round" stroke-linejoin="round"/>
<path d="M540.128 462.528L534.4 474.64C518.666 508.421 505.903 543.509 496.256 579.504C495.904 580.832 488.416 607.344 494.416 673.376L490.992 684.96L494.736 704.16C494.736 704.16 489.104 712.288 489.312 714.96C489.312 714.96 503.2 717.552 507.84 720.032C511.44 721.968 522.24 732.672 522.24 732.672C525.312 732.032 525.568 719.616 525.568 719.616C525.568 719.616 531.968 609.408 533.84 604.64C535.712 599.872 546.96 579.424 564.544 532.56C564.544 532.56 564.944 598.016 569.648 614.576C573.824 629.312 568.88 670.576 568.88 670.576L571.696 716.464C571.696 716.464 561.808 726.736 569.824 729.504C569.824 729.504 575.184 719.184 590.464 716.848C598.224 715.648 607.904 729.44 607.904 729.44C611.296 728.352 606.464 711.024 606.464 711.024C617.28 629.344 609.296 644.128 611.456 604.192C612.848 578.592 620.112 468.928 611.584 460.032L540.128 462.528Z" fill="#757575"/>
<mask id="mask1_1_2165" style="mask-type:luminance" maskUnits="userSpaceOnUse" x="489" y="460" width="127" height="273">
<path d="M540.128 462.528L534.4 474.64C518.666 508.421 505.903 543.509 496.256 579.504C495.904 580.832 488.416 607.344 494.416 673.376L490.992 684.96L494.736 704.16C494.736 704.16 489.104 712.288 489.312 714.96C489.312 714.96 503.2 717.552 507.84 720.032C511.44 721.968 522.24 732.672 522.24 732.672C525.312 732.032 525.568 719.616 525.568 719.616C525.568 719.616 531.968 609.408 533.84 604.64C535.712 599.872 546.96 579.424 564.544 532.56C564.544 532.56 564.944 598.016 569.648 614.576C573.824 629.312 568.88 670.576 568.88 670.576L571.696 716.464C571.696 716.464 561.808 726.736 569.824 729.504C569.824 729.504 575.184 719.184 590.464 716.848C598.224 715.648 607.904 729.44 607.904 729.44C611.296 728.352 606.464 711.024 606.464 711.024C617.28 629.344 609.296 644.128 611.456 604.192C612.848 578.592 620.112 468.928 611.584 460.032L540.128 462.528Z" fill="white"/>
</mask>
<g mask="url(#mask1_1_2165)">
<path opacity="0.2" d="M615.712 500.272C577.472 503.28 544.352 490.768 530 484.272C532.72 478.144 534.4 474.672 534.4 474.672L540.128 462.56L611.616 459.968C614.704 463.152 615.712 479.488 615.712 500.272Z" fill="black"/>
<path opacity="0.2" d="M564.272 533.328C546.864 579.6 535.696 599.856 533.872 604.576C532.816 607.312 530.256 644.736 528.272 676.16C525.968 647.584 523.616 617.424 523.472 611.504C523.04 599.728 531.552 583.568 532.832 579.392C534.112 575.216 531.232 570.704 531.232 570.704L546.544 551.408C546.032 544.848 554.128 516.208 554.128 516.208C558.88 520.832 563.2 530.528 564.272 533.328Z" fill="black"/>
</g>
<path d="M540.128 462.528L534.4 474.64C518.666 508.421 505.903 543.509 496.256 579.504C495.904 580.832 488.416 607.344 494.416 673.376L490.992 684.96L494.736 704.16C494.736 704.16 489.104 712.288 489.312 714.96C489.312 714.96 503.2 717.552 507.84 720.032C511.44 721.968 522.24 732.672 522.24 732.672C525.312 732.032 525.568 719.616 525.568 719.616C525.568 719.616 531.968 609.408 533.84 604.64C535.712 599.872 546.96 579.424 564.544 532.56C564.544 532.56 564.944 598.016 569.648 614.576C573.824 629.312 568.88 670.576 568.88 670.576L571.696 716.464C571.696 716.464 561.808 726.736 569.824 729.504C569.824 729.504 575.184 719.184 590.464 716.848C598.224 715.648 607.904 729.44 607.904 729.44C611.296 728.352 606.464 711.024 606.464 711.024C617.28 629.344 609.296 644.128 611.456 604.192C612.848 578.592 620.112 468.928 611.584 460.032L540.128 462.528Z" stroke="#263238" stroke-linecap="round" stroke-linejoin="round"/>
<path d="M564.576 532.496C564.576 532.496 555.84 515.632 548.384 510.928" stroke="#263238" stroke-linecap="round" stroke-linejoin="round"/>
<path d="M545.12 505.472C545.12 505.472 571.664 513.472 580.864 515.072" stroke="#263238" stroke-linecap="round" stroke-linejoin="round"/>
<path d="M558.704 478.4C557.552 500.512 549.76 504.272 557.296 509.088C557.296 509.088 557.088 519.424 560.832 525.984" stroke="#263238" stroke-linecap="round" stroke-linejoin="round"/>
<path d="M605.216 469.936C605.216 469.936 602.016 503.904 612.528 510.288" stroke="#263238" stroke-linecap="round" stroke-linejoin="round"/>
<path d="M612.528 480.88C612.528 480.88 613.312 503.488 612.528 521.712C612.528 521.712 609.92 598.72 607.312 608.4C604.704 618.08 611.328 632.656 610.752 674.48" stroke="#263238" stroke-linecap="round" stroke-linejoin="round"/>
<path d="M587.44 707.2C589.922 706.667 592.512 707.012 594.768 708.176" stroke="#263238" stroke-linecap="round" stroke-linejoin="round"/>
<path d="M571.728 716.368C574.999 713.183 578.786 710.576 582.928 708.656" stroke="#263238" stroke-linecap="round" stroke-linejoin="round"/>
<path d="M576.096 537.84C581.968 544.4 591.248 556.8 600.768 557.856" stroke="#263238" stroke-linecap="round" stroke-linejoin="round"/>
<path d="M567.072 527.12C568.864 529.408 570.736 531.632 572.624 533.84" stroke="#263238" stroke-linecap="round" stroke-linejoin="round"/>
<path d="M575.424 604.096C575.424 604.096 588.752 622.24 596.064 623.296" stroke="#263238" stroke-linecap="round" stroke-linejoin="round"/>
<path d="M559.744 529.216C559.744 529.216 536.016 595.328 527.744 601.856C527.744 601.856 526.8 650.464 526.544 667.456C526.288 684.448 522.368 707.008 522.368 707.008" stroke="#263238" stroke-linecap="round" stroke-linejoin="round"/>
<path d="M497.04 706.512C497.04 706.512 506.176 709.712 510.624 711.68C513.351 712.997 515.494 715.277 516.64 718.08" stroke="#263238" stroke-linecap="round" stroke-linejoin="round"/>
<path d="M520.16 578.016C532.96 570.016 549.712 560.032 556.48 545.936" stroke="#263238" stroke-linecap="round" stroke-linejoin="round"/>
<path d="M509.056 584.608C511.472 583.28 513.856 581.888 516.192 580.464" stroke="#263238" stroke-linecap="round" stroke-linejoin="round"/>
<path d="M549.216 487.312C556.064 487.216 563.616 486.304 569.424 482.512" stroke="#263238" stroke-linecap="round" stroke-linejoin="round"/>
<path d="M538.32 486.672C540.288 486.944 542.256 487.12 544.24 487.216" stroke="#263238" stroke-linecap="round" stroke-linejoin="round"/>
<path d="M573.808 343.344C573.808 343.344 614.096 331.904 637.264 344.304C643.024 347.376 656.192 357.376 655.728 369.36C655.264 381.344 617.136 437.136 617.6 444.56C618.064 451.984 617.6 471.184 614.784 472.496C611.968 473.808 550.784 475.584 535.68 471.696C529.648 470.096 541.504 441.6 541.504 441.6C541.504 441.6 553.056 379.76 573.808 343.344Z" fill="#08A202" stroke="#263238" stroke-linecap="round" stroke-linejoin="round"/>
<path d="M631.168 341.216C631.168 341.216 605.696 351.408 597.344 340.752C598.762 340.834 600.177 340.555 601.459 339.943C602.74 339.33 603.845 338.403 604.672 337.248C605.988 335.222 606.704 332.864 606.736 330.448C606.864 328.56 603.12 304.336 604.672 302.16C628.144 269.36 633.328 317.52 633.328 317.52C633.328 317.52 625.024 338.192 631.168 341.216Z" fill="white" stroke="#263238" stroke-linecap="round" stroke-linejoin="round"/>
<path d="M613.328 328.08C613.328 328.08 611.728 335.648 604.672 337.248C605.988 335.222 606.704 332.864 606.736 330.448C609 329.86 611.207 329.067 613.328 328.08Z" fill="#263238"/>
<path d="M635.728 332.672L609.392 339.664V353.344C609.392 353.344 601.744 372.464 601.984 375.568C602.224 378.672 609.392 503.312 609.392 503.312C609.392 503.312 630.784 501.712 638.512 488.432C638.512 488.432 635.408 440.112 638.512 432.16C640.529 426.214 641.703 420.015 642 413.744C642 413.744 662.144 376.096 657.664 364.608C653.184 353.12 639.2 341.936 639.2 341.936L635.728 332.672Z" fill="#263238"/>
<path d="M612.432 341.616C612.432 341.616 616.768 355.792 617.312 355.504C617.856 355.216 632.912 349.104 636.976 343.056" stroke="white" stroke-linecap="round" stroke-linejoin="round"/>
<path d="M603.408 338.672C603.024 338.128 586.64 328.08 586.64 328.08L578.208 330.32L565.76 322.544C565.76 322.544 553.152 360.944 553.52 369.824C553.888 378.704 540.448 427.872 538.48 447.28C538.48 447.28 554.48 415.728 556.768 410.224C559.056 404.72 566.48 367.664 572.624 359.024C578.768 350.384 593.136 339.648 593.136 339.648L603.408 338.672Z" fill="#263238"/>
<path d="M634.24 314.256C635.45 311.047 635.931 307.61 635.648 304.192C633.92 279.92 628.192 274.272 618.736 275.856C583.424 281.744 593.888 299.664 592.544 305.616C591.2 311.568 586.144 312.016 586.864 314.72C587.136 315.792 591.296 315.904 591.296 315.904L591.552 321.504L593.152 321.888C593.152 321.888 594.432 334.688 597.68 336.112C601.792 337.984 614.08 330.56 614.048 325.952" fill="white"/>
<path d="M634.24 314.256C635.45 311.047 635.931 307.61 635.648 304.192C633.92 279.92 628.192 274.272 618.736 275.856C583.424 281.744 593.888 299.664 592.544 305.616C591.2 311.568 586.144 312.016 586.864 314.72C587.136 315.792 591.296 315.904 591.296 315.904L591.552 321.504L593.152 321.888C593.152 321.888 594.432 334.688 597.68 336.112C601.792 337.984 614.08 330.56 614.048 325.952" stroke="#263238" stroke-linecap="round" stroke-linejoin="round"/>
<path d="M595.296 296.896C595.296 296.896 600.256 295.888 602.736 299.856" stroke="#263238" stroke-linecap="round" stroke-linejoin="round"/>
<path d="M597.36 304.24C597.536 305.424 598.192 306.288 598.8 306.192C599.408 306.096 599.76 305.072 599.584 303.904C599.408 302.736 598.752 301.856 598.144 301.952C597.536 302.048 597.184 303.072 597.36 304.24Z" fill="#263238"/>
<path d="M593.136 321.888C595.742 321.893 598.335 321.516 600.832 320.768" stroke="#263238" stroke-linecap="round" stroke-linejoin="round"/>
<path d="M599.76 321.12C599.76 321.12 597.712 323.968 595.872 323.968C594.032 323.968 593.92 322.544 593.92 322.544" stroke="#263238" stroke-linecap="round" stroke-linejoin="round"/>
<path d="M636.368 279.68C636.368 279.68 638.128 272.144 620.56 271.136C606.848 270.352 594.32 271.552 589.696 280.432C585.072 289.312 585.552 297.296 592.16 298.32C592.734 295.024 593.967 291.877 595.784 289.068C597.601 286.258 599.965 283.844 602.736 281.968C602.736 281.968 598.896 291.888 604.672 296.784C605.939 297.875 607.384 298.741 608.944 299.344C609.368 300.192 609.906 300.978 610.544 301.68C613.328 304.88 613.44 311.504 613.44 311.504L616.128 309.904C616.128 309.904 612.224 299.568 623.568 302C629.392 303.248 628.368 310.288 629.216 314.672C630.064 319.056 632.416 320.256 632.416 320.256C635.052 317.286 637.123 313.859 638.528 310.144C638.528 310.144 644.32 306.016 644.32 299.952C644.32 293.888 642.688 284.032 636.368 279.68Z" fill="#263238"/>
<path d="M617.312 302.176C617.312 302.176 620.992 296.512 624.256 296.384C627.52 296.256 629.712 307.584 626.72 311.984C623.728 316.384 620.784 317.856 619.424 316.544C619.031 316.119 618.741 315.609 618.574 315.055C618.408 314.5 618.37 313.915 618.464 313.344" fill="white"/>
<path d="M617.312 302.176C617.312 302.176 620.992 296.512 624.256 296.384C627.52 296.256 629.712 307.584 626.72 311.984C623.728 316.384 620.784 317.856 619.424 316.544C619.031 316.119 618.741 315.609 618.574 315.055C618.408 314.5 618.37 313.915 618.464 313.344" stroke="#263238" stroke-linecap="round" stroke-linejoin="round"/>
<path d="M574.4 346.848C578.38 342.448 581.962 337.704 585.104 332.672" stroke="white" stroke-linecap="round" stroke-linejoin="round"/>
<path d="M574.4 332.672C576.657 333.534 578.545 335.151 579.744 337.248" stroke="white" stroke-linecap="round" stroke-linejoin="round"/>
<path d="M565.76 322.544L552.576 317.008L548.112 310.208C540.912 321.662 537.549 335.113 538.512 348.608L545.84 353.28L555.84 376L565.76 322.544Z" fill="#263238"/>
<path d="M613.536 376C613.536 376 626.784 394.688 620.272 402.592C617.216 406.32 590.224 415.28 590.224 415.28L509.264 410.48L482.32 415.28L479.312 415.52C479.041 415.183 478.845 414.792 478.735 414.374C478.624 413.956 478.603 413.519 478.673 413.092C478.742 412.665 478.9 412.258 479.137 411.896C479.374 411.534 479.685 411.226 480.048 410.992C480.048 410.992 478.592 407.472 479.2 406.688C481.04 404.336 489.424 400.48 489.424 400.48C489.424 400.48 479.744 402.896 483.728 397.696C486.448 394.16 496.784 393.424 501.552 390.304C505.472 387.728 502.048 373.44 510.56 376C509.11 379.874 508.563 384.027 508.96 388.144C509.088 389.184 509.312 394.304 509.312 394.304C513.632 399.248 559.952 392.848 563.936 392.704C567.92 392.56 587.328 389.632 587.328 389.632L613.536 376Z" fill="white" stroke="#263238" stroke-linecap="round" stroke-linejoin="round"/>
<path d="M496.576 394.736C497.05 395.737 497.301 396.829 497.312 397.936C497.104 398.992 494.256 400.992 494.256 400.992C494.091 402.004 494.091 403.036 494.256 404.048C494.576 404.784 491.2 407.408 491.2 408.352C490.908 409.455 490.409 410.492 489.728 411.408" stroke="#263238" stroke-linecap="round" stroke-linejoin="round"/>
<path d="M480 411.04C481.264 412 486.656 406.672 489.68 406.416" stroke="#263238" stroke-linecap="round" stroke-linejoin="round"/>
<path d="M487.104 411.776C484.888 413.166 482.521 414.299 480.048 415.152" stroke="#263238" stroke-linecap="round" stroke-linejoin="round"/>
<path d="M611.2 375.744L613.264 372.224C613.264 372.224 618.704 374.544 620.176 372.224C621.648 369.904 638.112 362.32 641.28 362.528" stroke="white" stroke-linecap="round" stroke-linejoin="round"/>
<path d="M617.92 406.4C617.92 406.4 621.92 410.512 622.976 408.768C624.032 407.024 638.336 406.272 644.304 401.328" stroke="white" stroke-linecap="round" stroke-linejoin="round"/>
<path d="M614.112 423.072C614.112 423.712 624.672 456.832 628.88 461.472" stroke="white" stroke-linecap="round" stroke-linejoin="round"/>
<path d="M592.592 426.448C591.328 427.296 566.784 447.76 556.48 447.968" stroke="#263238" stroke-linecap="round" stroke-linejoin="round"/>
<path d="M574.4 369.136C574.4 370.336 581.664 380.256 585.104 382.992" stroke="#263238" stroke-linecap="round" stroke-linejoin="round"/>
<path d="M477.984 477.68C482.256 477.68 475.712 484.592 475.712 484.592C475.567 489.632 474.583 494.612 472.8 499.328L486.048 519.808L474.656 528.864L463.088 505.376C463.088 505.376 452.992 501.76 455.424 495.776C456.928 492 461.824 491.584 461.824 491.584C466.639 486.324 472.064 481.656 477.984 477.68Z" fill="white" stroke="#263238" stroke-linecap="round" stroke-linejoin="round"/>
<path d="M466.736 516.64C466.736 516.64 473.696 505.92 481.136 506.624L483.936 513.024C483.936 513.024 488.528 513.264 491.296 519.792C494.064 526.32 509.408 544.464 509.408 544.464L487.184 567.52C487.184 567.52 468.624 528.512 469.584 522.176L466.736 516.64Z" fill="#BFBFBF"/>
<mask id="mask2_1_2165" style="mask-type:luminance" maskUnits="userSpaceOnUse" x="466" y="506" width="44" height="62">
<path d="M466.736 516.64C466.736 516.64 473.696 505.92 481.136 506.624L483.936 513.024C483.936 513.024 488.528 513.264 491.296 519.792C494.064 526.32 509.408 544.464 509.408 544.464L487.184 567.52C487.184 567.52 468.624 528.512 469.584 522.176L466.736 516.64Z" fill="white"/>
</mask>
<g mask="url(#mask2_1_2165)">
<path opacity="0.2" d="M466.736 516.64C466.736 516.64 473.696 505.92 481.136 506.624L483.936 513.024C483.936 513.024 488.528 513.264 491.296 519.792C494.064 526.32 509.408 544.464 509.408 544.464L487.184 567.52C487.184 567.52 468.624 528.512 469.584 522.176L466.736 516.64Z" fill="black"/>
</g>
<path d="M466.736 516.64C466.736 516.64 473.696 505.92 481.136 506.624L483.936 513.024C483.936 513.024 488.528 513.264 491.296 519.792C494.064 526.32 509.408 544.464 509.408 544.464L487.184 567.52C487.184 567.52 468.624 528.512 469.584 522.176L466.736 516.64Z" stroke="#263238" stroke-linecap="round" stroke-linejoin="round"/>
<path d="M521.264 461.744C521.264 461.744 493.152 465.888 498.16 498.352C503.168 530.816 500.032 535.376 500.32 548.752C500.608 562.128 509.408 567.536 509.408 567.536L516.272 544.352C516.272 544.352 512.848 548.752 513.984 531.664C515.12 514.576 515.408 492.656 515.408 492.656" fill="#08A202"/>
<mask id="mask3_1_2165" style="mask-type:luminance" maskUnits="userSpaceOnUse" x="497" y="461" width="25" height="107">
<path d="M521.264 461.744C521.264 461.744 493.152 465.888 498.16 498.352C503.168 530.816 500.032 535.376 500.32 548.752C500.608 562.128 509.408 567.536 509.408 567.536L516.272 544.352C516.272 544.352 512.848 548.752 513.984 531.664C515.12 514.576 515.408 492.656 515.408 492.656" fill="white"/>
</mask>
<g mask="url(#mask3_1_2165)">
<path opacity="0.2" d="M521.264 461.744C521.264 461.744 493.152 465.888 498.16 498.352C503.168 530.816 500.032 535.376 500.32 548.752C500.608 562.128 509.408 567.536 509.408 567.536L516.272 544.352C516.272 544.352 512.848 548.752 513.984 531.664C515.12 514.576 515.408 492.656 515.408 492.656" fill="black"/>
</g>
<path d="M521.264 461.744C521.264 461.744 493.152 465.888 498.16 498.352C503.168 530.816 500.032 535.376 500.32 548.752C500.608 562.128 509.408 567.536 509.408 567.536L516.272 544.352C516.272 544.352 512.848 548.752 513.984 531.664C515.12 514.576 515.408 492.656 515.408 492.656" stroke="#263238" stroke-linecap="round" stroke-linejoin="round"/>
<path d="M504 511.648C504 511.648 507.2 529.248 504.864 541.44" stroke="#263238" stroke-linecap="round" stroke-linejoin="round"/>
<path d="M442 535.04C439.609 531.197 437.934 526.952 437.056 522.512C438.832 520.192 437.824 509.408 437.888 508.32C437.952 507.232 432.144 501.792 429.888 494.192C428.414 495.55 427.52 497.424 427.392 499.424C427.536 502.624 429.088 505.04 428.512 505.584C425.456 508.464 417.44 505.072 415.008 504.208C409.632 502.32 407.008 505.12 409.728 508.112C410.688 509.168 412.752 508.4 412.576 510.992C412.4 513.584 411.984 511.344 413.36 515.52C414.736 519.696 414.24 521.024 417.376 523.12L425.488 528.56L432 542.4L442 535.04Z" fill="white" stroke="#263238" stroke-linecap="round" stroke-linejoin="round"/>
<path d="M508.112 638.64C508.112 638.64 519.312 622.08 547.2 621.152C575.088 620.224 573.712 636.88 573.712 636.88C573.712 636.88 588.208 658.144 586.512 674.768C584.816 691.392 563.024 706.208 563.024 706.208C563.024 706.208 607.536 716.624 612.624 714.464C617.712 712.304 628.048 734.416 624.064 739.376C620.08 744.336 494.224 735.856 494.224 735.856C494.224 735.856 481.696 721.12 481.136 710.816C480.576 700.512 508.864 660.992 508.096 659.104C507.328 657.216 508.112 638.64 508.112 638.64Z" fill="#263238"/>
<path d="M555.28 657.424C555.28 657.424 559.008 688.272 543.152 693.632L490.912 714.64C490.912 714.64 563.6 720.928 574.672 718.688C585.744 716.448 601.28 738.912 601.28 738.912H468.64C446.032 738.912 433.12 721.008 437.68 706.592C442.24 692.176 504.128 649.712 504.128 649.712C504.128 649.712 500.928 634.144 534.864 622.688C565.488 612.352 555.28 657.424 555.28 657.424Z" fill="#263238"/>
<path d="M566 614.896C566 614.896 574 627.296 571.152 630.112C571.152 630.112 538.992 618.64 506.064 645.008C505.456 645.488 504.864 645.984 504.256 646.496L501.872 638.048L507.68 633.248C507.68 633.248 506.624 629.056 505.792 623.776C504.96 618.496 504.272 611.68 505.232 607.264C505.328 606.8 504.048 604.88 502.544 601.44C500.673 597.122 499.403 592.567 498.768 587.904C497.629 578.964 498.21 569.889 500.48 561.168C501.713 556.087 503.318 551.103 505.28 546.256C509.952 534.544 533.584 529.04 561.088 536.192C564.398 537.035 567.308 539.011 569.312 541.776C583.184 560.432 566 614.896 566 614.896Z" fill="#BFBFBF"/>
<mask id="mask4_1_2165" style="mask-type:luminance" maskUnits="userSpaceOnUse" x="498" y="532" width="77" height="115">
<path d="M566 614.896C566 614.896 574 627.296 571.152 630.112C571.152 630.112 538.992 618.64 506.064 645.008C505.456 645.488 504.864 645.984 504.256 646.496L501.872 638.048L507.68 633.248C507.68 633.248 506.624 629.056 505.792 623.776C504.96 618.496 504.272 611.68 505.232 607.264C505.328 606.8 504.048 604.88 502.544 601.44C500.673 597.122 499.403 592.567 498.768 587.904C497.629 578.964 498.21 569.889 500.48 561.168C501.713 556.087 503.318 551.103 505.28 546.256C509.952 534.544 533.584 529.04 561.088 536.192C564.398 537.035 567.308 539.011 569.312 541.776C583.184 560.432 566 614.896 566 614.896Z" fill="white"/>
</mask>
<g mask="url(#mask4_1_2165)">
<path opacity="0.2" d="M498.752 587.936C497.613 578.996 498.194 569.921 500.464 561.2L506.288 559.344C506.288 559.344 510.08 570.224 498.752 587.936Z" fill="black"/>
<path opacity="0.2" d="M505.792 623.808C504.912 618.336 504.272 611.712 505.232 607.296C505.328 606.832 504.048 604.912 502.544 601.472C502.544 601.472 515.968 612 521.264 611.072C524.464 610.496 514.336 617.872 505.792 623.808Z" fill="black"/>
<path opacity="0.2" d="M566 614.896C566 614.896 574 627.296 571.152 630.112C571.152 630.112 538.992 618.64 506.064 645.008C512.368 637.008 522.064 627.76 533.968 625.008C555.984 619.936 564.576 620.656 564.576 620.656L557.44 611.408C557.44 611.408 533.44 611.408 521.264 593.184C527.576 595.267 534.156 596.42 540.8 596.608C549.76 596.8 560.336 589.296 563.552 586.832C560.816 588.624 552.352 591.888 538.272 577.84C520.864 560.432 520 528 557.44 537.072C561.596 538.113 565.587 539.728 569.296 541.872C583.184 560.432 566 614.896 566 614.896Z" fill="black"/>
</g>
<path d="M566 614.896C566 614.896 574 627.296 571.152 630.112C571.152 630.112 538.992 618.64 506.064 645.008C505.456 645.488 504.864 645.984 504.256 646.496L501.872 638.048L507.68 633.248C507.68 633.248 506.624 629.056 505.792 623.776C504.96 618.496 504.272 611.68 505.232 607.264C505.328 606.8 504.048 604.88 502.544 601.44C500.673 597.122 499.403 592.567 498.768 587.904C497.629 578.964 498.21 569.889 500.48 561.168C501.713 556.087 503.318 551.103 505.28 546.256C509.952 534.544 533.584 529.04 561.088 536.192C564.398 537.035 567.308 539.011 569.312 541.776C583.184 560.432 566 614.896 566 614.896Z" stroke="#263238" stroke-linecap="round" stroke-linejoin="round"/>
<path d="M567.712 670.048C568 681.152 551.888 692.544 542.72 691.68C542.72 691.68 527.408 702.88 509.696 707.088" stroke="white" stroke-linecap="round" stroke-linejoin="round"/>
<path d="M471.856 709.056C471.856 709.056 493.152 706.784 501.008 710.576C508.864 714.368 547.952 720.032 554.416 718.912" stroke="white" stroke-linecap="round" stroke-linejoin="round"/>
<path d="M540 646.496C540 646.496 550.432 644.304 558.224 646.496C558.224 646.496 559.36 658.176 558.224 664.64L549.36 669.184C546.182 668.214 543.058 667.076 540 665.776C539.424 665.2 539.488 653.248 538.704 650.976" stroke="white" stroke-linecap="round" stroke-linejoin="round"/>
<path d="M584.416 667.68L582.16 669.184L576.624 664.256C576.816 658.944 572.256 647.552 572.256 647.552C574.331 647.272 576.444 647.599 578.336 648.496" stroke="white" stroke-linecap="round" stroke-linejoin="round"/>
<path d="M563.744 688.56C565.704 689.776 567.887 690.586 570.165 690.944C572.444 691.301 574.77 691.198 577.008 690.64" stroke="white" stroke-linecap="round" stroke-linejoin="round"/>
<path d="M561.44 707.088C561.44 707.088 552.784 713.04 538.704 709.808" stroke="white" stroke-linecap="round" stroke-linejoin="round"/>
<path d="M538.704 690.448C538.704 690.448 525.568 686.128 522.528 680.032" stroke="white" stroke-linecap="round" stroke-linejoin="round"/>
<path d="M513.984 687.408C514.944 688.176 522.528 690.448 530.608 690.448" stroke="white" stroke-linecap="round" stroke-linejoin="round"/>
<path d="M468.64 702.224C468.64 702.224 475.264 703.824 476.976 706.208" stroke="white" stroke-linecap="round" stroke-linejoin="round"/>
<path d="M550.816 722.144C550.816 722.144 544.416 726.32 544.544 731.824" stroke="white" stroke-linecap="round" stroke-linejoin="round"/>
<path d="M601.712 722.368C602.064 713.2 610.528 717.008 610.528 717.008C610.528 717.008 616.72 707.904 622.72 710.032C628.72 712.16 630.272 715.312 639.808 718.672C649.344 722.032 662.304 719.392 665.824 728.464C669.344 737.536 664.848 742.624 643.328 740.96C621.808 739.296 616.128 738.608 616.128 738.608C616.128 738.608 600.992 740.8 601.712 722.368Z" fill="#08A202" stroke="#263238" stroke-linecap="round" stroke-linejoin="round"/>
<path d="M610.08 720.432C609.904 722.374 610.205 724.33 610.958 726.129C611.711 727.928 612.893 729.515 614.4 730.752" stroke="#263238" stroke-linecap="round" stroke-linejoin="round"/>
<path d="M618.848 710.032C614.272 711.856 613.696 722.368 624.288 729.072C634.88 735.776 636.992 730.048 643.68 735.664C650.368 741.28 660.864 742.064 666.912 737.712C672.96 733.36 668.016 724.912 656.736 720.432C645.456 715.952 641.84 720.432 635.632 717.008C629.424 713.584 628.592 706.144 618.848 710.032Z" fill="#BFBFBF" stroke="#263238" stroke-linecap="round" stroke-linejoin="round"/>
<path d="M622.512 712C622.16 713.152 622.512 723.744 622.512 723.744" stroke="#263238" stroke-linecap="round" stroke-linejoin="round"/>
<path d="M627.84 712.56V728.464" stroke="#263238" stroke-linecap="round" stroke-linejoin="round"/>
<path d="M633.456 717.008V730.48" stroke="#263238" stroke-linecap="round" stroke-linejoin="round"/>
<path d="M639.632 720.432L638.912 730.752" stroke="#263238" stroke-linecap="round" stroke-linejoin="round"/>
<path d="M646.496 720.512V734.896" stroke="#263238" stroke-linecap="round" stroke-linejoin="round"/>
<path d="M653.216 721.968V737.712" stroke="#263238" stroke-linecap="round" stroke-linejoin="round"/>
<path d="M660.784 724.736L661.488 736.656" stroke="#263238" stroke-linecap="round" stroke-linejoin="round"/>
<path d="M580.992 714.08C575.049 715.242 569.374 717.499 564.256 720.736C564.256 720.736 560.88 715.76 557.712 720.608C554.544 725.456 556.848 742.48 564.256 739.072C564.256 739.072 574.832 742.56 596.176 740.432C617.52 738.304 597.232 726.56 597.232 726.56L580.992 714.08Z" fill="#08A202" stroke="#263238" stroke-linecap="round" stroke-linejoin="round"/>
<path d="M582.944 714.192C574.64 712.496 569.968 726.656 573.888 733.392C577.808 740.128 581.12 740.176 595.904 740.176C610.688 740.176 625.44 740.704 624.528 726.528C623.616 712.352 603.408 715.952 598.592 717.744C593.776 719.536 587.376 715.104 582.944 714.192Z" fill="#BFBFBF" stroke="#263238" stroke-linecap="round" stroke-linejoin="round"/>
<path d="M580.304 717.328L581.136 736.384" stroke="#263238" stroke-linecap="round" stroke-linejoin="round"/>
<path d="M586.48 719.104L587.536 736.384" stroke="#263238" stroke-linecap="round" stroke-linejoin="round"/>
<path d="M591.776 719.984L592.832 737.264" stroke="#263238" stroke-linecap="round" stroke-linejoin="round"/>
<path d="M598.096 721.04L599.712 737.264" stroke="#263238" stroke-linecap="round" stroke-linejoin="round"/>
<path d="M604.464 719.104L605.952 737.264" stroke="#263238" stroke-linecap="round" stroke-linejoin="round"/>
<path d="M610.992 719.104L613.104 736.384" stroke="#263238" stroke-linecap="round" stroke-linejoin="round"/>
<path d="M617.344 719.984L619.104 733.552" stroke="#263238" stroke-linecap="round" stroke-linejoin="round"/>
<path d="M563.024 723.504C563.024 723.504 561.424 731.04 563.904 735.328" stroke="#263238" stroke-linecap="round" stroke-linejoin="round"/>
<path d="M519.328 531.6C517.728 531.904 506.704 532.272 502.064 533.824C490.272 537.728 460.288 563.04 460.288 563.04L439.68 526.656C439.68 526.656 430.704 525.056 426.272 533.056L428.624 539.824C427.87 542.75 427.303 545.722 426.928 548.72C426.384 556.016 442.144 594 449.808 596.24C461.808 599.744 494.816 574.784 494.816 574.784C494.816 574.784 508.656 565.552 510.064 556.944" fill="#BFBFBF"/>
<path d="M519.328 531.6C517.728 531.904 506.704 532.272 502.064 533.824C490.272 537.728 460.288 563.04 460.288 563.04L439.68 526.656C439.68 526.656 430.704 525.056 426.272 533.056L428.624 539.824C427.87 542.75 427.303 545.722 426.928 548.72C426.384 556.016 442.144 594 449.808 596.24C461.808 599.744 494.816 574.784 494.816 574.784C494.816 574.784 508.656 565.552 510.064 556.944" stroke="#263238" stroke-linecap="round" stroke-linejoin="round"/>
<path d="M505.952 472.672C513.872 457.296 528.352 462.656 528.352 462.656C556.544 457.296 557.408 490.128 559.968 507.456C562.528 524.784 571.856 528.752 574.496 543.28C574.912 546.776 574.847 550.313 574.304 553.792C573.951 552.25 573.039 550.893 571.744 549.984C572.288 568.768 561.168 578.08 560.464 578.624C568.336 567.808 567.376 560.8 567.376 560.8C564.336 571.808 552.56 582.64 552.56 582.64C552.56 582.64 542.512 580.368 537.792 565.728C533.616 552.704 528.064 548.128 527.728 547.92C531.548 555.395 534.367 563.341 536.112 571.552C530.592 563.437 525.615 554.965 521.216 546.192C501.616 508.8 504 493.232 504 493.232" fill="#08A202"/>
<mask id="mask5_1_2165" style="mask-type:luminance" maskUnits="userSpaceOnUse" x="503" y="461" width="72" height="122">
<path d="M505.952 472.672C513.872 457.296 528.352 462.656 528.352 462.656C556.544 457.296 557.408 490.128 559.968 507.456C562.528 524.784 571.856 528.752 574.496 543.28C574.912 546.776 574.847 550.313 574.304 553.792C573.951 552.25 573.039 550.893 571.744 549.984C572.288 568.768 561.168 578.08 560.464 578.624C568.336 567.808 567.376 560.8 567.376 560.8C564.336 571.808 552.56 582.64 552.56 582.64C552.56 582.64 542.512 580.368 537.792 565.728C533.616 552.704 528.064 548.128 527.728 547.92C531.548 555.395 534.367 563.341 536.112 571.552C530.592 563.437 525.615 554.965 521.216 546.192C501.616 508.8 504 493.232 504 493.232" fill="white"/>
</mask>
<g mask="url(#mask5_1_2165)">
<path opacity="0.2" d="M505.952 472.672C513.872 457.296 528.352 462.656 528.352 462.656C556.544 457.296 557.408 490.128 559.968 507.456C562.528 524.784 571.856 528.752 574.496 543.28C574.912 546.776 574.847 550.313 574.304 553.792C573.951 552.25 573.039 550.893 571.744 549.984C572.288 568.768 561.168 578.08 560.464 578.624C568.336 567.808 567.376 560.8 567.376 560.8C564.336 571.808 552.56 582.64 552.56 582.64C552.56 582.64 542.512 580.368 537.792 565.728C533.616 552.704 528.064 548.128 527.728 547.92C531.548 555.395 534.367 563.341 536.112 571.552C530.592 563.437 525.615 554.965 521.216 546.192C501.616 508.8 504 493.232 504 493.232" fill="black"/>
</g>
<path d="M505.952 472.672C513.872 457.296 528.352 462.656 528.352 462.656C556.544 457.296 557.408 490.128 559.968 507.456C562.528 524.784 571.856 528.752 574.496 543.28C574.912 546.776 574.847 550.313 574.304 553.792C573.951 552.25 573.039 550.893 571.744 549.984C572.288 568.768 561.168 578.08 560.464 578.624C568.336 567.808 567.376 560.8 567.376 560.8C564.336 571.808 552.56 582.64 552.56 582.64C552.56 582.64 542.512 580.368 537.792 565.728C533.616 552.704 528.064 548.128 527.728 547.92C531.548 555.395 534.367 563.341 536.112 571.552C530.592 563.437 525.615 554.965 521.216 546.192C501.616 508.8 504 493.232 504 493.232" stroke="#263238" stroke-linecap="round" stroke-linejoin="round"/>
<path d="M530.4 465.712C530.4 465.712 544.8 456.4 550.144 484.208C555.488 512.016 559.824 514.864 562.48 528.528C565.136 542.192 562.304 553.216 558.304 557.328" stroke="#263238" stroke-linecap="round" stroke-linejoin="round"/>
<path d="M532.304 470.256C537.248 479.568 541.04 492.096 542.56 515.248C544.08 538.4 543.568 562.304 552.8 569.344" stroke="#263238" stroke-linecap="round" stroke-linejoin="round"/>
<path d="M516.8 467.6C516.8 467.6 504.272 473.872 513.392 492.656C522.512 511.44 532.368 526.448 532.368 537.264C532.368 548.08 535.312 553.76 540.912 555.68" stroke="#263238" stroke-linecap="round" stroke-linejoin="round"/>
<path d="M475.712 484.592C475.712 484.592 472.128 490.288 471.92 491.968" stroke="#263238" stroke-linecap="round" stroke-linejoin="round"/>
<path d="M460.288 563.04C460.288 563.04 450.784 566.88 451.952 575.056" stroke="#263238" stroke-linecap="round" stroke-linejoin="round"/>
<path d="M449.6 561.6C449.6 561.6 453.12 558 456 559.36" stroke="#263238" stroke-linecap="round" stroke-linejoin="round"/>
<path d="M432.88 535.2C432.88 535.2 438.784 530.784 442 531.216" stroke="#263238" stroke-linecap="round" stroke-linejoin="round"/>
<path d="M483.936 513.04C480.192 513.944 476.719 515.733 473.808 518.256" stroke="#263238" stroke-linecap="round" stroke-linejoin="round"/>
<path d="M512.624 565.504C512.32 565.504 504.992 571.152 499.952 570.864" stroke="#263238" stroke-linecap="round" stroke-linejoin="round"/>
<path d="M519.024 589.76C519.024 591.776 538.224 614.464 559.312 611.056" stroke="#263238" stroke-linecap="round" stroke-linejoin="round"/>
<path d="M245.568 380.8C245.568 380.8 262.208 389.712 265.888 397.616C269.568 405.52 282.96 446.288 282.96 446.288C282.96 446.288 293.12 463.008 295.488 466.4C297.856 469.792 296.832 484 285.104 483.904C273.376 483.808 259.824 472.624 259.312 467.568C258.8 462.512 252.768 459.568 252.304 455.2C251.84 450.832 237.744 422 237.744 422L245.568 380.8Z" fill="#263238"/>
<path d="M264.336 717.984C264.336 717.984 261.824 733.408 264.336 740.608H315.344C315.344 740.608 317.504 735.2 315.344 731.808C313.184 728.416 297.024 726.464 292 721.856C288.145 718.025 284.658 713.842 281.584 709.36L264.336 717.984Z" fill="white" stroke="#263238" stroke-linecap="round" stroke-linejoin="round"/>
<path d="M316.304 737.888H263.68L263.216 740.608H316.304V737.888Z" fill="white" stroke="#263238" stroke-linecap="round" stroke-linejoin="round"/>
<path d="M276.608 716.112C276.608 716.112 281.408 717.264 281.936 717.456C282.464 717.648 287.152 724.816 291.824 726.064C296.496 727.312 301.152 727.088 300.432 729.36" stroke="#263238" stroke-linecap="round" stroke-linejoin="round"/>
<path d="M287.232 716.112L281.76 720.144" stroke="#263238" stroke-linecap="round" stroke-linejoin="round"/>
<path d="M289.76 719.648L284.496 723.504" stroke="#263238" stroke-linecap="round" stroke-linejoin="round"/>
<path d="M293.12 722.736L288.56 727.152" stroke="#263238" stroke-linecap="round" stroke-linejoin="round"/>
<path d="M297.744 724.976L295.76 729.36" stroke="#263238" stroke-linecap="round" stroke-linejoin="round"/>
<path d="M177.904 740.608C177.904 740.608 175.936 733.104 178.24 730.32C182.368 725.328 177.728 721.136 181.872 719.408L183.616 721.424C183.952 719.376 182.976 713.152 190.672 712.352C199.952 711.376 200.128 718.128 200.624 720.352L200.48 717.248C204.432 717.248 202.384 721.2 208.384 727.664C209.959 729.407 211.157 731.456 211.903 733.683C212.65 735.911 212.928 738.268 212.72 740.608H177.904Z" fill="white" stroke="#263238" stroke-linecap="round" stroke-linejoin="round"/>
<path d="M144.256 455.152C139.984 457.6 128.912 481.2 135.376 528C141.84 574.8 161.152 666.08 164.4 680C167.648 693.92 178.992 727.6 178.992 727.6C178.992 727.6 183.328 713.008 204.176 720.816C204.354 720.879 204.546 720.893 204.731 720.858C204.917 720.823 205.09 720.739 205.232 720.616C205.375 720.493 205.483 720.334 205.545 720.155C205.607 719.977 205.62 719.785 205.584 719.6L201.008 695.776C201.008 695.776 200.688 678.352 199.184 673.984C193.536 657.536 190.72 593.984 188.848 585.104C186.976 576.224 190.656 550.72 190.656 550.72C190.656 550.72 216.752 613.12 217.6 619.296C218.448 625.472 234.352 650.944 234.352 650.944L237.104 674.384C237.104 674.384 258.272 710.672 262 721.504L287.232 716.048L286.528 698.112L279.728 695.776L267.856 654.992C264.102 640.858 259.491 626.966 254.048 613.392C248.432 599.2 232.512 544.272 232.512 544.272C227.568 538.896 222.912 509.168 222.912 509.168L215.264 471.68L144.256 455.152Z" fill="#08A202"/>
<mask id="mask6_1_2165" style="mask-type:luminance" maskUnits="userSpaceOnUse" x="133" y="455" width="155" height="273">
<path d="M144.256 455.152C139.984 457.6 128.912 481.2 135.376 528C141.84 574.8 161.152 666.08 164.4 680C167.648 693.92 178.992 727.6 178.992 727.6C178.992 727.6 183.328 713.008 204.176 720.816C204.354 720.879 204.546 720.893 204.731 720.858C204.917 720.823 205.09 720.739 205.232 720.616C205.375 720.493 205.483 720.334 205.545 720.155C205.607 719.977 205.62 719.785 205.584 719.6L201.008 695.776C201.008 695.776 200.688 678.352 199.184 673.984C193.536 657.536 190.72 593.984 188.848 585.104C186.976 576.224 190.656 550.72 190.656 550.72C190.656 550.72 216.752 613.12 217.6 619.296C218.448 625.472 234.352 650.944 234.352 650.944L237.104 674.384C237.104 674.384 258.272 710.672 262 721.504L287.232 716.048L286.528 698.112L279.728 695.776L267.856 654.992C264.102 640.858 259.491 626.966 254.048 613.392C248.432 599.2 232.512 544.272 232.512 544.272C227.568 538.896 222.912 509.168 222.912 509.168L215.264 471.68L144.256 455.152Z" fill="white"/>
</mask>
<g mask="url(#mask6_1_2165)">
<path opacity="0.2" d="M218.928 489.712C206.128 496.544 178.192 509.68 165.52 501.488C154.88 494.608 142.848 483.552 135.504 476.416C137.968 463.44 142.032 456.448 144.256 455.152L215.264 471.728L218.928 489.712Z" fill="black"/>
<path opacity="0.2" d="M287.232 716.112L262 721.6C258.272 710.768 237.104 674.48 237.104 674.48L234.352 651.04C234.352 651.04 218.448 625.488 217.6 619.36C216.752 613.232 190.656 550.784 190.656 550.784C190.656 550.784 190.032 555.152 189.408 560.928C189.6 557.936 191.008 537.824 190.192 531.632L190.832 527.888C190.832 527.888 208.016 515.472 210.32 520.208C212.624 524.944 201.312 529.808 201.312 529.808C201.312 529.808 211.76 533.008 216.832 533.168C221.904 533.328 215.68 545.76 213.296 547.168C210.912 548.576 201.696 547.168 201.696 547.168C201.696 547.168 221.472 596.016 239.824 613.008C245.003 617.793 251.169 621.381 257.888 623.52C264.624 641.968 267.856 655.056 267.856 655.056L279.728 695.84L286.528 698.176L287.232 716.112Z" fill="black"/>
</g>
<path d="M144.256 455.152C139.984 457.6 128.912 481.2 135.376 528C141.84 574.8 161.152 666.08 164.4 680C167.648 693.92 178.992 727.6 178.992 727.6C178.992 727.6 183.328 713.008 204.176 720.816C204.354 720.879 204.546 720.893 204.731 720.858C204.917 720.823 205.09 720.739 205.232 720.616C205.375 720.493 205.483 720.334 205.545 720.155C205.607 719.977 205.62 719.785 205.584 719.6L201.008 695.776C201.008 695.776 200.688 678.352 199.184 673.984C193.536 657.536 190.72 593.984 188.848 585.104C186.976 576.224 190.656 550.72 190.656 550.72C190.656 550.72 216.752 613.12 217.6 619.296C218.448 625.472 234.352 650.944 234.352 650.944L237.104 674.384C237.104 674.384 258.272 710.672 262 721.504L287.232 716.048L286.528 698.112L279.728 695.776L267.856 654.992C264.102 640.858 259.491 626.966 254.048 613.392C248.432 599.2 232.512 544.272 232.512 544.272C227.568 538.896 222.912 509.168 222.912 509.168L215.264 471.68L144.256 455.152Z" stroke="#263238" stroke-linecap="round" stroke-linejoin="round"/>
<path d="M248 422.592C239.28 439.872 225.6 461.472 225.6 461.472L219.568 485.552C219.568 485.552 196.912 499.536 170.928 493.68C140.528 486.8 135.536 471.28 135.536 471.28L143.728 444.16C147.68 426.048 156.272 391.472 174.128 381.76C191.984 372.048 222.592 371.152 234.928 375.104C245.92 378.64 252 381.312 255.008 384.576C255.008 384.576 259.456 399.84 258.48 404.912C257.504 409.984 248 422.592 248 422.592Z" fill="#263238"/>
<path d="M212.752 737.888H177.12L177.904 740.608H212.72L212.752 737.888Z" fill="white" stroke="#263238" stroke-linecap="round" stroke-linejoin="round"/>
<path d="M201.312 727.344C201.312 727.344 189.632 723.488 183.984 728.32" stroke="#263238" stroke-linecap="round" stroke-linejoin="round"/>
<path d="M201.312 724.8C201.312 724.8 191.04 721.6 183.984 725.888" stroke="#263238" stroke-linecap="round" stroke-linejoin="round"/>
<path d="M200.72 722.272C200.72 722.272 191.12 718.624 183.984 723.616" stroke="#263238" stroke-linecap="round" stroke-linejoin="round"/>
<g opacity="0.96">
<path d="M199.184 524.672C197.792 524.992 170.896 534.8 165.584 544.608" stroke="#263238" stroke-linecap="round" stroke-linejoin="round"/>
<path d="M192.656 538.912C194 540.816 205.456 576.576 210.256 586.384C215.056 596.192 231.616 640.192 235.408 642.72C235.408 642.72 240.48 668.32 243.632 672.464C246.784 676.608 263.168 709.36 263.168 709.36" stroke="#263238" stroke-linecap="round" stroke-linejoin="round"/>
<path d="M281.584 709.36L261.728 713.616" stroke="#263238" stroke-linecap="round" stroke-linejoin="round"/>
<path d="M200.72 711.488C200.72 711.488 184.816 710.064 179.44 716.112" stroke="#263238" stroke-linecap="round" stroke-linejoin="round"/>
<path d="M182.4 543.024C181.072 550.624 161.136 592.72 156.384 587.968" stroke="#263238" stroke-linecap="round" stroke-linejoin="round"/>
<path d="M190.08 546.832C190.08 546.832 192.416 536.384 190.192 531.632C189.36 529.824 207.296 536.064 213.296 534.64" stroke="#263238" stroke-linecap="round" stroke-linejoin="round"/>
<path d="M192.656 495.104C192.656 495.104 189.456 504.096 188.752 506.944C188.048 509.792 194.464 520.88 192.656 523.088" stroke="#263238" stroke-linecap="round" stroke-linejoin="round"/>
<path d="M149.056 486.688C149.056 486.688 144.624 493.472 144.624 498.48C144.624 503.488 138.608 505.68 138.608 505.68" stroke="#263238" stroke-linecap="round" stroke-linejoin="round"/>
<path d="M139.616 479.28C136.288 494.196 135.946 509.623 138.608 524.672C143.04 549.68 150.32 600.624 153.168 613.6C156.016 626.576 162.672 655.696 162.672 659.808C162.672 663.92 169.344 687.344 169.344 687.344" stroke="#263238" stroke-linecap="round" stroke-linejoin="round"/>
<path d="M167.728 651.904C168.672 651.904 186.4 668.992 190.832 669.312" stroke="#263238" stroke-linecap="round" stroke-linejoin="round"/>
<path d="M245.264 641.456C246.224 641.776 261.088 649.056 261.728 646.832" stroke="#263238" stroke-linecap="round" stroke-linejoin="round"/>
</g>
<path d="M226.96 372.096C226.96 372.096 208.88 373.904 208.24 383.952C207.6 394 216.048 405.376 230.192 406.016C244.336 406.656 246.064 392.784 246.56 385.216C247.056 377.648 236.8 371.504 226.96 372.096Z" fill="#BFBFBF" stroke="#263238" stroke-linecap="round" stroke-linejoin="round"/>
<path d="M221.184 378.208C218.266 370.034 217.81 361.183 219.872 352.752C222.384 342.208 234.944 327.712 253.984 340.896C263.808 347.696 264.4 362.432 261.344 375.936C260.624 379.136 261.168 382.336 260.096 385.264C256.336 395.664 249.44 403.664 245.696 403.84C239.408 404.144 226.848 396.544 227.36 389.92" fill="#BFBFBF"/>
<path d="M221.184 378.208C218.266 370.034 217.81 361.183 219.872 352.752C222.384 342.208 234.944 327.712 253.984 340.896C263.808 347.696 264.4 362.432 261.344 375.936C260.624 379.136 261.168 382.336 260.096 385.264C256.336 395.664 249.44 403.664 245.696 403.84C239.408 404.144 226.848 396.544 227.36 389.92" stroke="#263238" stroke-linecap="round" stroke-linejoin="round"/>
<path d="M246.56 371.488C244.902 371.011 243.163 370.878 241.452 371.098C239.74 371.318 238.092 371.887 236.608 372.768" stroke="#263238" stroke-linecap="round" stroke-linejoin="round"/>
<path d="M256.144 371.2C256.144 371.2 259.984 369.28 262.544 369.776" stroke="#263238" stroke-linecap="round" stroke-linejoin="round"/>
<path d="M240.448 380.768C241.031 380.768 241.504 380.009 241.504 379.072C241.504 378.135 241.031 377.376 240.448 377.376C239.865 377.376 239.392 378.135 239.392 379.072C239.392 380.009 239.865 380.768 240.448 380.768Z" fill="#263238"/>
<path d="M256.144 379.824C256.727 379.824 257.2 379.065 257.2 378.128C257.2 377.191 256.727 376.432 256.144 376.432C255.561 376.432 255.088 377.191 255.088 378.128C255.088 379.065 255.561 379.824 256.144 379.824Z" fill="#263238"/>
<path d="M234.352 358.576L233.84 366.352C233.84 366.352 228.336 369.184 226.96 372.096C226.13 373.991 225.826 376.075 226.08 378.128C226.08 378.128 222.736 372.288 220.944 372.768C220.288 372.928 220.288 375.376 220.288 375.376C220.288 375.376 212.8 358.576 219.568 349.696C226.336 340.816 234.352 358.576 234.352 358.576Z" fill="#263238"/>
<path d="M223.728 376.432C223.728 376.432 222.224 370.8 217.152 369.296C212.08 367.792 215.552 381.312 219.872 383.104C224.192 384.896 225.28 386.112 225.536 384.512" fill="#BFBFBF"/>
<path d="M223.728 376.432C223.728 376.432 222.224 370.8 217.152 369.296C212.08 367.792 215.552 381.312 219.872 383.104C224.192 384.896 225.28 386.112 225.536 384.512" stroke="#263238" stroke-linecap="round" stroke-linejoin="round"/>
<path d="M252.448 379.072C252.218 380.96 252.629 382.87 253.616 384.496C253.954 384.979 254.13 385.556 254.118 386.145C254.107 386.734 253.91 387.304 253.554 387.773C253.198 388.243 252.703 388.587 252.139 388.757C251.575 388.928 250.972 388.914 250.416 388.72" stroke="#263238" stroke-linecap="round" stroke-linejoin="round"/>
<path d="M250.448 393.456C247.544 394.232 244.488 394.232 241.584 393.456" stroke="#263238" stroke-linecap="round" stroke-linejoin="round"/>
<path d="M234.352 358.576C234.352 358.576 247.28 361.696 255.152 360.656C263.024 359.616 267.952 356 266.752 347.728C265.552 339.456 256.208 335.632 240.864 333.008C225.776 330.432 209.968 341.728 217.152 355.52C224.336 369.312 234.352 358.576 234.352 358.576Z" fill="#263238"/>
<path d="M251.488 481.44C251.922 482.299 252.152 483.246 252.16 484.208C252.32 486.192 245.2 488.56 243.936 487.776C242.672 486.992 239.68 482.976 243.152 480.656C246.624 478.336 251.488 481.44 251.488 481.44Z" fill="#BFBFBF" stroke="#263238" stroke-linecap="round" stroke-linejoin="round"/>
<path d="M270.208 479.28C270.519 481.487 271.133 483.64 272.032 485.68C273.136 487.504 280.032 485.68 281.92 486.656C283.808 487.632 283.968 484.288 281.92 482.608C279.872 480.928 277.248 477.2 270.208 479.28Z" fill="#BFBFBF" stroke="#263238" stroke-linecap="round" stroke-linejoin="round"/>
<path d="M265.888 478.288H257.76V606.688H265.888V478.288Z" fill="#BFBFBF" stroke="#263238" stroke-linecap="round" stroke-linejoin="round"/>
<path d="M255.088 571.2H268.56C269.341 571.2 270.09 571.51 270.642 572.062C271.194 572.614 271.504 573.363 271.504 574.144V740.544H252.16V574.144C252.16 573.366 252.468 572.62 253.017 572.068C253.565 571.516 254.31 571.204 255.088 571.2Z" fill="#757575" stroke="#263238" stroke-linecap="round" stroke-linejoin="round"/>
<path d="M285.36 469.44H238.288C237.312 469.44 236.376 469.828 235.686 470.518C234.996 471.208 234.608 472.144 234.608 473.12V475.6C234.608 476.576 234.996 477.512 235.686 478.202C236.376 478.892 237.312 479.28 238.288 479.28H255.664V486.688H268V479.28H285.36C285.843 479.28 286.322 479.185 286.768 479C287.215 478.815 287.62 478.544 287.962 478.202C288.304 477.86 288.575 477.455 288.76 477.008C288.945 476.562 289.04 476.083 289.04 475.6V473.12C289.04 472.637 288.945 472.158 288.76 471.712C288.575 471.265 288.304 470.86 287.962 470.518C287.62 470.176 287.215 469.905 286.768 469.72C286.322 469.535 285.843 469.44 285.36 469.44Z" fill="#08A202" stroke="#263238" stroke-linecap="round" stroke-linejoin="round"/>
<path d="M218.608 465.408C218.608 465.408 243.552 462.032 246.016 461.616C248.48 461.2 256.144 474.272 256.144 474.272L250.448 483.04C250.448 483.04 228.688 486.08 227.392 484.816C226.551 483.838 225.939 482.684 225.6 481.44C225.6 481.44 214.4 485.664 213.36 478.064C212.32 470.464 211.52 469.344 218.608 465.408Z" fill="#BFBFBF" stroke="#263238" stroke-linecap="round" stroke-linejoin="round"/>
<path d="M269.36 469.44C269.36 469.44 273.168 462.672 276.96 462.672C280.752 462.672 295.312 465.2 297.008 467.312C298.704 469.424 302.704 472.8 302.064 475.536C301.424 478.272 297.424 484 293.632 483.04C289.84 482.08 280.128 483.152 280.128 483.152C280.128 483.152 274.848 482.176 274.432 479.28L278.864 478.064C278.864 478.064 279.488 471.952 278.64 471.104C277.792 470.256 269.36 469.44 269.36 469.44Z" fill="#BFBFBF" stroke="#263238" stroke-linecap="round" stroke-linejoin="round"/>
<path d="M282.96 482.896C282.96 482.896 287.584 477.856 287.232 475.952C286.88 474.048 286.192 468.144 285.056 467.52" stroke="#263238" stroke-linecap="round" stroke-linejoin="round"/>
<path d="M289.36 482.64C289.36 482.64 292.784 481.232 292.784 478.064C292.693 475.517 292.405 472.982 291.92 470.48" stroke="#263238" stroke-linecap="round" stroke-linejoin="round"/>
<path d="M295.488 483.008C296.662 481.737 297.433 480.147 297.703 478.438C297.974 476.73 297.732 474.979 297.008 473.408" stroke="#263238" stroke-linecap="round" stroke-linejoin="round"/>
<path d="M246.4 483.2C246.4 483.2 250.368 477.872 249.728 475.2C248.85 472.546 247.736 469.976 246.4 467.52" stroke="#263238" stroke-linecap="round" stroke-linejoin="round"/>
<path d="M241.104 484.208C241.104 484.208 243.312 477.808 243.152 476.56C242.992 475.312 239.952 469.104 239.824 468.464" stroke="#263238" stroke-linecap="round" stroke-linejoin="round"/>
<path d="M234.608 484.8C236.032 482.48 239.408 481.6 236.816 476.496C234.224 471.392 233.024 470.416 233.024 470.416" stroke="#263238" stroke-linecap="round" stroke-linejoin="round"/>
<path d="M225.6 481.44C226.752 480.336 228.976 477.664 228.976 477.664C228.976 477.664 229.44 479.856 230.4 480.496" stroke="#263238" stroke-linecap="round" stroke-linejoin="round"/>
<path d="M236.48 737.2H288C288.692 737.2 289.355 737.475 289.844 737.964C290.333 738.453 290.608 739.116 290.608 739.808V741.264H234.496V739.2C234.494 738.938 234.544 738.678 234.642 738.436C234.741 738.193 234.887 737.973 235.071 737.787C235.256 737.601 235.475 737.453 235.717 737.352C235.959 737.252 236.218 737.2 236.48 737.2Z" fill="#263238"/>
<path d="M158.64 407.472C152.24 423.328 144.8 441.872 143.728 459.12C143.328 465.52 149.488 467.776 154.688 470.128C164.9 474.707 175.605 478.095 186.592 480.224C190.448 480.976 194.592 480.944 198.272 481.824C202.448 482.864 208.32 486.528 212.672 484.16" stroke="white" stroke-linecap="round" stroke-linejoin="round"/>
<path d="M188.688 416L180.32 434L174.944 444.8C176.948 446.824 179.541 448.163 182.352 448.624C183.645 448.801 184.884 449.252 185.988 449.948C187.092 450.643 188.034 451.567 188.752 452.656C188.752 452.656 209.824 461.76 212.672 461.664C215.52 461.568 217.824 458.832 220.16 462.736" stroke="white" stroke-linecap="round" stroke-linejoin="round"/>
<path d="M174.944 444.8C174.944 444.8 163.552 440.992 159.44 444.8" stroke="white" stroke-linecap="round" stroke-linejoin="round"/>
<path d="M176.848 388.8C177.792 388.048 189.376 400.704 190.08 410.208" stroke="white" stroke-linecap="round" stroke-linejoin="round"/>
<path d="M192.976 416C192.976 416 189.872 422.4 184.784 424.4" stroke="white" stroke-linecap="round" stroke-linejoin="round"/>
<path d="M257.216 417.2C257.216 417.2 250.816 428.176 244.192 430" stroke="white" stroke-linecap="round" stroke-linejoin="round"/>
<path d="M258.736 455.152C258.736 455.152 267.68 448.272 273.68 448.56" stroke="white" stroke-linecap="round" stroke-linejoin="round"/>
<path d="M256.144 427.2C256.144 427.2 250.592 431.744 246.464 430.048" stroke="white" stroke-linecap="round" stroke-linejoin="round"/>
<path d="M266.016 729.392C310.96 729.392 303.696 740.592 349.52 740.592C395.344 740.592 423.12 741.264 423.12 501.264" stroke="#263238" stroke-width="3" stroke-linecap="round" stroke-linejoin="round"/>
</svg>
