<?xml version="1.0" encoding="utf-8"?>
<!-- Generator: Adobe Illustrator 26.1.0, SVG Export Plug-In . SVG Version: 6.00 Build 0)  -->
<svg version="1.1" id="Слой_1" xmlns="http://www.w3.org/2000/svg" xmlns:xlink="http://www.w3.org/1999/xlink" x="0px" y="0px"
	 viewBox="0 0 507.1 411.1" style="enable-background:new 0 0 507.1 411.1;" xml:space="preserve">
<style type="text/css">
	.st0{fill:#533A5F;}
	.st1{opacity:0.6;fill:#FFFFFF;enable-background:new    ;}
	.st2{fill:#FFFFFF;stroke:#1E201F;stroke-miterlimit:10;}
	.st3{fill:#1E201F;stroke:#1E201F;stroke-linecap:round;stroke-linejoin:round;}
	.st4{fill:none;stroke:#FFFFFF;stroke-linecap:round;stroke-linejoin:round;}
	.st5{fill:#FFFFFF;}
	.st6{opacity:0.3;enable-background:new    ;}
	.st7{fill:none;stroke:#1E201F;stroke-linecap:round;stroke-linejoin:round;}
	.st8{fill:none;stroke:#1E201F;stroke-linecap:round;stroke-linejoin:round;stroke-dasharray:2,5;}
	.st9{fill:#1E201F;}
	.st10{fill:none;stroke:#1E201F;stroke-width:2;stroke-linecap:round;stroke-linejoin:round;}
	.st11{fill:none;stroke:#1E201F;stroke-linecap:round;stroke-miterlimit:10;}
	.st12{fill:none;stroke:#FFFFFF;stroke-width:0.5;stroke-linecap:round;stroke-linejoin:round;}
	.st13{fill:#FFFFFF;stroke:#1E201F;stroke-linecap:round;stroke-linejoin:round;}
	.st14{fill:#F7F7F7;}
</style>
<path class="st0" d="M148.9,62.5l-41.7-5.8L103.4,84l41.3,6.9L148.9,62.5z M146.5,63.2L126,73.1l-16.7-15L146.5,63.2z M104.6,83
	l3.5-24.7l17.8,16l21.8-10.5l-3.9,25.7L104.6,83z"/>
<path class="st1" d="M148.9,62.5l-41.7-5.8L103.4,84l41.3,6.9L148.9,62.5z M146.5,63.2L126,73.1l-16.7-15L146.5,63.2z M104.6,83
	l3.5-24.7l17.8,16l21.8-10.5l-3.9,25.7L104.6,83z"/>
<path class="st0" d="M354,36.6l-34.3,30.1l44.2,53.3l0.4,0.4l36.1-30.9L354,36.6z M397.9,88.5l-38.4-10.4l-4.9-39L397.9,88.5z
	 M321.1,66.8l32.4-28.3l5.1,40.4l39.8,10.8l-34.1,29.1L321.1,66.8z"/>
<path class="st1" d="M354,36.6l-34.3,30.1l44.2,53.3l0.4,0.4l36.1-30.9L354,36.6z M397.9,88.5l-38.4-10.4l-4.9-39L397.9,88.5z
	 M321.1,66.8l32.4-28.3l5.1,40.4l39.8,10.8l-34.1,29.1L321.1,66.8z"/>
<path class="st0" d="M49,192.1c-0.1,0-0.3-0.1-0.4-0.2c-0.1-0.1-0.2-0.2-0.2-0.4c0-0.7,0-1.5,0-2.2c0-0.2,0.1-0.3,0.2-0.4
	c0.1-0.1,0.2-0.2,0.4-0.2c0.1,0,0.3,0.1,0.4,0.2c0.1,0.1,0.2,0.2,0.2,0.4c0,0.7,0,1.5,0,2.2c0,0.1,0,0.2,0,0.2s-0.1,0.1-0.1,0.2
	s-0.1,0.1-0.2,0.1C49.1,192.1,49,192.1,49,192.1z M49.2,184.4c-0.1,0-0.1,0-0.2,0c-0.1,0-0.1-0.1-0.2-0.1c0-0.1-0.1-0.1-0.1-0.2
	c0-0.1,0-0.1,0-0.2l0.1-2.2c0-0.1,0.1-0.3,0.2-0.4c0.1-0.1,0.2-0.1,0.4-0.1c0.1,0,0.1,0,0.2,0.1c0.1,0,0.1,0.1,0.2,0.1
	c0,0.1,0.1,0.1,0.1,0.2c0,0.1,0,0.1,0,0.2c0,0.7-0.1,1.5-0.1,2.2c0,0.1-0.1,0.3-0.2,0.4S49.3,184.4,49.2,184.4z M49.6,176.8
	c-0.1,0-0.3-0.1-0.4-0.2c-0.1-0.1-0.1-0.2-0.1-0.4l0.2-2.2c0-0.1,0-0.1,0.1-0.2c0-0.1,0.1-0.1,0.1-0.2c0.1,0,0.1-0.1,0.2-0.1
	c0.1,0,0.1,0,0.2,0c0.1,0,0.3,0.1,0.4,0.2c0.1,0.1,0.1,0.3,0.1,0.4c0,0.7-0.1,1.4-0.2,2.2c0,0.1-0.1,0.3-0.2,0.4
	C49.9,176.8,49.8,176.8,49.6,176.8z M50.2,169.2c-0.1,0-0.3-0.1-0.4-0.2s-0.1-0.3-0.1-0.4c0.1-0.7,0.1-1.4,0.2-2.2
	c0-0.1,0-0.1,0.1-0.2c0-0.1,0.1-0.1,0.1-0.2c0.1,0,0.1-0.1,0.2-0.1c0.1,0,0.1,0,0.2,0c0.1,0,0.1,0,0.2,0.1c0.1,0,0.1,0.1,0.2,0.1
	c0,0.1,0.1,0.1,0.1,0.2c0,0.1,0,0.1,0,0.2c-0.1,0.7-0.1,1.4-0.2,2.2c0,0.1,0,0.1-0.1,0.2c0,0.1-0.1,0.1-0.1,0.2s-0.1,0.1-0.2,0.1
	C50.4,169.2,50.3,169.2,50.2,169.2z M51.1,161.6L51.1,161.6c-0.2,0-0.3-0.1-0.4-0.2s-0.1-0.3-0.1-0.4c0.1-0.7,0.2-1.4,0.3-2.2
	c0-0.1,0.1-0.3,0.2-0.4c0.1-0.1,0.3-0.1,0.4-0.1c0.1,0,0.3,0.1,0.4,0.2c0.1,0.1,0.1,0.3,0.1,0.4c-0.1,0.7-0.2,1.4-0.3,2.2
	c0,0.1-0.1,0.3-0.2,0.3C51.4,161.6,51.2,161.6,51.1,161.6z M52.2,154L52.2,154c-0.2,0-0.2,0-0.3-0.1c-0.1,0-0.1-0.1-0.2-0.1
	c0-0.1-0.1-0.1-0.1-0.2s0-0.1,0-0.2c0.1-0.7,0.2-1.4,0.3-2.2c0-0.1,0-0.1,0.1-0.2c0-0.1,0.1-0.1,0.2-0.2c0.1,0,0.1-0.1,0.2-0.1
	c0.1,0,0.1,0,0.2,0c0.1,0,0.1,0,0.2,0.1c0.1,0,0.1,0.1,0.2,0.2c0,0.1,0.1,0.1,0.1,0.2c0,0.1,0,0.1,0,0.2c-0.1,0.7-0.2,1.4-0.3,2.1
	c0,0.1,0,0.1-0.1,0.2c0,0.1-0.1,0.1-0.1,0.2c-0.1,0-0.1,0.1-0.2,0.1S52.3,154.1,52.2,154L52.2,154z M53.5,146.5h-0.1
	c-0.1,0-0.3-0.1-0.3-0.2c-0.1-0.1-0.1-0.3-0.1-0.4c0.1-0.7,0.3-1.4,0.4-2.1c0-0.1,0-0.1,0.1-0.2c0-0.1,0.1-0.1,0.2-0.2
	c0.1,0,0.1-0.1,0.2-0.1c0.1,0,0.1,0,0.2,0c0.1,0,0.1,0,0.2,0.1c0.1,0,0.1,0.1,0.2,0.2c0,0.1,0.1,0.1,0.1,0.2c0,0.1,0,0.1,0,0.2
	c-0.1,0.7-0.3,1.4-0.4,2.1c0,0.1-0.1,0.2-0.2,0.3C53.8,146.5,53.6,146.5,53.5,146.5L53.5,146.5z M55.1,139H55c-0.1,0-0.1,0-0.2-0.1
	c-0.1,0-0.1-0.1-0.1-0.2s-0.1-0.1-0.1-0.2c0-0.1,0-0.1,0-0.2c0.2-0.7,0.3-1.4,0.5-2.1c0-0.1,0-0.1,0.1-0.2s0.1-0.1,0.2-0.1
	c0.1,0,0.1-0.1,0.2-0.1c0.1,0,0.1,0,0.2,0c0.1,0,0.1,0,0.2,0.1c0.1,0,0.1,0.1,0.1,0.2c0,0.1,0.1,0.1,0.1,0.2c0,0.1,0,0.1,0,0.2
	c-0.2,0.7-0.3,1.4-0.5,2.1c0,0.1-0.1,0.2-0.2,0.3C55.3,139,55.2,139,55.1,139z M56.9,131.6h-0.1c-0.1,0-0.1,0-0.2-0.1
	s-0.1-0.1-0.1-0.2c0-0.1-0.1-0.1-0.1-0.2c0-0.1,0-0.1,0-0.2c0.2-0.7,0.4-1.4,0.6-2.1c0.1-0.1,0.1-0.2,0.3-0.3c0.1-0.1,0.3-0.1,0.4,0
	c0.1,0,0.2,0.1,0.3,0.2s0.1,0.2,0.1,0.4c-0.2,0.7-0.4,1.4-0.6,2.1c0,0.1-0.1,0.2-0.2,0.3C57.1,131.6,57,131.6,56.9,131.6L56.9,131.6
	z M59,124.2c-0.1,0-0.1,0-0.2,0c-0.1,0-0.1-0.1-0.2-0.1c-0.1,0-0.1-0.1-0.1-0.2c0-0.1-0.1-0.1-0.1-0.2c0-0.1,0-0.1,0-0.2l0.6-2.1
	c0-0.1,0.1-0.1,0.1-0.2c0-0.1,0.1-0.1,0.2-0.1c0.1,0,0.1-0.1,0.2-0.1c0.1,0,0.1,0,0.2,0c0.1,0,0.1,0.1,0.2,0.1
	c0.1,0,0.1,0.1,0.1,0.2c0,0.1,0.1,0.1,0.1,0.2c0,0.1,0,0.1,0,0.2c-0.2,0.7-0.4,1.4-0.6,2.1c0,0.1-0.1,0.2-0.2,0.3
	C59.1,124.2,59,124.3,59,124.2L59,124.2z M61.2,117H61c-0.1-0.1-0.2-0.2-0.3-0.3c-0.1-0.1-0.1-0.3,0-0.4c0.2-0.7,0.5-1.4,0.7-2.1
	c0-0.1,0.1-0.1,0.1-0.2c0-0.1,0.1-0.1,0.2-0.1c0.1,0,0.1,0,0.2-0.1c0.1,0,0.1,0,0.2,0c0.1,0,0.2,0.1,0.3,0.3c0.1,0.1,0.1,0.3,0,0.4
	l-0.7,2.1c0,0.1-0.1,0.2-0.2,0.3C61.4,117,61.3,117,61.2,117z M63.8,109.8h-0.2c-0.1-0.1-0.2-0.2-0.3-0.3c-0.1-0.1-0.1-0.3,0-0.4
	c0.3-0.7,0.5-1.4,0.8-2c0.1-0.1,0.2-0.2,0.3-0.3c0.1,0,0.3,0,0.4,0c0.1,0,0.2,0.1,0.3,0.3c0.1,0.1,0.1,0.3,0,0.4
	c-0.3,0.7-0.5,1.4-0.8,2c0,0.1-0.1,0.2-0.2,0.2C64,109.8,63.9,109.8,63.8,109.8z M66.7,102.7c-0.1,0-0.1,0-0.2,0
	c-0.1-0.1-0.2-0.2-0.3-0.3c-0.1-0.1-0.1-0.3,0-0.4l0.9-2c0.1-0.1,0.2-0.2,0.3-0.3c0.1-0.1,0.3,0,0.4,0c0.1,0.1,0.2,0.2,0.3,0.3
	c0.1,0.1,0,0.3,0,0.4l-0.9,2c0,0.1-0.1,0.2-0.2,0.2C66.9,102.7,66.8,102.7,66.7,102.7z M69.8,95.8c-0.1,0-0.2,0-0.3-0.1
	c-0.1,0-0.1-0.1-0.2-0.2s-0.1-0.2-0.1-0.3c0-0.1,0-0.2,0.1-0.3c0.3-0.7,0.6-1.3,1-2c0-0.1,0.1-0.1,0.1-0.2s0.1-0.1,0.2-0.1
	c0.1,0,0.1,0,0.2,0c0.1,0,0.1,0,0.2,0.1c0.1,0.1,0.2,0.2,0.3,0.3c0,0.1,0,0.3,0,0.4l-0.9,2c0,0.1-0.1,0.2-0.2,0.2
	C70,95.7,69.9,95.8,69.8,95.8L69.8,95.8z M73.3,89c-0.1,0-0.2,0-0.3-0.1c-0.1,0-0.1-0.1-0.2-0.1c0-0.1-0.1-0.1-0.1-0.2
	c0-0.1,0-0.1,0-0.2c0-0.1,0-0.1,0.1-0.2c0.3-0.6,0.7-1.3,1-1.9c0.1-0.1,0.2-0.2,0.3-0.2c0.1,0,0.3,0,0.4,0.1
	c0.1,0.1,0.2,0.2,0.3,0.3c0,0.1,0,0.3,0,0.4l-1,1.9c0,0.1-0.1,0.2-0.2,0.2C73.5,88.9,73.4,88.9,73.3,89L73.3,89z M77,82.3
	c-0.1,0-0.2,0-0.3-0.1c-0.1-0.1-0.2-0.2-0.2-0.3c0-0.1,0-0.3,0.1-0.4c0.4-0.6,0.8-1.3,1.1-1.9c0-0.1,0.1-0.1,0.1-0.2
	c0.1,0,0.1-0.1,0.2-0.1c0.1,0,0.1,0,0.2,0c0.1,0,0.1,0,0.2,0.1c0.1,0.1,0.2,0.2,0.2,0.3c0,0.1,0,0.3-0.1,0.4
	c-0.4,0.6-0.8,1.2-1.1,1.9c-0.1,0.1-0.1,0.1-0.2,0.2C77.2,82.2,77.1,82.3,77,82.3L77,82.3z M81,75.8c-0.1,0-0.2,0-0.3-0.1
	c-0.1,0-0.1-0.1-0.1-0.2c0-0.1-0.1-0.1-0.1-0.2c0-0.1,0-0.1,0-0.2c0-0.1,0-0.1,0.1-0.2c0.4-0.6,0.8-1.2,1.2-1.8
	c0.1-0.1,0.2-0.2,0.4-0.2c0.1,0,0.3,0,0.4,0.1c0.1,0,0.1,0.1,0.2,0.2c0,0.1,0.1,0.1,0.1,0.2c0,0.1,0,0.1,0,0.2c0,0.1,0,0.1-0.1,0.2
	c-0.4,0.6-0.8,1.2-1.2,1.8c0,0.1-0.1,0.1-0.2,0.2C81.2,75.8,81.1,75.8,81,75.8z M85.4,69.5c-0.1,0-0.2,0-0.3-0.1
	c-0.1-0.1-0.2-0.2-0.2-0.4c0-0.1,0-0.3,0.1-0.4l1.3-1.8c0.1-0.1,0.2-0.2,0.4-0.2c0.1,0,0.3,0,0.4,0.1c0.1,0.1,0.2,0.2,0.2,0.4
	c0,0.1,0,0.3-0.1,0.4l-1.3,1.8c0,0.1-0.1,0.1-0.2,0.2S85.5,69.5,85.4,69.5L85.4,69.5z M90.1,63.4c-0.1,0-0.2,0-0.3-0.1
	c-0.1-0.1-0.2-0.2-0.2-0.4c0-0.1,0-0.3,0.1-0.4l1.4-1.7c0.1-0.1,0.2-0.2,0.4-0.2c0.1,0,0.3,0,0.4,0.1S92,61,92,61.1
	c0,0.1,0,0.3-0.1,0.4l-1.4,1.7c-0.1,0.1-0.1,0.1-0.2,0.1C90.2,63.4,90.1,63.4,90.1,63.4z M95,57.6c-0.1,0-0.3-0.1-0.4-0.1
	c-0.1-0.1-0.1-0.1-0.1-0.2c0-0.1,0-0.1,0-0.2c0-0.1,0-0.1,0-0.2c0-0.1,0.1-0.1,0.1-0.2c0.5-0.5,1-1.1,1.5-1.6c0-0.1,0.1-0.1,0.2-0.1
	c0.1,0,0.1,0,0.2,0s0.1,0,0.2,0c0.1,0,0.1,0.1,0.2,0.1c0.1,0.1,0.2,0.2,0.2,0.4c0,0.1-0.1,0.3-0.2,0.4c-0.5,0.5-1,1.1-1.4,1.6
	c-0.1,0.1-0.1,0.1-0.2,0.1C95.1,57.6,95.1,57.6,95,57.6L95,57.6z M333.9,55.8c-0.1,0-0.1,0-0.2,0l-2-0.8c-0.1,0-0.1-0.1-0.2-0.1
	c0-0.1-0.1-0.1-0.1-0.2c0-0.1,0-0.1,0-0.2c0-0.1,0-0.1,0-0.2c0-0.1,0.1-0.1,0.1-0.2c0.1-0.1,0.1-0.1,0.2-0.1c0.1,0,0.1,0,0.2,0
	c0.1,0,0.1,0,0.2,0l2,0.8c0.1,0.1,0.2,0.2,0.3,0.3c0.1,0.1,0.1,0.3,0,0.4c0,0.1-0.1,0.2-0.2,0.2C334.1,55.8,333.9,55.8,333.9,55.8
	L333.9,55.8z M326.8,52.8c-0.1,0-0.1,0-0.2,0l-2-0.9c-0.1-0.1-0.2-0.2-0.3-0.3c-0.1-0.1-0.1-0.3,0-0.4c0-0.1,0.1-0.1,0.1-0.2
	c0.1-0.1,0.1-0.1,0.2-0.1c0.1,0,0.1,0,0.2,0s0.1,0,0.2,0l2,0.9c0.1,0,0.1,0.1,0.2,0.1c0.1,0.1,0.1,0.1,0.1,0.2c0,0.1,0,0.1,0,0.2
	c0,0.1,0,0.1,0,0.2c0,0.1-0.1,0.2-0.2,0.3C327,52.8,326.9,52.8,326.8,52.8L326.8,52.8z M100.2,51.9c-0.1,0-0.1,0-0.2,0
	c-0.1,0-0.1-0.1-0.2-0.1c-0.1-0.1-0.2-0.2-0.2-0.4s0.1-0.3,0.2-0.4l1.5-1.5c0.1-0.1,0.2-0.1,0.4-0.1c0.1,0,0.3,0.1,0.4,0.2
	c0.1,0.1,0.2,0.2,0.2,0.4c0,0.1,0,0.3-0.1,0.4c-0.5,0.5-1,1-1.5,1.5C100.5,51.9,100.4,51.9,100.2,51.9z M319.8,49.8
	c-0.1,0-0.1,0-0.2,0l-2-0.9c-0.1,0-0.1-0.1-0.2-0.1c-0.1-0.1-0.1-0.1-0.1-0.2c0-0.1,0-0.1,0-0.2c0-0.1,0-0.1,0-0.2
	c0.1-0.1,0.2-0.2,0.3-0.3c0.1-0.1,0.3,0,0.4,0l2,0.9c0.1,0.1,0.2,0.1,0.3,0.3c0.1,0.1,0.1,0.2,0,0.4s-0.1,0.2-0.2,0.3
	C320.1,49.8,320,49.8,319.8,49.8L319.8,49.8z M312.9,46.7c-0.1,0-0.2,0-0.2-0.1l-2-0.9c-0.1-0.1-0.2-0.2-0.3-0.3c0-0.1,0-0.3,0-0.4
	c0-0.1,0.1-0.1,0.1-0.2c0.1,0,0.1-0.1,0.2-0.1s0.1,0,0.2,0c0.1,0,0.1,0,0.2,0l2,0.9c0.1,0.1,0.2,0.2,0.3,0.3c0.1,0.1,0,0.3,0,0.4
	c0,0.1-0.1,0.2-0.2,0.3C313,46.7,312.9,46.7,312.9,46.7L312.9,46.7z M105.6,46.6c-0.1,0-0.2,0-0.2,0c-0.1,0-0.1-0.1-0.2-0.1
	c-0.1-0.1-0.2-0.2-0.2-0.4s0.1-0.3,0.2-0.4l1.6-1.5c0.1-0.1,0.1-0.1,0.2-0.1c0.1,0,0.1,0,0.2,0s0.1,0,0.2,0c0.1,0,0.1,0.1,0.2,0.1
	c0.1,0.1,0.2,0.2,0.2,0.4c0,0.1-0.1,0.3-0.2,0.4l-1.6,1.5c0,0.1-0.1,0.1-0.2,0.1C105.8,46.6,105.7,46.6,105.6,46.6z M305.9,43.5
	c-0.1,0-0.2,0-0.2,0l-2-0.9c-0.1-0.1-0.2-0.2-0.3-0.3c-0.1-0.1,0-0.3,0-0.4c0.1-0.1,0.2-0.2,0.3-0.3c0.1-0.1,0.3,0,0.4,0l2,0.9
	c0.1,0.1,0.2,0.1,0.3,0.3c0.1,0.1,0.1,0.2,0,0.4c0,0.1-0.1,0.2-0.2,0.3C306.1,43.6,306,43.6,305.9,43.5L305.9,43.5z M111.3,41.6
	c-0.1,0-0.2,0-0.3-0.1c-0.1-0.1-0.2-0.2-0.2-0.3c0-0.1,0-0.2,0-0.3c0-0.1,0.1-0.2,0.2-0.3l1.6-1.4c0.1-0.1,0.3-0.1,0.4-0.1
	c0.1,0,0.3,0.1,0.4,0.2c0,0.1,0.1,0.1,0.1,0.2c0,0.1,0,0.1,0,0.2c0,0.1,0,0.1-0.1,0.2c0,0.1-0.1,0.1-0.1,0.2l-1.7,1.4
	C111.6,41.5,111.4,41.6,111.3,41.6z M298.9,40.4c-0.1,0-0.2,0-0.2,0l-2-0.9c-0.1-0.1-0.2-0.2-0.3-0.3c-0.1-0.1,0-0.3,0-0.4
	c0-0.1,0.1-0.1,0.1-0.2c0.1,0,0.1-0.1,0.2-0.1c0.1,0,0.1,0,0.2,0c0.1,0,0.1,0,0.2,0.1l2,0.9c0.1,0,0.1,0.1,0.2,0.1
	c0,0.1,0.1,0.1,0.1,0.2c0,0.1,0,0.1,0,0.2c0,0.1,0,0.1-0.1,0.2c0,0.1-0.1,0.2-0.2,0.2C299.1,40.3,299,40.4,298.9,40.4z M292,37.2
	c-0.1,0-0.2,0-0.2,0l-2-1c-0.1-0.1-0.2-0.2-0.3-0.3c-0.1-0.1,0-0.3,0-0.4c0-0.1,0.1-0.1,0.1-0.2c0.1-0.1,0.1-0.1,0.2-0.1
	c0.1,0,0.1,0,0.2,0s0.1,0,0.2,0l2,0.9c0.1,0,0.1,0.1,0.2,0.1c0,0.1,0.1,0.1,0.1,0.2c0,0.1,0,0.1,0,0.2c0,0.1,0,0.1-0.1,0.2
	c0,0.1-0.1,0.2-0.2,0.2C292.2,37.1,292.1,37.2,292,37.2z M117.3,36.8c-0.1,0-0.2,0-0.2-0.1s-0.1-0.1-0.2-0.2c0-0.1-0.1-0.1-0.1-0.2
	c0-0.1,0-0.1,0-0.2c0-0.1,0-0.1,0.1-0.2c0-0.1,0.1-0.1,0.1-0.2l1.7-1.3c0.1,0,0.1-0.1,0.2-0.1c0.1,0,0.1,0,0.2,0
	c0.1,0,0.1,0,0.2,0.1c0.1,0,0.1,0.1,0.2,0.1c0,0.1,0.1,0.1,0.1,0.2s0,0.1,0,0.2c0,0.1,0,0.1-0.1,0.2c0,0.1-0.1,0.1-0.1,0.2l-1.7,1.3
	C117.5,36.7,117.4,36.8,117.3,36.8z M285,34c-0.1,0-0.2,0-0.2,0l-2-0.9c-0.1,0-0.1-0.1-0.2-0.1c-0.1-0.1-0.1-0.1-0.1-0.2
	c0-0.1,0-0.1,0-0.2c0-0.1,0-0.1,0-0.2c0.1-0.1,0.2-0.2,0.3-0.3c0.1-0.1,0.3,0,0.4,0l2,0.9c0.1,0,0.1,0.1,0.2,0.1
	c0,0.1,0.1,0.1,0.1,0.2s0,0.1,0,0.2c0,0.1,0,0.1,0,0.2c0,0.1-0.1,0.2-0.2,0.2C285.2,34,285.1,34,285,34z M123.5,32.3
	c-0.1,0-0.2,0-0.2-0.1c-0.1,0-0.1-0.1-0.2-0.2c0-0.1-0.1-0.1-0.1-0.2c0-0.1,0-0.1,0-0.2c0-0.1,0-0.1,0.1-0.2c0-0.1,0.1-0.1,0.2-0.2
	c0.6-0.4,1.2-0.8,1.8-1.2c0.1,0,0.1-0.1,0.2-0.1c0.1,0,0.1,0,0.2,0c0.1,0,0.1,0,0.2,0.1c0.1,0,0.1,0.1,0.1,0.2
	c0,0.1,0.1,0.1,0.1,0.2c0,0.1,0,0.1,0,0.2c0,0.1,0,0.1-0.1,0.2c0,0.1-0.1,0.1-0.2,0.1l-1.8,1.2C123.7,32.3,123.6,32.3,123.5,32.3z
	 M278,30.9c-0.1,0-0.1,0-0.2,0l-2-0.9c-0.1-0.1-0.2-0.2-0.3-0.3c-0.1-0.1-0.1-0.3,0-0.4c0.1-0.1,0.2-0.2,0.3-0.3
	c0.1-0.1,0.3-0.1,0.4,0l2,0.9c0.1,0,0.1,0.1,0.2,0.1c0.1,0.1,0.1,0.1,0.1,0.2c0,0.1,0,0.1,0,0.2c0,0.1,0,0.1,0,0.2
	c0,0.1-0.1,0.2-0.2,0.2C278.2,30.9,278.1,30.9,278,30.9L278,30.9z M129.9,28.2c-0.1,0-0.2,0-0.3-0.1c-0.1,0-0.1-0.1-0.2-0.2
	c-0.1-0.1-0.1-0.3-0.1-0.4s0.1-0.3,0.2-0.3l1.9-1.1c0.1,0,0.1-0.1,0.2-0.1c0.1,0,0.1,0,0.2,0c0.1,0,0.1,0,0.2,0.1
	c0.1,0,0.1,0.1,0.1,0.2c0,0.1,0.1,0.1,0.1,0.2c0,0.1,0,0.1,0,0.2c0,0.1,0,0.1-0.1,0.2S132.1,27,132,27c-0.6,0.4-1.2,0.7-1.9,1.1
	C130.1,28.2,130,28.2,129.9,28.2z M271,28c-0.1,0-0.1,0-0.2,0l-2-0.9c-0.1,0-0.1-0.1-0.2-0.1c-0.1-0.1-0.1-0.1-0.1-0.2
	c0-0.1,0-0.1,0-0.2c0-0.1,0-0.1,0-0.2c0-0.1,0.1-0.1,0.1-0.2c0-0.1,0.1-0.1,0.2-0.1c0.1,0,0.1,0,0.2,0c0.1,0,0.1,0,0.2,0l2,0.8
	c0.1,0,0.2,0.1,0.3,0.2c0.1,0.1,0.1,0.2,0.1,0.4c0,0.1-0.1,0.2-0.2,0.3C271.3,27.9,271.1,28,271,28L271,28z M263.9,25.1
	c-0.1,0-0.1,0-0.2,0l-2-0.8c-0.1,0-0.1-0.1-0.2-0.1c-0.1,0-0.1-0.1-0.1-0.2c0-0.1,0-0.1,0-0.2c0-0.1,0-0.1,0-0.2
	c0-0.1,0.1-0.1,0.1-0.2c0.1-0.1,0.1-0.1,0.2-0.1c0.1,0,0.1,0,0.2,0c0.1,0,0.1,0,0.2,0l2,0.8c0.1,0,0.1,0.1,0.2,0.1s0.1,0.1,0.1,0.2
	c0,0.1,0,0.1,0,0.2c0,0.1,0,0.1,0,0.2c-0.1,0.1-0.1,0.2-0.2,0.2C264.1,25.1,264,25.1,263.9,25.1L263.9,25.1z M136.5,24.4
	c-0.1,0-0.2,0-0.3-0.1S136,24.2,136,24c0-0.1,0-0.2,0-0.4c0.1-0.1,0.1-0.2,0.3-0.3c0.6-0.4,1.3-0.7,1.9-1c0.1-0.1,0.3-0.1,0.4,0
	c0.1,0,0.3,0.1,0.3,0.3c0.1,0.1,0.1,0.3,0,0.4c0,0.1-0.1,0.3-0.3,0.3l-1.9,1C136.7,24.4,136.6,24.4,136.5,24.4L136.5,24.4z
	 M256.8,22.4c-0.1,0-0.1,0-0.2,0l-2.1-0.7c-0.1,0-0.1-0.1-0.2-0.1c-0.1,0-0.1-0.1-0.1-0.2c0-0.1,0-0.1-0.1-0.2c0-0.1,0-0.1,0-0.2
	c0-0.1,0.1-0.1,0.1-0.2s0.1-0.1,0.2-0.1c0.1,0,0.1,0,0.2-0.1c0.1,0,0.1,0,0.2,0l2.1,0.7c0.1,0.1,0.2,0.2,0.3,0.3s0.1,0.3,0,0.4
	c0,0.1-0.1,0.2-0.2,0.2C257,22.4,256.9,22.4,256.8,22.4z M143.3,21c-0.1,0-0.2,0-0.3-0.1c-0.1-0.1-0.2-0.2-0.2-0.3
	c0-0.1,0-0.2,0-0.4c0.1-0.1,0.1-0.2,0.3-0.3l2-0.9c0.1,0,0.1,0,0.2,0c0.1,0,0.1,0,0.2,0c0.1,0,0.1,0.1,0.2,0.1
	c0.1,0,0.1,0.1,0.1,0.2c0,0.1,0,0.1,0.1,0.2c0,0.1,0,0.1,0,0.2c0,0.1-0.1,0.1-0.1,0.2c0,0.1-0.1,0.1-0.2,0.1l-2,0.9
	C143.5,21,143.4,21,143.3,21z M249.6,19.9c-0.1,0-0.1,0-0.2,0l-2.1-0.7c-0.1,0-0.3-0.1-0.3-0.3c-0.1-0.1-0.1-0.3,0-0.4
	c0-0.1,0.1-0.3,0.3-0.3c0.1-0.1,0.3-0.1,0.4,0l2.1,0.7c0.1,0,0.2,0.1,0.3,0.3c0.1,0.1,0.1,0.3,0,0.4c0,0.1-0.1,0.2-0.2,0.2
	C249.8,19.8,249.7,19.9,249.6,19.9L249.6,19.9z M150.3,18c-0.1,0-0.2,0-0.3-0.1c-0.1-0.1-0.2-0.1-0.2-0.3c0-0.1,0-0.1,0-0.2
	c0-0.1,0-0.1,0-0.2c0-0.1,0.1-0.1,0.1-0.2c0.1,0,0.1-0.1,0.2-0.1l2-0.8c0.1,0,0.3,0,0.4,0c0.1,0.1,0.2,0.2,0.3,0.3
	c0,0.1,0,0.1,0,0.2c0,0.1,0,0.1,0,0.2c0,0.1-0.1,0.1-0.1,0.2c-0.1,0-0.1,0.1-0.2,0.1c-0.7,0.2-1.4,0.5-2,0.8
	C150.5,18,150.4,18,150.3,18L150.3,18z M242.3,17.5c-0.1,0-0.1,0-0.2,0l-2.1-0.6c-0.1,0-0.1-0.1-0.2-0.1c-0.1,0-0.1-0.1-0.1-0.2
	c0-0.1-0.1-0.1-0.1-0.2s0-0.1,0-0.2c0-0.1,0.1-0.3,0.3-0.3c0.1-0.1,0.3-0.1,0.4,0l2.1,0.6c0.1,0,0.2,0.1,0.3,0.2
	c0.1,0.1,0.1,0.2,0.1,0.4c0,0.1-0.1,0.2-0.2,0.3S242.5,17.6,242.3,17.5L242.3,17.5z M235,15.4h-0.1l-2.1-0.6c-0.1,0-0.1,0-0.2-0.1
	c-0.1,0-0.1-0.1-0.1-0.2c0-0.1-0.1-0.1-0.1-0.2c0-0.1,0-0.1,0-0.2c0-0.1,0-0.1,0.1-0.2c0-0.1,0.1-0.1,0.2-0.1c0.1,0,0.1-0.1,0.2-0.1
	c0.1,0,0.1,0,0.2,0l2.1,0.6c0.1,0,0.3,0.1,0.3,0.3c0.1,0.1,0.1,0.3,0.1,0.4c0,0.1-0.1,0.2-0.2,0.3C235.2,15.4,235.1,15.4,235,15.4
	L235,15.4z M157.6,15.4c-0.1,0-0.2,0-0.3-0.1c-0.1-0.1-0.2-0.2-0.2-0.3c0-0.1,0-0.3,0-0.4c0.1-0.1,0.2-0.2,0.3-0.3
	c0.7-0.2,1.4-0.5,2.1-0.7c0.1,0,0.1,0,0.2,0c0.1,0,0.1,0,0.2,0.1c0.1,0,0.1,0.1,0.2,0.1c0,0.1,0.1,0.1,0.1,0.2c0,0.1,0,0.1,0,0.2
	s0,0.1-0.1,0.2c0,0.1-0.1,0.1-0.1,0.2c-0.1,0-0.1,0.1-0.2,0.1l-2.1,0.7L157.6,15.4z M227.6,13.6h-0.1l-2.1-0.5c-0.1,0-0.1,0-0.2-0.1
	c-0.1,0-0.1-0.1-0.1-0.2c0-0.1-0.1-0.1-0.1-0.2c0-0.1,0-0.1,0-0.2c0-0.1,0-0.1,0.1-0.2c0-0.1,0.1-0.1,0.2-0.1c0.1,0,0.1-0.1,0.2-0.1
	c0.1,0,0.1,0,0.2,0l2.1,0.5c0.1,0,0.3,0.1,0.3,0.2c0.1,0.1,0.1,0.3,0.1,0.4c0,0.1-0.1,0.2-0.2,0.3C227.8,13.6,227.7,13.6,227.6,13.6
	L227.6,13.6z M164.9,13.3c-0.1,0-0.2,0-0.3-0.1c-0.1-0.1-0.2-0.2-0.2-0.3c0-0.1,0-0.3,0.1-0.4c0.1-0.1,0.2-0.2,0.3-0.3l2.1-0.5
	c0.1,0,0.1,0,0.2,0s0.1,0,0.2,0.1c0.1,0,0.1,0.1,0.2,0.1c0,0.1,0.1,0.1,0.1,0.2c0,0.1,0,0.3-0.1,0.4c-0.1,0.1-0.2,0.2-0.3,0.3
	c-0.7,0.2-1.4,0.3-2.1,0.5L164.9,13.3z M220.1,12.1H220l-2.1-0.4c-0.1,0-0.3-0.1-0.4-0.2c-0.1-0.1-0.1-0.3-0.1-0.4s0.1-0.3,0.2-0.4
	c0.1-0.1,0.3-0.1,0.4-0.1l2.2,0.4c0.2,0,0.3,0.1,0.4,0.2c0.1,0.1,0.1,0.3,0.1,0.4c0,0.1-0.1,0.3-0.2,0.4
	C220.4,12.1,220.3,12.1,220.1,12.1z M172.4,11.7c-0.1,0-0.3,0-0.3-0.1c-0.1-0.1-0.2-0.2-0.2-0.3c0-0.1,0-0.3,0.1-0.4
	c0.1-0.1,0.2-0.2,0.3-0.2l2.2-0.4c0.1,0,0.1,0,0.2,0c0.1,0,0.1,0,0.2,0.1c0.1,0,0.1,0.1,0.2,0.2c0,0.1,0.1,0.1,0.1,0.2
	c0,0.1,0,0.1,0,0.2c0,0.1,0,0.1-0.1,0.2c0,0.1-0.1,0.1-0.2,0.2c-0.1,0-0.1,0.1-0.2,0.1l-2.1,0.4L172.4,11.7z M212.6,10.9L212.6,10.9
	c-0.8-0.1-1.5-0.2-2.2-0.3c-0.1,0-0.1,0-0.2-0.1c-0.1,0-0.1-0.1-0.2-0.1c0-0.1-0.1-0.1-0.1-0.2c0-0.1,0-0.1,0-0.2
	c0-0.1,0-0.1,0.1-0.2c0-0.1,0.1-0.1,0.1-0.2c0.1,0,0.1-0.1,0.2-0.1c0.1,0,0.1,0,0.2,0l2.2,0.3c0.1,0,0.3,0.1,0.4,0.2
	c0.1,0.1,0.1,0.3,0.1,0.4c0,0.1-0.1,0.3-0.2,0.4C212.8,10.9,212.7,10.9,212.6,10.9L212.6,10.9z M179.9,10.5c-0.1,0-0.1,0-0.2,0
	c-0.1,0-0.1-0.1-0.2-0.1c-0.1,0-0.1-0.1-0.1-0.2c0-0.1-0.1-0.1-0.1-0.2c0-0.1,0-0.1,0-0.2c0-0.1,0.1-0.1,0.1-0.2
	c0-0.1,0.1-0.1,0.2-0.1c0.1,0,0.1-0.1,0.2-0.1l2.2-0.2c0.1,0,0.3,0,0.4,0.1c0.1,0.1,0.2,0.2,0.2,0.4c0,0.1,0,0.3-0.1,0.4
	c-0.1,0.1-0.2,0.2-0.4,0.2C181.4,10.3,180.7,10.4,179.9,10.5L179.9,10.5z M205,10.1l-2.2-0.2c-0.1,0-0.1,0-0.2-0.1
	c-0.1,0-0.1-0.1-0.2-0.1c0-0.1-0.1-0.1-0.1-0.2c0-0.1,0-0.1,0-0.2c0-0.1,0.1-0.3,0.2-0.4s0.3-0.1,0.4-0.1l2.2,0.2
	c0.1,0,0.1,0,0.2,0.1c0.1,0,0.1,0.1,0.2,0.1s0.1,0.1,0.1,0.2c0,0.1,0,0.1,0,0.2c0,0.1,0,0.1-0.1,0.2c0,0.1-0.1,0.1-0.1,0.2
	c-0.1,0-0.1,0.1-0.2,0.1C205.1,10.1,205,10.1,205,10.1L205,10.1z M187.5,9.8c-0.1,0-0.3-0.1-0.4-0.2C187,9.6,187,9.4,187,9.3
	s0.1-0.3,0.2-0.4c0.1-0.1,0.2-0.2,0.4-0.2l2.2-0.1c0.1,0,0.1,0,0.2,0c0.1,0,0.1,0.1,0.2,0.1c0.1,0,0.1,0.1,0.1,0.2
	c0,0.1,0,0.1,0,0.2c0,0.1,0,0.1,0,0.2c0,0.1-0.1,0.1-0.1,0.2c0,0.1-0.1,0.1-0.2,0.1c-0.1,0-0.1,0-0.2,0C189,9.7,188.3,9.7,187.5,9.8
	L187.5,9.8z M197.4,9.7h-2.2c-0.1,0-0.3-0.1-0.4-0.2c-0.1-0.1-0.2-0.2-0.2-0.4s0.1-0.3,0.2-0.4c0.1-0.1,0.2-0.2,0.4-0.2h2.2
	c0.1,0,0.1,0,0.2,0c0.1,0,0.1,0.1,0.2,0.1c0,0.1,0.1,0.1,0.1,0.2c0,0.1,0,0.1,0,0.2c0,0.1,0,0.2,0,0.2c0,0.1-0.1,0.1-0.1,0.2
	c-0.1,0.1-0.1,0.1-0.2,0.1C197.5,9.7,197.4,9.7,197.4,9.7L197.4,9.7z"/>
<path class="st1" d="M49,192.1c-0.1,0-0.3-0.1-0.4-0.2c-0.1-0.1-0.2-0.2-0.2-0.4c0-0.7,0-1.5,0-2.2c0-0.2,0.1-0.3,0.2-0.4
	c0.1-0.1,0.2-0.2,0.4-0.2c0.1,0,0.3,0.1,0.4,0.2c0.1,0.1,0.2,0.2,0.2,0.4c0,0.7,0,1.5,0,2.2c0,0.1,0,0.2,0,0.2s-0.1,0.1-0.1,0.2
	s-0.1,0.1-0.2,0.1C49.1,192.1,49,192.1,49,192.1z M49.2,184.5c-0.1,0-0.1,0-0.2,0c-0.1,0-0.1-0.1-0.2-0.1c0-0.1-0.1-0.1-0.1-0.2
	c0-0.1,0-0.1,0-0.2l0.1-2.2c0-0.1,0.1-0.3,0.2-0.4c0.1-0.1,0.2-0.1,0.4-0.1c0.1,0,0.1,0,0.2,0.1c0.1,0,0.1,0.1,0.2,0.1
	c0,0.1,0.1,0.1,0.1,0.2c0,0.1,0,0.1,0,0.2c0,0.7-0.1,1.5-0.1,2.2c0,0.1-0.1,0.3-0.2,0.4S49.3,184.5,49.2,184.5z M49.6,176.9
	c-0.1,0-0.3-0.1-0.4-0.2c-0.1-0.1-0.1-0.2-0.1-0.4l0.2-2.2c0-0.1,0-0.1,0.1-0.2c0-0.1,0.1-0.1,0.1-0.2c0.1,0,0.1-0.1,0.2-0.1
	c0.1,0,0.1,0,0.2,0c0.1,0,0.3,0.1,0.4,0.2c0.1,0.1,0.1,0.3,0.1,0.4c0,0.7-0.1,1.4-0.2,2.2c0,0.1-0.1,0.3-0.2,0.4
	C49.9,176.8,49.8,176.9,49.6,176.9z M50.2,169.2c-0.1,0-0.3-0.1-0.4-0.2s-0.1-0.3-0.1-0.4c0.1-0.7,0.1-1.4,0.2-2.2
	c0-0.1,0-0.1,0.1-0.2c0-0.1,0.1-0.1,0.1-0.2c0.1,0,0.1-0.1,0.2-0.1c0.1,0,0.1,0,0.2,0c0.1,0,0.1,0,0.2,0.1c0.1,0,0.1,0.1,0.2,0.1
	c0,0.1,0.1,0.1,0.1,0.2c0,0.1,0,0.1,0,0.2c-0.1,0.7-0.1,1.4-0.2,2.2c0,0.1,0,0.1-0.1,0.2c0,0.1-0.1,0.1-0.1,0.2s-0.1,0.1-0.2,0.1
	C50.4,169.2,50.3,169.2,50.2,169.2z M51.1,161.6L51.1,161.6c-0.2,0-0.3-0.1-0.4-0.2s-0.1-0.3-0.1-0.4c0.1-0.7,0.2-1.4,0.3-2.2
	c0-0.1,0.1-0.3,0.2-0.4c0.1-0.1,0.3-0.1,0.4-0.1c0.1,0,0.3,0.1,0.4,0.2c0.1,0.1,0.1,0.3,0.1,0.4c-0.1,0.7-0.2,1.4-0.3,2.2
	c0,0.1-0.1,0.3-0.2,0.3C51.4,161.6,51.2,161.6,51.1,161.6z M52.2,154.1L52.2,154.1c-0.2,0-0.2,0-0.3-0.1c-0.1,0-0.1-0.1-0.2-0.1
	c0-0.1-0.1-0.1-0.1-0.2s0-0.1,0-0.2c0.1-0.7,0.2-1.4,0.3-2.2c0-0.1,0-0.1,0.1-0.2c0-0.1,0.1-0.1,0.2-0.2c0.1,0,0.1-0.1,0.2-0.1
	c0.1,0,0.1,0,0.2,0c0.1,0,0.1,0,0.2,0.1c0.1,0,0.1,0.1,0.2,0.2c0,0.1,0.1,0.1,0.1,0.2c0,0.1,0,0.1,0,0.2c-0.1,0.7-0.2,1.4-0.3,2.1
	c0,0.1,0,0.1-0.1,0.2c0,0.1-0.1,0.1-0.1,0.2c-0.1,0-0.1,0.1-0.2,0.1S52.3,154.1,52.2,154.1L52.2,154.1z M53.5,146.5h-0.1
	c-0.1,0-0.3-0.1-0.3-0.2c-0.1-0.1-0.1-0.3-0.1-0.4c0.1-0.7,0.3-1.4,0.4-2.1c0-0.1,0-0.1,0.1-0.2c0-0.1,0.1-0.1,0.2-0.2
	c0.1,0,0.1-0.1,0.2-0.1c0.1,0,0.1,0,0.2,0c0.1,0,0.1,0,0.2,0.1c0.1,0,0.1,0.1,0.2,0.2c0,0.1,0.1,0.1,0.1,0.2c0,0.1,0,0.1,0,0.2
	c-0.1,0.7-0.3,1.4-0.4,2.1c0,0.1-0.1,0.2-0.2,0.3C53.8,146.5,53.6,146.6,53.5,146.5L53.5,146.5z M55.1,139.1H55
	c-0.1,0-0.1,0-0.2-0.1c-0.1,0-0.1-0.1-0.1-0.2s-0.1-0.1-0.1-0.2c0-0.1,0-0.1,0-0.2c0.2-0.7,0.3-1.4,0.5-2.1c0-0.1,0-0.1,0.1-0.2
	s0.1-0.1,0.2-0.1c0.1,0,0.1-0.1,0.2-0.1c0.1,0,0.1,0,0.2,0c0.1,0,0.1,0,0.2,0.1c0.1,0,0.1,0.1,0.1,0.2c0,0.1,0.1,0.1,0.1,0.2
	c0,0.1,0,0.1,0,0.2c-0.2,0.7-0.3,1.4-0.5,2.1c0,0.1-0.1,0.2-0.2,0.3C55.3,139,55.2,139.1,55.1,139.1z M56.9,131.6h-0.1
	c-0.1,0-0.1,0-0.2-0.1s-0.1-0.1-0.1-0.2c0-0.1-0.1-0.1-0.1-0.2c0-0.1,0-0.1,0-0.2c0.2-0.7,0.4-1.4,0.6-2.1c0.1-0.1,0.1-0.2,0.3-0.3
	c0.1-0.1,0.3-0.1,0.4,0c0.1,0,0.2,0.1,0.3,0.2s0.1,0.2,0.1,0.4c-0.2,0.7-0.4,1.4-0.6,2.1c0,0.1-0.1,0.2-0.2,0.3
	C57.1,131.6,57,131.7,56.9,131.6L56.9,131.6z M59,124.3c-0.1,0-0.1,0-0.2,0c-0.1,0-0.1-0.1-0.2-0.1c-0.1,0-0.1-0.1-0.1-0.2
	c0-0.1-0.1-0.1-0.1-0.2c0-0.1,0-0.1,0-0.2l0.6-2.1c0-0.1,0.1-0.1,0.1-0.2c0-0.1,0.1-0.1,0.2-0.1c0.1,0,0.1-0.1,0.2-0.1
	c0.1,0,0.1,0,0.2,0c0.1,0,0.1,0.1,0.2,0.1c0.1,0,0.1,0.1,0.1,0.2c0,0.1,0.1,0.1,0.1,0.2c0,0.1,0,0.1,0,0.2c-0.2,0.7-0.4,1.4-0.6,2.1
	c0,0.1-0.1,0.2-0.2,0.3C59.1,124.3,59,124.3,59,124.3L59,124.3z M61.2,117H61c-0.1-0.1-0.2-0.2-0.3-0.3c-0.1-0.1-0.1-0.3,0-0.4
	c0.2-0.7,0.5-1.4,0.7-2.1c0-0.1,0.1-0.1,0.1-0.2c0-0.1,0.1-0.1,0.2-0.1c0.1,0,0.1,0,0.2-0.1c0.1,0,0.1,0,0.2,0
	c0.1,0,0.2,0.1,0.3,0.3c0.1,0.1,0.1,0.3,0,0.4l-0.7,2.1c0,0.1-0.1,0.2-0.2,0.3C61.4,117,61.3,117,61.2,117z M63.8,109.8h-0.2
	c-0.1-0.1-0.2-0.2-0.3-0.3c-0.1-0.1-0.1-0.3,0-0.4c0.3-0.7,0.5-1.4,0.8-2c0.1-0.1,0.2-0.2,0.3-0.3c0.1,0,0.3,0,0.4,0
	c0.1,0,0.2,0.1,0.3,0.3c0.1,0.1,0.1,0.3,0,0.4c-0.3,0.7-0.5,1.4-0.8,2c0,0.1-0.1,0.2-0.2,0.2C64,109.8,63.9,109.8,63.8,109.8z
	 M66.7,102.8c-0.1,0-0.1,0-0.2,0c-0.1-0.1-0.2-0.2-0.3-0.3c-0.1-0.1-0.1-0.3,0-0.4l0.9-2c0.1-0.1,0.2-0.2,0.3-0.3
	c0.1-0.1,0.3,0,0.4,0c0.1,0.1,0.2,0.2,0.3,0.3c0.1,0.1,0,0.3,0,0.4l-0.9,2c0,0.1-0.1,0.2-0.2,0.2C66.9,102.8,66.8,102.8,66.7,102.8z
	 M69.8,95.8c-0.1,0-0.2,0-0.3-0.1c-0.1,0-0.1-0.1-0.2-0.2s-0.1-0.2-0.1-0.3c0-0.1,0-0.2,0.1-0.3c0.3-0.7,0.6-1.3,1-2
	c0-0.1,0.1-0.1,0.1-0.2s0.1-0.1,0.2-0.1c0.1,0,0.1,0,0.2,0c0.1,0,0.1,0,0.2,0.1c0.1,0.1,0.2,0.2,0.3,0.3c0,0.1,0,0.3,0,0.4l-0.9,2
	c0,0.1-0.1,0.2-0.2,0.2C70,95.8,69.9,95.8,69.8,95.8L69.8,95.8z M73.3,89c-0.1,0-0.2,0-0.3-0.1c-0.1,0-0.1-0.1-0.2-0.1
	c0-0.1-0.1-0.1-0.1-0.2c0-0.1,0-0.1,0-0.2c0-0.1,0-0.1,0.1-0.2c0.3-0.6,0.7-1.3,1-1.9c0.1-0.1,0.2-0.2,0.3-0.2c0.1,0,0.3,0,0.4,0.1
	c0.1,0.1,0.2,0.2,0.3,0.3c0,0.1,0,0.3,0,0.4l-1,1.9c0,0.1-0.1,0.2-0.2,0.2C73.5,88.9,73.4,89,73.3,89L73.3,89z M77,82.3
	c-0.1,0-0.2,0-0.3-0.1c-0.1-0.1-0.2-0.2-0.2-0.3c0-0.1,0-0.3,0.1-0.4c0.4-0.6,0.8-1.3,1.1-1.9c0-0.1,0.1-0.1,0.1-0.2
	c0.1,0,0.1-0.1,0.2-0.1c0.1,0,0.1,0,0.2,0c0.1,0,0.1,0,0.2,0.1c0.1,0.1,0.2,0.2,0.2,0.3c0,0.1,0,0.3-0.1,0.4
	c-0.4,0.6-0.8,1.2-1.1,1.9c-0.1,0.1-0.1,0.1-0.2,0.2C77.2,82.3,77.1,82.3,77,82.3L77,82.3z M81,75.8c-0.1,0-0.2,0-0.3-0.1
	c-0.1,0-0.1-0.1-0.1-0.2c0-0.1-0.1-0.1-0.1-0.2c0-0.1,0-0.1,0-0.2c0-0.1,0-0.1,0.1-0.2c0.4-0.6,0.8-1.2,1.2-1.8
	c0.1-0.1,0.2-0.2,0.4-0.2c0.1,0,0.3,0,0.4,0.1c0.1,0,0.1,0.1,0.2,0.2c0,0.1,0.1,0.1,0.1,0.2c0,0.1,0,0.1,0,0.2c0,0.1,0,0.1-0.1,0.2
	c-0.4,0.6-0.8,1.2-1.2,1.8c0,0.1-0.1,0.1-0.2,0.2C81.2,75.8,81.1,75.8,81,75.8z M85.4,69.5c-0.1,0-0.2,0-0.3-0.1
	c-0.1-0.1-0.2-0.2-0.2-0.4c0-0.1,0-0.3,0.1-0.4l1.3-1.8c0.1-0.1,0.2-0.2,0.4-0.2c0.1,0,0.3,0,0.4,0.1c0.1,0.1,0.2,0.2,0.2,0.4
	c0,0.1,0,0.3-0.1,0.4l-1.3,1.8c0,0.1-0.1,0.1-0.2,0.2S85.5,69.5,85.4,69.5L85.4,69.5z M90.1,63.5c-0.1,0-0.2,0-0.3-0.1
	c-0.1-0.1-0.2-0.2-0.2-0.4c0-0.1,0-0.3,0.1-0.4l1.4-1.7c0.1-0.1,0.2-0.2,0.4-0.2c0.1,0,0.3,0,0.4,0.1S92,61,92,61.2
	c0,0.1,0,0.3-0.1,0.4l-1.4,1.7c-0.1,0.1-0.1,0.1-0.2,0.1C90.2,63.4,90.1,63.5,90.1,63.5z M95,57.6c-0.1,0-0.3-0.1-0.4-0.1
	c-0.1-0.1-0.1-0.1-0.1-0.2c0-0.1,0-0.1,0-0.2c0-0.1,0-0.1,0-0.2c0-0.1,0.1-0.1,0.1-0.2c0.5-0.5,1-1.1,1.5-1.6c0-0.1,0.1-0.1,0.2-0.1
	c0.1,0,0.1,0,0.2,0s0.1,0,0.2,0c0.1,0,0.1,0.1,0.2,0.1c0.1,0.1,0.2,0.2,0.2,0.4c0,0.1-0.1,0.3-0.2,0.4c-0.5,0.5-1,1.1-1.4,1.6
	c-0.1,0.1-0.1,0.1-0.2,0.1C95.1,57.6,95.1,57.6,95,57.6L95,57.6z M333.9,55.8c-0.1,0-0.1,0-0.2,0l-2-0.8c-0.1,0-0.1-0.1-0.2-0.1
	c0-0.1-0.1-0.1-0.1-0.2c0-0.1,0-0.1,0-0.2c0-0.1,0-0.1,0-0.2c0-0.1,0.1-0.1,0.1-0.2c0.1-0.1,0.1-0.1,0.2-0.1c0.1,0,0.1,0,0.2,0
	c0.1,0,0.1,0,0.2,0l2,0.8c0.1,0.1,0.2,0.2,0.3,0.3c0.1,0.1,0.1,0.3,0,0.4c0,0.1-0.1,0.2-0.2,0.2C334.1,55.8,333.9,55.8,333.9,55.8
	L333.9,55.8z M326.8,52.9c-0.1,0-0.1,0-0.2,0l-2-0.9c-0.1-0.1-0.2-0.2-0.3-0.3c-0.1-0.1-0.1-0.3,0-0.4c0-0.1,0.1-0.1,0.1-0.2
	c0.1-0.1,0.1-0.1,0.2-0.1c0.1,0,0.1,0,0.2,0s0.1,0,0.2,0l2,0.9c0.1,0,0.1,0.1,0.2,0.1c0.1,0.1,0.1,0.1,0.1,0.2c0,0.1,0,0.1,0,0.2
	c0,0.1,0,0.1,0,0.2c0,0.1-0.1,0.2-0.2,0.3C327,52.8,326.9,52.9,326.8,52.9L326.8,52.9z M100.2,52c-0.1,0-0.1,0-0.2,0
	c-0.1,0-0.1-0.1-0.2-0.1c-0.1-0.1-0.2-0.2-0.2-0.4s0.1-0.3,0.2-0.4l1.5-1.5c0.1-0.1,0.2-0.1,0.4-0.1c0.1,0,0.3,0.1,0.4,0.2
	c0.1,0.1,0.2,0.2,0.2,0.4c0,0.1,0,0.3-0.1,0.4c-0.5,0.5-1,1-1.5,1.5C100.5,51.9,100.4,52,100.2,52z M319.8,49.8c-0.1,0-0.1,0-0.2,0
	l-2-0.9c-0.1,0-0.1-0.1-0.2-0.1c-0.1-0.1-0.1-0.1-0.1-0.2c0-0.1,0-0.1,0-0.2c0-0.1,0-0.1,0-0.2c0.1-0.1,0.2-0.2,0.3-0.3
	c0.1-0.1,0.3,0,0.4,0l2,0.9c0.1,0.1,0.2,0.1,0.3,0.3c0.1,0.1,0.1,0.2,0,0.4s-0.1,0.2-0.2,0.3C320.1,49.8,320,49.9,319.8,49.8
	L319.8,49.8z M312.9,46.7c-0.1,0-0.2,0-0.2-0.1l-2-0.9c-0.1-0.1-0.2-0.2-0.3-0.3c0-0.1,0-0.3,0-0.4c0-0.1,0.1-0.1,0.1-0.2
	c0.1,0,0.1-0.1,0.2-0.1s0.1,0,0.2,0c0.1,0,0.1,0,0.2,0l2,0.9c0.1,0.1,0.2,0.2,0.3,0.3c0.1,0.1,0,0.3,0,0.4c0,0.1-0.1,0.2-0.2,0.3
	C313,46.7,312.9,46.7,312.9,46.7L312.9,46.7z M105.6,46.7c-0.1,0-0.2,0-0.2,0c-0.1,0-0.1-0.1-0.2-0.1c-0.1-0.1-0.2-0.2-0.2-0.4
	s0.1-0.3,0.2-0.4l1.6-1.5c0.1-0.1,0.1-0.1,0.2-0.1c0.1,0,0.1,0,0.2,0s0.1,0,0.2,0c0.1,0,0.1,0.1,0.2,0.1c0.1,0.1,0.2,0.2,0.2,0.4
	c0,0.1-0.1,0.3-0.2,0.4l-1.6,1.5c0,0.1-0.1,0.1-0.2,0.1C105.8,46.6,105.7,46.7,105.6,46.7z M305.9,43.6c-0.1,0-0.2,0-0.2,0l-2-0.9
	c-0.1-0.1-0.2-0.2-0.3-0.3c-0.1-0.1,0-0.3,0-0.4c0.1-0.1,0.2-0.2,0.3-0.3c0.1-0.1,0.3,0,0.4,0l2,0.9c0.1,0.1,0.2,0.1,0.3,0.3
	c0.1,0.1,0.1,0.2,0,0.4c0,0.1-0.1,0.2-0.2,0.3C306.1,43.6,306,43.6,305.9,43.6L305.9,43.6z M111.3,41.6c-0.1,0-0.2,0-0.3-0.1
	c-0.1-0.1-0.2-0.2-0.2-0.3c0-0.1,0-0.2,0-0.3c0-0.1,0.1-0.2,0.2-0.3l1.6-1.4c0.1-0.1,0.3-0.1,0.4-0.1c0.1,0,0.3,0.1,0.4,0.2
	c0,0.1,0.1,0.1,0.1,0.2c0,0.1,0,0.1,0,0.2c0,0.1,0,0.1-0.1,0.2c0,0.1-0.1,0.1-0.1,0.2l-1.7,1.4C111.6,41.5,111.4,41.6,111.3,41.6z
	 M298.9,40.4c-0.1,0-0.2,0-0.2,0l-2-0.9c-0.1-0.1-0.2-0.2-0.3-0.3c-0.1-0.1,0-0.3,0-0.4c0-0.1,0.1-0.1,0.1-0.2
	c0.1,0,0.1-0.1,0.2-0.1c0.1,0,0.1,0,0.2,0c0.1,0,0.1,0,0.2,0.1l2,0.9c0.1,0,0.1,0.1,0.2,0.1c0,0.1,0.1,0.1,0.1,0.2
	c0,0.1,0,0.1,0,0.2c0,0.1,0,0.1-0.1,0.2c0,0.1-0.1,0.2-0.2,0.2C299.1,40.4,299,40.4,298.9,40.4z M292,37.2c-0.1,0-0.2,0-0.2,0l-2-1
	c-0.1-0.1-0.2-0.2-0.3-0.3c-0.1-0.1,0-0.3,0-0.4c0-0.1,0.1-0.1,0.1-0.2c0.1-0.1,0.1-0.1,0.2-0.1c0.1,0,0.1,0,0.2,0s0.1,0,0.2,0
	l2,0.9c0.1,0,0.1,0.1,0.2,0.1c0,0.1,0.1,0.1,0.1,0.2c0,0.1,0,0.1,0,0.2c0,0.1,0,0.1-0.1,0.2c0,0.1-0.1,0.2-0.2,0.2
	C292.2,37.2,292.1,37.2,292,37.2z M117.3,36.8c-0.1,0-0.2,0-0.2-0.1s-0.1-0.1-0.2-0.2c0-0.1-0.1-0.1-0.1-0.2c0-0.1,0-0.1,0-0.2
	c0-0.1,0-0.1,0.1-0.2c0-0.1,0.1-0.1,0.1-0.2l1.7-1.3c0.1,0,0.1-0.1,0.2-0.1c0.1,0,0.1,0,0.2,0c0.1,0,0.1,0,0.2,0.1
	c0.1,0,0.1,0.1,0.2,0.1c0,0.1,0.1,0.1,0.1,0.2s0,0.1,0,0.2c0,0.1,0,0.1-0.1,0.2c0,0.1-0.1,0.1-0.1,0.2l-1.7,1.3
	C117.5,36.8,117.4,36.8,117.3,36.8z M285,34.1c-0.1,0-0.2,0-0.2,0l-2-0.9c-0.1,0-0.1-0.1-0.2-0.1c-0.1-0.1-0.1-0.1-0.1-0.2
	c0-0.1,0-0.1,0-0.2c0-0.1,0-0.1,0-0.2c0.1-0.1,0.2-0.2,0.3-0.3c0.1-0.1,0.3,0,0.4,0l2,0.9c0.1,0,0.1,0.1,0.2,0.1
	c0,0.1,0.1,0.1,0.1,0.2s0,0.1,0,0.2c0,0.1,0,0.1,0,0.2c0,0.1-0.1,0.2-0.2,0.2C285.2,34,285.1,34.1,285,34.1z M123.5,32.3
	c-0.1,0-0.2,0-0.2-0.1c-0.1,0-0.1-0.1-0.2-0.2c0-0.1-0.1-0.1-0.1-0.2c0-0.1,0-0.1,0-0.2c0-0.1,0-0.1,0.1-0.2c0-0.1,0.1-0.1,0.2-0.2
	c0.6-0.4,1.2-0.8,1.8-1.2c0.1,0,0.1-0.1,0.2-0.1c0.1,0,0.1,0,0.2,0c0.1,0,0.1,0,0.2,0.1c0.1,0,0.1,0.1,0.1,0.2
	c0,0.1,0.1,0.1,0.1,0.2c0,0.1,0,0.1,0,0.2c0,0.1,0,0.1-0.1,0.2c0,0.1-0.1,0.1-0.2,0.1l-1.8,1.2C123.7,32.3,123.6,32.3,123.5,32.3z
	 M278,31c-0.1,0-0.1,0-0.2,0l-2-0.9c-0.1-0.1-0.2-0.2-0.3-0.3c-0.1-0.1-0.1-0.3,0-0.4c0.1-0.1,0.2-0.2,0.3-0.3
	c0.1-0.1,0.3-0.1,0.4,0l2,0.9c0.1,0,0.1,0.1,0.2,0.1c0.1,0.1,0.1,0.1,0.1,0.2c0,0.1,0,0.1,0,0.2c0,0.1,0,0.1,0,0.2
	c0,0.1-0.1,0.2-0.2,0.2C278.2,30.9,278.1,31,278,31L278,31z M129.9,28.3c-0.1,0-0.2,0-0.3-0.1c-0.1,0-0.1-0.1-0.2-0.2
	c-0.1-0.1-0.1-0.3-0.1-0.4s0.1-0.3,0.2-0.3l1.9-1.1c0.1,0,0.1-0.1,0.2-0.1c0.1,0,0.1,0,0.2,0c0.1,0,0.1,0,0.2,0.1
	c0.1,0,0.1,0.1,0.1,0.2c0,0.1,0.1,0.1,0.1,0.2c0,0.1,0,0.1,0,0.2c0,0.1,0,0.1-0.1,0.2s-0.1,0.1-0.2,0.1c-0.6,0.4-1.2,0.7-1.9,1.1
	C130.1,28.2,130,28.3,129.9,28.3z M271,28c-0.1,0-0.1,0-0.2,0l-2-0.9c-0.1,0-0.1-0.1-0.2-0.1c-0.1-0.1-0.1-0.1-0.1-0.2
	c0-0.1,0-0.1,0-0.2c0-0.1,0-0.1,0-0.2c0-0.1,0.1-0.1,0.1-0.2c0-0.1,0.1-0.1,0.2-0.1c0.1,0,0.1,0,0.2,0c0.1,0,0.1,0,0.2,0l2,0.8
	c0.1,0,0.2,0.1,0.3,0.2c0.1,0.1,0.1,0.2,0.1,0.4c0,0.1-0.1,0.2-0.2,0.3C271.3,28,271.1,28,271,28L271,28z M263.9,25.2
	c-0.1,0-0.1,0-0.2,0l-2-0.8c-0.1,0-0.1-0.1-0.2-0.1c-0.1,0-0.1-0.1-0.1-0.2c0-0.1,0-0.1,0-0.2c0-0.1,0-0.1,0-0.2
	c0-0.1,0.1-0.1,0.1-0.2c0.1-0.1,0.1-0.1,0.2-0.1c0.1,0,0.1,0,0.2,0c0.1,0,0.1,0,0.2,0l2,0.8c0.1,0,0.1,0.1,0.2,0.1s0.1,0.1,0.1,0.2
	c0,0.1,0,0.1,0,0.2c0,0.1,0,0.1,0,0.2c-0.1,0.1-0.1,0.2-0.2,0.2C264.1,25.1,264,25.1,263.9,25.2L263.9,25.2z M136.5,24.5
	c-0.1,0-0.2,0-0.3-0.1s-0.2-0.2-0.2-0.3c0-0.1,0-0.2,0-0.4c0.1-0.1,0.1-0.2,0.3-0.3c0.6-0.4,1.3-0.7,1.9-1c0.1-0.1,0.3-0.1,0.4,0
	c0.1,0,0.3,0.1,0.3,0.3c0.1,0.1,0.1,0.3,0,0.4c0,0.1-0.1,0.3-0.3,0.3l-1.9,1C136.7,24.4,136.6,24.4,136.5,24.5L136.5,24.5z
	 M256.8,22.4c-0.1,0-0.1,0-0.2,0l-2.1-0.7c-0.1,0-0.1-0.1-0.2-0.1c-0.1,0-0.1-0.1-0.1-0.2c0-0.1,0-0.1-0.1-0.2c0-0.1,0-0.1,0-0.2
	c0-0.1,0.1-0.1,0.1-0.2s0.1-0.1,0.2-0.1c0.1,0,0.1,0,0.2-0.1c0.1,0,0.1,0,0.2,0l2.1,0.7c0.1,0.1,0.2,0.2,0.3,0.3s0.1,0.3,0,0.4
	c0,0.1-0.1,0.2-0.2,0.2C257,22.4,256.9,22.4,256.8,22.4z M143.3,21c-0.1,0-0.2,0-0.3-0.1c-0.1-0.1-0.2-0.2-0.2-0.3
	c0-0.1,0-0.2,0-0.4c0.1-0.1,0.1-0.2,0.3-0.3l2-0.9c0.1,0,0.1,0,0.2,0c0.1,0,0.1,0,0.2,0c0.1,0,0.1,0.1,0.2,0.1
	c0.1,0,0.1,0.1,0.1,0.2c0,0.1,0,0.1,0.1,0.2c0,0.1,0,0.1,0,0.2c0,0.1-0.1,0.1-0.1,0.2c0,0.1-0.1,0.1-0.2,0.1l-2,0.9
	C143.5,21,143.4,21,143.3,21z M249.6,19.9c-0.1,0-0.1,0-0.2,0l-2.1-0.7c-0.1,0-0.3-0.1-0.3-0.3c-0.1-0.1-0.1-0.3,0-0.4
	c0-0.1,0.1-0.3,0.3-0.3c0.1-0.1,0.3-0.1,0.4,0l2.1,0.7c0.1,0,0.2,0.1,0.3,0.3c0.1,0.1,0.1,0.3,0,0.4c0,0.1-0.1,0.2-0.2,0.2
	C249.8,19.9,249.7,19.9,249.6,19.9L249.6,19.9z M150.3,18c-0.1,0-0.2,0-0.3-0.1c-0.1-0.1-0.2-0.1-0.2-0.3c0-0.1,0-0.1,0-0.2
	c0-0.1,0-0.1,0-0.2c0-0.1,0.1-0.1,0.1-0.2c0.1,0,0.1-0.1,0.2-0.1l2-0.8c0.1,0,0.3,0,0.4,0c0.1,0.1,0.2,0.2,0.3,0.3
	c0,0.1,0,0.1,0,0.2c0,0.1,0,0.1,0,0.2c0,0.1-0.1,0.1-0.1,0.2c-0.1,0-0.1,0.1-0.2,0.1c-0.7,0.2-1.4,0.5-2,0.8
	C150.5,18,150.4,18,150.3,18L150.3,18z M242.3,17.6c-0.1,0-0.1,0-0.2,0l-2.1-0.6c-0.1,0-0.1-0.1-0.2-0.1c-0.1,0-0.1-0.1-0.1-0.2
	c0-0.1-0.1-0.1-0.1-0.2s0-0.1,0-0.2c0-0.1,0.1-0.3,0.3-0.3c0.1-0.1,0.3-0.1,0.4,0l2.1,0.6c0.1,0,0.2,0.1,0.3,0.2
	c0.1,0.1,0.1,0.2,0.1,0.4c0,0.1-0.1,0.2-0.2,0.3S242.5,17.6,242.3,17.6L242.3,17.6z M235,15.5h-0.1l-2.1-0.6c-0.1,0-0.1,0-0.2-0.1
	c-0.1,0-0.1-0.1-0.1-0.2c0-0.1-0.1-0.1-0.1-0.2c0-0.1,0-0.1,0-0.2c0-0.1,0-0.1,0.1-0.2c0-0.1,0.1-0.1,0.2-0.1c0.1,0,0.1-0.1,0.2-0.1
	c0.1,0,0.1,0,0.2,0l2.1,0.6c0.1,0,0.3,0.1,0.3,0.3c0.1,0.1,0.1,0.3,0.1,0.4c0,0.1-0.1,0.2-0.2,0.3C235.2,15.4,235.1,15.5,235,15.5
	L235,15.5z M157.6,15.5c-0.1,0-0.2,0-0.3-0.1c-0.1-0.1-0.2-0.2-0.2-0.3c0-0.1,0-0.3,0-0.4c0.1-0.1,0.2-0.2,0.3-0.3
	c0.7-0.2,1.4-0.5,2.1-0.7c0.1,0,0.1,0,0.2,0c0.1,0,0.1,0,0.2,0.1c0.1,0,0.1,0.1,0.2,0.1c0,0.1,0.1,0.1,0.1,0.2c0,0.1,0,0.1,0,0.2
	s0,0.1-0.1,0.2c0,0.1-0.1,0.1-0.1,0.2c-0.1,0-0.1,0.1-0.2,0.1l-2.1,0.7L157.6,15.5z M227.6,13.7h-0.1l-2.1-0.5c-0.1,0-0.1,0-0.2-0.1
	c-0.1,0-0.1-0.1-0.1-0.2c0-0.1-0.1-0.1-0.1-0.2c0-0.1,0-0.1,0-0.2c0-0.1,0-0.1,0.1-0.2c0-0.1,0.1-0.1,0.2-0.1c0.1,0,0.1-0.1,0.2-0.1
	c0.1,0,0.1,0,0.2,0l2.1,0.5c0.1,0,0.3,0.1,0.3,0.2c0.1,0.1,0.1,0.3,0.1,0.4c0,0.1-0.1,0.2-0.2,0.3C227.8,13.6,227.7,13.6,227.6,13.7
	L227.6,13.7z M164.9,13.3c-0.1,0-0.2,0-0.3-0.1c-0.1-0.1-0.2-0.2-0.2-0.3c0-0.1,0-0.3,0.1-0.4c0.1-0.1,0.2-0.2,0.3-0.3l2.1-0.5
	c0.1,0,0.1,0,0.2,0s0.1,0,0.2,0.1c0.1,0,0.1,0.1,0.2,0.1c0,0.1,0.1,0.1,0.1,0.2c0,0.1,0,0.3-0.1,0.4c-0.1,0.1-0.2,0.2-0.3,0.3
	c-0.7,0.2-1.4,0.3-2.1,0.5L164.9,13.3z M220.1,12.1H220l-2.1-0.4c-0.1,0-0.3-0.1-0.4-0.2c-0.1-0.1-0.1-0.3-0.1-0.4s0.1-0.3,0.2-0.4
	c0.1-0.1,0.3-0.1,0.4-0.1l2.2,0.4c0.2,0,0.3,0.1,0.4,0.2c0.1,0.1,0.1,0.3,0.1,0.4c0,0.1-0.1,0.3-0.2,0.4
	C220.4,12.1,220.3,12.1,220.1,12.1z M172.4,11.7c-0.1,0-0.3,0-0.3-0.1c-0.1-0.1-0.2-0.2-0.2-0.3c0-0.1,0-0.3,0.1-0.4
	c0.1-0.1,0.2-0.2,0.3-0.2l2.2-0.4c0.1,0,0.1,0,0.2,0c0.1,0,0.1,0,0.2,0.1c0.1,0,0.1,0.1,0.2,0.2c0,0.1,0.1,0.1,0.1,0.2
	c0,0.1,0,0.1,0,0.2c0,0.1,0,0.1-0.1,0.2c0,0.1-0.1,0.1-0.2,0.2c-0.1,0-0.1,0.1-0.2,0.1l-2.1,0.4L172.4,11.7z M212.6,10.9L212.6,10.9
	c-0.8-0.1-1.5-0.2-2.2-0.3c-0.1,0-0.1,0-0.2-0.1c-0.1,0-0.1-0.1-0.2-0.1c0-0.1-0.1-0.1-0.1-0.2c0-0.1,0-0.1,0-0.2
	c0-0.1,0-0.1,0.1-0.2c0-0.1,0.1-0.1,0.1-0.2c0.1,0,0.1-0.1,0.2-0.1c0.1,0,0.1,0,0.2,0l2.2,0.3c0.1,0,0.3,0.1,0.4,0.2
	c0.1,0.1,0.1,0.3,0.1,0.4c0,0.1-0.1,0.3-0.2,0.4C212.8,10.9,212.7,10.9,212.6,10.9L212.6,10.9z M179.9,10.5c-0.1,0-0.1,0-0.2,0
	c-0.1,0-0.1-0.1-0.2-0.1c-0.1,0-0.1-0.1-0.1-0.2c0-0.1-0.1-0.1-0.1-0.2c0-0.1,0-0.1,0-0.2c0-0.1,0.1-0.1,0.1-0.2
	c0-0.1,0.1-0.1,0.2-0.1c0.1,0,0.1-0.1,0.2-0.1l2.2-0.2c0.1,0,0.3,0,0.4,0.1c0.1,0.1,0.2,0.2,0.2,0.4c0,0.1,0,0.3-0.1,0.4
	c-0.1,0.1-0.2,0.2-0.4,0.2C181.4,10.3,180.7,10.4,179.9,10.5L179.9,10.5z M205,10.1l-2.2-0.2c-0.1,0-0.1,0-0.2-0.1
	c-0.1,0-0.1-0.1-0.2-0.1c0-0.1-0.1-0.1-0.1-0.2c0-0.1,0-0.1,0-0.2c0-0.1,0.1-0.3,0.2-0.4s0.3-0.1,0.4-0.1l2.2,0.2
	c0.1,0,0.1,0,0.2,0.1c0.1,0,0.1,0.1,0.2,0.1s0.1,0.1,0.1,0.2c0,0.1,0,0.1,0,0.2c0,0.1,0,0.1-0.1,0.2c0,0.1-0.1,0.1-0.1,0.2
	c-0.1,0-0.1,0.1-0.2,0.1C205.1,10.1,205,10.1,205,10.1L205,10.1z M187.5,9.9c-0.1,0-0.3-0.1-0.4-0.2C187,9.6,187,9.5,187,9.3
	s0.1-0.3,0.2-0.4c0.1-0.1,0.2-0.2,0.4-0.2l2.2-0.1c0.1,0,0.1,0,0.2,0c0.1,0,0.1,0.1,0.2,0.1c0.1,0,0.1,0.1,0.1,0.2
	c0,0.1,0,0.1,0,0.2c0,0.1,0,0.1,0,0.2c0,0.1-0.1,0.1-0.1,0.2c0,0.1-0.1,0.1-0.2,0.1c-0.1,0-0.1,0-0.2,0C189,9.7,188.3,9.7,187.5,9.9
	L187.5,9.9z M197.4,9.7h-2.2c-0.1,0-0.3-0.1-0.4-0.2c-0.1-0.1-0.2-0.2-0.2-0.4s0.1-0.3,0.2-0.4c0.1-0.1,0.2-0.2,0.4-0.2h2.2
	c0.1,0,0.1,0,0.2,0c0.1,0,0.1,0.1,0.2,0.1c0,0.1,0.1,0.1,0.1,0.2c0,0.1,0,0.1,0,0.2c0,0.1,0,0.2,0,0.2c0,0.1-0.1,0.1-0.1,0.2
	c-0.1,0.1-0.1,0.1-0.2,0.1C197.5,9.7,197.4,9.7,197.4,9.7L197.4,9.7z"/>
<path class="st0" d="M472.5,214.2c-0.1,0-0.2,0-0.2-0.1c-0.1,0-0.1-0.1-0.2-0.1s-0.1-0.1-0.1-0.2c0-0.1,0-0.1,0-0.2
	c0-0.1,0-0.1,0.1-0.2c0.3-0.7,0.6-1.3,0.9-2c0.1-0.1,0.2-0.2,0.3-0.3c0.1,0,0.3,0,0.4,0c0.1,0,0.1,0.1,0.2,0.1
	c0,0.1,0.1,0.1,0.1,0.2c0,0.1,0,0.1,0,0.2c0,0.1,0,0.1,0,0.2l-0.9,2c0,0.1-0.1,0.2-0.2,0.2C472.7,214.2,472.6,214.2,472.5,214.2z
	 M475.6,207.3c-0.1,0-0.1,0-0.2,0c-0.1-0.1-0.2-0.2-0.3-0.3c-0.1-0.1-0.1-0.3,0-0.4c0.3-0.7,0.6-1.3,0.8-2c0.1-0.1,0.2-0.2,0.3-0.3
	c0.1-0.1,0.3-0.1,0.4,0c0.1,0.1,0.2,0.2,0.3,0.3c0.1,0.1,0.1,0.3,0,0.4c-0.3,0.7-0.6,1.4-0.8,2c0,0.1-0.1,0.2-0.2,0.2
	C475.9,207.2,475.8,207.3,475.6,207.3L475.6,207.3z M478.4,200.1c-0.1,0-0.1,0-0.2,0c-0.1,0-0.1-0.1-0.2-0.1c-0.1,0-0.1-0.1-0.1-0.2
	c0-0.1-0.1-0.1-0.1-0.2c0-0.1,0-0.1,0-0.2c0.2-0.7,0.5-1.4,0.7-2.1c0-0.1,0.1-0.1,0.1-0.2c0-0.1,0.1-0.1,0.2-0.1
	c0.1,0,0.1-0.1,0.2-0.1c0.1,0,0.1,0,0.2,0c0.1,0,0.2,0.1,0.3,0.3c0.1,0.1,0.1,0.3,0,0.4c-0.2,0.7-0.5,1.4-0.7,2.1
	c0,0.1-0.1,0.2-0.2,0.2C478.6,200.1,478.5,200.1,478.4,200.1L478.4,200.1z M480.8,192.9h-0.2c-0.1,0-0.1-0.1-0.2-0.1
	c-0.1,0-0.1-0.1-0.1-0.2c0-0.1-0.1-0.1-0.1-0.2c0-0.1,0-0.1,0-0.2c0.2-0.7,0.4-1.4,0.6-2.1c0-0.1,0.1-0.2,0.3-0.3
	c0.1-0.1,0.3-0.1,0.4,0s0.2,0.1,0.3,0.2c0.1,0.1,0.1,0.3,0.1,0.4c-0.2,0.7-0.4,1.4-0.6,2.1c0,0.1-0.1,0.2-0.2,0.3
	C481,192.8,480.9,192.9,480.8,192.9L480.8,192.9z M482.7,185.5h-0.1c-0.1,0-0.3-0.1-0.3-0.2c-0.1-0.1-0.1-0.3-0.1-0.4
	c0.2-0.7,0.3-1.4,0.5-2.1c0-0.1,0-0.1,0.1-0.2c0-0.1,0.1-0.1,0.2-0.1s0.1-0.1,0.2-0.1c0.1,0,0.1,0,0.2,0c0.1,0,0.1,0,0.2,0.1
	c0.1,0,0.1,0.1,0.1,0.2s0.1,0.1,0.1,0.2s0,0.1,0,0.2c-0.1,0.7-0.3,1.4-0.5,2.1c0,0.1-0.1,0.2-0.2,0.3
	C482.9,185.4,482.8,185.5,482.7,185.5L482.7,185.5z M484.1,178L484.1,178c-0.1,0-0.2,0-0.3-0.1c-0.1,0-0.1-0.1-0.2-0.1
	c0-0.1-0.1-0.1-0.1-0.2c0-0.1,0-0.1,0-0.2c0.1-0.7,0.2-1.4,0.3-2.1c0-0.1,0-0.1,0.1-0.2c0-0.1,0.1-0.1,0.1-0.2
	c0.1,0,0.1-0.1,0.2-0.1c0.1,0,0.1,0,0.2,0c0.1,0,0.1,0,0.2,0.1c0.1,0,0.1,0.1,0.2,0.1s0.1,0.1,0.1,0.2c0,0.1,0,0.1,0,0.2
	c-0.1,0.7-0.2,1.4-0.3,2.2c0,0.1-0.1,0.2-0.2,0.3C484.4,177.9,484.3,178,484.1,178L484.1,178z M485.1,170.4L485.1,170.4
	c-0.1,0-0.2,0-0.3-0.1c-0.1,0-0.1-0.1-0.2-0.1c0-0.1-0.1-0.1-0.1-0.2c0-0.1,0-0.1,0-0.2c0.1-0.7,0.1-1.4,0.2-2.2
	c0-0.1,0.1-0.3,0.2-0.4c0.1-0.1,0.3-0.1,0.4-0.1c0.2,0,0.3,0.1,0.4,0.2c0.1,0.1,0.1,0.3,0.1,0.4c0,0.7-0.1,1.5-0.2,2.2
	c0,0.1-0.1,0.3-0.2,0.4C485.4,170.4,485.3,170.4,485.1,170.4L485.1,170.4z M485.6,162.8c-0.1,0-0.1,0-0.2,0c-0.1,0-0.1-0.1-0.2-0.1
	c-0.1-0.1-0.1-0.1-0.1-0.2s0-0.1,0-0.2c0-0.7,0-1.4,0-2.2c0-0.1,0.1-0.3,0.2-0.4c0.1-0.1,0.2-0.2,0.4-0.2c0.1,0,0.1,0,0.2,0
	c0.1,0,0.1,0.1,0.2,0.1c0.1,0.1,0.1,0.1,0.1,0.2c0,0.1,0,0.1,0,0.2c0,0.7,0,1.5,0,2.2c0,0.1-0.1,0.3-0.2,0.4
	S485.8,162.8,485.6,162.8L485.6,162.8z M485.5,155.1c-0.1,0-0.3-0.1-0.4-0.1c-0.1-0.1-0.2-0.2-0.2-0.4c0-0.7-0.1-1.4-0.1-2.2
	c0-0.1,0-0.1,0-0.2c0-0.1,0.1-0.1,0.1-0.2c0-0.1,0.1-0.1,0.2-0.1c0.1,0,0.1-0.1,0.2-0.1c0.1,0,0.3,0,0.4,0.1s0.2,0.2,0.2,0.4
	c0.1,0.7,0.1,1.5,0.1,2.2c0,0.1,0,0.3-0.1,0.4C485.8,155.1,485.7,155.1,485.5,155.1L485.5,155.1z M484.8,147.5
	c-0.1,0-0.3-0.1-0.4-0.1c-0.1-0.1-0.2-0.2-0.2-0.3c-0.1-0.7-0.2-1.4-0.3-2.1c0-0.1,0-0.1,0-0.2s0-0.1,0.1-0.2c0-0.1,0.1-0.1,0.2-0.1
	s0.1-0.1,0.2-0.1c0.1,0,0.3,0,0.4,0.1c0.1,0.1,0.2,0.2,0.2,0.4c0.1,0.7,0.2,1.5,0.3,2.2c0,0.1,0,0.1,0,0.2c0,0.1,0,0.1-0.1,0.2
	c0,0.1-0.1,0.1-0.2,0.1C485,147.5,485,147.5,484.8,147.5L484.8,147.5z M483.6,140c-0.1,0-0.2,0-0.3-0.1s-0.2-0.2-0.2-0.3
	c-0.1-0.7-0.3-1.4-0.5-2.1c0-0.1,0-0.3,0.1-0.4c0.1-0.1,0.2-0.2,0.3-0.3c0.1,0,0.1,0,0.2,0c0.1,0,0.1,0,0.2,0.1s0.1,0.1,0.2,0.1
	c0,0.1,0.1,0.1,0.1,0.2c0.2,0.7,0.3,1.4,0.5,2.1c0,0.1,0,0.1,0,0.2c0,0.1,0,0.1-0.1,0.2s-0.1,0.1-0.1,0.2c-0.1,0-0.1,0.1-0.2,0.1
	L483.6,140z M481.7,132.6c-0.1,0-0.2,0-0.3-0.1c-0.1-0.1-0.2-0.2-0.2-0.3c-0.2-0.7-0.4-1.4-0.7-2.1c-0.1-0.1-0.1-0.1-0.1-0.2
	c0-0.1,0-0.2,0-0.3c0-0.1,0.1-0.2,0.1-0.2c0.1-0.1,0.1-0.1,0.2-0.1c0.1,0,0.2,0,0.3,0c0.1,0,0.2,0,0.2,0.1c0.1,0.1,0.1,0.1,0.2,0.2
	s0.1,0.2,0.1,0.2c0.2,0.7,0.5,1.4,0.7,2.1c0,0.1,0,0.1,0,0.2c0,0.1,0,0.1-0.1,0.2c0,0.1-0.1,0.1-0.1,0.2c-0.1,0-0.1,0.1-0.2,0.1
	C481.8,132.6,481.7,132.6,481.7,132.6L481.7,132.6z M479.1,125.4c-0.1,0-0.2,0-0.3-0.1s-0.2-0.1-0.2-0.2c-0.3-0.7-0.5-1.3-0.8-2
	c-0.1-0.1-0.1-0.3,0-0.4c0.1-0.1,0.2-0.2,0.3-0.3c0.1,0,0.1,0,0.2,0s0.1,0,0.2,0c0.1,0,0.1,0.1,0.2,0.1c0.1,0.1,0.1,0.1,0.1,0.2
	c0.3,0.7,0.6,1.3,0.8,2c0,0.1,0,0.1,0,0.2c0,0.1,0,0.1,0,0.2c0,0.1-0.1,0.1-0.1,0.2c-0.1,0-0.1,0.1-0.2,0.1
	C479.3,125.4,479.2,125.4,479.1,125.4L479.1,125.4z M476,118.4c-0.1,0-0.2,0-0.3-0.1s-0.2-0.1-0.2-0.2c-0.3-0.6-0.7-1.3-1-1.9
	c-0.1-0.1-0.1-0.3,0-0.4c0-0.1,0.1-0.3,0.3-0.3c0.1-0.1,0.3-0.1,0.4,0c0.1,0,0.3,0.1,0.3,0.3c0.3,0.7,0.7,1.3,1,2
	c0,0.1,0.1,0.1,0.1,0.2c0,0.1,0,0.1,0,0.2c0,0.1-0.1,0.1-0.1,0.2c0,0.1-0.1,0.1-0.2,0.1C476.2,118.4,476.1,118.4,476,118.4
	L476,118.4z M472.3,111.8c-0.1,0-0.2,0-0.3-0.1c-0.1,0-0.1-0.1-0.2-0.2c-0.4-0.6-0.8-1.2-1.1-1.8c0-0.1-0.1-0.1-0.1-0.2
	c0-0.1,0-0.1,0-0.2c0-0.1,0-0.1,0.1-0.2c0-0.1,0.1-0.1,0.2-0.1c0.1-0.1,0.3-0.1,0.4-0.1c0.1,0,0.3,0.1,0.3,0.2
	c0.4,0.6,0.8,1.2,1.1,1.9c0,0.1,0.1,0.1,0.1,0.2s0,0.1,0,0.2c0,0.1,0,0.1-0.1,0.2c0,0.1-0.1,0.1-0.2,0.1
	C472.5,111.7,472.4,111.8,472.3,111.8z M467.9,105.5c-0.1,0-0.2,0-0.2-0.1c-0.1,0-0.1-0.1-0.2-0.2c-0.4-0.6-0.9-1.1-1.3-1.7
	c-0.1-0.1-0.1-0.3-0.1-0.4c0-0.1,0.1-0.3,0.2-0.4c0.1-0.1,0.3-0.1,0.4-0.1c0.1,0,0.3,0.1,0.4,0.2c0.5,0.6,0.9,1.1,1.4,1.7
	c0.1,0.1,0.1,0.3,0.1,0.4c0,0.1-0.1,0.3-0.2,0.4C468.2,105.4,468.1,105.5,467.9,105.5z M463.1,99.6c-0.1,0-0.2,0-0.2,0
	c-0.1,0-0.1-0.1-0.2-0.1c-0.5-0.5-1-1.1-1.5-1.6c-0.1-0.1-0.2-0.2-0.2-0.4c0-0.1,0.1-0.3,0.2-0.4c0.1-0.1,0.2-0.2,0.4-0.2
	c0.1,0,0.3,0.1,0.4,0.2c0.5,0.5,1,1.1,1.5,1.6c0.1,0.1,0.1,0.1,0.1,0.2c0,0.1,0,0.1,0,0.2c0,0.1,0,0.1,0,0.2c0,0.1-0.1,0.1-0.1,0.2
	c-0.1,0.1-0.1,0.1-0.2,0.1C463.2,99.6,463.1,99.6,463.1,99.6z M457.7,94.2c-0.1,0-0.3,0-0.4-0.1c-0.5-0.5-1.1-1-1.6-1.4
	c-0.1,0-0.1-0.1-0.1-0.2c0-0.1-0.1-0.1-0.1-0.2c0-0.1,0-0.1,0-0.2c0-0.1,0.1-0.1,0.1-0.2c0.1-0.1,0.2-0.2,0.4-0.2
	c0.1,0,0.3,0,0.4,0.1c0.6,0.5,1.1,0.9,1.7,1.4c0.1,0.1,0.1,0.2,0.2,0.3s0,0.2,0,0.3c0,0.1-0.1,0.2-0.2,0.3
	C457.9,94.2,457.8,94.2,457.7,94.2z M451.7,89.4c-0.1,0-0.2,0-0.3-0.1c-0.6-0.4-1.1-0.8-1.8-1.3c-0.1,0-0.1-0.1-0.2-0.1
	c0-0.1-0.1-0.1-0.1-0.2c0-0.1,0-0.1,0-0.2c0-0.1,0-0.1,0.1-0.2c0-0.1,0.1-0.1,0.2-0.2c0.1,0,0.1-0.1,0.2-0.1c0.1,0,0.1,0,0.2,0
	c0.1,0,0.1,0.1,0.2,0.1c0.6,0.4,1.2,0.8,1.8,1.3c0.1,0.1,0.2,0.2,0.2,0.3c0,0.1,0,0.2,0,0.3c0,0.1-0.1,0.2-0.2,0.3
	C452,89.4,451.8,89.4,451.7,89.4z M445.4,85.2c-0.1,0-0.2,0-0.3-0.1l-2-1c-0.1,0-0.1-0.1-0.2-0.1c0-0.1-0.1-0.1-0.1-0.2
	c0-0.1,0-0.1,0-0.2c0-0.1,0-0.1,0.1-0.2c0-0.1,0.1-0.1,0.1-0.2c0.1,0,0.1-0.1,0.2-0.1c0.1,0,0.1,0,0.2,0c0.1,0,0.1,0,0.2,0.1
	c0.7,0.3,1.3,0.7,1.9,1.1c0.1,0.1,0.2,0.2,0.3,0.3s0,0.3-0.1,0.4c0,0.1-0.1,0.1-0.2,0.2C445.5,85.2,445.5,85.2,445.4,85.2z
	 M438.6,81.8c-0.1,0-0.1,0-0.2,0c-0.7-0.3-1.3-0.6-2-0.8c-0.1,0-0.1-0.1-0.2-0.1c-0.1-0.1-0.1-0.1-0.1-0.2c0-0.1,0-0.1,0-0.2
	c0-0.1,0-0.1,0-0.2c0-0.1,0.1-0.1,0.1-0.2c0.1-0.1,0.1-0.1,0.2-0.1c0.1,0,0.1,0,0.2,0c0.1,0,0.1,0,0.2,0c0.7,0.3,1.4,0.6,2,0.8
	c0.1,0.1,0.2,0.1,0.3,0.3c0.1,0.1,0.1,0.2,0,0.4c0,0.1-0.1,0.2-0.2,0.3C438.8,81.8,438.7,81.9,438.6,81.8L438.6,81.8z M431.4,79.1
	c-0.1,0-0.1,0-0.2,0c-0.7-0.2-1.4-0.4-2.1-0.6c-0.1-0.1-0.2-0.2-0.3-0.3c-0.1-0.1-0.1-0.3,0-0.4c0-0.1,0.1-0.2,0.2-0.3
	c0.1-0.1,0.2-0.1,0.4-0.1c0.7,0.2,1.4,0.4,2.1,0.7c0.1,0,0.2,0.1,0.3,0.2c0.1,0.1,0.1,0.2,0.1,0.4c0,0.1-0.1,0.2-0.2,0.3
	S431.6,79.2,431.4,79.1L431.4,79.1z M424.1,77H424c-0.7-0.2-1.4-0.3-2.1-0.5c-0.1,0-0.1,0-0.2-0.1c-0.1,0-0.1-0.1-0.1-0.2
	c0-0.1-0.1-0.1-0.1-0.2c0-0.1,0-0.1,0-0.2c0-0.1,0-0.1,0.1-0.2c0-0.1,0.1-0.1,0.2-0.1c0.1,0,0.1-0.1,0.2-0.1c0.1,0,0.1,0,0.2,0
	c0.7,0.2,1.4,0.3,2.1,0.5c0.1,0,0.3,0.1,0.3,0.2c0.1,0.1,0.1,0.3,0.1,0.4c0,0.1-0.1,0.2-0.2,0.3C424.3,77,424.2,77,424.1,77
	L424.1,77z M416.6,75.4h-0.1l-2.1-0.4c-0.1,0-0.1,0-0.2-0.1c-0.1,0-0.1-0.1-0.2-0.1c0-0.1-0.1-0.1-0.1-0.2c0-0.1,0-0.1,0-0.2
	c0-0.1,0.1-0.3,0.2-0.4c0.1-0.1,0.3-0.1,0.4-0.1l2.2,0.4c0.1,0,0.1,0,0.2,0.1s0.1,0.1,0.2,0.2c0,0.1,0.1,0.1,0.1,0.2
	c0,0.1,0,0.1,0,0.2c0,0.1-0.1,0.2-0.2,0.3C416.8,75.4,416.7,75.4,416.6,75.4L416.6,75.4z M409.1,74.1L409.1,74.1l-2.2-0.3
	c-0.1,0-0.3-0.1-0.4-0.2c-0.1-0.1-0.1-0.3-0.1-0.4c0-0.1,0.1-0.3,0.2-0.4c0.1-0.1,0.3-0.1,0.4-0.1l2.2,0.3c0.1,0,0.1,0,0.2,0.1
	c0.1,0,0.1,0.1,0.2,0.1s0.1,0.1,0.1,0.2c0,0.1,0,0.1,0,0.2c0,0.1-0.1,0.3-0.2,0.3C409.3,74.1,409.2,74.1,409.1,74.1L409.1,74.1z
	 M401.5,73.1h-0.1l-2.2-0.3c-0.1,0-0.3-0.1-0.4-0.2c-0.1-0.1-0.1-0.3-0.1-0.4c0-0.1,0.1-0.3,0.2-0.4c0.1-0.1,0.3-0.1,0.4-0.1
	l2.2,0.3c0.1,0,0.3,0.1,0.4,0.2c0.1,0.1,0.1,0.3,0.1,0.4c0,0.1-0.1,0.3-0.2,0.4C401.8,73.1,401.6,73.1,401.5,73.1L401.5,73.1z
	 M394,72.1L394,72.1l-2.2-0.3c-0.1,0-0.1,0-0.2-0.1s-0.1-0.1-0.2-0.1c-0.1-0.1-0.1-0.3-0.1-0.4c0-0.1,0.1-0.3,0.2-0.4
	c0.1-0.1,0.3-0.1,0.4-0.1l2.2,0.3c0.1,0,0.3,0.1,0.4,0.2c0.1,0.1,0.1,0.3,0.1,0.4c0,0.1-0.1,0.3-0.2,0.4
	C394.3,72,394.1,72.1,394,72.1z M386.4,70.9L386.4,70.9l-2.2-0.3c-0.1,0-0.3-0.1-0.4-0.2c-0.1-0.1-0.1-0.3-0.1-0.4
	c0-0.1,0.1-0.3,0.2-0.4c0.1-0.1,0.3-0.1,0.4-0.1l2.2,0.3c0.2,0,0.3,0.1,0.4,0.2c0.1,0.1,0.1,0.3,0.1,0.4c0,0.1-0.1,0.3-0.2,0.4
	C386.7,70.9,386.6,71,386.4,70.9z"/>
<path class="st1" d="M472.5,214.2c-0.1,0-0.2,0-0.2-0.1c-0.1,0-0.1-0.1-0.2-0.1s-0.1-0.1-0.1-0.2c0-0.1,0-0.1,0-0.2
	c0-0.1,0-0.1,0.1-0.2c0.3-0.7,0.6-1.3,0.9-2c0.1-0.1,0.2-0.2,0.3-0.3c0.1,0,0.3,0,0.4,0c0.1,0,0.1,0.1,0.2,0.1
	c0,0.1,0.1,0.1,0.1,0.2c0,0.1,0,0.1,0,0.2c0,0.1,0,0.1,0,0.2l-0.9,2c0,0.1-0.1,0.2-0.2,0.2C472.7,214.2,472.6,214.2,472.5,214.2z
	 M475.6,207.3c-0.1,0-0.1,0-0.2,0c-0.1-0.1-0.2-0.2-0.3-0.3c-0.1-0.1-0.1-0.3,0-0.4c0.3-0.7,0.6-1.3,0.8-2c0.1-0.1,0.2-0.2,0.3-0.3
	c0.1-0.1,0.3-0.1,0.4,0c0.1,0.1,0.2,0.2,0.3,0.3c0.1,0.1,0.1,0.3,0,0.4c-0.3,0.7-0.6,1.4-0.8,2c0,0.1-0.1,0.2-0.2,0.2
	C475.9,207.2,475.8,207.3,475.6,207.3L475.6,207.3z M478.4,200.1c-0.1,0-0.1,0-0.2,0c-0.1,0-0.1-0.1-0.2-0.1c-0.1,0-0.1-0.1-0.1-0.2
	c0-0.1-0.1-0.1-0.1-0.2c0-0.1,0-0.1,0-0.2c0.2-0.7,0.5-1.4,0.7-2.1c0-0.1,0.1-0.1,0.1-0.2c0-0.1,0.1-0.1,0.2-0.1
	c0.1,0,0.1-0.1,0.2-0.1c0.1,0,0.1,0,0.2,0c0.1,0,0.2,0.1,0.3,0.3c0.1,0.1,0.1,0.3,0,0.4c-0.2,0.7-0.5,1.4-0.7,2.1
	c0,0.1-0.1,0.2-0.2,0.2C478.6,200.1,478.5,200.1,478.4,200.1L478.4,200.1z M480.8,192.9h-0.2c-0.1,0-0.1-0.1-0.2-0.1
	c-0.1,0-0.1-0.1-0.1-0.2c0-0.1-0.1-0.1-0.1-0.2c0-0.1,0-0.1,0-0.2c0.2-0.7,0.4-1.4,0.6-2.1c0-0.1,0.1-0.2,0.3-0.3
	c0.1-0.1,0.3-0.1,0.4,0s0.2,0.1,0.3,0.2c0.1,0.1,0.1,0.3,0.1,0.4c-0.2,0.7-0.4,1.4-0.6,2.1c0,0.1-0.1,0.2-0.2,0.3
	C481,192.8,480.9,192.9,480.8,192.9L480.8,192.9z M482.7,185.5h-0.1c-0.1,0-0.3-0.1-0.3-0.2c-0.1-0.1-0.1-0.3-0.1-0.4
	c0.2-0.7,0.3-1.4,0.5-2.1c0-0.1,0-0.1,0.1-0.2c0-0.1,0.1-0.1,0.2-0.1s0.1-0.1,0.2-0.1c0.1,0,0.1,0,0.2,0c0.1,0,0.1,0,0.2,0.1
	c0.1,0,0.1,0.1,0.1,0.2s0.1,0.1,0.1,0.2s0,0.1,0,0.2c-0.1,0.7-0.3,1.4-0.5,2.1c0,0.1-0.1,0.2-0.2,0.3
	C482.9,185.4,482.8,185.5,482.7,185.5L482.7,185.5z M484.1,178L484.1,178c-0.1,0-0.2,0-0.3-0.1c-0.1,0-0.1-0.1-0.2-0.1
	c0-0.1-0.1-0.1-0.1-0.2c0-0.1,0-0.1,0-0.2c0.1-0.7,0.2-1.4,0.3-2.1c0-0.1,0-0.1,0.1-0.2c0-0.1,0.1-0.1,0.1-0.2
	c0.1,0,0.1-0.1,0.2-0.1c0.1,0,0.1,0,0.2,0c0.1,0,0.1,0,0.2,0.1c0.1,0,0.1,0.1,0.2,0.1s0.1,0.1,0.1,0.2c0,0.1,0,0.1,0,0.2
	c-0.1,0.7-0.2,1.4-0.3,2.2c0,0.1-0.1,0.2-0.2,0.3C484.4,177.9,484.3,178,484.1,178L484.1,178z M485.1,170.4L485.1,170.4
	c-0.1,0-0.2,0-0.3-0.1c-0.1,0-0.1-0.1-0.2-0.1c0-0.1-0.1-0.1-0.1-0.2c0-0.1,0-0.1,0-0.2c0.1-0.7,0.1-1.4,0.2-2.2
	c0-0.1,0.1-0.3,0.2-0.4c0.1-0.1,0.3-0.1,0.4-0.1c0.2,0,0.3,0.1,0.4,0.2c0.1,0.1,0.1,0.3,0.1,0.4c0,0.7-0.1,1.5-0.2,2.2
	c0,0.1-0.1,0.3-0.2,0.4C485.4,170.4,485.3,170.4,485.1,170.4L485.1,170.4z M485.6,162.8c-0.1,0-0.1,0-0.2,0c-0.1,0-0.1-0.1-0.2-0.1
	c-0.1-0.1-0.1-0.1-0.1-0.2s0-0.1,0-0.2c0-0.7,0-1.4,0-2.2c0-0.1,0.1-0.3,0.2-0.4c0.1-0.1,0.2-0.2,0.4-0.2c0.1,0,0.1,0,0.2,0
	c0.1,0,0.1,0.1,0.2,0.1c0.1,0.1,0.1,0.1,0.1,0.2c0,0.1,0,0.1,0,0.2c0,0.7,0,1.5,0,2.2c0,0.1-0.1,0.3-0.2,0.4
	S485.8,162.8,485.6,162.8L485.6,162.8z M485.5,155.1c-0.1,0-0.3-0.1-0.4-0.1c-0.1-0.1-0.2-0.2-0.2-0.4c0-0.7-0.1-1.4-0.1-2.2
	c0-0.1,0-0.1,0-0.2c0-0.1,0.1-0.1,0.1-0.2c0-0.1,0.1-0.1,0.2-0.1c0.1,0,0.1-0.1,0.2-0.1c0.1,0,0.3,0,0.4,0.1s0.2,0.2,0.2,0.4
	c0.1,0.7,0.1,1.5,0.1,2.2c0,0.1,0,0.3-0.1,0.4C485.8,155.1,485.7,155.1,485.5,155.1L485.5,155.1z M484.8,147.5
	c-0.1,0-0.3-0.1-0.4-0.1c-0.1-0.1-0.2-0.2-0.2-0.3c-0.1-0.7-0.2-1.4-0.3-2.1c0-0.1,0-0.1,0-0.2s0-0.1,0.1-0.2c0-0.1,0.1-0.1,0.2-0.1
	s0.1-0.1,0.2-0.1c0.1,0,0.3,0,0.4,0.1c0.1,0.1,0.2,0.2,0.2,0.4c0.1,0.7,0.2,1.5,0.3,2.2c0,0.1,0,0.1,0,0.2c0,0.1,0,0.1-0.1,0.2
	c0,0.1-0.1,0.1-0.2,0.1C485,147.5,485,147.5,484.8,147.5L484.8,147.5z M483.6,140c-0.1,0-0.2,0-0.3-0.1s-0.2-0.2-0.2-0.3
	c-0.1-0.7-0.3-1.4-0.5-2.1c0-0.1,0-0.3,0.1-0.4c0.1-0.1,0.2-0.2,0.3-0.3c0.1,0,0.1,0,0.2,0c0.1,0,0.1,0,0.2,0.1s0.1,0.1,0.2,0.1
	c0,0.1,0.1,0.1,0.1,0.2c0.2,0.7,0.3,1.4,0.5,2.1c0,0.1,0,0.1,0,0.2c0,0.1,0,0.1-0.1,0.2s-0.1,0.1-0.1,0.2c-0.1,0-0.1,0.1-0.2,0.1
	L483.6,140z M481.7,132.6c-0.1,0-0.2,0-0.3-0.1c-0.1-0.1-0.2-0.2-0.2-0.3c-0.2-0.7-0.4-1.4-0.7-2.1c-0.1-0.1-0.1-0.1-0.1-0.2
	c0-0.1,0-0.2,0-0.3c0-0.1,0.1-0.2,0.1-0.2c0.1-0.1,0.1-0.1,0.2-0.1c0.1,0,0.2,0,0.3,0c0.1,0,0.2,0,0.2,0.1c0.1,0.1,0.1,0.1,0.2,0.2
	s0.1,0.2,0.1,0.2c0.2,0.7,0.5,1.4,0.7,2.1c0,0.1,0,0.1,0,0.2c0,0.1,0,0.1-0.1,0.2c0,0.1-0.1,0.1-0.1,0.2c-0.1,0-0.1,0.1-0.2,0.1
	C481.8,132.6,481.7,132.6,481.7,132.6L481.7,132.6z M479.1,125.4c-0.1,0-0.2,0-0.3-0.1s-0.2-0.1-0.2-0.2c-0.3-0.7-0.5-1.3-0.8-2
	c-0.1-0.1-0.1-0.3,0-0.4c0.1-0.1,0.2-0.2,0.3-0.3c0.1,0,0.1,0,0.2,0s0.1,0,0.2,0c0.1,0,0.1,0.1,0.2,0.1c0.1,0.1,0.1,0.1,0.1,0.2
	c0.3,0.7,0.6,1.3,0.8,2c0,0.1,0,0.1,0,0.2c0,0.1,0,0.1,0,0.2c0,0.1-0.1,0.1-0.1,0.2c-0.1,0-0.1,0.1-0.2,0.1
	C479.3,125.4,479.2,125.4,479.1,125.4L479.1,125.4z M476,118.4c-0.1,0-0.2,0-0.3-0.1s-0.2-0.1-0.2-0.2c-0.3-0.6-0.7-1.3-1-1.9
	c-0.1-0.1-0.1-0.3,0-0.4c0-0.1,0.1-0.3,0.3-0.3c0.1-0.1,0.3-0.1,0.4,0c0.1,0,0.3,0.1,0.3,0.3c0.3,0.7,0.7,1.3,1,2
	c0,0.1,0.1,0.1,0.1,0.2c0,0.1,0,0.1,0,0.2c0,0.1-0.1,0.1-0.1,0.2c0,0.1-0.1,0.1-0.2,0.1C476.2,118.4,476.1,118.4,476,118.4
	L476,118.4z M472.3,111.8c-0.1,0-0.2,0-0.3-0.1c-0.1,0-0.1-0.1-0.2-0.2c-0.4-0.6-0.8-1.2-1.1-1.8c0-0.1-0.1-0.1-0.1-0.2
	c0-0.1,0-0.1,0-0.2c0-0.1,0-0.1,0.1-0.2c0-0.1,0.1-0.1,0.2-0.1c0.1-0.1,0.3-0.1,0.4-0.1c0.1,0,0.3,0.1,0.3,0.2
	c0.4,0.6,0.8,1.2,1.1,1.9c0,0.1,0.1,0.1,0.1,0.2s0,0.1,0,0.2c0,0.1,0,0.1-0.1,0.2c0,0.1-0.1,0.1-0.2,0.1
	C472.5,111.7,472.4,111.8,472.3,111.8z M467.9,105.5c-0.1,0-0.2,0-0.2-0.1c-0.1,0-0.1-0.1-0.2-0.2c-0.4-0.6-0.9-1.1-1.3-1.7
	c-0.1-0.1-0.1-0.3-0.1-0.4c0-0.1,0.1-0.3,0.2-0.4c0.1-0.1,0.3-0.1,0.4-0.1c0.1,0,0.3,0.1,0.4,0.2c0.5,0.6,0.9,1.1,1.4,1.7
	c0.1,0.1,0.1,0.3,0.1,0.4c0,0.1-0.1,0.3-0.2,0.4C468.2,105.4,468.1,105.5,467.9,105.5z M463.1,99.6c-0.1,0-0.2,0-0.2,0
	c-0.1,0-0.1-0.1-0.2-0.1c-0.5-0.5-1-1.1-1.5-1.6c-0.1-0.1-0.2-0.2-0.2-0.4c0-0.1,0.1-0.3,0.2-0.4c0.1-0.1,0.2-0.2,0.4-0.2
	c0.1,0,0.3,0.1,0.4,0.2c0.5,0.5,1,1.1,1.5,1.6c0.1,0.1,0.1,0.1,0.1,0.2c0,0.1,0,0.1,0,0.2c0,0.1,0,0.1,0,0.2c0,0.1-0.1,0.1-0.1,0.2
	c-0.1,0.1-0.1,0.1-0.2,0.1C463.2,99.6,463.1,99.6,463.1,99.6z M457.7,94.2c-0.1,0-0.3,0-0.4-0.1c-0.5-0.5-1.1-1-1.6-1.4
	c-0.1,0-0.1-0.1-0.1-0.2c0-0.1-0.1-0.1-0.1-0.2c0-0.1,0-0.1,0-0.2c0-0.1,0.1-0.1,0.1-0.2c0.1-0.1,0.2-0.2,0.4-0.2
	c0.1,0,0.3,0,0.4,0.1c0.6,0.5,1.1,0.9,1.7,1.4c0.1,0.1,0.1,0.2,0.2,0.3s0,0.2,0,0.3c0,0.1-0.1,0.2-0.2,0.3
	C457.9,94.2,457.8,94.2,457.7,94.2z M451.7,89.4c-0.1,0-0.2,0-0.3-0.1c-0.6-0.4-1.1-0.8-1.8-1.3c-0.1,0-0.1-0.1-0.2-0.1
	c0-0.1-0.1-0.1-0.1-0.2c0-0.1,0-0.1,0-0.2c0-0.1,0-0.1,0.1-0.2c0-0.1,0.1-0.1,0.2-0.2c0.1,0,0.1-0.1,0.2-0.1c0.1,0,0.1,0,0.2,0
	c0.1,0,0.1,0.1,0.2,0.1c0.6,0.4,1.2,0.8,1.8,1.3c0.1,0.1,0.2,0.2,0.2,0.3c0,0.1,0,0.2,0,0.3c0,0.1-0.1,0.2-0.2,0.3
	C452,89.4,451.8,89.4,451.7,89.4z M445.4,85.2c-0.1,0-0.2,0-0.3-0.1l-2-1c-0.1,0-0.1-0.1-0.2-0.1c0-0.1-0.1-0.1-0.1-0.2
	c0-0.1,0-0.1,0-0.2c0-0.1,0-0.1,0.1-0.2c0-0.1,0.1-0.1,0.1-0.2c0.1,0,0.1-0.1,0.2-0.1c0.1,0,0.1,0,0.2,0c0.1,0,0.1,0,0.2,0.1
	c0.7,0.3,1.3,0.7,1.9,1.1c0.1,0.1,0.2,0.2,0.3,0.3s0,0.3-0.1,0.4c0,0.1-0.1,0.1-0.2,0.2C445.5,85.2,445.5,85.2,445.4,85.2z
	 M438.6,81.8c-0.1,0-0.1,0-0.2,0c-0.7-0.3-1.3-0.6-2-0.8c-0.1,0-0.1-0.1-0.2-0.1c-0.1-0.1-0.1-0.1-0.1-0.2c0-0.1,0-0.1,0-0.2
	c0-0.1,0-0.1,0-0.2c0-0.1,0.1-0.1,0.1-0.2c0.1-0.1,0.1-0.1,0.2-0.1c0.1,0,0.1,0,0.2,0c0.1,0,0.1,0,0.2,0c0.7,0.3,1.4,0.6,2,0.8
	c0.1,0.1,0.2,0.1,0.3,0.3c0.1,0.1,0.1,0.2,0,0.4c0,0.1-0.1,0.2-0.2,0.3C438.8,81.8,438.7,81.9,438.6,81.8L438.6,81.8z M431.4,79.1
	c-0.1,0-0.1,0-0.2,0c-0.7-0.2-1.4-0.4-2.1-0.6c-0.1-0.1-0.2-0.2-0.3-0.3c-0.1-0.1-0.1-0.3,0-0.4c0-0.1,0.1-0.2,0.2-0.3
	c0.1-0.1,0.2-0.1,0.4-0.1c0.7,0.2,1.4,0.4,2.1,0.7c0.1,0,0.2,0.1,0.3,0.2c0.1,0.1,0.1,0.2,0.1,0.4c0,0.1-0.1,0.2-0.2,0.3
	S431.6,79.2,431.4,79.1L431.4,79.1z M424.1,77H424c-0.7-0.2-1.4-0.3-2.1-0.5c-0.1,0-0.1,0-0.2-0.1c-0.1,0-0.1-0.1-0.1-0.2
	c0-0.1-0.1-0.1-0.1-0.2c0-0.1,0-0.1,0-0.2c0-0.1,0-0.1,0.1-0.2c0-0.1,0.1-0.1,0.2-0.1c0.1,0,0.1-0.1,0.2-0.1c0.1,0,0.1,0,0.2,0
	c0.7,0.2,1.4,0.3,2.1,0.5c0.1,0,0.3,0.1,0.3,0.2c0.1,0.1,0.1,0.3,0.1,0.4c0,0.1-0.1,0.2-0.2,0.3C424.3,77,424.2,77,424.1,77
	L424.1,77z M416.6,75.4h-0.1l-2.1-0.4c-0.1,0-0.1,0-0.2-0.1c-0.1,0-0.1-0.1-0.2-0.1c0-0.1-0.1-0.1-0.1-0.2c0-0.1,0-0.1,0-0.2
	c0-0.1,0.1-0.3,0.2-0.4c0.1-0.1,0.3-0.1,0.4-0.1l2.2,0.4c0.1,0,0.1,0,0.2,0.1s0.1,0.1,0.2,0.2c0,0.1,0.1,0.1,0.1,0.2
	c0,0.1,0,0.1,0,0.2c0,0.1-0.1,0.2-0.2,0.3C416.8,75.4,416.7,75.4,416.6,75.4L416.6,75.4z M409.1,74.1L409.1,74.1l-2.2-0.3
	c-0.1,0-0.3-0.1-0.4-0.2c-0.1-0.1-0.1-0.3-0.1-0.4c0-0.1,0.1-0.3,0.2-0.4c0.1-0.1,0.3-0.1,0.4-0.1l2.2,0.3c0.1,0,0.1,0,0.2,0.1
	c0.1,0,0.1,0.1,0.2,0.1s0.1,0.1,0.1,0.2c0,0.1,0,0.1,0,0.2c0,0.1-0.1,0.3-0.2,0.3C409.3,74.1,409.2,74.1,409.1,74.1L409.1,74.1z
	 M401.5,73.1h-0.1l-2.2-0.3c-0.1,0-0.3-0.1-0.4-0.2c-0.1-0.1-0.1-0.3-0.1-0.4c0-0.1,0.1-0.3,0.2-0.4c0.1-0.1,0.3-0.1,0.4-0.1
	l2.2,0.3c0.1,0,0.3,0.1,0.4,0.2c0.1,0.1,0.1,0.3,0.1,0.4c0,0.1-0.1,0.3-0.2,0.4C401.8,73.1,401.6,73.1,401.5,73.1L401.5,73.1z
	 M394,72.1L394,72.1l-2.2-0.3c-0.1,0-0.1,0-0.2-0.1s-0.1-0.1-0.2-0.1c-0.1-0.1-0.1-0.3-0.1-0.4c0-0.1,0.1-0.3,0.2-0.4
	c0.1-0.1,0.3-0.1,0.4-0.1l2.2,0.3c0.1,0,0.3,0.1,0.4,0.2c0.1,0.1,0.1,0.3,0.1,0.4c0,0.1-0.1,0.3-0.2,0.4
	C394.3,72,394.1,72.1,394,72.1z M386.4,70.9L386.4,70.9l-2.2-0.3c-0.1,0-0.3-0.1-0.4-0.2c-0.1-0.1-0.1-0.3-0.1-0.4
	c0-0.1,0.1-0.3,0.2-0.4c0.1-0.1,0.3-0.1,0.4-0.1l2.2,0.3c0.2,0,0.3,0.1,0.4,0.2c0.1,0.1,0.1,0.3,0.1,0.4c0,0.1-0.1,0.3-0.2,0.4
	C386.7,70.9,386.6,71,386.4,70.9z"/>
<path class="st2" d="M220.7,132H41v113.9h179.7V132z"/>
<path class="st3" d="M96.8,118.7l-3.5-10H37.1v145.4h186.7V118.7H96.8z M220.2,245.8H40.5V132h179.7V245.8z"/>
<path class="st4" d="M45.3,121.6l-2.6,2.5l2.7,2.9"/>
<path class="st4" d="M42.7,124.1h5.7"/>
<path class="st4" d="M59.9,121.6l2.6,2.5l-2.7,2.9"/>
<path class="st4" d="M62.5,124.1h-5.7"/>
<path class="st4" d="M74.8,123.8c-0.2-0.6-0.5-1.1-1-1.5c-0.5-0.4-1.1-0.6-1.7-0.6c-0.7,0-1.3,0.3-1.8,0.8c-0.5,0.5-0.8,1.1-0.8,1.8
	c0,0.7,0.3,1.3,0.8,1.8c0.5,0.5,1.1,0.8,1.8,0.8c0.6,0,1.2-0.2,1.6-0.6"/>
<path class="st4" d="M73,124.1h2v-2.4"/>
<path class="st4" d="M87.6,113.9l3.6,3.7"/>
<path class="st4" d="M91.2,114l-3.7,3.6"/>
<path class="st5" d="M177.8,326.4l-27.7-54.1L70,315.8l27.8,51.1L177.8,326.4z"/>
<path class="st6" d="M144.2,286.9l-16,40.1L70.3,316l53.7,5l18-34.6L144.2,286.9z"/>
<path class="st7" d="M70.3,315.6l27.6,51.3l80-40.5l-28-53.8L70.3,315.6z"/>
<path class="st7" d="M70.3,315.6L124,321l25.7-48.4"/>
<path class="st0" d="M155.3,283.2c4.6-4.6,4.6-12.1,0-16.7c-4.6-4.6-12.1-4.6-16.7,0c-4.6,4.6-4.6,12.1,0,16.7
	C143.2,287.9,150.7,287.9,155.3,283.2z"/>
<path class="st6" d="M155.3,283.2c4.6-4.6,4.6-12.1,0-16.7c-4.6-4.6-12.1-4.6-16.7,0c-4.6,4.6-4.6,12.1,0,16.7
	C143.2,287.9,150.7,287.9,155.3,283.2z"/>
<path class="st7" d="M147,287.1c6.5,0,11.8-5.3,11.8-11.8c0-6.5-5.3-11.8-11.8-11.8c-6.5,0-11.8,5.3-11.8,11.8
	C135.1,281.8,140.4,287.1,147,287.1z"/>
<path class="st0" d="M147,283.8c6.5,0,11.8-5.3,11.8-11.8c0-6.5-5.3-11.8-11.8-11.8c-6.5,0-11.8,5.3-11.8,11.8
	C135.1,278.5,140.4,283.8,147,283.8z"/>
<path class="st7" d="M147,283.8c6.5,0,11.8-5.3,11.8-11.8c0-6.5-5.3-11.8-11.8-11.8c-6.5,0-11.8,5.3-11.8,11.8
	C135.1,278.5,140.4,283.8,147,283.8z"/>
<path class="st5" d="M333.8,201.9h-56.6c-1.9,0-3.4,1.5-3.4,3.4v31.5c0,1.9,1.5,3.4,3.4,3.4h56.6c1.9,0,3.4-1.5,3.4-3.4v-31.5
	C337.2,203.4,335.7,201.9,333.8,201.9z"/>
<path class="st7" d="M333.8,201.9h-56.6c-1.9,0-3.4,1.5-3.4,3.4v31.5c0,1.9,1.5,3.4,3.4,3.4h56.6c1.9,0,3.4-1.5,3.4-3.4v-31.5
	C337.2,203.4,335.7,201.9,333.8,201.9z"/>
<path class="st0" d="M333.3,207.7H278v2.6h55.3V207.7z"/>
<path class="st0" d="M333.3,213.7H278v2.6h55.3V213.7z"/>
<path class="st0" d="M333.3,219.7H278v2.6h55.3V219.7z"/>
<path class="st0" d="M333.3,225.6H278v2.6h55.3V225.6z"/>
<path class="st0" d="M333.3,231.6H278v2.6h55.3V231.6z"/>
<path class="st8" d="M270.4,233c-9,5-17.5,10.7-24.7,18c-16.9,16.9-25.3,40.2-37.2,60.8c-12.3,21.1-28.7,39.6-48.1,54.4
	c-20,15.2-43.7,26.6-68.8,28.4c-25.1,1.8-51.6-6.9-68-26c-16.4-19.1-20.4-48.9-6.6-69.9c11.4-17.3,34-26.4,54.2-21.9
	c7.9,1.8,15.3,5.3,22.6,8.9l11.3,5.5"/>
<path class="st8" d="M304.7,123.7c11.3-5.4,24.7-6.9,36.5-2.7c11.8,4.2,21.6,14.6,23.6,27c1.7,10.7-2.3,21.7-8.7,30.4
	c-5,6.4-10.9,12-17.6,16.6"/>
<path class="st5" d="M270.6,297.3l0.9-10.1l8.4-4.6l-12.8-23.7l-36,18.8l12.6,23.6l7.8-3.8l15.3,8L270.6,297.3z"/>
<path class="st5" d="M387.3,189.5c0,0-11.7,27.3-12.7,36.5c-1.1,9.2-0.5,13.8,3.9,17c4.4,3.2,12.5,3.4,12.5,3.4l-0.8,4.9
	c0,0-3.2-0.2-5.6,3.5c-2.4,3.7-2.4,6.2-2.4,6.2s3.1,12.2,5.6,12.4c2.5,0.2,5.2-8.3,5.2-8.3s2.3,12.2,4.4,11.8
	c2.1-0.4,22-13.7,22-13.7s1.8-9.2-2.6-14c0,0-1.1-9.1,0.1-13.4c0,0,8.6,1.1,9-7.7c0.4-7.8-3.7-11.2-6.2-8l-5.8-14.7l2.3-10.4
	L387.3,189.5z"/>
<path class="st6" d="M391.5,192.2l0.9,1.6c0,0-14.3,23.6-13.5,39c0.7,15.4,22.6,11.3,22.6,11.3s-1.4,19.3-9.5,18.1l-2.1-4.7
	l0.6-10.7c0,0-8.5,0.8-13.7-4.4c-5.2-5.2-2.7-16.3,2-31.5c4.7-15.2,8.5-21.3,8.5-21.3L391.5,192.2z"/>
<path class="st0" d="M460.5,300.7c-0.9,5-2.5,9.8-4.7,14.3c-2.4,4.8-5.3,9.2-8.8,13.2l2,18.6l4.7,27.7l-0.2,0.2
	c-0.3,0.2-0.8,0.6-1.5,1.1h-70c-1.8-4.3-3.9-9.1-5.8-13.9c-3.5-8.7-6.6-17.1-7.3-21.3c-0.1-0.5-0.1-1-0.1-1.4l-11.9-11.9l-39.2,21.4
	L267,305.9l0.1-0.1l5.1-10.3v-0.1l50.3,24l10.4-14.4l0.1-0.5v-0.1l3-9.8v-0.1l1.9-6.1l2.4-7.8l14.9-7.1l26.9-12.8v0.1
	c0.1,0.5,0.6,2,1.1,3.8c0.1,0.4,0.3,0.9,0.4,1.3c0.2,0.4,0.2,0.7,0.3,1c0.5,1.5,1.1,2.9,1.8,4.3c0.1,0.2,0.2,0.4,0.4,0.6
	c0.2,0.3,0.3,0.5,0.5,0.8v0.1c0.1,0.2,0.2,0.3,0.4,0.4c0.2,0.1,0.3,0.1,0.5,0.2c1.3-0.1,2.8-2.9,3.9-5.2c0-0.1,0.1-0.1,0.1-0.2
	c0.6-1.4,1.1-2.5,1.2-2.9v-0.1c0,0,0,0.1,0,0.1c0.2,1.1,1.4,8.5,3.2,10.9l0.2,0.2c0.1,0.1,0.2,0.3,0.4,0.4c0.2,0.1,0.3,0.1,0.5,0.2
	c0.9,0,3.6-1.7,6.9-3.9c6.1-4.1,14-10.2,15.2-11.1l0.1-0.1c0.3-2.2,0.3-4.3,0-6.5l0.2,0.1l32.7,12.6l0.9,0.4c0,0,4.7,5.8,7.2,20.2
	C461,292.4,461.1,296.6,460.5,300.7z"/>
<path class="st5" d="M352.4,289.2l3-17.1l-36.2-9.7l-6.2,26.2l14.4,4.5l6.5,13.2l9.9,6.8l10.9-10.1l0.9-8.1L352.4,289.2z"/>
<path class="st7" d="M271.5,287.1l8.4-4.2l-12.7-24.3l-35.9,19.4l12.4,23.1l16.9-8.6"/>
<path class="st7" d="M231.4,278.1l24.3,2.4l11.6-21.8"/>
<path class="st7" d="M346.7,298.4l3.9,1.1l5-27.8l-36.3-9.5l-6.2,26.4l13.9,4"/>
<path class="st7" d="M319.4,262.2l14.4,18l21.7-8.6"/>
<path class="st7" d="M388.9,185.8c0,0-14.2,32.2-15.2,45.3c-1,13.1,11.3,15,11.4,15.1c4.9,0.9,9.9,0.4,14.6-1.5
	c3.6-1.6,6.6-4.5,9.6-7"/>
<path class="st7" d="M386.3,222.2l-5.7-3.2l6.7-14.4"/>
<path class="st9" d="M393.5,210.9c-0.4,1.3-0.2,2.5,0.5,2.7c0.7,0.2,1.6-0.6,2-1.9s0.2-2.5-0.5-2.7
	C394.8,208.8,393.9,209.6,393.5,210.9z"/>
<path class="st9" d="M382.5,206.8c-0.4,1.3-0.2,2.5,0.5,2.7c0.7,0.2,1.6-0.6,2-1.9c0.4-1.3,0.2-2.5-0.5-2.7
	C383.8,204.7,382.9,205.5,382.5,206.8z"/>
<path class="st7" d="M394.2,225c-1,1.2-2.3,2.1-3.7,2.6c-1.4,0.5-3,0.7-4.5,0.5"/>
<path class="st10" d="M394,203.9c0.7-0.3,1.4-0.4,2.2-0.3c0.7,0.1,1.4,0.5,1.9,1.1c1,1.1,1.7,2.5,2.1,3.9"/>
<path class="st10" d="M387.7,202.1c-0.2-0.5-0.4-0.9-0.8-1.2c-0.4-0.3-0.8-0.5-1.3-0.5c-0.5-0.1-1,0-1.4,0.2c-0.4,0.2-0.8,0.5-1.1,1
	"/>
<path class="st7" d="M416.3,226.4c0,0,3.8-6.2,7.8-4.8c4,1.4,2.1,7.1,0.2,10.7c-1.9,3.6-6.8,3.8-9.5,2.3"/>
<path class="st9" d="M425.3,229.9c0,0,3.8-6.4-0.2-8.5c-4-2.1-8.9,5.1-8.9,5.1s-0.5,0-1-0.2c-0.5-0.2-0.9-0.4-1.2-0.8
	c-0.4-0.3-0.6-0.7-0.8-1.2c-0.2-0.5-0.3-0.9-0.3-1.4c0-0.5,0.1-1,0.3-1.4c0.2-0.4,0.3-0.8,0.4-1.1c0.6-1.6,0.7-3.4,0.4-5.1
	c-0.7-3.5-3.1-6.3-2.7-10c0.3-2.9,1.2-5.7,2.6-8.3c-20.5,4.1-32.8-7.5-30.1-17.1c2.7-9.6,9.2-1,23.6-6.5
	c14.4-5.5,24.7,17.8,24.7,17.8c14.4,9.9,0.6,23.9,0.6,23.9l-7.3,15.2L425.3,229.9z"/>
<path class="st7" d="M446.8,327.6c0.5,18.1,6.8,46.8,6.8,46.8l-0.2,0.2l-1.6,1.1"/>
<path class="st7" d="M381.4,375.8c-1.8-4.3-3.6-9-5.4-13.9c-2.6-7.2-5.1-14.8-7.4-22.7"/>
<path class="st7" d="M419.5,255c0,0,29.2,10.4,33.6,13.1"/>
<path class="st7" d="M393.3,263.4c-2.3-1.7-3.6-6-3.1-9.2l0.7-7.5"/>
<path class="st7" d="M416.7,235.3c0,0-1.5,4.9-0.3,13.7"/>
<path class="st7" d="M407,339.4l-51.9-36.5L343.9,313c0,0,46.2,51.5,64.4,59.6c0,0,36.4-39.2,48.1-58.7c0,0,11.9-19.4-3-45.7"/>
<path class="st7" d="M400.8,335.1l27.9-37"/>
<path class="st7" d="M401.7,335.7l17.4,0.8"/>
<path class="st11" d="M432.2,192.8c0,0,2.3-9-3.4-16"/>
<path class="st7" d="M332.9,305l-10.6,14.8l-50.6-24.6l-4.7,10.4l50.6,43.1l39-21.5"/>
<path class="st7" d="M355.2,274.2l26.9-13.4"/>
<path class="st7" d="M270.2,297.9l1.5-13.5l-5.4-10.1c0,0,0.8-7.1-0.8-7.1c-1.6,0-1.5,17.4-1.5,17.4s-4.6,3.3-2.9,10.4"/>
<path class="st7" d="M252.4,297.2l14.5,8.4"/>
<path class="st7" d="M352.7,289.6l2.7,4.8l-0.5,8.5"/>
<path class="st7" d="M347.7,299.8c0-0.7-15.4-17.4-15.4-17.4l-1.8,1.4l6.3,12.4l-5.3-9.3l-1.5,1.8l1.4,6.8l-1.9-4.9l-2.5,1.3
	l6.8,14.6l9.7,6.3"/>
<path class="st7" d="M416.6,249c0,0-12.1,9.6-23.3,13.9c0,0,1.1,12.9,3.9,13.8c1,0.3,2.6-0.8,3.5-1.2c2-1.1,3.9-2.3,5.8-3.6
	c3.8-2.6,7.6-5.4,11.3-8.2c0.7-0.6,1.8-1.1,1.8-2C419.8,257,420,252.5,416.6,249L416.6,249z"/>
<path class="st7" d="M393.3,262.8c0,0-3.1,10.7-5.6,10.4c-2.6-0.4-5.7-13.1-5.7-13.1s3-10.2,8.5-8.5"/>
<path class="st7" d="M322.4,319.4c0.4,3.8,0.4,7.7,0,11.6"/>
<path class="st7" d="M359.8,295l4.3,14"/>
<path class="st7" d="M426.3,286.3c-3.3,6.2-4.8,13.3-4.3,20.3"/>
<path class="st7" d="M418.9,294.3c-0.4,4.1-0.3,8.3,0.4,12.4"/>
<path class="st7" d="M324.2,321c1.2,2.2,2,4.6,2.3,7.1"/>
<path class="st12" d="M387,181.4c0.4,1.8,1.5,3.4,3.1,4.5c1.6,1.1,3.3,1.9,5.1,2.4c5.3,1.7,10.8,2.6,16.3,2.6c1.2-0.1,2.4,0,3.6,0.3
	c0.6,0.1,1.1,0.4,1.6,0.8c0.5,0.4,0.8,0.9,1.1,1.4"/>
<path class="st12" d="M391.1,177.1c0.7,3.1,3.9,5,7,5.5c3.1,0.5,6.3-0.3,9.4-0.7c3.1-0.4,6.5-0.6,9.3,0.9c2.8,1.5,4.6,5.1,3.2,7.9"
	/>
<path class="st7" d="M359.8,375.8h21.6h0.4h70h0h40.1"/>
<path class="st7" d="M309.7,375.8h39.9"/>
<path class="st7" d="M397.2,391.5h-74.1l-28.3,15.3h77.6L397.2,391.5z"/>
<path class="st7" d="M328,395.5h54.7"/>
<path class="st7" d="M324,398.3h53.2"/>
<path class="st7" d="M320,401.2h51.6"/>
<path class="st7" d="M383,395.5l-15.7,7.7"/>
<path class="st7" d="M374.4,395.5l-15.7,7.7"/>
<path class="st9" d="M281.6,353.4h77.6l13.2,53.3h-77.6L281.6,353.4z"/>
<path class="st7" d="M372.5,406.8h-78.3v3.8h78.3V406.8z"/>
<path class="st13" d="M280.7,353.4h77.6l13.3,53.3H294L280.7,353.4z"/>
<path class="st9" d="M372.5,406.8l25.3-15.4l0,2.9l-25,16.8L372.5,406.8z"/>
<path class="st7" d="M329.5,378.5c0.1,0.8,0,1.6-0.3,2.3c-0.3,0.7-0.9,1.4-1.5,1.8c-0.7,0.4-1.5,0.7-2.3,0.7c-0.8,0-1.6-0.2-2.3-0.7
	c-0.7-0.4-1.2-1.1-1.5-1.8c-0.3-0.7-0.4-1.6-0.3-2.3c0.1-0.8,0.5-1.5,1-2.1c0.5-0.6,1.2-1,2-1.2c1.1-0.2,2.3,0,3.3,0.6
	C328.6,376.4,329.3,377.4,329.5,378.5z"/>
<path class="st14" d="M60.5,152.4h65.9c1.1,0,2,0.9,2,2v7.3c0,1.1-0.9,2-2,2H60.5c-1.1,0-2-0.9-2-2v-7.3
	C58.5,153.3,59.4,152.4,60.5,152.4z"/>
<path class="st14" d="M60.5,168.2h140.4c1.1,0,2,0.9,2,2v7.3c0,1.1-0.9,2-2,2H60.5c-1.1,0-2-0.9-2-2v-7.3
	C58.5,169.1,59.4,168.2,60.5,168.2z"/>
<path class="st14" d="M60.5,184h140.4c1.1,0,2,0.9,2,2v35.5c0,1.1-0.9,2-2,2H60.5c-1.1,0-2-0.9-2-2V186
	C58.5,184.9,59.4,184,60.5,184z"/>
<path class="st14" d="M134.9,152.4h65.9c1.1,0,2,0.9,2,2v7.3c0,1.1-0.9,2-2,2h-65.9c-1.1,0-2-0.9-2-2v-7.3
	C132.9,153.3,133.8,152.4,134.9,152.4z"/>
</svg>
