<svg width="601" height="120" viewBox="0 0 601 120" fill="none" xmlns="http://www.w3.org/2000/svg">
<g clip-path="url(#clip0_249_408)">
<path d="M151.945 59.9595C151.945 91.8922 126.054 117.778 94.1257 117.778C69.5279 117.778 48.5168 102.422 40.1641 80.7687C47.1314 93.0757 74.2172 95.2931 102.894 85.4257C131.523 75.5745 151.488 57.217 149.489 43.2419C151.088 48.5331 151.945 54.1433 151.945 59.9595Z" fill="#08A202"/>
<path d="M94.1255 120C81.7579 120 69.8831 116.272 59.7815 109.216C49.91 102.321 42.4095 92.7606 38.0918 81.5725L42.0985 79.6781C45.1076 84.9895 52.7253 88.3742 63.558 89.2022C74.9238 90.0706 88.6364 87.9865 102.171 83.3294C115.682 78.6805 127.759 71.903 136.184 64.2409C144.21 56.9383 148.156 49.5953 147.291 43.561L151.617 42.6038C153.31 48.2019 154.17 54.0423 154.17 59.9636C154.17 93.0716 127.234 120.004 94.1295 120.004L94.1255 120ZM47.115 89.6788C51.045 95.8949 56.1908 101.287 62.3261 105.572C71.6764 112.104 82.6748 115.557 94.1255 115.557C124.782 115.557 149.723 90.6159 149.723 59.9595C149.723 58.1258 149.634 56.3042 149.456 54.4947C143.349 66.9228 126.046 79.8114 103.613 87.53C91.3062 91.767 79.2618 93.8269 68.841 93.8269C60.2379 93.8269 52.7455 92.4254 47.115 89.6829V89.6788Z" fill="white"/>
<path d="M101.496 109.535C149.22 93.1214 181.658 61.6463 173.95 39.2336C166.241 16.821 121.305 11.9581 73.5812 28.372C25.8576 44.7859 -6.58107 76.2611 1.12746 98.6737C8.836 121.086 53.7726 125.949 101.496 109.535Z" fill="#FFD056"/>
<path d="M101.496 109.535C149.22 93.1214 181.658 61.6463 173.95 39.2336C166.241 16.821 121.305 11.9581 73.5812 28.372C25.8576 44.7859 -6.58107 76.2611 1.12746 98.6737C8.836 121.086 53.7726 125.949 101.496 109.535Z" fill="url(#paint0_linear_249_408)"/>
<path d="M102.891 85.5147C81.718 92.8011 61.4177 93.4999 49.4339 88.4147C44.1953 86.1892 40.1926 81.722 38.6012 76.2572C38.5971 76.241 38.5931 76.2249 38.5891 76.2087C37.1067 71.1115 36.311 65.7234 36.2989 60.1535C36.2424 28.5036 61.963 2.49617 93.613 2.22556C118.15 2.01553 139.202 17.0933 147.797 38.5123C147.805 38.5285 147.809 38.5446 147.817 38.5608C149.974 43.9206 149.574 50.0034 146.747 55.0401C140.381 66.3817 123.987 78.2606 102.891 85.5187V85.5147Z" fill="#08A202"/>
<path d="M68.724 93.9198C60.957 93.9198 54.034 92.7768 48.5692 90.4584C42.6641 87.9542 38.2535 83.0023 36.4723 76.8751L36.4561 76.8185C34.889 71.4305 34.0892 65.8243 34.0812 60.1534C34.0206 27.2716 60.7187 0.286729 93.5965 -4.32478e-05C105.916 -0.0969803 117.798 3.49777 127.94 10.4167C137.836 17.174 145.417 26.6011 149.86 37.6762L149.881 37.7246C152.304 43.7428 151.868 50.4476 148.685 56.1144C141.827 68.3325 124.556 80.4012 103.617 87.6068C91.48 91.7832 79.3225 93.9118 68.7281 93.9118L68.724 93.9198ZM94.1256 4.4429C93.96 4.4429 93.7984 4.4429 93.6328 4.4429C63.1905 4.70544 38.4676 29.695 38.5201 60.1454C38.5281 65.3961 39.2713 70.5903 40.7213 75.5826L40.7375 75.6351C42.1431 80.4658 45.6328 84.3796 50.302 86.3628C55.2619 88.4671 61.587 89.5052 68.716 89.5052C78.7732 89.5052 90.442 87.4453 102.167 83.4103C122.12 76.5439 138.458 65.2548 144.808 53.9454C147.292 49.5227 147.643 44.0821 145.753 39.3847L145.732 39.3322C141.617 29.077 134.597 20.3446 125.428 14.0881C116.179 7.77108 105.362 4.4429 94.1215 4.4429H94.1256Z" fill="white"/>
<path d="M108.853 46.853C108.853 36.3596 103.392 30.8988 92.8984 30.8988C103.392 30.8988 108.853 25.438 108.853 14.9446C108.853 25.438 114.313 30.8988 124.807 30.8988C114.313 30.8988 108.853 36.3596 108.853 46.853Z" fill="white"/>
</g>
<g clip-path="url(#clip1_249_408)">
<path d="M238.939 44.6747C235.617 41.1863 229.834 39.649 225.14 39.649C219.262 39.649 214.497 42.1205 214.497 46.2001C214.497 51.6515 219.688 52.6684 227.351 53.3543C239.105 54.3713 250.256 58.8884 250.256 72.6883C250.256 86.4882 237.993 91.7622 225.14 91.845C214.84 91.9278 204.103 87.9309 199.089 79.5824L207.012 71.3284C211.612 77.2055 219.192 79.7597 225.234 79.7597C232.306 79.7597 237.154 76.9454 237.154 72.6883C237.237 67.6627 233.24 65.3686 225.151 64.6827C212.546 63.4884 201.312 60.3429 201.478 46.2947C201.56 34.4578 212.794 28.155 225.057 28.155C234.257 28.155 241.151 30.2008 247.276 37.355L238.928 44.6747H238.939Z" fill="#1E201F"/>
<path d="M272.653 73.0312V89.8937H259.373V30.2834H287.469C302.712 30.2834 310.292 40.1574 310.292 51.6514C310.292 63.1454 302.629 72.8538 287.469 73.0193H272.653V73.0312ZM272.653 60.8513H287.469C293.855 60.8513 297.001 56.6771 297.001 51.9115C297.001 47.146 293.76 42.889 287.469 42.889H272.653V60.8513Z" fill="#1E201F"/>
<path d="M356.599 79.665H326.031L321.691 89.8819H307.383L334.119 30.2834H348.593L375.33 89.8819H360.939L356.599 79.665ZM341.356 43.7286L331.057 67.9109H351.573L341.356 43.7286Z" fill="#1E201F"/>
<path d="M430.849 82.645C424.724 88.6876 416.801 91.4192 407.944 91.4192C385.204 91.4192 376.182 76.7797 376.099 60.5084C376.016 45.1003 386.056 28.9236 407.944 28.9236C416.115 28.9236 423.695 32.0691 429.821 38.1235L421.472 46.3774C417.901 42.889 412.698 41.4345 407.932 41.4345C394.393 41.4345 389.119 51.9116 389.201 60.5912C389.284 69.2708 393.967 79.1566 407.932 79.1566C412.698 79.1566 419.001 77.0281 422.572 73.4569L430.826 82.6568L430.849 82.645Z" fill="#1E201F"/>
<path d="M484.145 89.8819H438.76V30.2834H482.95V42.4633H451.791V53.9573H481.165V65.6287H451.791V77.6311H484.145V89.8937V89.8819Z" fill="#1E201F"/>
<path d="M535.903 30.3662V67.6626H542.714V79.1566H535.903V89.9765H522.872V79.1566H491.11L489.998 65.534L522.694 30.3662H535.891H535.903ZM522.872 67.6626V46.4602L503.632 67.6626H522.872Z" fill="#1E201F"/>
<path d="M587.756 63.8312C584.007 67.9227 580.01 69.2826 573.79 69.2826C561.102 69.2826 550.294 62.7315 550.294 49.2745C550.294 34.8006 562.722 29.0891 575.41 29.0891C588.099 29.0891 600.704 34.8834 600.704 49.4401V70.4769C600.704 85.4593 587.756 90.9107 575.162 90.9107C562.568 90.9107 550.98 86.228 550.389 72.771H562.817C563.834 77.7139 569.711 79.3221 575.245 79.3221C581.465 79.3221 587.673 76.8507 587.756 70.4651V63.8194V63.8312ZM563.491 49.2745C563.491 54.8087 568.174 58.0488 575.328 58.0488C582.482 58.0488 587.756 54.9033 587.59 49.2745C587.425 43.906 582.399 40.8433 575.41 40.8433C568.422 40.8433 563.491 43.9887 563.491 49.2745Z" fill="#1E201F"/>
</g>
<defs>
<linearGradient id="paint0_linear_249_408" x1="73.5812" y1="28.372" x2="101.496" y2="109.535" gradientUnits="userSpaceOnUse">
<stop stop-color="#FF9900"/>
<stop offset="1" stop-color="#FF2323"/>
</linearGradient>
<clipPath id="clip0_249_408">
<rect width="175.089" height="120" fill="white"/>
</clipPath>
<clipPath id="clip1_249_408">
<rect width="401.604" height="63.69" fill="white" transform="translate(199.089 28.155)"/>
</clipPath>
</defs>
</svg>
