<svg width="1728" height="567" viewBox="0 0 1728 567" fill="none" xmlns="http://www.w3.org/2000/svg">
<path d="M1289.39 255.058C1236.63 256.059 1152.44 232.08 1137.5 223.5C1122.56 214.92 1090.5 189.5 1069.5 176.5C1048.5 163.5 1010.19 147.481 990 143.5C861.917 118.194 768.5 158.006 573 134C336.927 94.3009 363.5 22 0 0V567C128.051 541.694 82.8185 491.093 210.902 465.787C338.953 440.481 382.417 522.306 510.5 497C638.551 471.694 600.001 410.806 728.085 385.5C856.168 360.194 896.487 389.869 1024.54 364.564C1070.64 355.452 1093.24 340.708 1104.49 323.464C1114.69 307.841 1138.24 282.833 1172 271C1227.2 251.666 1289.93 267.671 1292.31 266.901C1295.78 265.791 1296.91 254.918 1289.39 255.068V255.058Z" fill="#08A202"/>
<path d="M1213.86 213.298L1213.86 294.782L1196.1 294.782C1194.75 294.782 1193.46 294.246 1192.51 293.294C1191.55 292.341 1191.02 291.049 1191.02 289.701L1191.02 218.417C1191.02 217.07 1191.55 215.778 1192.51 214.825C1193.46 213.872 1194.75 213.337 1196.1 213.337L1213.86 213.337L1213.86 213.298Z" fill="#1E201F"/>
<path d="M1214.36 295.075L1214.36 212.965L1214.4 212.958C1214.7 212.903 1215.14 212.822 1215.72 212.717C1216.87 212.507 1218.58 212.201 1220.77 211.815C1225.15 211.044 1231.49 209.957 1239.3 208.69C1254.91 206.158 1276.4 202.911 1299.92 200.054C1346.97 194.337 1402.03 190.196 1434.31 196.42C1458.34 201.412 1480.99 211.597 1500.67 226.262L1500.67 226.262L1500.67 226.265C1508.68 232.078 1516.28 238.432 1523.42 245.283C1524.79 246.601 1526.12 247.951 1527.32 249.168C1527.88 249.728 1528.4 250.26 1528.89 250.748C1529.74 251.624 1530.21 252.798 1530.21 254.02C1530.21 255.243 1529.74 256.417 1528.89 257.294C1527.23 258.985 1525.43 260.792 1523.42 262.717C1516.28 269.568 1508.68 275.922 1500.67 281.735L1500.67 281.739C1480.99 296.416 1458.34 306.615 1434.31 311.62C1402.03 317.824 1346.97 313.683 1299.92 307.971C1276.4 305.117 1254.91 301.874 1239.3 299.344C1231.49 298.079 1225.15 296.993 1220.77 296.223C1218.58 295.838 1216.87 295.532 1215.72 295.322C1215.14 295.217 1214.7 295.136 1214.4 295.082L1214.36 295.075Z" fill="white" stroke="black"/>
<path d="M1358.28 254.02C1358.28 276.097 1376.18 293.994 1398.25 293.994C1420.33 293.994 1438.23 276.097 1438.23 254.02C1438.23 231.943 1420.33 214.046 1398.25 214.046C1376.18 214.046 1358.28 231.943 1358.28 254.02Z" fill="#1E201F"/>
<path d="M1369.07 254.02C1369.07 270.137 1382.14 283.203 1398.25 283.203C1414.37 283.203 1427.44 270.137 1427.44 254.02C1427.44 237.903 1414.37 224.837 1398.25 224.837C1382.14 224.837 1369.07 237.903 1369.07 254.02Z" fill="#08A202"/>
<path d="M1283.81 306.4C1283.81 306.4 1270.73 354.723 1235.68 365.475C1211.3 373.036 1180.54 366.696 1164.16 362.127C1163.3 361.919 1162.54 361.443 1161.97 360.769C1161.4 360.094 1161.07 359.256 1161.01 358.377C1160.95 357.498 1161.18 356.623 1161.65 355.881C1162.13 355.139 1162.83 354.568 1163.65 354.251C1180.74 346.847 1211.62 328.927 1213.86 295.176C1225.2 295.526 1236.52 296.446 1247.77 297.932C1273.05 301.162 1283.81 306.4 1283.81 306.4Z" fill="#1E201F"/>
<path d="M1283.81 201.601C1283.81 201.601 1270.73 153.317 1235.68 142.526C1211.3 134.925 1180.54 141.305 1164.16 145.873C1163.3 146.081 1162.54 146.557 1161.97 147.232C1161.4 147.906 1161.07 148.744 1161.01 149.623C1160.95 150.503 1161.18 151.377 1161.65 152.119C1162.13 152.862 1162.83 153.433 1163.65 153.75C1180.74 161.115 1211.62 179.034 1213.86 212.825C1225.2 212.475 1236.52 211.555 1247.77 210.068C1273.05 206.839 1283.81 201.601 1283.81 201.601Z" fill="#1E201F"/>
<path d="M1283.81 254.02C1283.81 256.777 1282.71 259.422 1280.76 261.372C1278.81 263.322 1276.17 264.417 1273.41 264.417L1170.38 264.417C1167.94 264.417 1165.59 263.446 1163.87 261.718C1162.14 259.99 1161.17 257.646 1161.17 255.201L1161.17 252.878C1161.17 250.434 1162.14 248.09 1163.87 246.361C1165.59 244.633 1167.94 243.662 1170.38 243.662L1273.41 243.662C1276.17 243.662 1278.81 244.758 1280.76 246.707C1282.71 248.657 1283.81 251.302 1283.81 254.059L1283.81 254.02Z" fill="#1E201F"/>
<path d="M1501.01 282.218L1501.01 225.861C1509.03 231.687 1516.65 238.055 1523.81 244.922C1525.82 246.892 1527.75 248.861 1529.28 250.436C1530.23 251.395 1530.77 252.69 1530.77 254.04C1530.77 255.389 1530.23 256.684 1529.28 257.643C1527.63 259.337 1525.82 261.188 1523.81 263.078C1516.65 269.972 1509.04 276.367 1501.01 282.218Z" fill="#1E201F"/>
<path d="M1353.58 468.341C1368.44 457.01 1371.31 435.776 1359.97 420.912C1348.64 406.049 1327.41 403.186 1312.55 414.517C1297.68 425.848 1294.82 447.082 1306.15 461.945C1317.48 476.809 1338.72 479.672 1353.58 468.341Z" fill="#08A202" stroke="#263238" stroke-miterlimit="10"/>
<g opacity="0.28">
<path d="M1361.6 423.279L1300.29 449.67C1300.43 450.258 1300.59 450.845 1300.77 451.419L1362.58 424.818C1362.27 424.296 1361.93 423.788 1361.6 423.279Z" fill="black"/>
<path d="M1344.92 409.711C1344.05 409.385 1343.19 409.111 1342.31 408.863L1303.12 425.705C1303.03 425.888 1302.91 426.058 1302.82 426.24C1302.5 426.866 1302.24 427.545 1301.97 428.145L1344.92 409.711Z" fill="black"/>
<path d="M1321.56 473.205L1364.3 454.328C1364.61 453.545 1364.9 452.762 1365.16 451.98L1319.27 472.253C1320.02 472.592 1320.78 472.931 1321.56 473.205Z" fill="black"/>
<path d="M1355.08 415.764C1354.58 415.334 1354.07 414.903 1353.54 414.46L1299.27 438.921C1299.27 439.586 1299.27 440.225 1299.27 440.917L1355.08 415.764Z" fill="black"/>
<path d="M1301.36 453.167C1301.56 453.728 1301.77 454.289 1302.01 454.837L1363.98 427.636C1363.73 427.088 1363.44 426.566 1363.17 426.031L1301.36 453.167Z" fill="black"/>
<path d="M1362.44 458.111C1362.72 457.602 1363.04 457.12 1363.3 456.598C1363.56 456.076 1363.58 455.906 1363.74 455.567L1322.79 473.609C1323.7 473.896 1324.62 474.157 1325.53 474.366L1362.44 458.111Z" fill="black"/>
<path d="M1311.22 467.217L1366.82 443.735C1366.82 443.069 1366.82 442.43 1366.82 441.765L1309.67 465.912C1310.19 466.356 1310.72 466.787 1311.22 467.217Z" fill="black"/>
</g>
<path d="M1389.09 415.986C1386.09 409.307 1371.54 408.863 1352.56 413.755C1354.71 415.283 1356.68 417.056 1358.42 419.039C1365.37 418.23 1370.24 419.039 1371.61 421.648C1374.66 427.597 1359.14 440.538 1336.92 450.545C1314.7 460.551 1294.25 463.877 1291.15 457.928C1289.6 454.902 1292.88 450.101 1299.39 444.7C1299.14 442.178 1299.17 439.636 1299.48 437.12C1281.77 448.549 1271.42 460.472 1274.56 467.465C1278.96 477.249 1308.15 473.662 1339.79 459.455C1371.42 445.248 1393.48 425.771 1389.09 415.986Z" fill="white" stroke="#263238" stroke-miterlimit="10"/>
<path d="M1354.02 416.09C1368.71 412.816 1379.62 413.481 1381.9 418.634C1385.58 426.918 1365.84 443.708 1337.82 456.115C1309.8 468.522 1284.11 471.861 1280.42 463.564C1277.98 458.059 1285.87 448.796 1299.67 439.573" stroke="#263238" stroke-miterlimit="10"/>
<path d="M1630.81 185.548C1636.02 179.091 1635.01 169.635 1628.55 164.428C1622.09 159.221 1612.63 160.235 1607.43 166.693C1602.22 173.15 1603.23 182.606 1609.69 187.813C1616.15 193.02 1625.61 192.006 1630.81 185.548Z" fill="white" stroke="#263238" stroke-miterlimit="10"/>
<g opacity="0.21">
<path d="M1627.3 164.021C1627.68 164.06 1628.06 164.147 1628.42 164.281C1626.6 162.83 1624.46 161.823 1622.18 161.341C1621.09 162.421 1617.74 165.781 1615.63 168.341L1614.06 170.251L1611.06 173.901C1614.24 171.837 1617.32 169.614 1620.28 167.241C1622.63 165.151 1627.3 164.021 1627.3 164.021Z" fill="black"/>
<path d="M1632.27 168.841C1631.75 167.911 1631.14 167.036 1630.44 166.231C1629.77 167.252 1628.99 168.201 1628.12 169.061C1624.4 173.261 1622.12 173.171 1624.4 173.261C1626.35 173.341 1631.09 169.751 1632.27 168.841Z" fill="black"/>
<path d="M1634.06 174.591V177.111C1634.13 176.273 1634.13 175.43 1634.06 174.591Z" fill="black"/>
<path d="M1630.13 165.901C1629.98 165.731 1629.83 165.561 1629.66 165.391C1629.7 165.507 1629.76 165.612 1629.84 165.701C1629.92 165.789 1630.02 165.858 1630.13 165.901Z" fill="black"/>
<path d="M1634.04 177.741C1632.17 178.726 1630.38 179.856 1628.69 181.121C1626.32 182.951 1619.82 188.061 1619.82 188.061L1615.6 190.401C1615.46 190.454 1615.32 190.514 1615.19 190.581C1616.95 191.059 1618.78 191.212 1620.6 191.031C1622.49 190.431 1625.67 184.511 1632.69 182.471C1633.4 180.979 1633.85 179.381 1634.04 177.741Z" fill="black"/>
</g>
<g opacity="0.21">
<path d="M1623.51 177.171C1623.51 177.171 1611.13 183.761 1607.07 185.051C1607.84 186.081 1608.73 187.012 1609.73 187.821C1611.51 186.881 1613.53 185.722 1615.63 184.342C1621.31 180.582 1622.63 180.772 1626.13 177.872C1629.63 174.972 1623.51 177.171 1623.51 177.171Z" fill="black"/>
<path d="M1606.42 184.122C1608.08 182.352 1612.17 180.302 1612.66 176.992C1613.06 174.222 1607.84 178.162 1604.8 180.662C1605.19 181.879 1605.74 183.042 1606.42 184.122Z" fill="black"/>
</g>
<path d="M679.087 452.516C685.63 433.419 725.631 421.452 759.055 421.326C792.479 421.2 811.797 445.467 797.789 466.325C783.781 487.183 751.333 498.219 717.163 494.244C682.992 490.269 672.544 471.613 679.087 452.516Z" fill="#08A202"/>
<path d="M202.334 74.8842C215.291 62.3474 269.289 73.4962 312.032 91.0848C354.776 108.673 373.623 139.232 350.702 149.293C327.781 159.354 283.66 151.423 240.95 130.003C198.239 108.584 189.377 87.421 202.334 74.8842Z" fill="white"/>
<path d="M647.823 490.961C646.883 496.796 638.492 501.68 631.231 502.86C623.97 504.04 619.158 497.569 621.675 490.961C624.192 484.352 630.965 480 638.492 480C646.019 480 648.762 485.125 647.823 490.961Z" fill="#08A202"/>
<path d="M1090.96 61.4893C1090.8 59.8589 1090.16 58.3126 1089.12 57.0462C1088.08 55.7797 1086.69 54.8501 1085.12 54.375C1083.55 53.8999 1081.88 53.9006 1080.31 54.377C1078.75 54.8535 1077.36 55.7843 1076.32 57.0516C1075.28 58.319 1074.64 59.8658 1074.48 61.4964C1074.32 63.1269 1074.65 64.7679 1075.43 66.2116C1076.2 67.6552 1077.39 68.8367 1078.83 69.6064C1080.28 70.376 1081.92 70.6993 1083.55 70.5353C1085.73 70.3158 1087.74 69.2402 1089.13 67.5444C1090.51 65.8486 1091.17 63.671 1090.96 61.4893Z" fill="white" stroke="#263238" stroke-miterlimit="10"/>
<path d="M1063.26 84.5549C1071.15 74.6201 1069.49 60.1715 1059.55 52.2831C1049.62 44.3948 1035.17 46.0537 1027.28 55.9886C1019.39 65.9234 1021.05 80.372 1030.99 88.2603C1040.92 96.1487 1055.37 94.4898 1063.26 84.5549Z" fill="#08A202" stroke="#263238" stroke-miterlimit="10"/>
<path d="M1058.6 63.8775L1062.26 66.5407C1063.82 63.3565 1064.05 61.8223 1062.82 60.8236C1061.59 59.8249 1058.22 56.3802 1058.22 56.3802C1057.67 55.6563 1056.95 55.0796 1056.12 54.7009C1055.29 54.3223 1054.38 54.1534 1053.47 54.2092L1048.63 54.7013C1047.49 54.1868 1046.28 53.8593 1045.04 53.7316C1047.24 51.6474 1049 51.8934 1046.48 51.5171C1043.41 51.0684 1041.52 50.8947 1040.43 51.3724C1039.35 51.85 1037.89 52.3855 1036.44 52.9066C1035.05 53.1965 1033.73 53.7754 1032.58 54.6057C1031.43 55.436 1030.47 56.4991 1029.75 57.7262C1029.75 57.7262 1025.89 61.8657 1025.77 63.7038C1025.68 65.0064 1027.9 63.1538 1029.19 61.9815L1028.9 64.2249C1028.9 64.2249 1028.52 68.0314 1030.46 68.567L1032.4 69.117C1033.64 70.1278 1035.15 70.7651 1036.74 70.9551C1036.74 70.9551 1037.9 71.2156 1037.76 73.488C1037.69 75.2453 1037.74 77.0053 1037.9 78.7563C1037.9 78.7563 1036.79 78.8721 1039.35 81.6511C1041.04 83.4676 1042.85 85.1741 1044.76 86.7602C1044.76 86.7602 1046.96 89.9444 1047.48 87.6286C1048 85.3128 1049.2 82.1721 1048.71 81.0866C1048.22 80.001 1051.03 81.6076 1048.23 80.001C1046.47 78.9723 1044.83 77.7436 1043.34 76.3392C1041.17 73.5458 1040.72 76.5998 1041.17 73.5459C1041.62 70.4919 1041.81 68.5814 1041.81 68.5814C1040.23 67.3443 1038.31 66.6129 1036.31 66.4828C1034.86 62.8644 1033.92 61.4459 1034.98 60.5775C1034.98 60.5775 1035.74 62.6907 1036.68 62.9078C1037.63 63.1249 1037.64 60.3749 1037.64 60.3749L1040.53 55.8736C1040.53 55.8736 1042.88 56.5249 1043.86 55.1644C1044.08 55.9638 1044.1 56.8047 1043.92 57.6126C1043.73 58.4205 1043.35 59.1705 1042.81 59.796L1043.15 63.1538L1048.71 62.2275L1046.44 65.8459L1045.38 70.2893L1046.37 72.6485L1049.99 74.9208L1055.25 82.3168C1056.65 81.9777 1057.9 81.1895 1058.8 80.0734C1059.88 78.5521 1060.61 76.8057 1060.93 74.9642C1061.12 73.0537 1062.16 72.1998 1060.93 70.8103L1059.67 69.363C1059.67 69.363 1057.27 68.0893 1057.53 66.9314C1057.81 65.889 1058.17 64.8683 1058.6 63.8775Z" fill="#263238"/>
</svg>
